<svg xmlns="http://www.w3.org/2000/svg" xmlns:xlink="http://www.w3.org/1999/xlink" width="317.44" height="301.44" viewBox="0 0 238.08 226.08"><clipPath id="a"><path transform="scale(.24)" d="M0 0h991.667v940.735H0z" fill-rule="evenodd"/></clipPath><g clip-path="url(#a)"><path d="M0 0h238v225.776H0z" fill="#fff"/></g><clipPath id="b"><path transform="scale(.24)" d="M0 0h991.667v937.74H0z" fill-rule="evenodd"/></clipPath><g clip-path="url(#b)"><path d="m54.359-.043 134.323 2.236-2.071 91.324-133.74.827" fill="#fff"/><path stroke-linecap="round" stroke-linejoin="round" fill="none" stroke="#000" d="M54.287 1.079c31.58.093 65.367.848 133.021 0m-133.021 0c45.033-1.259 91.605-1.51 133.021 0m0 0c-.1 30.192.575 64.396 0 93.474m0-93.474c-.489 19.076.49 37.979 0 93.474m0 0c-34.47-.561-70.66-.798-133.021 0m133.021 0c-48.463-.877-96.135-1.036-133.021 0m0 0c-1.114-26.892.41-53.338 0-93.474m0 93.474c.978-33.6.201-66.504 0-93.474" stroke-width=".71903"/><symbol id="c"><path d="M0 .717h.498V.63h-.4V.412h.351V.326H.097V0H0v.717z"/></symbol><symbol id="d"><path d="M0 .52h.09V0H0v.52m0 .197h.09v-.1H0v.1z"/></symbol><symbol id="e"><path d="M0 .523h.083v-.09a.198.198 0 0 0 .05.064.13.13 0 0 0 .101.037c.004 0 .011 0 .02-.002V.44a.13.13 0 0 1-.028.003.125.125 0 0 1-.102-.043A.148.148 0 0 1 .088.3V0H0v.523z"/></symbol><symbol id="f"><path d="M0 .523h.087V.449c.02.025.04.044.057.056a.17.17 0 0 0 .098.03c.042 0 .075-.01.1-.031a.16.16 0 0 0 .04-.052C.402.48.424.501.45.514a.19.19 0 0 0 .089.02C.61.535.658.51.683.459a.249.249 0 0 0 .02-.11V0h-.09v.363c0 .035-.01.059-.027.072a.102.102 0 0 1-.064.02A.127.127 0 0 1 .433.42C.408.397.396.358.396.304V0h-.09v.341A.177.177 0 0 1 .295.42C.28.443.256.456.219.456A.13.13 0 0 1 .13.417C.1.391.087.345.087.277V0H0v.523z"/></symbol><symbol id="g"><path d="M0 0z"/></symbol><use xlink:href="#c" transform="matrix(14.38066 0 0 -14.38066 76.705 35.233)"/><use xlink:href="#d" transform="matrix(14.38066 0 0 -14.38066 85.19 35.233)"/><use xlink:href="#e" transform="matrix(14.38066 0 0 -14.38066 88.417 35.233)"/><use xlink:href="#f" transform="matrix(14.38066 0 0 -14.38066 93.17 35.233)"/><use xlink:href="#g" transform="matrix(14.38066 0 0 -14.38066 104.223 35.233)"/></g><clipPath id="h"><path transform="scale(.24)" d="M452.392 89.88h23.968v62.915h-23.968z" fill-rule="evenodd"/></clipPath><g clip-path="url(#h)"><path d="M111.637 24.2c0-.292.106-.547.317-.765.21-.219.455-.334.732-.346.2 0 .367.073.5.218a.845.845 0 0 1 .216.546c0 .28-.11.534-.333.765-.222.23-.466.352-.732.364a.711.711 0 0 1-.466-.182c-.145-.122-.222-.322-.234-.6zm-2.713 5.696c0-.097.05-.285.15-.564.1-.28.233-.589.4-.928.166-.34.41-.65.732-.929s.654-.412.999-.4c.432 0 .793.14 1.082.419.288.279.438.655.45 1.128 0 .206-.078.546-.234 1.02a74.69 74.69 0 0 1-.666 1.91c-.288.801-.521 1.487-.699 2.057a3.241 3.241 0 0 0-.083.583c0 .303.094.455.283.455.1 0 .205-.018.316-.055.111-.036.239-.121.383-.255.144-.133.294-.345.45-.637.155-.29.294-.649.416-1.074.033-.145.06-.23.083-.254.022-.025.117-.037.283-.037.222 0 .333.06.333.182 0 .097-.05.285-.15.564-.1.28-.238.589-.416.929-.178.34-.427.643-.75.91-.321.267-.665.4-1.031.4-.356 0-.683-.127-.983-.382-.3-.255-.455-.643-.466-1.165 0-.206.028-.4.083-.582.056-.182.294-.874.716-2.075.422-1.226.666-1.96.733-2.203.066-.242.105-.479.116-.71 0-.29-.094-.436-.283-.436h-.033c-.333 0-.638.2-.916.6-.277.4-.488.91-.632 1.53a.214.214 0 0 0-.034.054.15.15 0 0 0-.016.054c0 .013-.011.025-.034.037a.12.12 0 0 1-.05.018H109.024c-.067-.073-.1-.127-.1-.164z"/><path fill="none" d="M111.637 24.2c0-.292.106-.547.317-.765.21-.219.455-.334.732-.346.2 0 .367.073.5.218a.845.845 0 0 1 .216.546c0 .28-.11.534-.333.765-.222.23-.466.352-.732.364a.711.711 0 0 1-.466-.182c-.145-.122-.222-.322-.234-.6zm-2.713 5.696c0-.097.05-.285.15-.564.1-.28.233-.589.4-.928.166-.34.41-.65.732-.929s.654-.412.999-.4c.432 0 .793.14 1.082.419.288.279.438.655.45 1.128 0 .206-.078.546-.234 1.02a74.69 74.69 0 0 1-.666 1.91c-.288.801-.521 1.487-.699 2.057a3.241 3.241 0 0 0-.083.583c0 .303.094.455.283.455.1 0 .205-.018.316-.055.111-.036.239-.121.383-.255.144-.133.294-.345.45-.637.155-.29.294-.649.416-1.074.033-.145.06-.23.083-.254.022-.025.117-.037.283-.037.222 0 .333.06.333.182 0 .097-.05.285-.15.564-.1.28-.238.589-.416.929-.178.34-.427.643-.75.91-.321.267-.665.4-1.031.4-.356 0-.683-.127-.983-.382-.3-.255-.455-.643-.466-1.165 0-.206.028-.4.083-.582.056-.182.294-.874.716-2.075.422-1.226.666-1.96.733-2.203.066-.242.105-.479.116-.71 0-.29-.094-.436-.283-.436h-.033c-.333 0-.638.2-.916.6-.277.4-.488.91-.632 1.53a.214.214 0 0 0-.034.054.15.15 0 0 0-.016.054c0 .013-.011.025-.034.037a.12.12 0 0 1-.05.018H109.024c-.067-.073-.1-.127-.1-.164z"/></g><clipPath id="i"><path transform="scale(.24)" d="M0 0h991.667v937.74H0z" fill-rule="evenodd"/></clipPath><g clip-path="url(#i)"><symbol id="j"><path d="M.092.157C.092.13.102.11.12.097A.103.103 0 0 1 .186.075a.2.2 0 0 1 .09.021.12.12 0 0 1 .073.117v.07A.15.15 0 0 0 .307.268a.354.354 0 0 0-.05-.01L.204.25A.204.204 0 0 1 .132.23C.105.215.092.19.092.157m.213.177c.02.003.033.012.04.026a.077.077 0 0 1 .006.034c0 .03-.01.051-.032.064A.169.169 0 0 1 .228.48C.182.479.149.467.13.442A.122.122 0 0 1 .109.38H.027c.001.064.022.11.062.134.04.026.087.038.14.038A.285.285 0 0 0 .38.518C.417.495.437.458.437.408v-.3A.04.04 0 0 1 .442.084C.446.08.454.077.466.077A.2.2 0 0 1 .495.08V.015A.245.245 0 0 0 .463.008.228.228 0 0 0 .434.006C.404.006.382.017.368.04a.124.124 0 0 0-.015.048A.239.239 0 0 0 .165 0a.166.166 0 0 0-.12.044.148.148 0 0 0-.045.11c0 .05.015.087.045.114.03.026.07.043.12.049l.14.017m-.073.22z"/></symbol><symbol id="k"><path d="M.237.553A.227.227 0 0 0 .381.51C.418.482.44.432.448.362H.362a.156.156 0 0 1-.035.08C.308.464.278.475.237.475.181.475.141.447.117.393A.326.326 0 0 1 .094.26C.094.21.104.165.127.13.149.093.184.075.231.075c.037 0 .066.011.087.033A.184.184 0 0 1 .362.2h.086C.438.13.414.08.375.048A.23.23 0 0 0 .225 0 .2.2 0 0 0 .06.075.288.288 0 0 0 0 .262c0 .092.022.163.067.215a.216.216 0 0 0 .17.076M.224.551z"/></symbol><symbol id="l"><path d="M.092.463C.092.418.098.38.11.349A.121.121 0 0 1 .23.268c.062 0 .104.028.127.086a.328.328 0 0 1 .019.12.27.27 0 0 1-.021.114C.332.64.29.666.23.666a.123.123 0 0 1-.098-.05C.105.583.092.532.092.463m.13.28A.18.18 0 0 0 .332.71.194.194 0 0 0 .377.66V.73H.46V0H.373v.269A.16.16 0 0 0 .312.212a.204.204 0 0 0-.097-.02.207.207 0 0 0-.15.065C.023.301 0 .367 0 .457 0 .54.02.609.062.663c.04.053.094.08.16.08z"/></symbol><symbol id="m"><path d="M.09.537V.19C.09.163.094.14.103.125.118.093.147.078.19.078.25.078.293.105.315.16c.012.029.018.07.018.12v.257h.088V.014H.338v.077a.177.177 0 0 0-.042-.05A.187.187 0 0 0 .174 0C.1 0 .05.025.022.075A.222.222 0 0 0 0 .182v.355h.09M.21.55z"/></symbol><symbol id="n"><path d="M.247.553A.237.237 0 0 0 .435.46.233.233 0 0 0 .47.367.604.604 0 0 0 .478.252H.094A.225.225 0 0 1 .132.124C.155.092.192.076.24.076a.14.14 0 0 1 .143.107H.47A.182.182 0 0 0 .447.118a.205.205 0 0 0-.142-.11A.301.301 0 0 0 .233 0a.22.22 0 0 0-.165.07.277.277 0 0 0-.068.2.3.3 0 0 0 .068.205.226.226 0 0 0 .18.078m.14-.231a.228.228 0 0 1-.026.091C.338.455.298.477.242.477A.133.133 0 0 1 .14.433.164.164 0 0 1 .097.322h.29M.24.554z"/></symbol><use xlink:href="#g" transform="matrix(14.38066 0 0 -14.38066 114.236 35.233)"/><use xlink:href="#j" transform="matrix(14.38066 0 0 -14.38066 118.81 35.485)"/><use xlink:href="#k" transform="matrix(14.38066 0 0 -14.38066 126.644 35.45)"/><use xlink:href="#l" transform="matrix(14.38066 0 0 -14.38066 133.841 38.23)"/><use xlink:href="#m" transform="matrix(14.38066 0 0 -14.38066 142.315 35.436)"/><use xlink:href="#d" transform="matrix(14.38066 0 0 -14.38066 150.338 35.233)"/><use xlink:href="#e" transform="matrix(14.38066 0 0 -14.38066 153.566 35.233)"/><use xlink:href="#n" transform="matrix(14.38066 0 0 -14.38066 157.898 35.5)"/><symbol id="o"><path d="M.228.268c.04 0 .075.017.102.05.027.035.04.087.04.155a.288.288 0 0 1-.017.108C.33.638.288.667.228.667.167.667.125.637.103.576a.362.362 0 0 1 0-.227C.125.295.167.268.228.268M0 .729h.085v-.07a.213.213 0 0 0 .058.056c.03.02.065.03.105.03.059 0 .11-.024.15-.07C.44.632.46.566.46.482.46.368.43.286.371.237A.202.202 0 0 0 .24.191.179.179 0 0 0 .14.217a.228.228 0 0 0-.052.05V0H0v.729z"/></symbol><symbol id="p"><path d="M.243.076c.058 0 .098.022.12.066a.33.33 0 0 1 .033.147.262.262 0 0 1-.024.12C.347.455.305.48.244.48.19.48.151.46.127.42A.285.285 0 0 1 .09.27C.09.215.103.168.127.13.151.094.19.076.243.076m.004.481A.237.237 0 0 0 .417.49C.464.445.487.379.487.292a.34.34 0 0 0-.061-.21C.385.029.32 0 .235 0a.216.216 0 0 0-.172.073A.29.29 0 0 0 0 .269c0 .088.022.158.067.21a.225.225 0 0 0 .18.078M.244.555z"/></symbol><symbol id="q"><path d="M.093.274a.26.26 0 0 1 .035-.14C.152.095.19.076.243.076a.12.12 0 0 1 .1.052c.026.035.04.085.04.15 0 .067-.014.116-.041.147a.126.126 0 0 1-.1.048.133.133 0 0 1-.108-.05C.106.388.093.34.093.273M.225.55C.265.55.3.542.325.525A.236.236 0 0 0 .38.475v.263h.084v-.72H.384v.073a.19.19 0 0 0-.072-.07A.208.208 0 0 0 .215 0a.195.195 0 0 0-.151.073A.288.288 0 0 0 0 .27c0 .076.02.142.058.198.04.056.095.084.167.084z"/></symbol><symbol id="r"><path d="M.07.677h.09V.531h.083V.46H.16V.12c0-.02.006-.031.018-.037A.079.079 0 0 1 .212.076h.014l.017.002v-.07A.293.293 0 0 0 .176 0C.136 0 .107.01.093.031A.141.141 0 0 0 .07.113V.46H0v.072h.07v.146z"/></symbol><symbol id="s"><path d="m.102.523.14-.426.146.426h.096L.287 0H.193L0 .523h.102z"/></symbol><symbol id="t"><path d="M.38.737h.098a30.94 30.94 0 0 1-.082-.23 11.38 11.38 0 0 0-.08-.219A1.485 1.485 0 0 0 .207.044C.188.014.151 0 .101 0a.217.217 0 0 0-.054.007v.08A.303.303 0 0 1 .1.077c.016 0 .028.003.035.009a.07.07 0 0 1 .02.02A2.483 2.483 0 0 1 .194.2L0 .736h.1L.24.312l.14.425M.24.75z"/></symbol><symbol id="u"><path d="M.073.603a.157.157 0 0 0 .019.08c.02.03.06.045.118.045A.308.308 0 0 0 .248.726v-.08a.314.314 0 0 1-.032.001C.19.647.174.64.168.626A.407.407 0 0 1 .161.521h.087V.45H.16V0H.073v.451H0v.07h.073v.082z"/></symbol><use xlink:href="#o" transform="matrix(14.38066 0 0 -14.38066 62.53 55.488)"/><use xlink:href="#e" transform="matrix(14.38066 0 0 -14.38066 70.66 52.49)"/><use xlink:href="#p" transform="matrix(14.38066 0 0 -14.38066 74.9 52.763)"/><use xlink:href="#q" transform="matrix(14.38066 0 0 -14.38066 82.875 52.756)"/><use xlink:href="#m" transform="matrix(14.38066 0 0 -14.38066 91.377 52.693)"/><use xlink:href="#k" transform="matrix(14.38066 0 0 -14.38066 98.888 52.707)"/><use xlink:href="#r" transform="matrix(14.38066 0 0 -14.38066 105.825 52.609)"/><use xlink:href="#d" transform="matrix(14.38066 0 0 -14.38066 110.588 52.49)"/><use xlink:href="#s" transform="matrix(14.38066 0 0 -14.38066 112.931 52.49)"/><use xlink:href="#d" transform="matrix(14.38066 0 0 -14.38066 120.971 52.49)"/><use xlink:href="#r" transform="matrix(14.38066 0 0 -14.38066 123.398 52.609)"/><use xlink:href="#t" transform="matrix(14.38066 0 0 -14.38066 127.382 55.572)"/><use xlink:href="#g" transform="matrix(14.38066 0 0 -14.38066 134.425 52.49)"/><use xlink:href="#u" transform="matrix(14.38066 0 0 -14.38066 138.62 52.49)"/><use xlink:href="#e" transform="matrix(14.38066 0 0 -14.38066 143.383 52.49)"/><use xlink:href="#p" transform="matrix(14.38066 0 0 -14.38066 147.624 52.763)"/><use xlink:href="#f" transform="matrix(14.38066 0 0 -14.38066 156.132 52.49)"/><use xlink:href="#g" transform="matrix(14.38066 0 0 -14.38066 167.184 52.49)"/><use xlink:href="#j" transform="matrix(14.38066 0 0 -14.38066 171.758 52.742)"/><symbol id="v"><path d="M.45.685C.493.639.514.57.514.482.514.39.493.317.451.268A.204.204 0 0 0 .288.194a.17.17 0 0 0-.105.032.205.205 0 0 0-.045.051V0H0v.742h.133V.663c.015.023.031.041.048.055.031.024.068.035.11.035A.21.21 0 0 0 .45.685M.37.475c0 .042-.009.078-.028.11C.324.615.293.631.252.631.2.632.165.608.146.56A.272.272 0 0 1 .133.463c0-.061.016-.105.05-.13A.112.112 0 0 1 .25.311.1.1 0 0 1 .34.356c.02.03.03.07.03.12z"/></symbol><symbol id="w"><path d="M.498.174a.177.177 0 0 0-.05-.096A.242.242 0 0 0 .257 0a.27.27 0 0 0-.18.065C.027.11 0 .18 0 .278 0 .37.023.441.07.49a.24.24 0 0 0 .182.074.279.279 0 0 0 .12-.025A.21.21 0 0 0 .459.46.268.268 0 0 0 .5.35.71.71 0 0 0 .504.246H.14C.142.192.16.155.19.133a.118.118 0 0 1 .07-.02.1.1 0 0 1 .07.024c.01.009.018.021.025.037h.143M.36.337A.12.12 0 0 1 .326.42a.103.103 0 0 1-.074.03.095.095 0 0 1-.075-.031.152.152 0 0 1-.033-.082H.36z"/></symbol><symbol id="x"><path d="M.269.404C.213.404.175.386.156.349A.213.213 0 0 1 .14.254V0H0v.532h.133V.44c.021.036.04.06.056.073a.153.153 0 0 0 .108.032h.012V.4a.377.377 0 0 1-.04.003z"/></symbol><use xlink:href="#v" transform="matrix(14.38066 0 0 -14.38066 99.734 72.759)"/><use xlink:href="#w" transform="matrix(14.38066 0 0 -14.38066 107.972 69.999)"/><use xlink:href="#w" transform="matrix(14.38066 0 0 -14.38066 115.968 69.999)"/><use xlink:href="#x" transform="matrix(14.38066 0 0 -14.38066 124.547 69.746)"/></g><clipPath id="y"><path transform="scale(.24)" d="M551.259 251.662h41.943v56.923H551.26z" fill-rule="evenodd"/></clipPath><g clip-path="url(#y)"><path d="M133.444 64.237c.013-.036.025-.085.037-.146.013-.061.044-.195.093-.403.05-.207.112-.397.186-.568.074-.17.167-.372.279-.604.111-.232.235-.415.371-.55.136-.134.297-.268.483-.402a.855.855 0 0 1 .613-.165c.929 0 1.523.39 1.783 1.172l.186-.165c.767-.671 1.498-1.007 2.191-1.007.805 0 1.437.287 1.895.86.458.575.687 1.27.687 2.088 0 1.319-.47 2.533-1.412 3.644-.94 1.111-2.006 1.673-3.194 1.685a2.2 2.2 0 0 1-.725-.11 1.926 1.926 0 0 1-.427-.274 5.404 5.404 0 0 1-.353-.312l-.13-.146c-.012.012-.148.543-.408 1.593-.26 1.05-.39 1.58-.39 1.593 0 .073.05.116.148.128.1.012.328.03.688.055h.464c.074.086.111.14.111.165 0 .024-.018.134-.055.33-.038.146-.075.238-.112.274-.037.037-.118.061-.241.073h-.205c-.111 0-.322-.006-.631-.018-.31-.012-.693-.018-1.152-.018-.866 0-1.417.012-1.653.036h-.148c-.087-.085-.13-.152-.13-.201.025-.33.105-.543.241-.64h.372c.42-.013.662-.086.724-.22.037-.074.415-1.533 1.133-4.377a529.59 529.59 0 0 0 1.133-4.523c.012-.061.019-.147.019-.257 0-.5-.155-.75-.465-.75-.272 0-.501.17-.687.512a4.657 4.657 0 0 0-.427 1.117c-.1.403-.174.623-.223.66-.025.024-.124.036-.297.036h-.26c-.075-.073-.112-.128-.112-.165zm2.88 3.388c.272.928.73 1.392 1.373 1.392.372 0 .731-.14 1.078-.421.346-.281.631-.635.854-1.062.223-.415.446-1.075.669-1.978.223-.903.34-1.575.353-2.014v-.11c0-.904-.378-1.355-1.133-1.355-.137 0-.273.018-.409.055a1.91 1.91 0 0 0-.409.164c-.136.074-.26.153-.371.238a3.37 3.37 0 0 0-.316.275l-.278.275c-.087.085-.155.17-.205.256a.6.6 0 0 1-.148.183l-.056.074c0 .012-.019.097-.056.256-.037.159-.105.427-.204.806-.099.378-.186.695-.26.952-.322 1.294-.483 1.965-.483 2.014z"/><path fill="none" d="M133.444 64.237c.013-.036.025-.085.037-.146.013-.061.044-.195.093-.403.05-.207.112-.397.186-.568.074-.17.167-.372.279-.604.111-.232.235-.415.371-.55.136-.134.297-.268.483-.402a.855.855 0 0 1 .613-.165c.929 0 1.523.39 1.783 1.172l.186-.165c.767-.671 1.498-1.007 2.191-1.007.805 0 1.437.287 1.895.86.458.575.687 1.27.687 2.088 0 1.319-.47 2.533-1.412 3.644-.94 1.111-2.006 1.673-3.194 1.685a2.2 2.2 0 0 1-.725-.11 1.926 1.926 0 0 1-.427-.274 5.404 5.404 0 0 1-.353-.312l-.13-.146c-.012.012-.148.543-.408 1.593-.26 1.05-.39 1.58-.39 1.593 0 .073.05.116.148.128.1.012.328.03.688.055h.464c.074.086.111.14.111.165 0 .024-.018.134-.055.33-.038.146-.075.238-.112.274-.037.037-.118.061-.241.073h-.205c-.111 0-.322-.006-.631-.018-.31-.012-.693-.018-1.152-.018-.866 0-1.417.012-1.653.036h-.148c-.087-.085-.13-.152-.13-.201.025-.33.105-.543.241-.64h.372c.42-.013.662-.086.724-.22.037-.074.415-1.533 1.133-4.377a529.59 529.59 0 0 0 1.133-4.523c.012-.061.019-.147.019-.257 0-.5-.155-.75-.465-.75-.272 0-.501.17-.687.512a4.657 4.657 0 0 0-.427 1.117c-.1.403-.174.623-.223.66-.025.024-.124.036-.297.036h-.26c-.075-.073-.112-.128-.112-.165zm2.88 3.388c.272.928.73 1.392 1.373 1.392.372 0 .731-.14 1.078-.421.346-.281.631-.635.854-1.062.223-.415.446-1.075.669-1.978.223-.903.34-1.575.353-2.014v-.11c0-.904-.378-1.355-1.133-1.355-.137 0-.273.018-.409.055a1.91 1.91 0 0 0-.409.164c-.136.074-.26.153-.371.238a3.37 3.37 0 0 0-.316.275l-.278.275c-.087.085-.155.17-.205.256a.6.6 0 0 1-.148.183l-.056.074c0 .012-.019.097-.056.256-.037.159-.105.427-.204.806-.099.378-.186.695-.26.952-.322 1.294-.483 1.965-.483 2.014z"/></g><clipPath id="z"><path transform="scale(.24)" d="M0 0h991.667v937.74H0z" fill-rule="evenodd"/></clipPath><g clip-path="url(#z)"><path d="m62.642 116.606 111.745-1.007 2.028 66.022-113.773.431" fill="#fff"/><path stroke-linecap="round" stroke-linejoin="round" fill="none" stroke="#000" d="M61.477 116.124c29.07.733 54.575-1.244 114.327 0m-114.327 0c24.829.647 50.03 1.265 114.327 0m0 0c-1.13 24.325 1.603 47.255 0 64.713m0-64.713c.525 24.31.711 49.886 0 64.713m0 0c-25.49.597-53.712-1.445-114.327 0m114.327 0c-24.03-.424-45.99.057-114.327 0m0 0c1.295-14.992.324-28.222 0-64.713m0 64.713c-.776-20.19 0-39.748 0-64.713" stroke-width=".71903"/><symbol id="A"><path d="M0 .717h.323A.218.218 0 0 0 .477.663.195.195 0 0 0 .536.512.221.221 0 0 0 .483.365C.45.324.395.303.323.303H.097V0H0v.717M.438.511C.438.564.417.6.378.62a.212.212 0 0 1-.087.015H.097V.385h.194c.043 0 .078.01.105.028.028.019.041.051.041.098z"/></symbol><use xlink:href="#A" transform="matrix(14.38066 0 0 -14.38066 65.964 144.526)"/><use xlink:href="#e" transform="matrix(14.38066 0 0 -14.38066 75.29 144.526)"/><use xlink:href="#p" transform="matrix(14.38066 0 0 -14.38066 79.53 144.8)"/><use xlink:href="#q" transform="matrix(14.38066 0 0 -14.38066 87.505 144.792)"/><use xlink:href="#m" transform="matrix(14.38066 0 0 -14.38066 96.006 144.73)"/><use xlink:href="#k" transform="matrix(14.38066 0 0 -14.38066 103.517 144.743)"/><use xlink:href="#r" transform="matrix(14.38066 0 0 -14.38066 110.455 144.645)"/><use xlink:href="#d" transform="matrix(14.38066 0 0 -14.38066 115.218 144.526)"/><use xlink:href="#s" transform="matrix(14.38066 0 0 -14.38066 117.561 144.526)"/><use xlink:href="#d" transform="matrix(14.38066 0 0 -14.38066 125.6 144.526)"/><use xlink:href="#r" transform="matrix(14.38066 0 0 -14.38066 128.028 144.645)"/><use xlink:href="#t" transform="matrix(14.38066 0 0 -14.38066 132.012 147.608)"/><use xlink:href="#g" transform="matrix(14.38066 0 0 -14.38066 139.055 144.526)"/><use xlink:href="#u" transform="matrix(14.38066 0 0 -14.38066 143.25 144.526)"/><use xlink:href="#e" transform="matrix(14.38066 0 0 -14.38066 148.012 144.526)"/><use xlink:href="#p" transform="matrix(14.38066 0 0 -14.38066 152.253 144.8)"/><use xlink:href="#f" transform="matrix(14.38066 0 0 -14.38066 160.762 144.526)"/><symbol id="B"><path d="M0 .523h.083V.449a.21.21 0 0 0 .17.086C.33.535.38.509.406.457A.276.276 0 0 0 .426.335V0h-.09v.33a.178.178 0 0 1-.013.077C.307.439.279.456.238.456A.173.173 0 0 1 .187.449.132.132 0 0 1 .123.406.132.132 0 0 1 .094.353a.37.37 0 0 1-.006-.08V0H0v.523m.207.013z"/></symbol><symbol id="C"><path d="M0 .516h.102V.41H0v.106m0-.41h.102V0H0v.106z"/></symbol><use xlink:href="#d" transform="matrix(14.38066 0 0 -14.38066 90.435 161.782)"/><use xlink:href="#f" transform="matrix(14.38066 0 0 -14.38066 93.628 161.782)"/><use xlink:href="#d" transform="matrix(14.38066 0 0 -14.38066 105.607 161.782)"/><use xlink:href="#r" transform="matrix(14.38066 0 0 -14.38066 108.034 161.902)"/><use xlink:href="#j" transform="matrix(14.38066 0 0 -14.38066 112.446 162.035)"/><use xlink:href="#r" transform="matrix(14.38066 0 0 -14.38066 120.027 161.902)"/><use xlink:href="#d" transform="matrix(14.38066 0 0 -14.38066 124.79 161.782)"/><use xlink:href="#p" transform="matrix(14.38066 0 0 -14.38066 127.47 162.056)"/><use xlink:href="#B" transform="matrix(14.38066 0 0 -14.38066 135.979 161.782)"/><use xlink:href="#C" transform="matrix(14.38066 0 0 -14.38066 144.642 161.782)"/><path d="m24.915 187.236 186.222 1.496.388 34.974-185.13.043" fill="#fff"/><path stroke-linecap="round" stroke-linejoin="round" fill="none" stroke="#000" d="M25.526 188.027c45.924.841 91.267-.618 186.948 0m-186.948 0c53.481.08 107.474.13 186.948 0m0 0c1.136 6.364.173 14.575 0 35.952m0-35.952c.008 12.267-.604 25.813 0 35.952m0 0c-72.902-1.215-146.51.316-186.948 0m186.948 0c-45.651-.237-92.065-.496-186.948 0m0 0c.453-13.698-.137-27.18 0-35.952m0 35.952c.143-9.578-.396-18.573 0-35.952" stroke-width=".71903"/></g><clipPath id="D"><path transform="scale(.24)" d="M209.718 802.92h569.235v110.851H209.718z" fill-rule="evenodd"/></clipPath><g clip-path="url(#D)"><path d="M50.712 203.073c.012-.036.024-.084.035-.144.012-.06.041-.19.088-.394.046-.203.105-.388.174-.555.07-.167.158-.364.263-.591.104-.227.221-.406.35-.538.127-.131.279-.263.453-.394a.782.782 0 0 1 .577-.161c.28 0 .53.042.752.125a1.37 1.37 0 0 1 .804.717c.058.131.104.245.14.34l.034.126c0 .023.006.035.018.035l.192-.197c.71-.764 1.52-1.146 2.43-1.146.628 0 1.135.161 1.52.483.384.323.582.795.594 1.416v.179c0 .287-.373 1.917-1.119 4.891-.676 2.807-1.037 4.252-1.083 4.336-.152.323-.414.484-.787.484a.55.55 0 0 1-.384-.144.63.63 0 0 1-.192-.394c0-.107.343-1.558 1.03-4.353l1.084-4.48c.035-.179.053-.406.053-.68 0-.705-.257-1.057-.77-1.057h-.087c-1.002 0-1.846.603-2.534 1.81l-.122.214-.577 2.4c-.384 1.566-.606 2.408-.664 2.527-.151.323-.402.484-.751.484a.586.586 0 0 1-.367-.108.64.64 0 0 1-.192-.215c-.035-.071-.047-.131-.035-.179 0-.155.233-1.182.699-3.081.466-1.9.699-2.957.699-3.172 0-.465-.152-.698-.455-.698-.244 0-.454.167-.629.501a5.285 5.285 0 0 0-.42 1.093c-.104.394-.168.61-.191.645-.024.024-.117.036-.28.036h-.245c-.07-.072-.105-.125-.105-.161z"/><path fill="none" d="M50.712 203.073c.012-.036.024-.084.035-.144.012-.06.041-.19.088-.394.046-.203.105-.388.174-.555.07-.167.158-.364.263-.591.104-.227.221-.406.35-.538.127-.131.279-.263.453-.394a.782.782 0 0 1 .577-.161c.28 0 .53.042.752.125a1.37 1.37 0 0 1 .804.717c.058.131.104.245.14.34l.034.126c0 .023.006.035.018.035l.192-.197c.71-.764 1.52-1.146 2.43-1.146.628 0 1.135.161 1.52.483.384.323.582.795.594 1.416v.179c0 .287-.373 1.917-1.119 4.891-.676 2.807-1.037 4.252-1.083 4.336-.152.323-.414.484-.787.484a.55.55 0 0 1-.384-.144.63.63 0 0 1-.192-.394c0-.107.343-1.558 1.03-4.353l1.084-4.48c.035-.179.053-.406.053-.68 0-.705-.257-1.057-.77-1.057h-.087c-1.002 0-1.846.603-2.534 1.81l-.122.214-.577 2.4c-.384 1.566-.606 2.408-.664 2.527-.151.323-.402.484-.751.484a.586.586 0 0 1-.367-.108.64.64 0 0 1-.192-.215c-.035-.071-.047-.131-.035-.179 0-.155.233-1.182.699-3.081.466-1.9.699-2.957.699-3.172 0-.465-.152-.698-.455-.698-.244 0-.454.167-.629.501a5.285 5.285 0 0 0-.42 1.093c-.104.394-.168.61-.191.645-.024.024-.117.036-.28.036h-.245c-.07-.072-.105-.125-.105-.161z"/><path d="M60.023 194.32c0-.237.074-.423.222-.558a.778.778 0 0 1 .544-.203c.19.017.354.09.494.216s.21.308.21.544c0 .254-.07.444-.21.57a.745.745 0 0 1-.519.19.745.745 0 0 1-.519-.19c-.14-.126-.214-.316-.222-.57zm2.2 7.714c-.124-.026-.553-.038-1.286-.038h-.457c-.214 0-.42.008-.618.025l-.271.013h-.1v-.583h.198c.231 0 .433-.013.606-.038.074-.034.12-.08.136-.14.016-.059.024-.236.024-.531v-2.42c0-.439-.008-.718-.024-.836-.017-.118-.074-.198-.173-.24-.116-.06-.31-.09-.58-.09h-.137v-.29c0-.195.008-.292.025-.292l.123-.013c.083-.008.198-.016.346-.025l.445-.025.445-.026a2.61 2.61 0 0 0 .358-.038c.083-.016.128-.02.136-.012h.037v4.813c.041.085.09.135.149.152.057.017.201.034.432.05h.284v.584h-.099z"/><path fill="none" d="M60.023 194.32c0-.237.074-.423.222-.558a.778.778 0 0 1 .544-.203c.19.017.354.09.494.216s.21.308.21.544c0 .254-.07.444-.21.57a.745.745 0 0 1-.519.19.745.745 0 0 1-.519-.19c-.14-.126-.214-.316-.222-.57zm2.2 7.714c-.124-.026-.553-.038-1.286-.038h-.457c-.214 0-.42.008-.618.025l-.271.013h-.1v-.583h.198c.231 0 .433-.013.606-.038.074-.034.12-.08.136-.14.016-.059.024-.236.024-.531v-2.42c0-.439-.008-.718-.024-.836-.017-.118-.074-.198-.173-.24-.116-.06-.31-.09-.58-.09h-.137v-.29c0-.195.008-.292.025-.292l.123-.013c.083-.008.198-.016.346-.025l.445-.025.445-.026a2.61 2.61 0 0 0 .358-.038c.083-.016.128-.02.136-.012h.037v4.813c.041.085.09.135.149.152.057.017.201.034.432.05h.284v.584h-.099z"/><path d="M63.102 201.45h.173c.322 0 .515-.058.581-.176v-.786c0-.143.004-.308.012-.494a5.727 5.727 0 0 0 0-.532v-.836c0-.295-.004-.544-.012-.747v-.292c-.025-.16-.082-.266-.173-.316-.09-.05-.276-.089-.556-.114h-.222v-.292c0-.194.008-.29.024-.29l.124-.014c.082-.008.198-.016.346-.025a153.197 153.197 0 0 1 .902-.05 2.61 2.61 0 0 0 .358-.039c.082-.016.128-.02.136-.012h.037v.506c0 .321.004.482.012.482.009 0 .03-.021.062-.064l.148-.19c.066-.084.145-.16.235-.228.09-.067.21-.147.358-.24.149-.093.305-.16.47-.203a2.6 2.6 0 0 1 .63-.063c.124 0 .239.008.346.025.107.017.202.042.284.076.083.034.16.068.235.101a.785.785 0 0 1 .185.114c.05.043.095.09.136.14.041.05.078.097.111.14a.785.785 0 0 1 .136.265c.009.034.02.068.037.101l.025.064.037-.05.074-.102a2.95 2.95 0 0 1 .111-.14c.05-.059.103-.114.161-.164.058-.05.12-.106.185-.165a.89.89 0 0 1 .247-.152 9.62 9.62 0 0 0 .285-.127c.09-.042.197-.071.32-.088.124-.017.252-.03.384-.038 1.038 0 1.602.477 1.693 1.431.008.06.012.646.012 1.76v1.09c0 .321.008.511.025.57.016.06.061.102.136.127.173.025.374.038.605.038h.198v.583h-.1l-.283-.013a14.8 14.8 0 0 0-.63-.013c-.223 0-.38-.004-.47-.012-.848 0-1.31.012-1.384.038h-.099v-.583h.198c.503 0 .754-.068.754-.203.008-.017.012-.6.012-1.748-.008-1.14-.016-1.744-.025-1.811-.049-.237-.131-.414-.247-.532-.115-.118-.214-.19-.296-.216-.083-.025-.19-.033-.321-.025-.371 0-.696.144-.977.43-.222.229-.362.461-.42.698-.057.236-.09.586-.098 1.05v1.572c0 .253.004.422.012.506.008.085.02.14.037.165.016.025.053.05.111.076.173.025.375.038.606.038h.197v.583h-.099l-.296-.013c-.19-.009-.395-.013-.618-.013-.222 0-.379-.004-.47-.012-.848 0-1.309.012-1.383.038h-.099v-.583h.198c.502 0 .753-.068.753-.203.009-.017.013-.6.013-1.748-.009-1.14-.017-1.744-.025-1.811-.05-.237-.132-.414-.247-.532-.115-.118-.214-.19-.297-.216-.082-.025-.19-.033-.32-.025-.372 0-.697.144-.977.43-.222.229-.362.461-.42.698-.058.236-.09.586-.099 1.05v1.572c0 .253.004.422.013.506.008.085.02.14.037.165.016.025.053.05.11.076.174.025.376.038.606.038h.198v.583h-.099l-.284-.013a14.8 14.8 0 0 0-.63-.013c-.223 0-.38-.004-.47-.012-.848 0-1.31.012-1.384.038h-.098v-.583h.197z"/><path fill="none" d="M63.102 201.45h.173c.322 0 .515-.058.581-.176v-.786c0-.143.004-.308.012-.494a5.727 5.727 0 0 0 0-.532v-.836c0-.295-.004-.544-.012-.747v-.292c-.025-.16-.082-.266-.173-.316-.09-.05-.276-.089-.556-.114h-.222v-.292c0-.194.008-.29.024-.29l.124-.014c.082-.008.198-.016.346-.025a153.197 153.197 0 0 1 .902-.05 2.61 2.61 0 0 0 .358-.039c.082-.016.128-.02.136-.012h.037v.506c0 .321.004.482.012.482.009 0 .03-.021.062-.064l.148-.19c.066-.084.145-.16.235-.228.09-.067.21-.147.358-.24.149-.093.305-.16.47-.203a2.6 2.6 0 0 1 .63-.063c.124 0 .239.008.346.025.107.017.202.042.284.076.083.034.16.068.235.101a.785.785 0 0 1 .185.114c.05.043.095.09.136.14.041.05.078.097.111.14a.785.785 0 0 1 .136.265c.009.034.02.068.037.101l.025.064.037-.05.074-.102a2.95 2.95 0 0 1 .111-.14c.05-.059.103-.114.161-.164.058-.05.12-.106.185-.165a.89.89 0 0 1 .247-.152 9.62 9.62 0 0 0 .285-.127c.09-.042.197-.071.32-.088.124-.017.252-.03.384-.038 1.038 0 1.602.477 1.693 1.431.008.06.012.646.012 1.76v1.09c0 .321.008.511.025.57.016.06.061.102.136.127.173.025.374.038.605.038h.198v.583h-.1l-.283-.013a14.8 14.8 0 0 0-.63-.013c-.223 0-.38-.004-.47-.012-.848 0-1.31.012-1.384.038h-.099v-.583h.198c.503 0 .754-.068.754-.203.008-.017.012-.6.012-1.748-.008-1.14-.016-1.744-.025-1.811-.049-.237-.131-.414-.247-.532-.115-.118-.214-.19-.296-.216-.083-.025-.19-.033-.321-.025-.371 0-.696.144-.977.43-.222.229-.362.461-.42.698-.057.236-.09.586-.098 1.05v1.572c0 .253.004.422.012.506.008.085.02.14.037.165.016.025.053.05.111.076.173.025.375.038.606.038h.197v.583h-.099l-.296-.013c-.19-.009-.395-.013-.618-.013-.222 0-.379-.004-.47-.012-.848 0-1.309.012-1.383.038h-.099v-.583h.198c.502 0 .753-.068.753-.203.009-.017.013-.6.013-1.748-.009-1.14-.017-1.744-.025-1.811-.05-.237-.132-.414-.247-.532-.115-.118-.214-.19-.297-.216-.082-.025-.19-.033-.32-.025-.372 0-.697.144-.977.43-.222.229-.362.461-.42.698-.058.236-.09.586-.099 1.05v1.572c0 .253.004.422.013.506.008.085.02.14.037.165.016.025.053.05.11.076.174.025.376.038.606.038h.198v.583h-.099l-.284-.013a14.8 14.8 0 0 0-.63-.013c-.223 0-.38-.004-.47-.012-.848 0-1.31.012-1.384.038h-.098v-.583h.197z"/><path d="M61.304 206.061a.72.72 0 0 1 .235-.532.807.807 0 0 1 .543-.24c.149 0 .272.05.371.152a.569.569 0 0 1 .16.38c0 .194-.082.371-.246.532a.818.818 0 0 1-.544.253.548.548 0 0 1-.346-.127c-.107-.084-.165-.224-.173-.418zm-2.014 3.965c0-.068.037-.198.111-.393a6.15 6.15 0 0 1 .297-.646c.123-.236.305-.451.544-.646.238-.194.486-.287.74-.278.322 0 .59.097.804.291.214.194.325.456.334.785 0 .144-.058.38-.173.71-.116.329-.28.772-.495 1.33a33.704 33.704 0 0 0-.519 1.431c-.04.186-.061.321-.061.405 0 .212.07.317.21.317a.799.799 0 0 0 .234-.038.84.84 0 0 0 .285-.177c.107-.093.218-.24.333-.444a3.73 3.73 0 0 0 .31-.747.529.529 0 0 1 .06-.177c.017-.017.087-.026.21-.026.166 0 .248.043.248.127 0 .068-.037.199-.111.393a5.04 5.04 0 0 1-.31.646 2.098 2.098 0 0 1-.555.633 1.226 1.226 0 0 1-.766.279c-.264 0-.507-.089-.729-.266-.222-.178-.338-.448-.346-.81 0-.144.02-.28.062-.406.041-.127.218-.608.531-1.444.313-.853.494-1.364.544-1.533a2.15 2.15 0 0 0 .086-.494c0-.203-.07-.304-.21-.304h-.025c-.247 0-.473.14-.68.418-.205.279-.362.633-.469 1.064a.148.148 0 0 0-.024.038.099.099 0 0 0-.013.038c0 .008-.008.017-.024.025a.093.093 0 0 1-.037.013h-.322c-.05-.05-.074-.089-.074-.114z"/><path fill="none" d="M61.304 206.061a.72.72 0 0 1 .235-.532.807.807 0 0 1 .543-.24c.149 0 .272.05.371.152a.569.569 0 0 1 .16.38c0 .194-.082.371-.246.532a.818.818 0 0 1-.544.253.548.548 0 0 1-.346-.127c-.107-.084-.165-.224-.173-.418zm-2.014 3.965c0-.068.037-.198.111-.393a6.15 6.15 0 0 1 .297-.646c.123-.236.305-.451.544-.646.238-.194.486-.287.74-.278.322 0 .59.097.804.291.214.194.325.456.334.785 0 .144-.058.38-.173.71-.116.329-.28.772-.495 1.33a33.704 33.704 0 0 0-.519 1.431c-.04.186-.061.321-.061.405 0 .212.07.317.21.317a.799.799 0 0 0 .234-.038.84.84 0 0 0 .285-.177c.107-.093.218-.24.333-.444a3.73 3.73 0 0 0 .31-.747.529.529 0 0 1 .06-.177c.017-.017.087-.026.21-.026.166 0 .248.043.248.127 0 .068-.037.199-.111.393a5.04 5.04 0 0 1-.31.646 2.098 2.098 0 0 1-.555.633 1.226 1.226 0 0 1-.766.279c-.264 0-.507-.089-.729-.266-.222-.178-.338-.448-.346-.81 0-.144.02-.28.062-.406.041-.127.218-.608.531-1.444.313-.853.494-1.364.544-1.533a2.15 2.15 0 0 0 .086-.494c0-.203-.07-.304-.21-.304h-.025c-.247 0-.473.14-.68.418-.205.279-.362.633-.469 1.064a.148.148 0 0 0-.024.038.099.099 0 0 0-.013.038c0 .008-.008.017-.024.025a.093.093 0 0 1-.037.013h-.322c-.05-.05-.074-.089-.074-.114z"/><path d="M64.258 213.218v-.317c0-.21.066-.392.198-.544a.667.667 0 0 1 .531-.228c.231 0 .437.105.618.316.181.212.276.583.284 1.115 0 .296-.037.583-.11.861-.075.28-.161.52-.26.722a2.757 2.757 0 0 1-.322.52 4.882 4.882 0 0 1-.296.342c-.082.084-.136.122-.16.114-.034 0-.087-.038-.161-.114-.074-.076-.112-.131-.112-.165s.046-.101.136-.203c.091-.1.194-.228.31-.38.115-.152.222-.363.32-.633.1-.27.165-.578.198-.925v-.152l-.012.013a.473.473 0 0 1-.062.025.309.309 0 0 0-.074.038.198.198 0 0 1-.111.026.879.879 0 0 0-.149.012.726.726 0 0 1-.543-.215l-.223-.228z"/><path fill="none" d="M64.258 213.218v-.317c0-.21.066-.392.198-.544a.667.667 0 0 1 .531-.228c.231 0 .437.105.618.316.181.212.276.583.284 1.115 0 .296-.037.583-.11.861-.075.28-.161.52-.26.722a2.757 2.757 0 0 1-.322.52 4.882 4.882 0 0 1-.296.342c-.082.084-.136.122-.16.114-.034 0-.087-.038-.161-.114-.074-.076-.112-.131-.112-.165s.046-.101.136-.203c.091-.1.194-.228.31-.38.115-.152.222-.363.32-.633.1-.27.165-.578.198-.925v-.152l-.012.013a.473.473 0 0 1-.062.025.309.309 0 0 0-.074.038.198.198 0 0 1-.111.026.879.879 0 0 0-.149.012.726.726 0 0 1-.543-.215l-.223-.228z"/><path d="M70.407 206.112c0-.262.086-.465.26-.608.172-.144.35-.215.53-.215.14 0 .256.042.347.126.09.085.148.203.173.355a.82.82 0 0 1-.235.595.738.738 0 0 1-.544.24.55.55 0 0 1-.37-.126.492.492 0 0 1-.161-.367zm-.111 2.787c0-.245-.107-.368-.322-.368a.975.975 0 0 0-.518.152 1.605 1.605 0 0 0-.433.393c-.123.16-.222.317-.296.469a8.42 8.42 0 0 1-.21.405l-.087.177a.768.768 0 0 1-.198.013h-.173c-.049-.05-.074-.084-.074-.101s.017-.072.05-.165c.173-.414.416-.802.729-1.165s.675-.575 1.087-.634h.099a.75.75 0 0 0 .148-.012c.198.008.379.05.544.126.206.119.362.25.47.393.106.144.16.367.16.671v.203l-.606 2.52c-.42 1.69-.642 2.568-.667 2.635-.148.423-.436.798-.865 1.128a2.41 2.41 0 0 1-1.47.506c-.412 0-.692-.088-.84-.266a.95.95 0 0 1-.235-.582c0-.228.078-.422.235-.583a.81.81 0 0 1 .568-.253c.14 0 .26.042.359.126.098.085.152.216.16.393a.769.769 0 0 1-.395.697c.05.008.107.012.173.012.28 0 .535-.118.766-.354.23-.237.408-.515.531-.836l.136-.532c.09-.363.198-.802.321-1.318a90.16 90.16 0 0 1 .396-1.583c.14-.54.25-1.01.333-1.406.083-.397.128-.638.136-.722a.616.616 0 0 0-.012-.14z"/><path fill="none" d="M70.407 206.112c0-.262.086-.465.26-.608.172-.144.35-.215.53-.215.14 0 .256.042.347.126.09.085.148.203.173.355a.82.82 0 0 1-.235.595.738.738 0 0 1-.544.24.55.55 0 0 1-.37-.126.492.492 0 0 1-.161-.367zm-.111 2.787c0-.245-.107-.368-.322-.368a.975.975 0 0 0-.518.152 1.605 1.605 0 0 0-.433.393c-.123.16-.222.317-.296.469a8.42 8.42 0 0 1-.21.405l-.087.177a.768.768 0 0 1-.198.013h-.173c-.049-.05-.074-.084-.074-.101s.017-.072.05-.165c.173-.414.416-.802.729-1.165s.675-.575 1.087-.634h.099a.75.75 0 0 0 .148-.012c.198.008.379.05.544.126.206.119.362.25.47.393.106.144.16.367.16.671v.203l-.606 2.52c-.42 1.69-.642 2.568-.667 2.635-.148.423-.436.798-.865 1.128a2.41 2.41 0 0 1-1.47.506c-.412 0-.692-.088-.84-.266a.95.95 0 0 1-.235-.582c0-.228.078-.422.235-.583a.81.81 0 0 1 .568-.253c.14 0 .26.042.359.126.098.085.152.216.16.393a.769.769 0 0 1-.395.697c.05.008.107.012.173.012.28 0 .535-.118.766-.354.23-.237.408-.515.531-.836l.136-.532c.09-.363.198-.802.321-1.318a90.16 90.16 0 0 1 .396-1.583c.14-.54.25-1.01.333-1.406.083-.397.128-.638.136-.722a.616.616 0 0 0-.012-.14z"/><path d="M80.49 201.998c0-.156.082-.275.245-.359h11.132c.175.096.262.215.262.359 0 .131-.081.245-.244.34l-5.558.018H80.77c-.186-.06-.28-.18-.28-.358zm0 3.476c0-.18.094-.299.28-.359h11.115c.163.12.244.24.244.359 0 .155-.087.274-.262.358H80.735c-.163-.084-.244-.203-.244-.358z"/><path fill="none" d="M80.49 201.998c0-.156.082-.275.245-.359h11.132c.175.096.262.215.262.359 0 .131-.081.245-.244.34l-5.558.018H80.77c-.186-.06-.28-.18-.28-.358zm0 3.476c0-.18.094-.299.28-.359h11.115c.163.12.244.24.244.359 0 .155-.087.274-.262.358H80.735c-.163-.084-.244-.203-.244-.358z"/><path d="m101.688 197.86-.227.089c-.163.06-.396.12-.699.179-.303.06-.64.101-1.013.125h-.332v-.824h.332a5.557 5.557 0 0 0 1.52-.269c.466-.155.792-.298.979-.43.186-.131.35-.262.489-.394.023-.036.093-.054.21-.054a.48.48 0 0 1 .297.108v5.357l.017 5.375a.693.693 0 0 0 .21.161c.058.024.198.048.42.072.22.024.582.036 1.083.036h.454v.824h-.192c-.245-.036-1.171-.054-2.779-.054-1.584 0-2.499.018-2.743.054h-.21v-.824h1.118c.187 0 .332-.006.437-.018.105-.012.198-.03.28-.054.081-.024.128-.036.14-.036.011 0 .046-.03.105-.09.058-.06.093-.083.104-.071v-9.263z"/><path fill="none" d="m101.688 197.86-.227.089c-.163.06-.396.12-.699.179-.303.06-.64.101-1.013.125h-.332v-.824h.332a5.557 5.557 0 0 0 1.52-.269c.466-.155.792-.298.979-.43.186-.131.35-.262.489-.394.023-.036.093-.054.21-.054a.48.48 0 0 1 .297.108v5.357l.017 5.375a.693.693 0 0 0 .21.161c.058.024.198.048.42.072.22.024.582.036 1.083.036h.454v.824h-.192c-.245-.036-1.171-.054-2.779-.054-1.584 0-2.499.018-2.743.054h-.21v-.824h1.118c.187 0 .332-.006.437-.018.105-.012.198-.03.28-.054.081-.024.128-.036.14-.036.011 0 .046-.03.105-.09.058-.06.093-.083.104-.071v-9.263z"/><path d="M106.84 204.002c0-.06.045-.135.136-.228h2.36c1.597.017 2.495.042 2.693.076 1.244.236 1.866.92 1.866 2.052 0 .228-.038.426-.112.595-.156.465-.523.87-1.1 1.216l-.123.076h.013c1.194.414 1.791 1.208 1.791 2.381 0 .532-.214.993-.642 1.381-.429.389-1.038.655-1.829.798-.222.042-1.1.072-2.632.089h-2.285c-.091-.093-.136-.173-.136-.24 0-.144.164-.216.494-.216a3.83 3.83 0 0 0 .457-.05c.074-.018.132-.073.173-.165.041-.152.062-1.373.062-3.661 0-2.289-.02-3.509-.062-3.661a.302.302 0 0 0-.173-.165 2.237 2.237 0 0 0-.457-.063h-.062c-.288 0-.432-.072-.432-.215zm1.618 4.104c0 1.79-.004 2.858-.012 3.204-.008.347-.037.562-.087.647-.008.008-.012.016-.012.025h1.322l-.086-.165-.05-.164v-7.12l.05-.151.086-.165h-1.322l.062.114c.033.152.05 1.41.05 3.775zm1.755-.368c.667-.067 1.108-.24 1.322-.519.214-.279.32-.688.32-1.229 0-.363-.044-.671-.135-.924-.09-.254-.206-.435-.346-.545-.14-.11-.268-.19-.383-.24a.69.69 0 0 0-.334-.064.921.921 0 0 0-.518.165c-.091.059-.14.16-.149.304-.008.143-.016.646-.024 1.507v1.545h.247zm3.237-1.836c0-.304-.062-.566-.186-.786a1.42 1.42 0 0 0-.457-.506 1.57 1.57 0 0 0-.494-.228 5.19 5.19 0 0 0-.395-.076l-.136-.026.111.165c.157.22.26.435.309.646.05.211.078.502.086.874v.076c0 .194-.004.35-.012.469a1.74 1.74 0 0 1-.124.468 2.83 2.83 0 0 1-.32.596c.04 0 .14-.034.296-.102.156-.067.337-.16.543-.278.206-.118.388-.296.544-.532.157-.237.235-.49.235-.76zm.482 4.18c0-.304-.062-.574-.186-.81a1.828 1.828 0 0 0-.445-.57 2.042 2.042 0 0 0-.543-.33c-.19-.076-.342-.135-.457-.178-.116-.042-.186-.054-.21-.038l-.013.013.062.076c.041.042.09.106.148.19a2.036 2.036 0 0 1 .334.874c.033.211.054.456.062.735 0 .363-.041.692-.124.988-.082.295-.165.498-.247.608a1.05 1.05 0 0 1-.148.177c0 .009.008.013.025.013.049 0 .156-.03.32-.089.166-.059.36-.148.581-.266.223-.118.416-.304.581-.557.165-.254.251-.532.26-.836zm-1.68.012c0-1.114-.375-1.74-1.125-1.874a15.385 15.385 0 0 1-.692-.038h-.47v1.722c.017 1.107.042 1.706.075 1.8a.64.64 0 0 0 .234.177c.091.05.235.076.433.076 1.03 0 1.544-.621 1.544-1.863z"/><path fill="none" d="M106.84 204.002c0-.06.045-.135.136-.228h2.36c1.597.017 2.495.042 2.693.076 1.244.236 1.866.92 1.866 2.052 0 .228-.038.426-.112.595-.156.465-.523.87-1.1 1.216l-.123.076h.013c1.194.414 1.791 1.208 1.791 2.381 0 .532-.214.993-.642 1.381-.429.389-1.038.655-1.829.798-.222.042-1.1.072-2.632.089h-2.285c-.091-.093-.136-.173-.136-.24 0-.144.164-.216.494-.216a3.83 3.83 0 0 0 .457-.05c.074-.018.132-.073.173-.165.041-.152.062-1.373.062-3.661 0-2.289-.02-3.509-.062-3.661a.302.302 0 0 0-.173-.165 2.237 2.237 0 0 0-.457-.063h-.062c-.288 0-.432-.072-.432-.215zm1.618 4.104c0 1.79-.004 2.858-.012 3.204-.008.347-.037.562-.087.647-.008.008-.012.016-.012.025h1.322l-.086-.165-.05-.164v-7.12l.05-.151.086-.165h-1.322l.062.114c.033.152.05 1.41.05 3.775zm1.755-.368c.667-.067 1.108-.24 1.322-.519.214-.279.32-.688.32-1.229 0-.363-.044-.671-.135-.924-.09-.254-.206-.435-.346-.545-.14-.11-.268-.19-.383-.24a.69.69 0 0 0-.334-.064.921.921 0 0 0-.518.165c-.091.059-.14.16-.149.304-.008.143-.016.646-.024 1.507v1.545h.247zm3.237-1.836c0-.304-.062-.566-.186-.786a1.42 1.42 0 0 0-.457-.506 1.57 1.57 0 0 0-.494-.228 5.19 5.19 0 0 0-.395-.076l-.136-.026.111.165c.157.22.26.435.309.646.05.211.078.502.086.874v.076c0 .194-.004.35-.012.469a1.74 1.74 0 0 1-.124.468 2.83 2.83 0 0 1-.32.596c.04 0 .14-.034.296-.102.156-.067.337-.16.543-.278.206-.118.388-.296.544-.532.157-.237.235-.49.235-.76zm.482 4.18c0-.304-.062-.574-.186-.81a1.828 1.828 0 0 0-.445-.57 2.042 2.042 0 0 0-.543-.33c-.19-.076-.342-.135-.457-.178-.116-.042-.186-.054-.21-.038l-.013.013.062.076c.041.042.09.106.148.19a2.036 2.036 0 0 1 .334.874c.033.211.054.456.062.735 0 .363-.041.692-.124.988-.082.295-.165.498-.247.608a1.05 1.05 0 0 1-.148.177c0 .009.008.013.025.013.049 0 .156-.03.32-.089.166-.059.36-.148.581-.266.223-.118.416-.304.581-.557.165-.254.251-.532.26-.836zm-1.68.012c0-1.114-.375-1.74-1.125-1.874a15.385 15.385 0 0 1-.692-.038h-.47v1.722c.017 1.107.042 1.706.075 1.8a.64.64 0 0 0 .234.177c.091.05.235.076.433.076 1.03 0 1.544-.621 1.544-1.863z"/><path d="M116.096 209.258c0-.582.041-1.135.124-1.659.082-.523.177-.975.284-1.355.107-.38.26-.752.457-1.115.198-.363.354-.646.47-.849.115-.202.288-.422.518-.658.231-.237.367-.38.408-.431.041-.05.144-.14.31-.266H118.876c.114 0 .172.038.172.114 0 .025-.07.114-.21.266-.14.152-.309.376-.507.671-.197.296-.399.659-.605 1.09-.206.43-.379 1.013-.519 1.748-.14.734-.21 1.55-.21 2.444 0 .896.07 1.706.21 2.433.14.726.309 1.313.507 1.76.197.448.4.81.605 1.09.206.278.379.502.519.67.14.17.21.258.21.267 0 .076-.062.114-.185.114h-.197l-.347-.304c-.774-.718-1.338-1.613-1.693-2.685a10.595 10.595 0 0 1-.53-3.345z"/><path fill="none" d="M116.096 209.258c0-.582.041-1.135.124-1.659.082-.523.177-.975.284-1.355.107-.38.26-.752.457-1.115.198-.363.354-.646.47-.849.115-.202.288-.422.518-.658.231-.237.367-.38.408-.431.041-.05.144-.14.31-.266H118.876c.114 0 .172.038.172.114 0 .025-.07.114-.21.266-.14.152-.309.376-.507.671-.197.296-.399.659-.605 1.09-.206.43-.379 1.013-.519 1.748-.14.734-.21 1.55-.21 2.444 0 .896.07 1.706.21 2.433.14.726.309 1.313.507 1.76.197.448.4.81.605 1.09.206.278.379.502.519.67.14.17.21.258.21.267 0 .076-.062.114-.185.114h-.197l-.347-.304c-.774-.718-1.338-1.613-1.693-2.685a10.595 10.595 0 0 1-.53-3.345z"/><path d="M120.042 208.79a.895.895 0 0 0 .025-.102c.008-.042.029-.135.062-.278.033-.144.074-.275.123-.393.05-.118.111-.257.186-.418.074-.16.156-.287.247-.38a2.79 2.79 0 0 1 .32-.279.553.553 0 0 1 .409-.114c.617 0 1.013.27 1.186.811l.123-.114c.51-.464.997-.697 1.458-.697.536 0 .956.199 1.26.596.305.397.458.878.458 1.444 0 .912-.313 1.752-.94 2.52-.625.769-1.334 1.157-2.125 1.166-.18 0-.341-.025-.481-.076a1.276 1.276 0 0 1-.285-.19 3.644 3.644 0 0 1-.234-.215l-.087-.102c-.008.009-.099.376-.272 1.102-.173.726-.26 1.094-.26 1.102 0 .05.034.08.1.089.066.008.218.021.457.038h.309c.05.059.074.097.074.114s-.012.093-.037.228a.474.474 0 0 1-.074.19c-.025.025-.079.042-.16.05h-.137c-.074 0-.214-.004-.42-.012a19.235 19.235 0 0 0-.766-.013c-.576 0-.943.009-1.1.026h-.098c-.058-.06-.087-.106-.087-.14.017-.228.07-.376.16-.443h.248c.28-.009.44-.06.482-.152.024-.05.276-1.06.753-3.028.478-1.967.73-3.01.754-3.128a.98.98 0 0 0 .012-.178c0-.346-.103-.519-.308-.519-.182 0-.334.118-.458.355a3.301 3.301 0 0 0-.284.772c-.066.28-.115.431-.148.456-.016.017-.082.026-.198.026h-.173c-.05-.05-.074-.089-.074-.114zm1.915 2.343c.181.642.486.963.915.963.247 0 .486-.097.716-.291.23-.195.42-.44.568-.735.149-.287.297-.743.445-1.368.149-.625.227-1.09.235-1.394v-.076c0-.624-.251-.937-.754-.937-.09 0-.18.013-.271.038-.091.025-.182.063-.272.114a1.82 1.82 0 0 0-.247.165 2.27 2.27 0 0 0-.21.19l-.186.19a.85.85 0 0 0-.136.177.412.412 0 0 1-.099.127l-.037.05c0 .009-.012.068-.037.178-.024.11-.07.295-.136.557a27.78 27.78 0 0 1-.173.659c-.214.895-.32 1.36-.32 1.393z"/><path fill="none" d="M120.042 208.79a.895.895 0 0 0 .025-.102c.008-.042.029-.135.062-.278.033-.144.074-.275.123-.393.05-.118.111-.257.186-.418.074-.16.156-.287.247-.38a2.79 2.79 0 0 1 .32-.279.553.553 0 0 1 .409-.114c.617 0 1.013.27 1.186.811l.123-.114c.51-.464.997-.697 1.458-.697.536 0 .956.199 1.26.596.305.397.458.878.458 1.444 0 .912-.313 1.752-.94 2.52-.625.769-1.334 1.157-2.125 1.166-.18 0-.341-.025-.481-.076a1.276 1.276 0 0 1-.285-.19 3.644 3.644 0 0 1-.234-.215l-.087-.102c-.008.009-.099.376-.272 1.102-.173.726-.26 1.094-.26 1.102 0 .05.034.08.1.089.066.008.218.021.457.038h.309c.05.059.074.097.074.114s-.012.093-.037.228a.474.474 0 0 1-.074.19c-.025.025-.079.042-.16.05h-.137c-.074 0-.214-.004-.42-.012a19.235 19.235 0 0 0-.766-.013c-.576 0-.943.009-1.1.026h-.098c-.058-.06-.087-.106-.087-.14.017-.228.07-.376.16-.443h.248c.28-.009.44-.06.482-.152.024-.05.276-1.06.753-3.028.478-1.967.73-3.01.754-3.128a.98.98 0 0 0 .012-.178c0-.346-.103-.519-.308-.519-.182 0-.334.118-.458.355a3.301 3.301 0 0 0-.284.772c-.066.28-.115.431-.148.456-.016.017-.082.026-.198.026h-.173c-.05-.05-.074-.089-.074-.114zm1.915 2.343c.181.642.486.963.915.963.247 0 .486-.097.716-.291.23-.195.42-.44.568-.735.149-.287.297-.743.445-1.368.149-.625.227-1.09.235-1.394v-.076c0-.624-.251-.937-.754-.937-.09 0-.18.013-.271.038-.091.025-.182.063-.272.114a1.82 1.82 0 0 0-.247.165 2.27 2.27 0 0 0-.21.19l-.186.19a.85.85 0 0 0-.136.177.412.412 0 0 1-.099.127l-.037.05c0 .009-.012.068-.037.178-.024.11-.07.295-.136.557a27.78 27.78 0 0 1-.173.659c-.214.895-.32 1.36-.32 1.393z"/><path d="M126.239 208.79a.895.895 0 0 0 .024-.102l.062-.278c.033-.144.074-.275.124-.393s.111-.257.185-.418c.074-.16.157-.287.247-.38a2.79 2.79 0 0 1 .321-.279.553.553 0 0 1 .408-.114c.239 0 .45.051.63.152.182.102.31.195.383.28a.55.55 0 0 1 .136.252c.017.051.029.076.037.076.009 0 .041-.03.1-.088.394-.44.852-.659 1.37-.659h.038c.395 0 .691.173.89.52.065.16.098.316.098.468 0 .253-.054.456-.16.608-.108.152-.215.25-.322.291a.68.68 0 0 1-.309.051.554.554 0 0 1-.395-.14.48.48 0 0 1-.148-.367c0-.405.23-.675.692-.81-.182-.11-.33-.165-.445-.165-.461 0-.886.313-1.273.937a1.704 1.704 0 0 0-.185.418 82.88 82.88 0 0 0-.42 1.685c-.28 1.182-.44 1.812-.482 1.888a.548.548 0 0 1-.531.342.414.414 0 0 1-.26-.076.453.453 0 0 1-.136-.152c-.024-.051-.033-.093-.024-.127 0-.11.164-.836.494-2.179.33-1.343.494-2.09.494-2.242 0-.33-.107-.494-.321-.494-.173 0-.321.118-.445.355a3.737 3.737 0 0 0-.297.772c-.074.28-.119.431-.135.456-.017.017-.083.026-.198.026h-.173c-.05-.05-.074-.089-.074-.114z"/><path fill="none" d="M126.239 208.79a.895.895 0 0 0 .024-.102l.062-.278c.033-.144.074-.275.124-.393s.111-.257.185-.418c.074-.16.157-.287.247-.38a2.79 2.79 0 0 1 .321-.279.553.553 0 0 1 .408-.114c.239 0 .45.051.63.152.182.102.31.195.383.28a.55.55 0 0 1 .136.252c.017.051.029.076.037.076.009 0 .041-.03.1-.088.394-.44.852-.659 1.37-.659h.038c.395 0 .691.173.89.52.065.16.098.316.098.468 0 .253-.054.456-.16.608-.108.152-.215.25-.322.291a.68.68 0 0 1-.309.051.554.554 0 0 1-.395-.14.48.48 0 0 1-.148-.367c0-.405.23-.675.692-.81-.182-.11-.33-.165-.445-.165-.461 0-.886.313-1.273.937a1.704 1.704 0 0 0-.185.418 82.88 82.88 0 0 0-.42 1.685c-.28 1.182-.44 1.812-.482 1.888a.548.548 0 0 1-.531.342.414.414 0 0 1-.26-.076.453.453 0 0 1-.136-.152c-.024-.051-.033-.093-.024-.127 0-.11.164-.836.494-2.179.33-1.343.494-2.09.494-2.242 0-.33-.107-.494-.321-.494-.173 0-.321.118-.445.355a3.737 3.737 0 0 0-.297.772c-.074.28-.119.431-.135.456-.017.017-.083.026-.198.026h-.173c-.05-.05-.074-.089-.074-.114z"/><path d="M132.157 202.598c0-.167.052-.299.157-.394a.55.55 0 0 1 .385-.144c.134.012.25.063.35.153.098.09.148.218.148.385 0 .18-.05.314-.149.403a.527.527 0 0 1-.367.134.527.527 0 0 1-.367-.134c-.099-.09-.151-.224-.157-.403zm1.555 5.456c-.087-.018-.39-.027-.909-.027h-.323c-.151 0-.297.006-.437.018l-.192.009h-.07v-.413h.14c.163 0 .306-.008.428-.026.053-.024.085-.057.096-.099.012-.042.018-.167.018-.376v-1.711c0-.31-.006-.508-.018-.591-.011-.084-.052-.14-.122-.17-.082-.042-.219-.063-.41-.063h-.097v-.206c0-.138.006-.206.018-.206l.087-.01c.058-.005.14-.011.245-.017l.314-.018.315-.018c.11-.006.195-.015.253-.027.058-.012.09-.015.096-.009h.026v3.404c.03.06.065.096.105.108.041.012.143.024.306.035h.201v.413h-.07z"/><path fill="none" d="M132.157 202.598c0-.167.052-.299.157-.394a.55.55 0 0 1 .385-.144c.134.012.25.063.35.153.098.09.148.218.148.385 0 .18-.05.314-.149.403a.527.527 0 0 1-.367.134.527.527 0 0 1-.367-.134c-.099-.09-.151-.224-.157-.403zm1.555 5.456c-.087-.018-.39-.027-.909-.027h-.323c-.151 0-.297.006-.437.018l-.192.009h-.07v-.413h.14c.163 0 .306-.008.428-.026.053-.024.085-.057.096-.099.012-.042.018-.167.018-.376v-1.711c0-.31-.006-.508-.018-.591-.011-.084-.052-.14-.122-.17-.082-.042-.219-.063-.41-.063h-.097v-.206c0-.138.006-.206.018-.206l.087-.01c.058-.005.14-.011.245-.017l.314-.018.315-.018c.11-.006.195-.015.253-.027.058-.012.09-.015.096-.009h.026v3.404c.03.06.065.096.105.108.041.012.143.024.306.035h.201v.413h-.07z"/><path d="M134.341 207.641h.123c.227 0 .364-.041.41-.125V206.961c0-.102.003-.218.01-.35a4.05 4.05 0 0 0 0-.376v-.591c0-.21-.004-.385-.01-.529v-.206c-.017-.113-.058-.188-.122-.224-.064-.036-.195-.062-.393-.08h-.157v-.206c0-.138.005-.206.017-.206l.087-.01c.059-.005.14-.011.245-.017a108.343 108.343 0 0 1 .638-.036c.11-.006.195-.015.253-.027.059-.012.09-.015.096-.009h.027v.358c0 .227.003.34.008.34.006 0 .02-.014.044-.044l.105-.134a.864.864 0 0 1 .166-.162c.064-.047.148-.104.253-.17a1.17 1.17 0 0 1 .332-.143c.117-.03.265-.045.446-.045.087 0 .169.006.245.018a.9.9 0 0 1 .2.054c.059.024.114.047.167.071a.555.555 0 0 1 .227.18l.078.098a.555.555 0 0 1 .097.188.356.356 0 0 0 .026.072l.017.045.026-.036.053-.072c.017-.024.044-.057.079-.098a1.06 1.06 0 0 1 .113-.117l.131-.116a.63.63 0 0 1 .175-.108c.07-.03.137-.06.2-.09a.79.79 0 0 1 .228-.062 3.79 3.79 0 0 1 .27-.027c.735 0 1.134.337 1.198 1.012.006.042.009.457.009 1.245v.77c0 .228.006.362.017.404.012.042.044.072.096.09.123.018.265.026.428.026h.14v.413h-.07l-.2-.01c-.14-.005-.289-.008-.446-.008-.157 0-.268-.003-.332-.01-.6 0-.926.01-.979.028h-.07v-.413h.14c.355 0 .533-.047.533-.143.006-.012.009-.424.009-1.236a42.462 42.462 0 0 0-.018-1.281.748.748 0 0 0-.174-.376.56.56 0 0 0-.21-.153.65.65 0 0 0-.227-.018.936.936 0 0 0-.69.305 1.087 1.087 0 0 0-.298.493c-.04.167-.064.415-.07.743v1.111c0 .18.003.299.01.358.005.06.014.099.025.117.012.018.038.036.079.054.122.018.265.026.428.026h.14v.413h-.07l-.21-.01a9.856 9.856 0 0 0-.437-.008c-.157 0-.268-.003-.332-.01-.6 0-.926.01-.978.028h-.07v-.413h.14c.355 0 .533-.047.533-.143.006-.012.008-.424.008-1.236a42.461 42.461 0 0 0-.017-1.281.748.748 0 0 0-.175-.376.56.56 0 0 0-.21-.153.65.65 0 0 0-.227-.018.936.936 0 0 0-.69.305 1.087 1.087 0 0 0-.297.493c-.04.167-.064.415-.07.743v1.111c0 .18.003.299.009.358.006.06.014.099.026.117.012.018.038.036.079.054.122.018.265.026.428.026h.14v.413h-.07l-.201-.01c-.14-.005-.289-.008-.446-.008-.157 0-.268-.003-.332-.01-.6 0-.926.01-.979.028h-.07v-.413h.14z"/><path fill="none" d="M134.341 207.641h.123c.227 0 .364-.041.41-.125V206.961c0-.102.003-.218.01-.35a4.05 4.05 0 0 0 0-.376v-.591c0-.21-.004-.385-.01-.529v-.206c-.017-.113-.058-.188-.122-.224-.064-.036-.195-.062-.393-.08h-.157v-.206c0-.138.005-.206.017-.206l.087-.01c.059-.005.14-.011.245-.017a108.343 108.343 0 0 1 .638-.036c.11-.006.195-.015.253-.027.059-.012.09-.015.096-.009h.027v.358c0 .227.003.34.008.34.006 0 .02-.014.044-.044l.105-.134a.864.864 0 0 1 .166-.162c.064-.047.148-.104.253-.17a1.17 1.17 0 0 1 .332-.143c.117-.03.265-.045.446-.045.087 0 .169.006.245.018a.9.9 0 0 1 .2.054c.059.024.114.047.167.071a.555.555 0 0 1 .227.18l.078.098a.555.555 0 0 1 .097.188.356.356 0 0 0 .026.072l.017.045.026-.036.053-.072c.017-.024.044-.057.079-.098a1.06 1.06 0 0 1 .113-.117l.131-.116a.63.63 0 0 1 .175-.108c.07-.03.137-.06.2-.09a.79.79 0 0 1 .228-.062 3.79 3.79 0 0 1 .27-.027c.735 0 1.134.337 1.198 1.012.006.042.009.457.009 1.245v.77c0 .228.006.362.017.404.012.042.044.072.096.09.123.018.265.026.428.026h.14v.413h-.07l-.2-.01c-.14-.005-.289-.008-.446-.008-.157 0-.268-.003-.332-.01-.6 0-.926.01-.979.028h-.07v-.413h.14c.355 0 .533-.047.533-.143.006-.012.009-.424.009-1.236a42.462 42.462 0 0 0-.018-1.281.748.748 0 0 0-.174-.376.56.56 0 0 0-.21-.153.65.65 0 0 0-.227-.018.936.936 0 0 0-.69.305 1.087 1.087 0 0 0-.298.493c-.04.167-.064.415-.07.743v1.111c0 .18.003.299.01.358.005.06.014.099.025.117.012.018.038.036.079.054.122.018.265.026.428.026h.14v.413h-.07l-.21-.01a9.856 9.856 0 0 0-.437-.008c-.157 0-.268-.003-.332-.01-.6 0-.926.01-.978.028h-.07v-.413h.14c.355 0 .533-.047.533-.143.006-.012.008-.424.008-1.236a42.461 42.461 0 0 0-.017-1.281.748.748 0 0 0-.175-.376.56.56 0 0 0-.21-.153.65.65 0 0 0-.227-.018.936.936 0 0 0-.69.305 1.087 1.087 0 0 0-.297.493c-.04.167-.064.415-.07.743v1.111c0 .18.003.299.009.358.006.06.014.099.026.117.012.018.038.036.079.054.122.018.265.026.428.026h.14v.413h-.07l-.201-.01c-.14-.005-.289-.008-.446-.008-.157 0-.268-.003-.332-.01-.6 0-.926.01-.979.028h-.07v-.413h.14z"/><path d="M133.162 210.902c0-.143.055-.268.166-.376a.57.57 0 0 1 .384-.17c.105 0 .192.036.262.107.07.072.108.162.114.27a.516.516 0 0 1-.175.375.578.578 0 0 1-.384.18.388.388 0 0 1-.245-.09c-.076-.06-.116-.158-.122-.296zm-1.425 2.804a1 1 0 0 1 .08-.277 4.35 4.35 0 0 1 .209-.457 1.47 1.47 0 0 1 .384-.457.78.78 0 0 1 .525-.197c.227 0 .416.068.568.206a.74.74 0 0 1 .235.555c0 .102-.04.269-.122.502-.081.233-.198.546-.35.94-.15.395-.273.732-.366 1.013-.03.131-.044.227-.044.286 0 .15.05.224.148.224a.565.565 0 0 0 .166-.027.594.594 0 0 0 .201-.125 1.21 1.21 0 0 0 .236-.314c.082-.143.155-.319.219-.528a.374.374 0 0 1 .043-.125c.012-.012.062-.018.149-.018.117 0 .175.03.175.09a1 1 0 0 1-.079.277c-.052.137-.125.29-.218.457a1.484 1.484 0 0 1-.393.448.867.867 0 0 1-.542.197.81.81 0 0 1-.516-.188c-.157-.126-.239-.317-.244-.574 0-.101.014-.197.043-.286.03-.09.155-.43.376-1.022.221-.603.35-.964.384-1.084a1.52 1.52 0 0 0 .062-.349c0-.143-.05-.215-.149-.215h-.017c-.175 0-.335.099-.481.296a2.112 2.112 0 0 0-.332.752.104.104 0 0 0-.017.027.07.07 0 0 0-.01.027c0 .006-.005.012-.017.018a.066.066 0 0 1-.026.009h-.227c-.035-.036-.053-.063-.053-.08z"/><path fill="none" d="M133.162 210.902c0-.143.055-.268.166-.376a.57.57 0 0 1 .384-.17c.105 0 .192.036.262.107.07.072.108.162.114.27a.516.516 0 0 1-.175.375.578.578 0 0 1-.384.18.388.388 0 0 1-.245-.09c-.076-.06-.116-.158-.122-.296zm-1.425 2.804a1 1 0 0 1 .08-.277 4.35 4.35 0 0 1 .209-.457 1.47 1.47 0 0 1 .384-.457.78.78 0 0 1 .525-.197c.227 0 .416.068.568.206a.74.74 0 0 1 .235.555c0 .102-.04.269-.122.502-.081.233-.198.546-.35.94-.15.395-.273.732-.366 1.013-.03.131-.044.227-.044.286 0 .15.05.224.148.224a.565.565 0 0 0 .166-.027.594.594 0 0 0 .201-.125 1.21 1.21 0 0 0 .236-.314c.082-.143.155-.319.219-.528a.374.374 0 0 1 .043-.125c.012-.012.062-.018.149-.018.117 0 .175.03.175.09a1 1 0 0 1-.079.277c-.052.137-.125.29-.218.457a1.484 1.484 0 0 1-.393.448.867.867 0 0 1-.542.197.81.81 0 0 1-.516-.188c-.157-.126-.239-.317-.244-.574 0-.101.014-.197.043-.286.03-.09.155-.43.376-1.022.221-.603.35-.964.384-1.084a1.52 1.52 0 0 0 .062-.349c0-.143-.05-.215-.149-.215h-.017c-.175 0-.335.099-.481.296a2.112 2.112 0 0 0-.332.752.104.104 0 0 0-.017.027.07.07 0 0 0-.01.027c0 .006-.005.012-.017.018a.066.066 0 0 1-.026.009h-.227c-.035-.036-.053-.063-.053-.08z"/><path d="M135.241 215.964v-.224c0-.15.047-.278.14-.385a.472.472 0 0 1 .376-.162c.163 0 .309.075.437.224.128.15.195.412.2.789 0 .209-.026.412-.078.609a2.83 2.83 0 0 1-.183.51 1.95 1.95 0 0 1-.228.368 3.452 3.452 0 0 1-.21.242c-.058.06-.095.086-.113.08-.023 0-.061-.027-.114-.08-.052-.054-.078-.093-.078-.117 0-.024.032-.072.096-.143.064-.072.137-.162.218-.269.082-.108.158-.257.228-.448s.116-.409.14-.654v-.107l-.01.009a.334.334 0 0 1-.043.017.218.218 0 0 0-.052.027.14.14 0 0 1-.08.018.621.621 0 0 0-.104.01.513.513 0 0 1-.384-.153l-.158-.161z"/><path fill="none" d="M135.241 215.964v-.224c0-.15.047-.278.14-.385a.472.472 0 0 1 .376-.162c.163 0 .309.075.437.224.128.15.195.412.2.789 0 .209-.026.412-.078.609a2.83 2.83 0 0 1-.183.51 1.95 1.95 0 0 1-.228.368 3.452 3.452 0 0 1-.21.242c-.058.06-.095.086-.113.08-.023 0-.061-.027-.114-.08-.052-.054-.078-.093-.078-.117 0-.024.032-.072.096-.143.064-.072.137-.162.218-.269.082-.108.158-.257.228-.448s.116-.409.14-.654v-.107l-.01.009a.334.334 0 0 1-.043.017.218.218 0 0 0-.052.027.14.14 0 0 1-.08.018.621.621 0 0 0-.104.01.513.513 0 0 1-.384-.153l-.158-.161z"/><path d="M139.601 210.938c0-.185.062-.328.184-.43a.585.585 0 0 1 .376-.152c.099 0 .18.03.244.09s.105.143.123.25a.58.58 0 0 1-.166.421.522.522 0 0 1-.385.17.39.39 0 0 1-.262-.09.348.348 0 0 1-.114-.259zm-.078 1.97c0-.172-.076-.259-.227-.259a.69.69 0 0 0-.367.108 1.135 1.135 0 0 0-.306.277 1.948 1.948 0 0 0-.21.332 5.955 5.955 0 0 1-.148.286l-.062.126a.543.543 0 0 1-.14.009h-.122c-.035-.036-.052-.06-.052-.072 0-.012.012-.05.035-.116.122-.293.294-.568.515-.824.222-.257.478-.407.77-.448h.07a.53.53 0 0 0 .104-.01c.14.007.268.037.384.09.146.084.257.176.332.278.076.102.114.26.114.475v.143l-.428 1.783a93.082 93.082 0 0 1-.472 1.863c-.105.299-.309.564-.612.797-.302.233-.649.353-1.04.359-.29 0-.489-.063-.593-.188a.671.671 0 0 1-.167-.412c0-.162.056-.3.167-.413a.573.573 0 0 1 .401-.179c.1 0 .184.03.254.09s.108.152.113.278c0 .215-.093.379-.28.492a.735.735 0 0 0 .123.01c.198 0 .379-.084.542-.252.163-.167.288-.364.376-.59l.096-.377c.064-.257.14-.567.227-.932.087-.364.18-.737.28-1.12.099-.382.177-.713.235-.994.059-.28.09-.45.097-.51a.436.436 0 0 0-.01-.1z"/><path fill="none" d="M139.601 210.938c0-.185.062-.328.184-.43a.585.585 0 0 1 .376-.152c.099 0 .18.03.244.09s.105.143.123.25a.58.58 0 0 1-.166.421.522.522 0 0 1-.385.17.39.39 0 0 1-.262-.09.348.348 0 0 1-.114-.259zm-.078 1.97c0-.172-.076-.259-.227-.259a.69.69 0 0 0-.367.108 1.135 1.135 0 0 0-.306.277 1.948 1.948 0 0 0-.21.332 5.955 5.955 0 0 1-.148.286l-.062.126a.543.543 0 0 1-.14.009h-.122c-.035-.036-.052-.06-.052-.072 0-.012.012-.05.035-.116.122-.293.294-.568.515-.824.222-.257.478-.407.77-.448h.07a.53.53 0 0 0 .104-.01c.14.007.268.037.384.09.146.084.257.176.332.278.076.102.114.26.114.475v.143l-.428 1.783a93.082 93.082 0 0 1-.472 1.863c-.105.299-.309.564-.612.797-.302.233-.649.353-1.04.359-.29 0-.489-.063-.593-.188a.671.671 0 0 1-.167-.412c0-.162.056-.3.167-.413a.573.573 0 0 1 .401-.179c.1 0 .184.03.254.09s.108.152.113.278c0 .215-.093.379-.28.492a.735.735 0 0 0 .123.01c.198 0 .379-.084.542-.252.163-.167.288-.364.376-.59l.096-.377c.064-.257.14-.567.227-.932.087-.364.18-.737.28-1.12.099-.382.177-.713.235-.994.059-.28.09-.45.097-.51a.436.436 0 0 0-.01-.1z"/><path d="m143.252 202.938.05-.013h.272l.346.304c.774.718 1.338 1.613 1.692 2.685.354 1.073.532 2.188.532 3.344 0 .575-.042 1.128-.124 1.66-.082.532-.177.984-.284 1.355-.107.372-.26.743-.457 1.115-.198.371-.355.654-.47.849-.115.194-.284.41-.506.646l-.396.418a3.84 3.84 0 0 1-.284.24l-.05.05H143.29c-.024 0-.045-.012-.061-.037a.303.303 0 0 1-.037-.114 6.42 6.42 0 0 0 .136-.165c1.276-1.36 1.915-3.365 1.915-6.017 0-2.651-.639-4.657-1.915-6.016a6.421 6.421 0 0 0-.136-.165c0-.068.02-.114.061-.14z"/><path fill="none" d="m143.252 202.938.05-.013h.272l.346.304c.774.718 1.338 1.613 1.692 2.685.354 1.073.532 2.188.532 3.344 0 .575-.042 1.128-.124 1.66-.082.532-.177.984-.284 1.355-.107.372-.26.743-.457 1.115-.198.371-.355.654-.47.849-.115.194-.284.41-.506.646l-.396.418a3.84 3.84 0 0 1-.284.24l-.05.05H143.29c-.024 0-.045-.012-.061-.037a.303.303 0 0 1-.037-.114 6.42 6.42 0 0 0 .136-.165c1.276-1.36 1.915-3.365 1.915-6.017 0-2.651-.639-4.657-1.915-6.016a6.421 6.421 0 0 0-.136-.165c0-.068.02-.114.061-.14z"/><path d="M154.342 203.736c0-.287.099-.538.297-.753a.978.978 0 0 1 .752-.322c.28 0 .524.095.733.286.21.191.32.448.333.77 0 .3-.1.556-.298.771a.978.978 0 0 1-.751.323c-.303 0-.553-.102-.751-.305a1.122 1.122 0 0 1-.315-.77z"/><path fill="none" d="M154.342 203.736c0-.287.099-.538.297-.753a.978.978 0 0 1 .752-.322c.28 0 .524.095.733.286.21.191.32.448.333.77 0 .3-.1.556-.298.771a.978.978 0 0 1-.751.323c-.303 0-.553-.102-.751-.305a1.122 1.122 0 0 1-.315-.77z"/><path d="M162.084 203.073c.011-.036.023-.084.035-.144.011-.06.04-.19.087-.394.047-.203.105-.388.175-.555.07-.167.157-.364.262-.591.105-.227.221-.406.35-.538.128-.131.279-.263.454-.394a.782.782 0 0 1 .576-.161c.28 0 .53.042.752.125a1.37 1.37 0 0 1 .804.717c.058.131.105.245.14.34l.034.126c0 .023.006.035.018.035l.192-.197c.71-.764 1.52-1.146 2.43-1.146.628 0 1.135.161 1.52.483.384.323.582.795.594 1.416v.179c0 .287-.373 1.917-1.119 4.891-.675 2.807-1.036 4.252-1.083 4.336-.152.323-.414.484-.786.484a.55.55 0 0 1-.385-.144.63.63 0 0 1-.192-.394c0-.107.344-1.558 1.03-4.353l1.084-4.48c.035-.179.053-.406.053-.68 0-.705-.257-1.057-.77-1.057h-.087c-1.001 0-1.846.603-2.533 1.81l-.123.214-.576 2.4c-.385 1.566-.606 2.408-.665 2.527-.151.323-.401.484-.751.484a.586.586 0 0 1-.367-.108.64.64 0 0 1-.192-.215c-.035-.071-.047-.131-.035-.179 0-.155.233-1.182.699-3.081.466-1.9.699-2.957.699-3.172 0-.465-.152-.698-.454-.698-.245 0-.455.167-.63.501a5.285 5.285 0 0 0-.419 1.093c-.105.394-.169.61-.192.645-.024.024-.117.036-.28.036h-.245c-.07-.072-.104-.125-.104-.161z"/><path fill="none" d="M162.084 203.073c.011-.036.023-.084.035-.144.011-.06.04-.19.087-.394.047-.203.105-.388.175-.555.07-.167.157-.364.262-.591.105-.227.221-.406.35-.538.128-.131.279-.263.454-.394a.782.782 0 0 1 .576-.161c.28 0 .53.042.752.125a1.37 1.37 0 0 1 .804.717c.058.131.105.245.14.34l.034.126c0 .023.006.035.018.035l.192-.197c.71-.764 1.52-1.146 2.43-1.146.628 0 1.135.161 1.52.483.384.323.582.795.594 1.416v.179c0 .287-.373 1.917-1.119 4.891-.675 2.807-1.036 4.252-1.083 4.336-.152.323-.414.484-.786.484a.55.55 0 0 1-.385-.144.63.63 0 0 1-.192-.394c0-.107.344-1.558 1.03-4.353l1.084-4.48c.035-.179.053-.406.053-.68 0-.705-.257-1.057-.77-1.057h-.087c-1.001 0-1.846.603-2.533 1.81l-.123.214-.576 2.4c-.385 1.566-.606 2.408-.665 2.527-.151.323-.401.484-.751.484a.586.586 0 0 1-.367-.108.64.64 0 0 1-.192-.215c-.035-.071-.047-.131-.035-.179 0-.155.233-1.182.699-3.081.466-1.9.699-2.957.699-3.172 0-.465-.152-.698-.454-.698-.245 0-.455.167-.63.501a5.285 5.285 0 0 0-.419 1.093c-.105.394-.169.61-.192.645-.024.024-.117.036-.28.036h-.245c-.07-.072-.104-.125-.104-.161z"/><path d="M170.686 207.267a.895.895 0 0 0 .025-.101c.008-.043.029-.136.062-.28.033-.143.074-.274.123-.392.05-.118.111-.257.185-.418.075-.16.157-.287.248-.38a2.79 2.79 0 0 1 .32-.279.553.553 0 0 1 .409-.114c.617 0 1.013.27 1.186.811l.123-.114c.51-.464.997-.697 1.458-.697.535 0 .956.199 1.26.596.305.397.457.878.457 1.444 0 .912-.313 1.752-.939 2.52-.626.77-1.334 1.158-2.125 1.166-.18 0-.341-.025-.481-.076a1.276 1.276 0 0 1-.285-.19 3.644 3.644 0 0 1-.234-.215l-.087-.102c-.008.009-.099.376-.272 1.102-.173.727-.26 1.094-.26 1.102 0 .051.034.08.1.089.066.008.218.021.457.038h.309c.05.06.074.097.074.114s-.012.093-.037.228a.474.474 0 0 1-.074.19c-.025.025-.079.042-.161.05h-.136c-.074 0-.214-.004-.42-.012a19.235 19.235 0 0 0-.766-.013c-.577 0-.943.009-1.1.026h-.098c-.058-.06-.087-.106-.087-.14.017-.228.07-.375.16-.443h.248c.28-.008.44-.06.482-.152.024-.05.276-1.06.753-3.027.478-1.968.73-3.01.754-3.13a.98.98 0 0 0 .012-.176c0-.347-.103-.52-.309-.52-.18 0-.333.118-.457.355a3.301 3.301 0 0 0-.284.773c-.066.278-.115.43-.148.456-.017.016-.082.025-.198.025h-.173c-.05-.05-.074-.089-.074-.114zm1.915 2.343c.181.642.486.963.914.963.248 0 .486-.097.717-.291.23-.195.42-.44.568-.735.149-.287.297-.743.445-1.368.148-.625.227-1.09.235-1.393v-.076c0-.625-.251-.938-.754-.938-.09 0-.18.013-.272.038-.09.026-.18.064-.271.114a1.82 1.82 0 0 0-.247.165 2.27 2.27 0 0 0-.21.19l-.186.19a.85.85 0 0 0-.136.177.412.412 0 0 1-.099.127l-.037.05c0 .009-.012.068-.037.178-.024.11-.07.295-.136.557a27.78 27.78 0 0 1-.173.659c-.214.895-.32 1.36-.32 1.393z"/><path fill="none" d="M170.686 207.267a.895.895 0 0 0 .025-.101c.008-.043.029-.136.062-.28.033-.143.074-.274.123-.392.05-.118.111-.257.185-.418.075-.16.157-.287.248-.38a2.79 2.79 0 0 1 .32-.279.553.553 0 0 1 .409-.114c.617 0 1.013.27 1.186.811l.123-.114c.51-.464.997-.697 1.458-.697.535 0 .956.199 1.26.596.305.397.457.878.457 1.444 0 .912-.313 1.752-.939 2.52-.626.77-1.334 1.158-2.125 1.166-.18 0-.341-.025-.481-.076a1.276 1.276 0 0 1-.285-.19 3.644 3.644 0 0 1-.234-.215l-.087-.102c-.008.009-.099.376-.272 1.102-.173.727-.26 1.094-.26 1.102 0 .051.034.08.1.089.066.008.218.021.457.038h.309c.05.06.074.097.074.114s-.012.093-.037.228a.474.474 0 0 1-.074.19c-.025.025-.079.042-.161.05h-.136c-.074 0-.214-.004-.42-.012a19.235 19.235 0 0 0-.766-.013c-.577 0-.943.009-1.1.026h-.098c-.058-.06-.087-.106-.087-.14.017-.228.07-.375.16-.443h.248c.28-.008.44-.06.482-.152.024-.05.276-1.06.753-3.027.478-1.968.73-3.01.754-3.13a.98.98 0 0 0 .012-.176c0-.347-.103-.52-.309-.52-.18 0-.333.118-.457.355a3.301 3.301 0 0 0-.284.773c-.066.278-.115.43-.148.456-.017.016-.082.025-.198.025h-.173c-.05-.05-.074-.089-.074-.114zm1.915 2.343c.181.642.486.963.914.963.248 0 .486-.097.717-.291.23-.195.42-.44.568-.735.149-.287.297-.743.445-1.368.148-.625.227-1.09.235-1.393v-.076c0-.625-.251-.938-.754-.938-.09 0-.18.013-.272.038-.09.026-.18.064-.271.114a1.82 1.82 0 0 0-.247.165 2.27 2.27 0 0 0-.21.19l-.186.19a.85.85 0 0 0-.136.177.412.412 0 0 1-.099.127l-.037.05c0 .009-.012.068-.037.178-.024.11-.07.295-.136.557a27.78 27.78 0 0 1-.173.659c-.214.895-.32 1.36-.32 1.393z"/><path d="M177.587 210.459v-.317c0-.21.066-.392.198-.544a.667.667 0 0 1 .53-.228c.232 0 .437.105.619.316.18.211.276.583.284 1.115 0 .296-.037.583-.111.861-.074.279-.161.52-.26.722a2.757 2.757 0 0 1-.321.52 4.882 4.882 0 0 1-.297.342c-.082.084-.135.122-.16.114-.033 0-.087-.038-.16-.114-.075-.076-.112-.131-.112-.165s.045-.101.136-.203c.09-.101.193-.228.309-.38.115-.152.222-.363.321-.633s.165-.578.198-.925v-.152l-.013.013a.473.473 0 0 1-.061.025.309.309 0 0 0-.075.038.198.198 0 0 1-.11.026.879.879 0 0 0-.149.012.726.726 0 0 1-.544-.215l-.222-.228z"/><path fill="none" d="M177.587 210.459v-.317c0-.21.066-.392.198-.544a.667.667 0 0 1 .53-.228c.232 0 .437.105.619.316.18.211.276.583.284 1.115 0 .296-.037.583-.111.861-.074.279-.161.52-.26.722a2.757 2.757 0 0 1-.321.52 4.882 4.882 0 0 1-.297.342c-.082.084-.135.122-.16.114-.033 0-.087-.038-.16-.114-.075-.076-.112-.131-.112-.165s.045-.101.136-.203c.09-.101.193-.228.309-.38.115-.152.222-.363.321-.633s.165-.578.198-.925v-.152l-.013.013a.473.473 0 0 1-.061.025.309.309 0 0 0-.075.038.198.198 0 0 1-.11.026.879.879 0 0 0-.149.012.726.726 0 0 1-.544-.215l-.222-.228z"/><path d="M183.718 203.353c0-.262.086-.465.26-.608.172-.144.35-.216.53-.216.14 0 .256.043.347.127.09.085.148.203.173.355a.82.82 0 0 1-.235.595.738.738 0 0 1-.544.24.55.55 0 0 1-.37-.126.492.492 0 0 1-.161-.367zm-.111 2.787c0-.245-.107-.368-.322-.368a.975.975 0 0 0-.518.152 1.605 1.605 0 0 0-.433.393c-.123.16-.222.317-.296.469a8.42 8.42 0 0 1-.21.405l-.087.177a.768.768 0 0 1-.198.013h-.173c-.049-.05-.074-.085-.074-.101 0-.017.017-.072.05-.165.173-.414.416-.802.729-1.165.313-.364.675-.575 1.087-.634h.099a.75.75 0 0 0 .148-.013c.198.009.379.051.544.127.206.118.362.25.47.393.106.143.16.367.16.671v.203l-.606 2.52c-.42 1.69-.642 2.568-.667 2.635-.148.423-.436.798-.865 1.128a2.41 2.41 0 0 1-1.47.506c-.412 0-.692-.088-.84-.266a.95.95 0 0 1-.235-.582c0-.228.078-.423.235-.583a.81.81 0 0 1 .568-.253c.14 0 .26.042.359.126.098.085.152.216.16.393a.769.769 0 0 1-.395.697c.05.008.107.012.173.012.28 0 .535-.118.766-.354.23-.237.408-.515.531-.836l.136-.532c.09-.363.198-.803.321-1.318a90.16 90.16 0 0 1 .396-1.583c.14-.54.25-1.01.333-1.406.083-.397.128-.638.136-.722a.616.616 0 0 0-.012-.14z"/><path fill="none" d="M183.718 203.353c0-.262.086-.465.26-.608.172-.144.35-.216.53-.216.14 0 .256.043.347.127.09.085.148.203.173.355a.82.82 0 0 1-.235.595.738.738 0 0 1-.544.24.55.55 0 0 1-.37-.126.492.492 0 0 1-.161-.367zm-.111 2.787c0-.245-.107-.368-.322-.368a.975.975 0 0 0-.518.152 1.605 1.605 0 0 0-.433.393c-.123.16-.222.317-.296.469a8.42 8.42 0 0 1-.21.405l-.087.177a.768.768 0 0 1-.198.013h-.173c-.049-.05-.074-.085-.074-.101 0-.017.017-.072.05-.165.173-.414.416-.802.729-1.165.313-.364.675-.575 1.087-.634h.099a.75.75 0 0 0 .148-.013c.198.009.379.051.544.127.206.118.362.25.47.393.106.143.16.367.16.671v.203l-.606 2.52c-.42 1.69-.642 2.568-.667 2.635-.148.423-.436.798-.865 1.128a2.41 2.41 0 0 1-1.47.506c-.412 0-.692-.088-.84-.266a.95.95 0 0 1-.235-.582c0-.228.078-.423.235-.583a.81.81 0 0 1 .568-.253c.14 0 .26.042.359.126.098.085.152.216.16.393a.769.769 0 0 1-.395.697c.05.008.107.012.173.012.28 0 .535-.118.766-.354.23-.237.408-.515.531-.836l.136-.532c.09-.363.198-.803.321-1.318a90.16 90.16 0 0 1 .396-1.583c.14-.54.25-1.01.333-1.406.083-.397.128-.638.136-.722a.616.616 0 0 0-.012-.14z"/></g></svg>