<svg xmlns="http://www.w3.org/2000/svg" xmlns:xlink="http://www.w3.org/1999/xlink" xmlns:inkscape="http://www.inkscape.org/namespaces/inkscape" version="1.1" width="216" height="229.92" viewBox="0 0 216 229.92">
<defs>
<clipPath id="clip_1">
<path transform="matrix(.24,0,0,.24,0,0)" d="M0 0H899.99996V956.6225H0Z" clip-rule="evenodd"/>
</clipPath>
<clipPath id="clip_2">
<path transform="matrix(.24,0,0,.24,0,0)" d="M0 0H899.99996V950.66226H0Z" clip-rule="evenodd"/>
</clipPath>
<clipPath id="clip_3">
<path transform="matrix(.24,0,0,.24,0,0)" d="M476.82118 813.5761H664.5695V876.1589H476.82118Z" clip-rule="evenodd"/>
</clipPath>
<clipPath id="clip_4">
<path transform="matrix(.24,0,0,.24,0,0)" d="M0 0H899.99996V950.66226H0Z" clip-rule="evenodd"/>
</clipPath>
<clipPath id="clip_5">
<path transform="matrix(.24,0,0,.24,0,0)" d="M485.76158 500.66224H670.5298V563.245H485.76158Z" clip-rule="evenodd"/>
</clipPath>
<clipPath id="clip_6">
<path transform="matrix(.24,0,0,.24,0,0)" d="M0 0H899.99996V950.66226H0Z" clip-rule="evenodd"/>
</clipPath>
<clipPath id="clip_7">
<path transform="matrix(.24,0,0,.24,0,0)" d="M470.8609 169.86754H670.5298V232.45032H470.8609Z" clip-rule="evenodd"/>
</clipPath>
<clipPath id="clip_8">
<path transform="matrix(.24,0,0,.24,0,0)" d="M0 0H899.99996V950.66226H0Z" clip-rule="evenodd"/>
</clipPath>
</defs>
<g clip-path="url(#clip_1)">
<path transform="matrix(.7152317,0,0,.7152317,0,0)" d="M0 0H302V321H0Z" fill="#ffffff"/>
</g>
<g clip-path="url(#clip_2)">
<path transform="matrix(.7152317,0,0,.7152317,.35761587,.35761587)" d="M63.5 229.5C63.499998 230.32076 63.419935 231.13362 63.259809 231.93862 63.09968 232.7436 62.86257 233.52524 62.54848 234.28353 62.23439 235.04181 61.84935 235.76216 61.393365 236.4446 60.937376 237.12705 60.419195 237.75846 59.83883 238.33882 59.25846 238.91919 58.627058 239.43737 57.94462 239.89334 57.26218 240.34934 56.541818 240.73438 55.783536 241.04848 55.025255 241.36257 54.243616 241.59967 53.438627 241.7598 52.633638 241.91994 51.82076 242 51 242 50.179239 242 49.36636 241.91994 48.56137 241.7598 47.756376 241.59967 46.974737 241.36257 46.216455 241.04848 45.458169 240.73438 44.73781 240.34934 44.05537 239.89334 43.372934 239.43737 42.74153 238.91919 42.161165 238.33882 41.580797 237.75846 41.062616 237.12705 40.60662 236.4446 40.15063 235.76216 39.76559 235.04181 39.4515 234.28353 39.13741 233.52524 38.9003 232.7436 38.740179 231.93862 38.58006 231.13362 38.5 230.32076 38.5 229.5 38.5 228.67922 38.58006 227.86634 38.740179 227.06134 38.9003 226.25635 39.13741 225.4747 39.4515 224.71642 39.76559 223.95813 40.15063 223.23778 40.60662 222.55535 41.062616 221.87291 41.580797 221.24152 42.161165 220.66115 42.74153 220.08078 43.372938 219.56259 44.055376 219.1066 44.73781 218.65062 45.458169 218.26558 46.216455 217.95149 46.974737 217.6374 47.756376 217.4003 48.561368 217.24018 49.36636 217.08007 50.179239 217 51 217 51.82076 217 52.633638 217.08007 53.43863 217.24018 54.243619 217.4003 55.025259 217.6374 55.78354 217.95149 56.54182 218.26558 57.26218 218.65062 57.94462 219.1066 58.627058 219.56259 59.25846 220.08078 59.83883 220.66115 60.419195 221.24152 60.93737 221.87291 61.39336 222.55536 61.84935 223.23778 62.23439 223.95813 62.54848 224.71642 62.86257 225.4747 63.09968 226.25635 63.259809 227.06134 63.419935 227.86634 63.499998 228.67922 63.5 229.5Z" fill="#008c8c" fill-opacity=".702"/>
<path transform="matrix(.7152317,0,0,.7152317,.35761587,.35761587)" stroke-width="1" stroke-linecap="butt" stroke-miterlimit="4" stroke-linejoin="miter" fill="none" stroke="#000000" stroke-opacity=".702" d="M63.5 229.5C63.499998 230.32076 63.419935 231.13362 63.259809 231.93862 63.09968 232.7436 62.86257 233.52524 62.54848 234.28353 62.23439 235.04181 61.84935 235.76216 61.393365 236.4446 60.937376 237.12705 60.419195 237.75846 59.83883 238.33882 59.25846 238.91919 58.627058 239.43737 57.94462 239.89334 57.26218 240.34934 56.541818 240.73438 55.783536 241.04848 55.025255 241.36257 54.243616 241.59967 53.438627 241.7598 52.633638 241.91994 51.82076 242 51 242 50.179239 242 49.36636 241.91994 48.56137 241.7598 47.756376 241.59967 46.974737 241.36257 46.216455 241.04848 45.458169 240.73438 44.73781 240.34934 44.05537 239.89334 43.372934 239.43737 42.74153 238.91919 42.161165 238.33882 41.580797 237.75846 41.062616 237.12705 40.60662 236.4446 40.15063 235.76216 39.76559 235.04181 39.4515 234.28353 39.13741 233.52524 38.9003 232.7436 38.740179 231.93862 38.58006 231.13362 38.5 230.32076 38.5 229.5 38.5 228.67922 38.58006 227.86634 38.740179 227.06134 38.9003 226.25635 39.13741 225.4747 39.4515 224.71642 39.76559 223.95813 40.15063 223.23778 40.60662 222.55535 41.062616 221.87291 41.580797 221.24152 42.161165 220.66115 42.74153 220.08078 43.372938 219.56259 44.055376 219.1066 44.73781 218.65062 45.458169 218.26558 46.216455 217.95149 46.974737 217.6374 47.756376 217.4003 48.561368 217.24018 49.36636 217.08007 50.179239 217 51 217 51.82076 217 52.633638 217.08007 53.43863 217.24018 54.243619 217.4003 55.025259 217.6374 55.78354 217.95149 56.54182 218.26558 57.26218 218.65062 57.94462 219.1066 58.627058 219.56259 59.25846 220.08078 59.83883 220.66115 60.419195 221.24152 60.93737 221.87291 61.39336 222.55536 61.84935 223.23778 62.23439 223.95813 62.54848 224.71642 62.86257 225.4747 63.09968 226.25635 63.259809 227.06134 63.419935 227.86634 63.499998 228.67922 63.5 229.5Z"/>
<path transform="matrix(.7152317,0,0,.7152317,.35761587,.35761587)" d="M1 229.5H33.5C33.5 239.16 41.34 247 51 247 60.66 247 68.5 239.16 68.5 229.5H101V317H1V229.5Z" fill="#008c8c" fill-opacity=".702"/>
<path transform="matrix(.7152317,0,0,.7152317,.35761587,.35761587)" stroke-width="1" stroke-linecap="butt" stroke-miterlimit="10" stroke-linejoin="miter" fill="none" stroke="#000000" stroke-opacity=".702" d="M1 229.5H33.5C33.5 239.16 41.34 247 51 247 60.66 247 68.5 239.16 68.5 229.5H101V317H1V229.5Z"/>
<text xml:space="preserve" transform="matrix(.7152317 0 0 .7152317 0 0)" font-size="17" font-family="Helvetica-Bold" font-weight="bold"><tspan y="272" x="12.296875 23.635876 38.74888 48.20088 54.813879 65.200878 69.92687 80.31387">Emerging</tspan></text>
<text xml:space="preserve" transform="matrix(.7152317 0 0 .7152317 0 0)" font-size="17" font-family="Helvetica-Bold" font-weight="bold"><tspan y="272" x="90.6875"> </tspan></text>
<text xml:space="preserve" transform="matrix(.7152317 0 0 .7152317 0 0)" font-size="17" font-family="Helvetica-Bold" font-weight="bold"><tspan y="292" x="7.09375 19.367753 28.819752 39.206754 48.658754 61.884756 71.336757 81.723758 86.44975">Renewable</tspan></text>
<path transform="matrix(.7152317,0,0,.7152317,.35761587,.35761587)" d="M63.5 123.5C63.499998 124.320758 63.419935 125.13363 63.259809 125.93862 63.09968 126.74361 62.86257 127.52524 62.54848 128.28353 62.23439 129.04181 61.84935 129.76216 61.393365 130.4446 60.937376 131.12705 60.419195 131.75846 59.83883 132.33882 59.25846 132.91918 58.627058 133.43735 57.94462 133.89334 57.26218 134.34932 56.541818 134.73438 55.783536 135.04848 55.025255 135.36257 54.243616 135.59967 53.438627 135.7598 52.633638 135.91992 51.82076 135.99999 51 136 50.179239 135.99999 49.36636 135.91992 48.56137 135.7598 47.756376 135.59967 46.974737 135.36257 46.216455 135.04848 45.458169 134.73438 44.73781 134.34932 44.05537 133.89334 43.372934 133.43735 42.74153 132.91918 42.161165 132.33882 41.580797 131.75846 41.062616 131.12705 40.60662 130.4446 40.15063 129.76216 39.76559 129.04181 39.4515 128.28353 39.13741 127.52524 38.9003 126.74361 38.740179 125.93862 38.58006 125.13363 38.5 124.320758 38.5 123.5 38.5 122.67924 38.58006 121.866359 38.740179 121.06136 38.9003 120.25636 39.13741 119.474727 39.4515 118.716449 39.76559 117.95817 40.15063 117.23781 40.60662 116.55537 41.062616 115.872928 41.580797 115.24152 42.161165 114.66116 42.74153 114.080799 43.372938 113.562618 44.055376 113.10661 44.73781 112.65063 45.458169 112.26559 46.216455 111.95149 46.974737 111.637409 47.756376 111.40031 48.561368 111.24019 49.36636 111.08006 50.179239 111 51 111 51.82076 111 52.633638 111.08006 53.43863 111.24019 54.243619 111.40031 55.025259 111.637409 55.78354 111.95149 56.54182 112.26559 57.26218 112.65063 57.94462 113.10662 58.627058 113.562618 59.25846 114.080799 59.83883 114.66116 60.419195 115.24152 60.93737 115.872928 61.39336 116.55537 61.84935 117.23781 62.23439 117.95817 62.54848 118.716449 62.86257 119.474727 63.09968 120.25636 63.259809 121.06136 63.419935 121.866359 63.499998 122.67924 63.5 123.5Z" fill="#bfa64d" fill-opacity=".702"/>
<path transform="matrix(.7152317,0,0,.7152317,.35761587,.35761587)" stroke-width="1" stroke-linecap="butt" stroke-miterlimit="4" stroke-linejoin="miter" fill="none" stroke="#000000" stroke-opacity=".702" d="M63.5 123.5C63.499998 124.320758 63.419935 125.13363 63.259809 125.93862 63.09968 126.74361 62.86257 127.52524 62.54848 128.28353 62.23439 129.04181 61.84935 129.76216 61.393365 130.4446 60.937376 131.12705 60.419195 131.75846 59.83883 132.33882 59.25846 132.91918 58.627058 133.43735 57.94462 133.89334 57.26218 134.34932 56.541818 134.73438 55.783536 135.04848 55.025255 135.36257 54.243616 135.59967 53.438627 135.7598 52.633638 135.91992 51.82076 135.99999 51 136 50.179239 135.99999 49.36636 135.91992 48.56137 135.7598 47.756376 135.59967 46.974737 135.36257 46.216455 135.04848 45.458169 134.73438 44.73781 134.34932 44.05537 133.89334 43.372934 133.43735 42.74153 132.91918 42.161165 132.33882 41.580797 131.75846 41.062616 131.12705 40.60662 130.4446 40.15063 129.76216 39.76559 129.04181 39.4515 128.28353 39.13741 127.52524 38.9003 126.74361 38.740179 125.93862 38.58006 125.13363 38.5 124.320758 38.5 123.5 38.5 122.67924 38.58006 121.866359 38.740179 121.06136 38.9003 120.25636 39.13741 119.474727 39.4515 118.716449 39.76559 117.95817 40.15063 117.23781 40.60662 116.55537 41.062616 115.872928 41.580797 115.24152 42.161165 114.66116 42.74153 114.080799 43.372938 113.562618 44.055376 113.10661 44.73781 112.65063 45.458169 112.26559 46.216455 111.95149 46.974737 111.637409 47.756376 111.40031 48.561368 111.24019 49.36636 111.08006 50.179239 111 51 111 51.82076 111 52.633638 111.08006 53.43863 111.24019 54.243619 111.40031 55.025259 111.637409 55.78354 111.95149 56.54182 112.26559 57.26218 112.65063 57.94462 113.10662 58.627058 113.562618 59.25846 114.080799 59.83883 114.66116 60.419195 115.24152 60.93737 115.872928 61.39336 116.55537 61.84935 117.23781 62.23439 117.95817 62.54848 118.716449 62.86257 119.474727 63.09968 120.25636 63.259809 121.06136 63.419935 121.866359 63.499998 122.67924 63.5 123.5Z"/>
<path transform="matrix(.7152317,0,0,.7152317,.35761587,.35761587)" d="M1 123.5H33.5C33.5 133.16 41.34 141 51 141 60.66 141 68.5 133.16 68.5 123.5H101V211H1V123.5Z" fill="#bfa64d" fill-opacity=".702"/>
<path transform="matrix(.7152317,0,0,.7152317,.35761587,.35761587)" stroke-width="1" stroke-linecap="butt" stroke-miterlimit="10" stroke-linejoin="miter" fill="none" stroke="#000000" stroke-opacity=".702" d="M1 123.5H33.5C33.5 133.16 41.34 141 51 141 60.66 141 68.5 133.16 68.5 123.5H101V211H1V123.5Z"/>
<text xml:space="preserve" transform="matrix(.7152317 0 0 .7152317 0 0)" font-size="17" font-family="Helvetica-Bold" font-weight="bold"><tspan y="166" x="25.984375 37.323377 42.984376 52.436376 62.823377 67.54938">Stable</tspan></text>
<text xml:space="preserve" transform="matrix(.7152317 0 0 .7152317 0 0)" font-size="17" font-family="Helvetica-Bold" font-weight="bold"><tspan y="186" x="7.09375 19.367753 28.819752 39.206754 48.658754 61.884756 71.336757 81.723758 86.44975">Renewable</tspan></text>
<path transform="matrix(.7152317,0,0,.7152317,.35761587,.35761587)" d="M63.5 13.5C63.499998 14.320762 63.419935 15.133637 63.259809 15.938627 63.09968 16.743618 62.86257 17.525256 62.54848 18.28354 62.23439 19.041825 61.84935 19.762187 61.393365 20.444624 60.937376 21.127062 60.419195 21.758465 59.83883 22.33883 59.25846 22.919198 58.627058 23.437375 57.94462 23.893366 57.26218 24.349356 56.541818 24.734398 55.783536 25.04849 55.025255 25.362584 54.243616 25.59969 53.438627 25.759814 52.633638 25.919936 51.82076 25.999999 51 26 50.179239 25.999999 49.36636 25.919936 48.56137 25.759814 47.756376 25.59969 46.974737 25.362584 46.216455 25.04849 45.458169 24.734398 44.73781 24.349356 44.05537 23.893364 43.372934 23.437375 42.74153 22.919198 42.161165 22.33883 41.580797 21.758465 41.062616 21.127062 40.60662 20.444624 40.15063 19.762187 39.76559 19.041825 39.4515 18.28354 39.13741 17.525256 38.9003 16.743618 38.740179 15.938627 38.58006 15.133637 38.5 14.320762 38.5 13.5 38.5 12.679238 38.58006 11.866362 38.740179 11.061371 38.9003 10.256379 39.13741 9.474741 39.4515 8.716456 39.76559 7.9581716 40.15063 7.2378098 40.60662 6.5553715 41.062616 5.872933 41.580797 5.2415306 42.161165 4.6611649 42.74153 4.0807988 43.372938 3.5626202 44.055376 3.1066297 44.73781 2.6506389 45.458169 2.2655974 46.216455 1.9515056 46.974737 1.6374137 47.756376 1.4003065 48.561368 1.240184 49.36636 1.0800613 50.179239 1 51 1 51.82076 1 52.633638 1.0800613 53.43863 1.240184 54.243619 1.4003065 55.025259 1.6374137 55.78354 1.9515056 56.54182 2.2655974 57.26218 2.6506389 57.94462 3.1066297 58.627058 3.5626202 59.25846 4.0807988 59.83883 4.6611649 60.419195 5.2415306 60.93737 5.872933 61.39336 6.5553715 61.84935 7.2378098 62.23439 7.9581716 62.54848 8.716456 62.86257 9.474741 63.09968 10.256379 63.259809 11.061371 63.419935 11.866362 63.499998 12.679238 63.5 13.5Z" fill="#40598c" fill-opacity=".702"/>
<path transform="matrix(.7152317,0,0,.7152317,.35761587,.35761587)" stroke-width="1" stroke-linecap="butt" stroke-miterlimit="4" stroke-linejoin="miter" fill="none" stroke="#000000" stroke-opacity=".702" d="M63.5 13.5C63.499998 14.320762 63.419935 15.133637 63.259809 15.938627 63.09968 16.743618 62.86257 17.525256 62.54848 18.28354 62.23439 19.041825 61.84935 19.762187 61.393365 20.444624 60.937376 21.127062 60.419195 21.758465 59.83883 22.33883 59.25846 22.919198 58.627058 23.437375 57.94462 23.893366 57.26218 24.349356 56.541818 24.734398 55.783536 25.04849 55.025255 25.362584 54.243616 25.59969 53.438627 25.759814 52.633638 25.919936 51.82076 25.999999 51 26 50.179239 25.999999 49.36636 25.919936 48.56137 25.759814 47.756376 25.59969 46.974737 25.362584 46.216455 25.04849 45.458169 24.734398 44.73781 24.349356 44.05537 23.893364 43.372934 23.437375 42.74153 22.919198 42.161165 22.33883 41.580797 21.758465 41.062616 21.127062 40.60662 20.444624 40.15063 19.762187 39.76559 19.041825 39.4515 18.28354 39.13741 17.525256 38.9003 16.743618 38.740179 15.938627 38.58006 15.133637 38.5 14.320762 38.5 13.5 38.5 12.679238 38.58006 11.866362 38.740179 11.061371 38.9003 10.256379 39.13741 9.474741 39.4515 8.716456 39.76559 7.9581716 40.15063 7.2378098 40.60662 6.5553715 41.062616 5.872933 41.580797 5.2415306 42.161165 4.6611649 42.74153 4.0807988 43.372938 3.5626202 44.055376 3.1066297 44.73781 2.6506389 45.458169 2.2655974 46.216455 1.9515056 46.974737 1.6374137 47.756376 1.4003065 48.561368 1.240184 49.36636 1.0800613 50.179239 1 51 1 51.82076 1 52.633638 1.0800613 53.43863 1.240184 54.243619 1.4003065 55.025259 1.6374137 55.78354 1.9515056 56.54182 2.2655974 57.26218 2.6506389 57.94462 3.1066297 58.627058 3.5626202 59.25846 4.0807988 59.83883 4.6611649 60.419195 5.2415306 60.93737 5.872933 61.39336 6.5553715 61.84935 7.2378098 62.23439 7.9581716 62.54848 8.716456 62.86257 9.474741 63.09968 10.256379 63.259809 11.061371 63.419935 11.866362 63.499998 12.679238 63.5 13.5Z"/>
<path transform="matrix(.7152317,0,0,.7152317,.35761587,.35761587)" d="M1 13.5H33.5C33.5 23.16 41.34 31 51 31 60.66 31 68.5 23.16 68.5 13.5H101V101H1V13.5Z" fill="#40598c" fill-opacity=".702"/>
<path transform="matrix(.7152317,0,0,.7152317,.35761587,.35761587)" stroke-width="1" stroke-linecap="butt" stroke-miterlimit="10" stroke-linejoin="miter" fill="none" stroke="#000000" stroke-opacity=".702" d="M1 13.5H33.5C33.5 23.16 41.34 31 51 31 60.66 31 68.5 23.16 68.5 13.5H101V101H1V13.5Z"/>
<text xml:space="preserve" transform="matrix(.7152317 0 0 .7152317 0 0)" font-size="17" font-family="Helvetica-Bold" font-weight="bold"><tspan y="56" x="23.640625 37.80163 47.253629 52.914628 63.30163 69.91463">Mature</tspan></text>
<text xml:space="preserve" transform="matrix(.7152317 0 0 .7152317 0 0)" font-size="17" font-family="Helvetica-Bold" font-weight="bold"><tspan y="56" x="79.359378"> </tspan></text>
<text xml:space="preserve" transform="matrix(.7152317 0 0 .7152317 0 0)" font-size="17" font-family="Helvetica-Bold" font-weight="bold"><tspan y="76" x="32.140626 44.414628 49.14063 55.753629 61.414628">Dirty</tspan></text>
<text xml:space="preserve" transform="matrix(.7152317 0 0 .7152317 0 0)" font-size="12" font-family="Helvetica-Bold" font-weight="bold"><tspan y="127" x="42.65625 50.66025">SR</tspan></text>
<text xml:space="preserve" transform="matrix(.7152317 0 0 .7152317 0 0)" font-size="12" font-family="Helvetica-Bold" font-weight="bold"><tspan y="234" x="42.65625 50.66025">ER</tspan></text>
<text xml:space="preserve" transform="matrix(.7152317 0 0 .7152317 0 0)" font-size="12" font-family="Helvetica-Bold" font-weight="bold"><tspan y="20" x="41.65625 51.652254">MD</tspan></text>
<path transform="matrix(.7152317,0,0,.7152317,.35761587,.35761587)" d="M203.5 229.5C203.49999 230.32076 203.41992 231.13362 203.2598 231.93862 203.09969 232.7436 202.86258 233.52524 202.54848 234.28353 202.23438 235.04181 201.84934 235.76216 201.39336 236.4446 200.93737 237.12705 200.41919 237.75846 199.83882 238.33882 199.25846 238.91919 198.62705 239.43737 197.9446 239.89334 197.26216 240.34934 196.54181 240.73438 195.78353 241.04848 195.02524 241.36257 194.24359 241.59967 193.43862 241.7598 192.63364 241.91994 191.82076 242 191 242 190.17925 242 189.36637 241.91994 188.56136 241.7598 187.75635 241.59967 186.9747 241.36257 186.21642 241.04848 185.45815 240.73438 184.7378 240.34934 184.05536 239.89334 183.37293 239.43737 182.74153 238.91919 182.16117 238.33882 181.5808 237.75846 181.06262 237.12705 180.60665 236.4446 180.15064 235.76216 179.7656 235.04181 179.4515 234.28353 179.1374 233.52524 178.9003 232.7436 178.74018 231.93862 178.58005 231.13362 178.49999 230.32076 178.5 229.5 178.49999 228.67922 178.58005 227.86634 178.74018 227.06134 178.9003 226.25635 179.1374 225.4747 179.4515 224.71642 179.7656 223.95813 180.15064 223.23778 180.60662 222.55535 181.0626 221.87291 181.5808 221.24152 182.16117 220.66115 182.74153 220.08078 183.37293 219.56259 184.05536 219.1066 184.73781 218.65062 185.45816 218.26558 186.21645 217.95149 186.97473 217.6374 187.75637 217.4003 188.56136 217.24018 189.36637 217.08007 190.17925 217 191 217 191.82076 217 192.63364 217.08007 193.43862 217.24018 194.24359 217.4003 195.02523 217.6374 195.78351 217.95149 196.5418 218.26558 197.26216 218.65062 197.9446 219.1066 198.62705 219.56259 199.25846 220.08078 199.83882 220.66115 200.41919 221.24152 200.93737 221.87291 201.39336 222.55536 201.84934 223.23778 202.23438 223.95813 202.54848 224.71642 202.86258 225.4747 203.09969 226.25635 203.25981 227.06134 203.41992 227.86634 203.49999 228.67922 203.5 229.5Z" fill="#008c8c" fill-opacity=".502"/>
<path transform="matrix(.7152317,0,0,.7152317,.35761587,.35761587)" stroke-width="1" stroke-linecap="butt" stroke-miterlimit="4" stroke-linejoin="miter" fill="none" stroke="#000000" stroke-opacity=".502" d="M203.5 229.5C203.49999 230.32076 203.41992 231.13362 203.2598 231.93862 203.09969 232.7436 202.86258 233.52524 202.54848 234.28353 202.23438 235.04181 201.84934 235.76216 201.39336 236.4446 200.93737 237.12705 200.41919 237.75846 199.83882 238.33882 199.25846 238.91919 198.62705 239.43737 197.9446 239.89334 197.26216 240.34934 196.54181 240.73438 195.78353 241.04848 195.02524 241.36257 194.24359 241.59967 193.43862 241.7598 192.63364 241.91994 191.82076 242 191 242 190.17925 242 189.36637 241.91994 188.56136 241.7598 187.75635 241.59967 186.9747 241.36257 186.21642 241.04848 185.45815 240.73438 184.7378 240.34934 184.05536 239.89334 183.37293 239.43737 182.74153 238.91919 182.16117 238.33882 181.5808 237.75846 181.06262 237.12705 180.60665 236.4446 180.15064 235.76216 179.7656 235.04181 179.4515 234.28353 179.1374 233.52524 178.9003 232.7436 178.74018 231.93862 178.58005 231.13362 178.49999 230.32076 178.5 229.5 178.49999 228.67922 178.58005 227.86634 178.74018 227.06134 178.9003 226.25635 179.1374 225.4747 179.4515 224.71642 179.7656 223.95813 180.15064 223.23778 180.60662 222.55535 181.0626 221.87291 181.5808 221.24152 182.16117 220.66115 182.74153 220.08078 183.37293 219.56259 184.05536 219.1066 184.73781 218.65062 185.45816 218.26558 186.21645 217.95149 186.97473 217.6374 187.75637 217.4003 188.56136 217.24018 189.36637 217.08007 190.17925 217 191 217 191.82076 217 192.63364 217.08007 193.43862 217.24018 194.24359 217.4003 195.02523 217.6374 195.78351 217.95149 196.5418 218.26558 197.26216 218.65062 197.9446 219.1066 198.62705 219.56259 199.25846 220.08078 199.83882 220.66115 200.41919 221.24152 200.93737 221.87291 201.39336 222.55536 201.84934 223.23778 202.23438 223.95813 202.54848 224.71642 202.86258 225.4747 203.09969 226.25635 203.25981 227.06134 203.41992 227.86634 203.49999 228.67922 203.5 229.5Z"/>
<path transform="matrix(.7152317,0,0,.7152317,.35761587,.35761587)" d="M141 229.5H173.5C173.5 239.16 181.34 247 191 247 200.66 247 208.5 239.16 208.5 229.5H241V317H141V229.5Z" fill="#008c8c" fill-opacity=".502"/>
<path transform="matrix(.7152317,0,0,.7152317,.35761587,.35761587)" stroke-width="1" stroke-linecap="butt" stroke-miterlimit="10" stroke-linejoin="miter" fill="none" stroke="#000000" stroke-opacity=".502" d="M141 229.5H173.5C173.5 239.16 181.34 247 191 247 200.66 247 208.5 239.16 208.5 229.5H241V317H141V229.5Z"/>
</g>
<g clip-path="url(#clip_3)">
<path transform="matrix(.014573475,0,0,-.014699421,114.442119,206.68706)" d="M55 507C55 562.3333 74 609 112 647 150 685 193.66666 704 243 704H257C313.66667 704 363 683 405 641L426 672C429.33335 676.6667 432.66667 681.6667 436 687 439.33335 692.3333 442.66667 696.6667 446 700L449 704C449.66667 704 451 704 453 704 455 704 457 704.3333 459 705H463C465 705 468 703 472 699V462L466 456H448C440.66667 456 436.33335 457 435 459 433.66667 461 432 467.66667 430 479 418.66667 563 385 618.6667 329 646 304.33335 656.6667 279.33335 662 254 662 218.66666 662 190 650 168 626 146 602 135 574 135 542 135 519.3333 140.66667 498.66667 152 480 163.33333 461.33335 179.33333 446.33335 200 435 206.66667 432.33335 235.33333 424.66667 286 412 336.66667 399.33335 364.66667 391.66667 370 389 408 374.33335 439 349.33335 463 314 487 278.66667 499.33335 237.66667 500 191 500 137 482.66667 88.333339 448 45 413.33335 1.6666641 364.33335-20.333334 301-21 263.66667-21 230.33333-15.333334 201-4 171.66667 7.333334 151.33333 17.666666 140 27L122 41C119.333339 37.666669 114.333339 31 107 21 99.666667 11 93 1.666667 87-7 81-15.666667 78-20.333334 78-21 76.666667-21.666666 73.333339-22 68-22H64C62-22 59-20 55-16V101C55 180.33335 55.333333 220.66667 56 222 57.333333 225.33333 64 227 76 227H89C93 223 95 218.66667 95 214 95 192.66667 98.333339 171.66667 105 151 111.666667 130.33333 123 110 139 90 155 70 177 54 205 42 233 30 266.33335 24 305 24 336.33335 24 363.33335 36.666666 386 62 408.66667 87.333339 420 118.33333 420 155 420 183.66667 412.66667 209.66667 398 233 383.33335 256.33335 364 272.33335 340 281 302.66667 290.33335 278 296.66667 266 300 262.66667 300.66667 253.66667 302.66667 239 306 224.33333 309.33335 213.33333 312 206 314 198.66667 316 188 319.66667 174 325 160 330.33335 149 336.33335 141 343 133 349.66667 123.333339 357.66667 112 367 100.666667 376.33335 91.666667 388 85 402 65 434.66667 55 469.66667 55 507Z"/>
<path transform="matrix(.014573475,0,0,-.014699421,114.442119,206.68706)" stroke-linecap="butt" stroke-miterlimit="4" stroke-linejoin="miter" fill="none" stroke="#000000" stroke-opacity=".0157" d="M55 507C55 562.3333 74 609 112 647 150 685 193.66666 704 243 704H257C313.66667 704 363 683 405 641L426 672C429.33335 676.6667 432.66667 681.6667 436 687 439.33335 692.3333 442.66667 696.6667 446 700L449 704C449.66667 704 451 704 453 704 455 704 457 704.3333 459 705H463C465 705 468 703 472 699V462L466 456H448C440.66667 456 436.33335 457 435 459 433.66667 461 432 467.66667 430 479 418.66667 563 385 618.6667 329 646 304.33335 656.6667 279.33335 662 254 662 218.66666 662 190 650 168 626 146 602 135 574 135 542 135 519.3333 140.66667 498.66667 152 480 163.33333 461.33335 179.33333 446.33335 200 435 206.66667 432.33335 235.33333 424.66667 286 412 336.66667 399.33335 364.66667 391.66667 370 389 408 374.33335 439 349.33335 463 314 487 278.66667 499.33335 237.66667 500 191 500 137 482.66667 88.333339 448 45 413.33335 1.6666641 364.33335-20.333334 301-21 263.66667-21 230.33333-15.333334 201-4 171.66667 7.333334 151.33333 17.666666 140 27L122 41C119.333339 37.666669 114.333339 31 107 21 99.666667 11 93 1.666667 87-7 81-15.666667 78-20.333334 78-21 76.666667-21.666666 73.333339-22 68-22H64C62-22 59-20 55-16V101C55 180.33335 55.333333 220.66667 56 222 57.333333 225.33333 64 227 76 227H89C93 223 95 218.66667 95 214 95 192.66667 98.333339 171.66667 105 151 111.666667 130.33333 123 110 139 90 155 70 177 54 205 42 233 30 266.33335 24 305 24 336.33335 24 363.33335 36.666666 386 62 408.66667 87.333339 420 118.33333 420 155 420 183.66667 412.66667 209.66667 398 233 383.33335 256.33335 364 272.33335 340 281 302.66667 290.33335 278 296.66667 266 300 262.66667 300.66667 253.66667 302.66667 239 306 224.33333 309.33335 213.33333 312 206 314 198.66667 316 188 319.66667 174 325 160 330.33335 149 336.33335 141 343 133 349.66667 123.333339 357.66667 112 367 100.666667 376.33335 91.666667 388 85 402 65 434.66667 55 469.66667 55 507Z"/>
<path transform="matrix(.014573475,0,0,-.014699421,122.54497,206.68706)" d="M130 622C125.333339 626.6667 121.666667 629.6667 119 631 116.333339 632.3333 111 633.3333 103 634 95 634.6667 80.66667 635.6667 60 637H27V683H214C229.33333 683 250 683 276 683 302 683 320.33335 683.3333 331 684 389.66667 684 436.33335 679.6667 471 671 505.66667 662.3333 537.6667 644 567 616 605 580.6667 624 538.3333 624 489 624 443.66667 607 404.66667 573 372 539 339.33335 498.33335 317.66667 451 307 436.33335 303.66667 395.33335 301.66667 328 301H234V181C234 101.666667 235 60.666669 237 58 242.33333 50.666669 264.66667 46.666669 304 46H337V0H326C312 2 264 3 182 3 92 3 44 2 38 0H27V46H60C88 46.666669 105 47.666669 111 49 117 50.333333 123.333339 54.333333 130 61V622ZM507 488C507 505.33335 506.66667 518.6667 506 528 505.33335 537.3333 503.33335 549.3333 500 564 496.66667 578.6667 491 589.6667 483 597 475 604.3333 464 612 450 620 436 628 418.33335 633 397 635 389 636.3333 359 637 307 637H286C253.33333 637 236 634 234 628 232 625.3333 231 577 231 483V342H302 339C373 342 401 344.33335 423 349 445 353.66667 464.33335 364.66667 481 382 498.33335 401.33335 507 436.66667 507 488Z"/>
<path transform="matrix(.014573475,0,0,-.014699421,122.54497,206.68706)" stroke-linecap="butt" stroke-miterlimit="4" stroke-linejoin="miter" fill="none" stroke="#000000" stroke-opacity=".0157" d="M130 622C125.333339 626.6667 121.666667 629.6667 119 631 116.333339 632.3333 111 633.3333 103 634 95 634.6667 80.66667 635.6667 60 637H27V683H214C229.33333 683 250 683 276 683 302 683 320.33335 683.3333 331 684 389.66667 684 436.33335 679.6667 471 671 505.66667 662.3333 537.6667 644 567 616 605 580.6667 624 538.3333 624 489 624 443.66667 607 404.66667 573 372 539 339.33335 498.33335 317.66667 451 307 436.33335 303.66667 395.33335 301.66667 328 301H234V181C234 101.666667 235 60.666669 237 58 242.33333 50.666669 264.66667 46.666669 304 46H337V0H326C312 2 264 3 182 3 92 3 44 2 38 0H27V46H60C88 46.666669 105 47.666669 111 49 117 50.333333 123.333339 54.333333 130 61V622ZM507 488C507 505.33335 506.66667 518.6667 506 528 505.33335 537.3333 503.33335 549.3333 500 564 496.66667 578.6667 491 589.6667 483 597 475 604.3333 464 612 450 620 436 628 418.33335 633 397 635 389 636.3333 359 637 307 637H286C253.33333 637 236 634 234 628 232 625.3333 231 577 231 483V342H302 339C373 342 401 344.33335 423 349 445 353.66667 464.33335 364.66667 481 382 498.33335 401.33335 507 436.66667 507 488Z"/>
<path transform="matrix(.014573475,0,0,-.014699421,132.48407,206.68706)" d="M114 620C113.333339 620.6667 112 622 110 624 108 626 107 627 107 627 107 627 105.666667 628 103 630 100.333339 632 98.666667 632.6667 98 632 97.333339 631.3333 95 632 91 634 87 636 83.333339 636.3333 80 635 76.666667 633.6667 72.333339 634 67 636 61.666669 638 55.333333 638.3333 48 637H19V683H28C40 681 81.33333 680 152 680 232.66667 680 280 681 294 683H305V637H284C243.33333 635 223 629.3333 223 620 223 618.6667 253 536 313 372 373 208 403.33335 126 404 126L490 358C546.6667 511.33335 575 591 575 597 575 609.6667 568 619.3333 554 626 540 632.6667 524.6667 636.3333 508 637H503V683H512C522 681 560.3333 680 627 680 687.6667 680 720 681 724 683H730V637H723C673 637 641 623.3333 627 596 627 595.3333 589.6667 493.6667 515 291 440.3333 88.33333 402.33335-13.333333 401-14 397.66667-19.333334 391.33335-22 382-22H374 367C357.66667-22 351.33335-19.333334 348-14 346.66667-12.666667 307.6667 93 231 303 153 512.3334 114 618 114 620Z"/>
<path transform="matrix(.014573475,0,0,-.014699421,132.48407,206.68706)" stroke-linecap="butt" stroke-miterlimit="4" stroke-linejoin="miter" fill="none" stroke="#000000" stroke-opacity=".0157" d="M114 620C113.333339 620.6667 112 622 110 624 108 626 107 627 107 627 107 627 105.666667 628 103 630 100.333339 632 98.666667 632.6667 98 632 97.333339 631.3333 95 632 91 634 87 636 83.333339 636.3333 80 635 76.666667 633.6667 72.333339 634 67 636 61.666669 638 55.333333 638.3333 48 637H19V683H28C40 681 81.33333 680 152 680 232.66667 680 280 681 294 683H305V637H284C243.33333 635 223 629.3333 223 620 223 618.6667 253 536 313 372 373 208 403.33335 126 404 126L490 358C546.6667 511.33335 575 591 575 597 575 609.6667 568 619.3333 554 626 540 632.6667 524.6667 636.3333 508 637H503V683H512C522 681 560.3333 680 627 680 687.6667 680 720 681 724 683H730V637H723C673 637 641 623.3333 627 596 627 595.3333 589.6667 493.6667 515 291 440.3333 88.33333 402.33335-13.333333 401-14 397.66667-19.333334 391.33335-22 382-22H374 367C357.66667-22 351.33335-19.333334 348-14 346.66667-12.666667 307.6667 93 231 303 153 512.3334 114 618 114 620Z"/>
<path transform="matrix(.010303447,0,0,-.010392491,143.41417,208.89197)" d="M128 619C123.333339 623.6667 119.666667 626.6667 117 628 114.333339 629.3333 109 630.3333 101 631 93 631.6667 78.66667 632.6667 58 634H25V680H597V676C598.3333 672 603 633.3333 611 560 619 486.66667 623.6667 448 625 444V440H585V444C584.3333 446 583.3333 453 582 465 579.3333 488.33335 575.3333 508.66667 570 526 564.6667 543.3333 559 558.3333 553 571 547 583.6667 538.6667 593.6667 528 601 517.3333 608.3333 507.33335 614.3333 498 619 488.66667 623.6667 475 627 457 629 439 631 423.66667 632.3333 411 633 398.33335 633.6667 379 634 353 634 295 634 261 633.6667 251 633 241 632.3333 235 628.6667 233 622 233 622 233 621.6667 233 621 232.33333 619.6667 232 578.3333 232 497V376H286C334.66667 377.33335 365 380.33335 377 385 401 395.66667 414 423.66667 416 469 416 470.33335 416 471.66667 416 473V493H456V213H416V233C415.33335 256.33335 412.66667 274.66667 408 288 403.33335 301.33335 395 311 383 317 371 323 359.66667 326.66667 349 328 338.33335 329.33335 321 330 297 330 292.33335 330 288.66667 330 286 330H232V196 114C232 76 233.66667 55.333333 237 52 241 48.666669 258.33335 47 289 47H340 391C415.66667 47 436 48 452 50 468 52 485.66667 56 505 62 524.3333 68 540 78 552 92 564 106 574.6667 124 584 146 590.6667 163.33333 595.6667 181.33333 599 200 602.3333 218.66667 605 234.33333 607 247 609 259.66667 610.6667 267.33335 612 270V273H652V270C651.3333 268 644.6667 223.66667 632 137 619.3333 50.33333 612 5.666667 610 3V0H25V46H58C86 46.666669 103 47.666669 109 49 115 50.333333 121.333339 54.333333 128 61V619Z"/>
<path transform="matrix(.010303447,0,0,-.010392491,143.41417,208.89197)" stroke-linecap="butt" stroke-miterlimit="4" stroke-linejoin="miter" fill="none" stroke="#000000" stroke-opacity=".0118" d="M128 619C123.333339 623.6667 119.666667 626.6667 117 628 114.333339 629.3333 109 630.3333 101 631 93 631.6667 78.66667 632.6667 58 634H25V680H597V676C598.3333 672 603 633.3333 611 560 619 486.66667 623.6667 448 625 444V440H585V444C584.3333 446 583.3333 453 582 465 579.3333 488.33335 575.3333 508.66667 570 526 564.6667 543.3333 559 558.3333 553 571 547 583.6667 538.6667 593.6667 528 601 517.3333 608.3333 507.33335 614.3333 498 619 488.66667 623.6667 475 627 457 629 439 631 423.66667 632.3333 411 633 398.33335 633.6667 379 634 353 634 295 634 261 633.6667 251 633 241 632.3333 235 628.6667 233 622 233 622 233 621.6667 233 621 232.33333 619.6667 232 578.3333 232 497V376H286C334.66667 377.33335 365 380.33335 377 385 401 395.66667 414 423.66667 416 469 416 470.33335 416 471.66667 416 473V493H456V213H416V233C415.33335 256.33335 412.66667 274.66667 408 288 403.33335 301.33335 395 311 383 317 371 323 359.66667 326.66667 349 328 338.33335 329.33335 321 330 297 330 292.33335 330 288.66667 330 286 330H232V196 114C232 76 233.66667 55.333333 237 52 241 48.666669 258.33335 47 289 47H340 391C415.66667 47 436 48 452 50 468 52 485.66667 56 505 62 524.3333 68 540 78 552 92 564 106 574.6667 124 584 146 590.6667 163.33333 595.6667 181.33333 599 200 602.3333 218.66667 605 234.33333 607 247 609 259.66667 610.6667 267.33335 612 270V273H652V270C651.3333 268 644.6667 223.66667 632 137 619.3333 50.33333 612 5.666667 610 3V0H25V46H58C86 46.666669 103 47.666669 109 49 115 50.333333 121.333339 54.333333 128 61V619Z"/>
<path transform="matrix(.010303447,0,0,-.010392491,150.42403,208.89197)" d="M130 622C125.333339 626.6667 121.666667 629.6667 119 631 116.333339 632.3333 111 633.3333 103 634 95 634.6667 80.66667 635.6667 60 637H27V683H202 236 300C350.66667 683 389.66667 681 417 677 444.33335 673 472 663.3333 500 648 563.3333 616 599.6667 572.3333 609 517 609.6667 513.6667 610 508.33335 610 501 610 479 604.6667 458.33335 594 439 583.3333 419.66667 570.6667 404 556 392 541.3333 380 526.3333 369.66667 511 361 495.66667 352.33335 482.66667 346.33335 472 343L456 338C458 336 461.66667 334 467 332 487 321.33335 503.33335 310 516 298 528.6667 286 538.3333 271.33335 545 254 551.6667 236.66667 556.3333 222.33333 559 211 561.6667 199.66667 564.6667 181 568 155 571.3333 129 574.6667 108.666667 578 94 584.6667 62 592.6667 41 602 31 611.3333 21 624 16 640 16H645C655 16 664.6667 21.333333 674 32 683.3333 42.666669 689.3333 61 692 87 692 94.333339 693.3333 99 696 101 698.6667 103 704 104.333339 712 105 720 105.666667 725.3333 105 728 103 730.6667 101 732 96.666667 732 90 732 69.33333 726.6667 48.333337 716 27 705.3333 5.666666 690.6667-8.666666 672-16 661.3333-20 647.3333-22 630-22 530.6667-18 473.33335 19.333329 458 90 456.66667 97.333339 456 121.666667 456 163 456 204.33335 453.66667 232 449 246 436.33335 284.66667 411 309.33335 373 320L363 322 297 323H231V192L232 61C236 54.333333 241.66667 50.333333 249 49 256.33335 47.666669 273.66667 46.666669 301 46H334V0H323C309 2 261.6667 3 181 3 99.666667 3 52 2 38 0H27V46H60C88 46.666669 105 47.666669 111 49 117 50.333333 123.333339 54.333333 130 61V622ZM491 499V509C491 521 490.66667 531 490 539 489.33335 547 486.33335 557.3333 481 570 475.66667 582.6667 469.33335 593 462 601 454.66667 609 442 616.3333 424 623 406 629.6667 385.33335 634 362 636 360.66667 636 353.33335 636 340 636 326.66667 636 314.66667 636.3333 304 637H283C253 637 236.66667 634 234 628 232 625.3333 231 580 231 492V360H289C356.33335 360 404.66667 366 434 378 463.33335 390 481.66667 416 489 456 490.33335 463.33335 491 477.66667 491 499Z"/>
<path transform="matrix(.010303447,0,0,-.010392491,150.42403,208.89197)" stroke-linecap="butt" stroke-miterlimit="4" stroke-linejoin="miter" fill="none" stroke="#000000" stroke-opacity=".0118" d="M130 622C125.333339 626.6667 121.666667 629.6667 119 631 116.333339 632.3333 111 633.3333 103 634 95 634.6667 80.66667 635.6667 60 637H27V683H202 236 300C350.66667 683 389.66667 681 417 677 444.33335 673 472 663.3333 500 648 563.3333 616 599.6667 572.3333 609 517 609.6667 513.6667 610 508.33335 610 501 610 479 604.6667 458.33335 594 439 583.3333 419.66667 570.6667 404 556 392 541.3333 380 526.3333 369.66667 511 361 495.66667 352.33335 482.66667 346.33335 472 343L456 338C458 336 461.66667 334 467 332 487 321.33335 503.33335 310 516 298 528.6667 286 538.3333 271.33335 545 254 551.6667 236.66667 556.3333 222.33333 559 211 561.6667 199.66667 564.6667 181 568 155 571.3333 129 574.6667 108.666667 578 94 584.6667 62 592.6667 41 602 31 611.3333 21 624 16 640 16H645C655 16 664.6667 21.333333 674 32 683.3333 42.666669 689.3333 61 692 87 692 94.333339 693.3333 99 696 101 698.6667 103 704 104.333339 712 105 720 105.666667 725.3333 105 728 103 730.6667 101 732 96.666667 732 90 732 69.33333 726.6667 48.333337 716 27 705.3333 5.666666 690.6667-8.666666 672-16 661.3333-20 647.3333-22 630-22 530.6667-18 473.33335 19.333329 458 90 456.66667 97.333339 456 121.666667 456 163 456 204.33335 453.66667 232 449 246 436.33335 284.66667 411 309.33335 373 320L363 322 297 323H231V192L232 61C236 54.333333 241.66667 50.333333 249 49 256.33335 47.666669 273.66667 46.666669 301 46H334V0H323C309 2 261.6667 3 181 3 99.666667 3 52 2 38 0H27V46H60C88 46.666669 105 47.666669 111 49 117 50.333333 123.333339 54.333333 130 61V622ZM491 499V509C491 521 490.66667 531 490 539 489.33335 547 486.33335 557.3333 481 570 475.66667 582.6667 469.33335 593 462 601 454.66667 609 442 616.3333 424 623 406 629.6667 385.33335 634 362 636 360.66667 636 353.33335 636 340 636 326.66667 636 314.66667 636.3333 304 637H283C253 637 236.66667 634 234 628 232 625.3333 231 580 231 492V360H289C356.33335 360 404.66667 366 434 378 463.33335 390 481.66667 416 489 456 490.33335 463.33335 491 477.66667 491 499Z"/>
</g>
<g clip-path="url(#clip_4)">
<path transform="matrix(.7152317,0,0,.7152317,.35761587,.35761587)" d="M205.5 124.5C205.49999 125.320758 205.41992 126.13363 205.2598 126.938617 205.09967 127.74361 204.86257 128.52524 204.54846 129.28353 204.23438 130.04181 203.84934 130.76218 203.39334 131.44461 202.93735 132.12706 202.41918 132.75846 201.8388 133.33882 201.25844 133.91919 200.62703 134.43737 199.9446 134.89334 199.26215 135.34935 198.54178 135.73439 197.7835 136.04848 197.02523 136.36255 196.24359 136.59966 195.4386 136.7598 194.63362 136.91992 193.82076 136.99999 193 137 192.17923 136.99999 191.36635 136.91992 190.56136 136.7598 189.75635 136.59966 188.97472 136.36255 188.21643 136.04848 187.45815 135.73439 186.7378 135.34935 186.05535 134.89334 185.37291 134.43737 184.74152 133.91919 184.16117 133.33882 183.5808 132.75846 183.0626 132.12706 182.60662 131.44461 182.15062 130.76218 181.76558 130.04181 181.45148 129.28353 181.13739 128.52524 180.90029 127.74361 180.74018 126.93862 180.58007 126.13363 180.5 125.320758 180.5 124.5 180.5 123.67924 180.58007 122.866359 180.74018 122.061359 180.90029 121.25636 181.13739 120.474727 181.45148 119.71644 181.76558 118.95815 182.15062 118.23779 182.6066 117.55536 183.0626 116.87292 183.5808 116.241519 184.16117 115.661159 184.74152 115.08079 185.37291 114.56261 186.05535 114.10662 186.7378 113.65063 187.45815 113.26559 188.21643 112.95149 188.97472 112.6374 189.75635 112.4003 190.56136 112.24018 191.36635 112.08006 192.17923 112 193 112 193.82076 112 194.63362 112.08006 195.4386 112.24019 196.24359 112.40031 197.02523 112.637409 197.78351 112.9515 198.5418 113.265598 199.26215 113.650638 199.9446 114.10662 200.62703 114.56261 201.25844 115.08079 201.8388 115.661159 202.41918 116.241519 202.93735 116.87292 203.39334 117.55535 203.84932 118.23779 204.23436 118.95815 204.54845 119.71644 204.86255 120.474727 205.09966 121.25636 205.2598 122.061359 205.41992 122.866359 205.49999 123.67924 205.5 124.5Z" fill="#bfa64d" fill-opacity=".502"/>
<path transform="matrix(.7152317,0,0,.7152317,.35761587,.35761587)" stroke-width="1" stroke-linecap="butt" stroke-miterlimit="4" stroke-linejoin="miter" fill="none" stroke="#000000" stroke-opacity=".502" d="M205.5 124.5C205.49999 125.320758 205.41992 126.13363 205.2598 126.938617 205.09967 127.74361 204.86257 128.52524 204.54846 129.28353 204.23438 130.04181 203.84934 130.76218 203.39334 131.44461 202.93735 132.12706 202.41918 132.75846 201.8388 133.33882 201.25844 133.91919 200.62703 134.43737 199.9446 134.89334 199.26215 135.34935 198.54178 135.73439 197.7835 136.04848 197.02523 136.36255 196.24359 136.59966 195.4386 136.7598 194.63362 136.91992 193.82076 136.99999 193 137 192.17923 136.99999 191.36635 136.91992 190.56136 136.7598 189.75635 136.59966 188.97472 136.36255 188.21643 136.04848 187.45815 135.73439 186.7378 135.34935 186.05535 134.89334 185.37291 134.43737 184.74152 133.91919 184.16117 133.33882 183.5808 132.75846 183.0626 132.12706 182.60662 131.44461 182.15062 130.76218 181.76558 130.04181 181.45148 129.28353 181.13739 128.52524 180.90029 127.74361 180.74018 126.93862 180.58007 126.13363 180.5 125.320758 180.5 124.5 180.5 123.67924 180.58007 122.866359 180.74018 122.061359 180.90029 121.25636 181.13739 120.474727 181.45148 119.71644 181.76558 118.95815 182.15062 118.23779 182.6066 117.55536 183.0626 116.87292 183.5808 116.241519 184.16117 115.661159 184.74152 115.08079 185.37291 114.56261 186.05535 114.10662 186.7378 113.65063 187.45815 113.26559 188.21643 112.95149 188.97472 112.6374 189.75635 112.4003 190.56136 112.24018 191.36635 112.08006 192.17923 112 193 112 193.82076 112 194.63362 112.08006 195.4386 112.24019 196.24359 112.40031 197.02523 112.637409 197.78351 112.9515 198.5418 113.265598 199.26215 113.650638 199.9446 114.10662 200.62703 114.56261 201.25844 115.08079 201.8388 115.661159 202.41918 116.241519 202.93735 116.87292 203.39334 117.55535 203.84932 118.23779 204.23436 118.95815 204.54845 119.71644 204.86255 120.474727 205.09966 121.25636 205.2598 122.061359 205.41992 122.866359 205.49999 123.67924 205.5 124.5Z"/>
<path transform="matrix(.7152317,0,0,.7152317,.35761587,.35761587)" d="M143 124.5H175.5C175.5 134.16 183.34 142 193 142 202.66 142 210.5 134.16 210.5 124.5H243V212H143V124.5Z" fill="#bfa64d" fill-opacity=".502"/>
<path transform="matrix(.7152317,0,0,.7152317,.35761587,.35761587)" stroke-width="1" stroke-linecap="butt" stroke-miterlimit="10" stroke-linejoin="miter" fill="none" stroke="#000000" stroke-opacity=".502" d="M143 124.5H175.5C175.5 134.16 183.34 142 193 142 202.66 142 210.5 134.16 210.5 124.5H243V212H143V124.5Z"/>
</g>
<g clip-path="url(#clip_5)">
<path transform="matrix(.014767674,0,0,-.014698333,116.58277,131.58744)" d="M55 507C55 562.3333 74 609 112 647 150 685 193.66666 704 243 704H257C313.66667 704 363 683 405 641L426 672C429.33335 676.6667 432.66667 681.6667 436 687 439.33335 692.3333 442.66667 696.6667 446 700L449 704C449.66667 704 451 704 453 704 455 704 457 704.3333 459 705H463C465 705 468 703 472 699V462L466 456H448C440.66667 456 436.33335 457 435 459 433.66667 461 432 467.66667 430 479 418.66667 563 385 618.6667 329 646 304.33335 656.6667 279.33335 662 254 662 218.66666 662 190 650 168 626 146 602 135 574 135 542 135 519.3333 140.66667 498.66667 152 480 163.33333 461.33335 179.33333 446.33335 200 435 206.66667 432.33335 235.33333 424.66667 286 412 336.66667 399.33335 364.66667 391.66667 370 389 408 374.33335 439 349.33335 463 314 487 278.66667 499.33335 237.66667 500 191 500 137 482.66667 88.333339 448 45 413.33335 1.6666641 364.33335-20.333334 301-21 263.66667-21 230.33333-15.333334 201-4 171.66667 7.333334 151.33333 17.666666 140 27L122 41C119.333339 37.666669 114.333339 31 107 21 99.666667 11 93 1.666667 87-7 81-15.666667 78-20.333334 78-21 76.666667-21.666666 73.333339-22 68-22H64C62-22 59-20 55-16V101C55 180.33335 55.333333 220.66667 56 222 57.333333 225.33333 64 227 76 227H89C93 223 95 218.66667 95 214 95 192.66667 98.333339 171.66667 105 151 111.666667 130.33333 123 110 139 90 155 70 177 54 205 42 233 30 266.33335 24 305 24 336.33335 24 363.33335 36.666666 386 62 408.66667 87.333339 420 118.33333 420 155 420 183.66667 412.66667 209.66667 398 233 383.33335 256.33335 364 272.33335 340 281 302.66667 290.33335 278 296.66667 266 300 262.66667 300.66667 253.66667 302.66667 239 306 224.33333 309.33335 213.33333 312 206 314 198.66667 316 188 319.66667 174 325 160 330.33335 149 336.33335 141 343 133 349.66667 123.333339 357.66667 112 367 100.666667 376.33335 91.666667 388 85 402 65 434.66667 55 469.66667 55 507Z"/>
<path transform="matrix(.014767674,0,0,-.014698333,116.58277,131.58744)" stroke-linecap="butt" stroke-miterlimit="4" stroke-linejoin="miter" fill="none" stroke="#000000" stroke-opacity=".0157" d="M55 507C55 562.3333 74 609 112 647 150 685 193.66666 704 243 704H257C313.66667 704 363 683 405 641L426 672C429.33335 676.6667 432.66667 681.6667 436 687 439.33335 692.3333 442.66667 696.6667 446 700L449 704C449.66667 704 451 704 453 704 455 704 457 704.3333 459 705H463C465 705 468 703 472 699V462L466 456H448C440.66667 456 436.33335 457 435 459 433.66667 461 432 467.66667 430 479 418.66667 563 385 618.6667 329 646 304.33335 656.6667 279.33335 662 254 662 218.66666 662 190 650 168 626 146 602 135 574 135 542 135 519.3333 140.66667 498.66667 152 480 163.33333 461.33335 179.33333 446.33335 200 435 206.66667 432.33335 235.33333 424.66667 286 412 336.66667 399.33335 364.66667 391.66667 370 389 408 374.33335 439 349.33335 463 314 487 278.66667 499.33335 237.66667 500 191 500 137 482.66667 88.333339 448 45 413.33335 1.6666641 364.33335-20.333334 301-21 263.66667-21 230.33333-15.333334 201-4 171.66667 7.333334 151.33333 17.666666 140 27L122 41C119.333339 37.666669 114.333339 31 107 21 99.666667 11 93 1.666667 87-7 81-15.666667 78-20.333334 78-21 76.666667-21.666666 73.333339-22 68-22H64C62-22 59-20 55-16V101C55 180.33335 55.333333 220.66667 56 222 57.333333 225.33333 64 227 76 227H89C93 223 95 218.66667 95 214 95 192.66667 98.333339 171.66667 105 151 111.666667 130.33333 123 110 139 90 155 70 177 54 205 42 233 30 266.33335 24 305 24 336.33335 24 363.33335 36.666666 386 62 408.66667 87.333339 420 118.33333 420 155 420 183.66667 412.66667 209.66667 398 233 383.33335 256.33335 364 272.33335 340 281 302.66667 290.33335 278 296.66667 266 300 262.66667 300.66667 253.66667 302.66667 239 306 224.33333 309.33335 213.33333 312 206 314 198.66667 316 188 319.66667 174 325 160 330.33335 149 336.33335 141 343 133 349.66667 123.333339 357.66667 112 367 100.666667 376.33335 91.666667 388 85 402 65 434.66667 55 469.66667 55 507Z"/>
<path transform="matrix(.014767674,0,0,-.014698333,124.793598,131.58744)" d="M130 622C125.333339 626.6667 121.666667 629.6667 119 631 116.333339 632.3333 111 633.3333 103 634 95 634.6667 80.66667 635.6667 60 637H27V683H214C229.33333 683 250 683 276 683 302 683 320.33335 683.3333 331 684 389.66667 684 436.33335 679.6667 471 671 505.66667 662.3333 537.6667 644 567 616 605 580.6667 624 538.3333 624 489 624 443.66667 607 404.66667 573 372 539 339.33335 498.33335 317.66667 451 307 436.33335 303.66667 395.33335 301.66667 328 301H234V181C234 101.666667 235 60.666669 237 58 242.33333 50.666669 264.66667 46.666669 304 46H337V0H326C312 2 264 3 182 3 92 3 44 2 38 0H27V46H60C88 46.666669 105 47.666669 111 49 117 50.333333 123.333339 54.333333 130 61V622ZM507 488C507 505.33335 506.66667 518.6667 506 528 505.33335 537.3333 503.33335 549.3333 500 564 496.66667 578.6667 491 589.6667 483 597 475 604.3333 464 612 450 620 436 628 418.33335 633 397 635 389 636.3333 359 637 307 637H286C253.33333 637 236 634 234 628 232 625.3333 231 577 231 483V342H302 339C373 342 401 344.33335 423 349 445 353.66667 464.33335 364.66667 481 382 498.33335 401.33335 507 436.66667 507 488Z"/>
<path transform="matrix(.014767674,0,0,-.014698333,124.793598,131.58744)" stroke-linecap="butt" stroke-miterlimit="4" stroke-linejoin="miter" fill="none" stroke="#000000" stroke-opacity=".0157" d="M130 622C125.333339 626.6667 121.666667 629.6667 119 631 116.333339 632.3333 111 633.3333 103 634 95 634.6667 80.66667 635.6667 60 637H27V683H214C229.33333 683 250 683 276 683 302 683 320.33335 683.3333 331 684 389.66667 684 436.33335 679.6667 471 671 505.66667 662.3333 537.6667 644 567 616 605 580.6667 624 538.3333 624 489 624 443.66667 607 404.66667 573 372 539 339.33335 498.33335 317.66667 451 307 436.33335 303.66667 395.33335 301.66667 328 301H234V181C234 101.666667 235 60.666669 237 58 242.33333 50.666669 264.66667 46.666669 304 46H337V0H326C312 2 264 3 182 3 92 3 44 2 38 0H27V46H60C88 46.666669 105 47.666669 111 49 117 50.333333 123.333339 54.333333 130 61V622ZM507 488C507 505.33335 506.66667 518.6667 506 528 505.33335 537.3333 503.33335 549.3333 500 564 496.66667 578.6667 491 589.6667 483 597 475 604.3333 464 612 450 620 436 628 418.33335 633 397 635 389 636.3333 359 637 307 637H286C253.33333 637 236 634 234 628 232 625.3333 231 577 231 483V342H302 339C373 342 401 344.33335 423 349 445 353.66667 464.33335 364.66667 481 382 498.33335 401.33335 507 436.66667 507 488Z"/>
<path transform="matrix(.014767674,0,0,-.014698333,134.86516,131.58744)" d="M114 620C113.333339 620.6667 112 622 110 624 108 626 107 627 107 627 107 627 105.666667 628 103 630 100.333339 632 98.666667 632.6667 98 632 97.333339 631.3333 95 632 91 634 87 636 83.333339 636.3333 80 635 76.666667 633.6667 72.333339 634 67 636 61.666669 638 55.333333 638.3333 48 637H19V683H28C40 681 81.33333 680 152 680 232.66667 680 280 681 294 683H305V637H284C243.33333 635 223 629.3333 223 620 223 618.6667 253 536 313 372 373 208 403.33335 126 404 126L490 358C546.6667 511.33335 575 591 575 597 575 609.6667 568 619.3333 554 626 540 632.6667 524.6667 636.3333 508 637H503V683H512C522 681 560.3333 680 627 680 687.6667 680 720 681 724 683H730V637H723C673 637 641 623.3333 627 596 627 595.3333 589.6667 493.6667 515 291 440.3333 88.33333 402.33335-13.333333 401-14 397.66667-19.333334 391.33335-22 382-22H374 367C357.66667-22 351.33335-19.333334 348-14 346.66667-12.666667 307.6667 93 231 303 153 512.3334 114 618 114 620Z"/>
<path transform="matrix(.014767674,0,0,-.014698333,134.86516,131.58744)" stroke-linecap="butt" stroke-miterlimit="4" stroke-linejoin="miter" fill="none" stroke="#000000" stroke-opacity=".0157" d="M114 620C113.333339 620.6667 112 622 110 624 108 626 107 627 107 627 107 627 105.666667 628 103 630 100.333339 632 98.666667 632.6667 98 632 97.333339 631.3333 95 632 91 634 87 636 83.333339 636.3333 80 635 76.666667 633.6667 72.333339 634 67 636 61.666669 638 55.333333 638.3333 48 637H19V683H28C40 681 81.33333 680 152 680 232.66667 680 280 681 294 683H305V637H284C243.33333 635 223 629.3333 223 620 223 618.6667 253 536 313 372 373 208 403.33335 126 404 126L490 358C546.6667 511.33335 575 591 575 597 575 609.6667 568 619.3333 554 626 540 632.6667 524.6667 636.3333 508 637H503V683H512C522 681 560.3333 680 627 680 687.6667 680 720 681 724 683H730V637H723C673 637 641 623.3333 627 596 627 595.3333 589.6667 493.6667 515 291 440.3333 88.33333 402.33335-13.333333 401-14 397.66667-19.333334 391.33335-22 382-22H374 367C357.66667-22 351.33335-19.333334 348-14 346.66667-12.666667 307.6667 93 231 303 153 512.3334 114 618 114 620Z"/>
<path transform="matrix(.010440745,0,0,-.010391722,145.94092,133.86568)" d="M55 507C55 562.3333 74 609 112 647 150 685 193.66666 704 243 704H257C313.66667 704 363 683 405 641L426 672C429.33335 676.6667 432.66667 681.6667 436 687 439.33335 692.3333 442.66667 696.6667 446 700L449 704C449.66667 704 451 704 453 704 455 704 457 704.3333 459 705H463C465 705 468 703 472 699V462L466 456H448C440.66667 456 436.33335 457 435 459 433.66667 461 432 467.66667 430 479 418.66667 563 385 618.6667 329 646 304.33335 656.6667 279.33335 662 254 662 218.66666 662 190 650 168 626 146 602 135 574 135 542 135 519.3333 140.66667 498.66667 152 480 163.33333 461.33335 179.33333 446.33335 200 435 206.66667 432.33335 235.33333 424.66667 286 412 336.66667 399.33335 364.66667 391.66667 370 389 408 374.33335 439 349.33335 463 314 487 278.66667 499.33335 237.66667 500 191 500 137 482.66667 88.333339 448 45 413.33335 1.6666641 364.33335-20.333334 301-21 263.66667-21 230.33333-15.333334 201-4 171.66667 7.333334 151.33333 17.666666 140 27L122 41C119.333339 37.666669 114.333339 31 107 21 99.666667 11 93 1.666667 87-7 81-15.666667 78-20.333334 78-21 76.666667-21.666666 73.333339-22 68-22H64C62-22 59-20 55-16V101C55 180.33335 55.333333 220.66667 56 222 57.333333 225.33333 64 227 76 227H89C93 223 95 218.66667 95 214 95 192.66667 98.333339 171.66667 105 151 111.666667 130.33333 123 110 139 90 155 70 177 54 205 42 233 30 266.33335 24 305 24 336.33335 24 363.33335 36.666666 386 62 408.66667 87.333339 420 118.33333 420 155 420 183.66667 412.66667 209.66667 398 233 383.33335 256.33335 364 272.33335 340 281 302.66667 290.33335 278 296.66667 266 300 262.66667 300.66667 253.66667 302.66667 239 306 224.33333 309.33335 213.33333 312 206 314 198.66667 316 188 319.66667 174 325 160 330.33335 149 336.33335 141 343 133 349.66667 123.333339 357.66667 112 367 100.666667 376.33335 91.666667 388 85 402 65 434.66667 55 469.66667 55 507Z"/>
<path transform="matrix(.010440745,0,0,-.010391722,145.94092,133.86568)" stroke-linecap="butt" stroke-miterlimit="4" stroke-linejoin="miter" fill="none" stroke="#000000" stroke-opacity=".0118" d="M55 507C55 562.3333 74 609 112 647 150 685 193.66666 704 243 704H257C313.66667 704 363 683 405 641L426 672C429.33335 676.6667 432.66667 681.6667 436 687 439.33335 692.3333 442.66667 696.6667 446 700L449 704C449.66667 704 451 704 453 704 455 704 457 704.3333 459 705H463C465 705 468 703 472 699V462L466 456H448C440.66667 456 436.33335 457 435 459 433.66667 461 432 467.66667 430 479 418.66667 563 385 618.6667 329 646 304.33335 656.6667 279.33335 662 254 662 218.66666 662 190 650 168 626 146 602 135 574 135 542 135 519.3333 140.66667 498.66667 152 480 163.33333 461.33335 179.33333 446.33335 200 435 206.66667 432.33335 235.33333 424.66667 286 412 336.66667 399.33335 364.66667 391.66667 370 389 408 374.33335 439 349.33335 463 314 487 278.66667 499.33335 237.66667 500 191 500 137 482.66667 88.333339 448 45 413.33335 1.6666641 364.33335-20.333334 301-21 263.66667-21 230.33333-15.333334 201-4 171.66667 7.333334 151.33333 17.666666 140 27L122 41C119.333339 37.666669 114.333339 31 107 21 99.666667 11 93 1.666667 87-7 81-15.666667 78-20.333334 78-21 76.666667-21.666666 73.333339-22 68-22H64C62-22 59-20 55-16V101C55 180.33335 55.333333 220.66667 56 222 57.333333 225.33333 64 227 76 227H89C93 223 95 218.66667 95 214 95 192.66667 98.333339 171.66667 105 151 111.666667 130.33333 123 110 139 90 155 70 177 54 205 42 233 30 266.33335 24 305 24 336.33335 24 363.33335 36.666666 386 62 408.66667 87.333339 420 118.33333 420 155 420 183.66667 412.66667 209.66667 398 233 383.33335 256.33335 364 272.33335 340 281 302.66667 290.33335 278 296.66667 266 300 262.66667 300.66667 253.66667 302.66667 239 306 224.33333 309.33335 213.33333 312 206 314 198.66667 316 188 319.66667 174 325 160 330.33335 149 336.33335 141 343 133 349.66667 123.333339 357.66667 112 367 100.666667 376.33335 91.666667 388 85 402 65 434.66667 55 469.66667 55 507Z"/>
<path transform="matrix(.010440745,0,0,-.010391722,151.7446,133.86568)" d="M130 622C125.333339 626.6667 121.666667 629.6667 119 631 116.333339 632.3333 111 633.3333 103 634 95 634.6667 80.66667 635.6667 60 637H27V683H202 236 300C350.66667 683 389.66667 681 417 677 444.33335 673 472 663.3333 500 648 563.3333 616 599.6667 572.3333 609 517 609.6667 513.6667 610 508.33335 610 501 610 479 604.6667 458.33335 594 439 583.3333 419.66667 570.6667 404 556 392 541.3333 380 526.3333 369.66667 511 361 495.66667 352.33335 482.66667 346.33335 472 343L456 338C458 336 461.66667 334 467 332 487 321.33335 503.33335 310 516 298 528.6667 286 538.3333 271.33335 545 254 551.6667 236.66667 556.3333 222.33333 559 211 561.6667 199.66667 564.6667 181 568 155 571.3333 129 574.6667 108.666667 578 94 584.6667 62 592.6667 41 602 31 611.3333 21 624 16 640 16H645C655 16 664.6667 21.333333 674 32 683.3333 42.666669 689.3333 61 692 87 692 94.333339 693.3333 99 696 101 698.6667 103 704 104.333339 712 105 720 105.666667 725.3333 105 728 103 730.6667 101 732 96.666667 732 90 732 69.33333 726.6667 48.333337 716 27 705.3333 5.666666 690.6667-8.666666 672-16 661.3333-20 647.3333-22 630-22 530.6667-18 473.33335 19.333329 458 90 456.66667 97.333339 456 121.666667 456 163 456 204.33335 453.66667 232 449 246 436.33335 284.66667 411 309.33335 373 320L363 322 297 323H231V192L232 61C236 54.333333 241.66667 50.333333 249 49 256.33335 47.666669 273.66667 46.666669 301 46H334V0H323C309 2 261.6667 3 181 3 99.666667 3 52 2 38 0H27V46H60C88 46.666669 105 47.666669 111 49 117 50.333333 123.333339 54.333333 130 61V622ZM491 499V509C491 521 490.66667 531 490 539 489.33335 547 486.33335 557.3333 481 570 475.66667 582.6667 469.33335 593 462 601 454.66667 609 442 616.3333 424 623 406 629.6667 385.33335 634 362 636 360.66667 636 353.33335 636 340 636 326.66667 636 314.66667 636.3333 304 637H283C253 637 236.66667 634 234 628 232 625.3333 231 580 231 492V360H289C356.33335 360 404.66667 366 434 378 463.33335 390 481.66667 416 489 456 490.33335 463.33335 491 477.66667 491 499Z"/>
<path transform="matrix(.010440745,0,0,-.010391722,151.7446,133.86568)" stroke-linecap="butt" stroke-miterlimit="4" stroke-linejoin="miter" fill="none" stroke="#000000" stroke-opacity=".0118" d="M130 622C125.333339 626.6667 121.666667 629.6667 119 631 116.333339 632.3333 111 633.3333 103 634 95 634.6667 80.66667 635.6667 60 637H27V683H202 236 300C350.66667 683 389.66667 681 417 677 444.33335 673 472 663.3333 500 648 563.3333 616 599.6667 572.3333 609 517 609.6667 513.6667 610 508.33335 610 501 610 479 604.6667 458.33335 594 439 583.3333 419.66667 570.6667 404 556 392 541.3333 380 526.3333 369.66667 511 361 495.66667 352.33335 482.66667 346.33335 472 343L456 338C458 336 461.66667 334 467 332 487 321.33335 503.33335 310 516 298 528.6667 286 538.3333 271.33335 545 254 551.6667 236.66667 556.3333 222.33333 559 211 561.6667 199.66667 564.6667 181 568 155 571.3333 129 574.6667 108.666667 578 94 584.6667 62 592.6667 41 602 31 611.3333 21 624 16 640 16H645C655 16 664.6667 21.333333 674 32 683.3333 42.666669 689.3333 61 692 87 692 94.333339 693.3333 99 696 101 698.6667 103 704 104.333339 712 105 720 105.666667 725.3333 105 728 103 730.6667 101 732 96.666667 732 90 732 69.33333 726.6667 48.333337 716 27 705.3333 5.666666 690.6667-8.666666 672-16 661.3333-20 647.3333-22 630-22 530.6667-18 473.33335 19.333329 458 90 456.66667 97.333339 456 121.666667 456 163 456 204.33335 453.66667 232 449 246 436.33335 284.66667 411 309.33335 373 320L363 322 297 323H231V192L232 61C236 54.333333 241.66667 50.333333 249 49 256.33335 47.666669 273.66667 46.666669 301 46H334V0H323C309 2 261.6667 3 181 3 99.666667 3 52 2 38 0H27V46H60C88 46.666669 105 47.666669 111 49 117 50.333333 123.333339 54.333333 130 61V622ZM491 499V509C491 521 490.66667 531 490 539 489.33335 547 486.33335 557.3333 481 570 475.66667 582.6667 469.33335 593 462 601 454.66667 609 442 616.3333 424 623 406 629.6667 385.33335 634 362 636 360.66667 636 353.33335 636 340 636 326.66667 636 314.66667 636.3333 304 637H283C253 637 236.66667 634 234 628 232 625.3333 231 580 231 492V360H289C356.33335 360 404.66667 366 434 378 463.33335 390 481.66667 416 489 456 490.33335 463.33335 491 477.66667 491 499Z"/>
</g>
<g clip-path="url(#clip_6)">
<path transform="matrix(.7152317,0,0,.7152317,.35761587,.35761587)" d="M203.5 13.5C203.49999 14.320762 203.41992 15.133637 203.2598 15.938627 203.09969 16.743618 202.86258 17.525256 202.54848 18.28354 202.23438 19.041825 201.84934 19.762187 201.39336 20.444624 200.93737 21.127062 200.41919 21.758465 199.83882 22.33883 199.25846 22.919198 198.62705 23.437375 197.9446 23.893366 197.26216 24.349356 196.54181 24.734398 195.78353 25.04849 195.02524 25.362584 194.24359 25.59969 193.43862 25.759814 192.63364 25.919936 191.82076 25.999999 191 26 190.17925 25.999999 189.36637 25.919936 188.56136 25.759814 187.75635 25.59969 186.9747 25.362584 186.21642 25.04849 185.45815 24.734398 184.7378 24.349356 184.05536 23.893364 183.37293 23.437375 182.74153 22.919198 182.16117 22.33883 181.5808 21.758465 181.06262 21.127062 180.60665 20.444624 180.15064 19.762187 179.7656 19.041825 179.4515 18.28354 179.1374 17.525256 178.9003 16.743618 178.74018 15.938627 178.58005 15.133637 178.49999 14.320762 178.5 13.5 178.49999 12.679238 178.58005 11.866362 178.74018 11.061371 178.9003 10.256379 179.1374 9.474741 179.4515 8.716456 179.7656 7.9581716 180.15064 7.2378098 180.60662 6.5553715 181.0626 5.872933 181.5808 5.2415306 182.16117 4.6611649 182.74153 4.0807988 183.37293 3.5626202 184.05536 3.1066297 184.73781 2.6506389 185.45816 2.2655974 186.21645 1.9515056 186.97473 1.6374137 187.75637 1.4003065 188.56136 1.240184 189.36637 1.0800613 190.17925 1 191 1 191.82076 1 192.63364 1.0800613 193.43862 1.240184 194.24359 1.4003065 195.02523 1.6374137 195.78351 1.9515056 196.5418 2.2655974 197.26216 2.6506389 197.9446 3.1066297 198.62705 3.5626202 199.25846 4.0807988 199.83882 4.6611649 200.41919 5.2415306 200.93737 5.872933 201.39336 6.5553715 201.84934 7.2378098 202.23438 7.9581716 202.54848 8.716456 202.86258 9.474741 203.09969 10.256379 203.25981 11.061371 203.41992 11.866362 203.49999 12.679238 203.5 13.5Z" fill="#40598c" fill-opacity=".502"/>
<path transform="matrix(.7152317,0,0,.7152317,.35761587,.35761587)" stroke-width="1" stroke-linecap="butt" stroke-miterlimit="4" stroke-linejoin="miter" fill="none" stroke="#000000" stroke-opacity=".502" d="M203.5 13.5C203.49999 14.320762 203.41992 15.133637 203.2598 15.938627 203.09969 16.743618 202.86258 17.525256 202.54848 18.28354 202.23438 19.041825 201.84934 19.762187 201.39336 20.444624 200.93737 21.127062 200.41919 21.758465 199.83882 22.33883 199.25846 22.919198 198.62705 23.437375 197.9446 23.893366 197.26216 24.349356 196.54181 24.734398 195.78353 25.04849 195.02524 25.362584 194.24359 25.59969 193.43862 25.759814 192.63364 25.919936 191.82076 25.999999 191 26 190.17925 25.999999 189.36637 25.919936 188.56136 25.759814 187.75635 25.59969 186.9747 25.362584 186.21642 25.04849 185.45815 24.734398 184.7378 24.349356 184.05536 23.893364 183.37293 23.437375 182.74153 22.919198 182.16117 22.33883 181.5808 21.758465 181.06262 21.127062 180.60665 20.444624 180.15064 19.762187 179.7656 19.041825 179.4515 18.28354 179.1374 17.525256 178.9003 16.743618 178.74018 15.938627 178.58005 15.133637 178.49999 14.320762 178.5 13.5 178.49999 12.679238 178.58005 11.866362 178.74018 11.061371 178.9003 10.256379 179.1374 9.474741 179.4515 8.716456 179.7656 7.9581716 180.15064 7.2378098 180.60662 6.5553715 181.0626 5.872933 181.5808 5.2415306 182.16117 4.6611649 182.74153 4.0807988 183.37293 3.5626202 184.05536 3.1066297 184.73781 2.6506389 185.45816 2.2655974 186.21645 1.9515056 186.97473 1.6374137 187.75637 1.4003065 188.56136 1.240184 189.36637 1.0800613 190.17925 1 191 1 191.82076 1 192.63364 1.0800613 193.43862 1.240184 194.24359 1.4003065 195.02523 1.6374137 195.78351 1.9515056 196.5418 2.2655974 197.26216 2.6506389 197.9446 3.1066297 198.62705 3.5626202 199.25846 4.0807988 199.83882 4.6611649 200.41919 5.2415306 200.93737 5.872933 201.39336 6.5553715 201.84934 7.2378098 202.23438 7.9581716 202.54848 8.716456 202.86258 9.474741 203.09969 10.256379 203.25981 11.061371 203.41992 11.866362 203.49999 12.679238 203.5 13.5Z"/>
<path transform="matrix(.7152317,0,0,.7152317,.35761587,.35761587)" d="M141 13.5H173.5C173.5 23.16 181.34 31 191 31 200.66 31 208.5 23.16 208.5 13.5H241V101H141V13.5Z" fill="#40598c" fill-opacity=".502"/>
<path transform="matrix(.7152317,0,0,.7152317,.35761587,.35761587)" stroke-width="1" stroke-linecap="butt" stroke-miterlimit="10" stroke-linejoin="miter" fill="none" stroke="#000000" stroke-opacity=".502" d="M141 13.5H173.5C173.5 23.16 181.34 31 191 31 200.66 31 208.5 23.16 208.5 13.5H241V101H141V13.5Z"/>
</g>
<g clip-path="url(#clip_7)">
<path transform="matrix(.014618449,0,0,-.014699421,113.007968,52.197008)" d="M55 507C55 562.3333 74 609 112 647 150 685 193.66666 704 243 704H257C313.66667 704 363 683 405 641L426 672C429.33335 676.6667 432.66667 681.6667 436 687 439.33335 692.3333 442.66667 696.6667 446 700L449 704C449.66667 704 451 704 453 704 455 704 457 704.3333 459 705H463C465 705 468 703 472 699V462L466 456H448C440.66667 456 436.33335 457 435 459 433.66667 461 432 467.66667 430 479 418.66667 563 385 618.6667 329 646 304.33335 656.6667 279.33335 662 254 662 218.66666 662 190 650 168 626 146 602 135 574 135 542 135 519.3333 140.66667 498.66667 152 480 163.33333 461.33335 179.33333 446.33335 200 435 206.66667 432.33335 235.33333 424.66667 286 412 336.66667 399.33335 364.66667 391.66667 370 389 408 374.33335 439 349.33335 463 314 487 278.66667 499.33335 237.66667 500 191 500 137 482.66667 88.333339 448 45 413.33335 1.6666641 364.33335-20.333334 301-21 263.66667-21 230.33333-15.333334 201-4 171.66667 7.333334 151.33333 17.666666 140 27L122 41C119.333339 37.666669 114.333339 31 107 21 99.666667 11 93 1.666667 87-7 81-15.666667 78-20.333334 78-21 76.666667-21.666666 73.333339-22 68-22H64C62-22 59-20 55-16V101C55 180.33335 55.333333 220.66667 56 222 57.333333 225.33333 64 227 76 227H89C93 223 95 218.66667 95 214 95 192.66667 98.333339 171.66667 105 151 111.666667 130.33333 123 110 139 90 155 70 177 54 205 42 233 30 266.33335 24 305 24 336.33335 24 363.33335 36.666666 386 62 408.66667 87.333339 420 118.33333 420 155 420 183.66667 412.66667 209.66667 398 233 383.33335 256.33335 364 272.33335 340 281 302.66667 290.33335 278 296.66667 266 300 262.66667 300.66667 253.66667 302.66667 239 306 224.33333 309.33335 213.33333 312 206 314 198.66667 316 188 319.66667 174 325 160 330.33335 149 336.33335 141 343 133 349.66667 123.333339 357.66667 112 367 100.666667 376.33335 91.666667 388 85 402 65 434.66667 55 469.66667 55 507Z"/>
<path transform="matrix(.014618449,0,0,-.014699421,113.007968,52.197008)" stroke-linecap="butt" stroke-miterlimit="4" stroke-linejoin="miter" fill="none" stroke="#000000" stroke-opacity=".0157" d="M55 507C55 562.3333 74 609 112 647 150 685 193.66666 704 243 704H257C313.66667 704 363 683 405 641L426 672C429.33335 676.6667 432.66667 681.6667 436 687 439.33335 692.3333 442.66667 696.6667 446 700L449 704C449.66667 704 451 704 453 704 455 704 457 704.3333 459 705H463C465 705 468 703 472 699V462L466 456H448C440.66667 456 436.33335 457 435 459 433.66667 461 432 467.66667 430 479 418.66667 563 385 618.6667 329 646 304.33335 656.6667 279.33335 662 254 662 218.66666 662 190 650 168 626 146 602 135 574 135 542 135 519.3333 140.66667 498.66667 152 480 163.33333 461.33335 179.33333 446.33335 200 435 206.66667 432.33335 235.33333 424.66667 286 412 336.66667 399.33335 364.66667 391.66667 370 389 408 374.33335 439 349.33335 463 314 487 278.66667 499.33335 237.66667 500 191 500 137 482.66667 88.333339 448 45 413.33335 1.6666641 364.33335-20.333334 301-21 263.66667-21 230.33333-15.333334 201-4 171.66667 7.333334 151.33333 17.666666 140 27L122 41C119.333339 37.666669 114.333339 31 107 21 99.666667 11 93 1.666667 87-7 81-15.666667 78-20.333334 78-21 76.666667-21.666666 73.333339-22 68-22H64C62-22 59-20 55-16V101C55 180.33335 55.333333 220.66667 56 222 57.333333 225.33333 64 227 76 227H89C93 223 95 218.66667 95 214 95 192.66667 98.333339 171.66667 105 151 111.666667 130.33333 123 110 139 90 155 70 177 54 205 42 233 30 266.33335 24 305 24 336.33335 24 363.33335 36.666666 386 62 408.66667 87.333339 420 118.33333 420 155 420 183.66667 412.66667 209.66667 398 233 383.33335 256.33335 364 272.33335 340 281 302.66667 290.33335 278 296.66667 266 300 262.66667 300.66667 253.66667 302.66667 239 306 224.33333 309.33335 213.33333 312 206 314 198.66667 316 188 319.66667 174 325 160 330.33335 149 336.33335 141 343 133 349.66667 123.333339 357.66667 112 367 100.666667 376.33335 91.666667 388 85 402 65 434.66667 55 469.66667 55 507Z"/>
<path transform="matrix(.014618449,0,0,-.014699421,121.135829,52.197008)" d="M130 622C125.333339 626.6667 121.666667 629.6667 119 631 116.333339 632.3333 111 633.3333 103 634 95 634.6667 80.66667 635.6667 60 637H27V683H214C229.33333 683 250 683 276 683 302 683 320.33335 683.3333 331 684 389.66667 684 436.33335 679.6667 471 671 505.66667 662.3333 537.6667 644 567 616 605 580.6667 624 538.3333 624 489 624 443.66667 607 404.66667 573 372 539 339.33335 498.33335 317.66667 451 307 436.33335 303.66667 395.33335 301.66667 328 301H234V181C234 101.666667 235 60.666669 237 58 242.33333 50.666669 264.66667 46.666669 304 46H337V0H326C312 2 264 3 182 3 92 3 44 2 38 0H27V46H60C88 46.666669 105 47.666669 111 49 117 50.333333 123.333339 54.333333 130 61V622ZM507 488C507 505.33335 506.66667 518.6667 506 528 505.33335 537.3333 503.33335 549.3333 500 564 496.66667 578.6667 491 589.6667 483 597 475 604.3333 464 612 450 620 436 628 418.33335 633 397 635 389 636.3333 359 637 307 637H286C253.33333 637 236 634 234 628 232 625.3333 231 577 231 483V342H302 339C373 342 401 344.33335 423 349 445 353.66667 464.33335 364.66667 481 382 498.33335 401.33335 507 436.66667 507 488Z"/>
<path transform="matrix(.014618449,0,0,-.014699421,121.135829,52.197008)" stroke-linecap="butt" stroke-miterlimit="4" stroke-linejoin="miter" fill="none" stroke="#000000" stroke-opacity=".0157" d="M130 622C125.333339 626.6667 121.666667 629.6667 119 631 116.333339 632.3333 111 633.3333 103 634 95 634.6667 80.66667 635.6667 60 637H27V683H214C229.33333 683 250 683 276 683 302 683 320.33335 683.3333 331 684 389.66667 684 436.33335 679.6667 471 671 505.66667 662.3333 537.6667 644 567 616 605 580.6667 624 538.3333 624 489 624 443.66667 607 404.66667 573 372 539 339.33335 498.33335 317.66667 451 307 436.33335 303.66667 395.33335 301.66667 328 301H234V181C234 101.666667 235 60.666669 237 58 242.33333 50.666669 264.66667 46.666669 304 46H337V0H326C312 2 264 3 182 3 92 3 44 2 38 0H27V46H60C88 46.666669 105 47.666669 111 49 117 50.333333 123.333339 54.333333 130 61V622ZM507 488C507 505.33335 506.66667 518.6667 506 528 505.33335 537.3333 503.33335 549.3333 500 564 496.66667 578.6667 491 589.6667 483 597 475 604.3333 464 612 450 620 436 628 418.33335 633 397 635 389 636.3333 359 637 307 637H286C253.33333 637 236 634 234 628 232 625.3333 231 577 231 483V342H302 339C373 342 401 344.33335 423 349 445 353.66667 464.33335 364.66667 481 382 498.33335 401.33335 507 436.66667 507 488Z"/>
<path transform="matrix(.014618449,0,0,-.014699421,131.1056,52.197008)" d="M114 620C113.333339 620.6667 112 622 110 624 108 626 107 627 107 627 107 627 105.666667 628 103 630 100.333339 632 98.666667 632.6667 98 632 97.333339 631.3333 95 632 91 634 87 636 83.333339 636.3333 80 635 76.666667 633.6667 72.333339 634 67 636 61.666669 638 55.333333 638.3333 48 637H19V683H28C40 681 81.33333 680 152 680 232.66667 680 280 681 294 683H305V637H284C243.33333 635 223 629.3333 223 620 223 618.6667 253 536 313 372 373 208 403.33335 126 404 126L490 358C546.6667 511.33335 575 591 575 597 575 609.6667 568 619.3333 554 626 540 632.6667 524.6667 636.3333 508 637H503V683H512C522 681 560.3333 680 627 680 687.6667 680 720 681 724 683H730V637H723C673 637 641 623.3333 627 596 627 595.3333 589.6667 493.6667 515 291 440.3333 88.33333 402.33335-13.333333 401-14 397.66667-19.333334 391.33335-22 382-22H374 367C357.66667-22 351.33335-19.333334 348-14 346.66667-12.666667 307.6667 93 231 303 153 512.3334 114 618 114 620Z"/>
<path transform="matrix(.014618449,0,0,-.014699421,131.1056,52.197008)" stroke-linecap="butt" stroke-miterlimit="4" stroke-linejoin="miter" fill="none" stroke="#000000" stroke-opacity=".0157" d="M114 620C113.333339 620.6667 112 622 110 624 108 626 107 627 107 627 107 627 105.666667 628 103 630 100.333339 632 98.666667 632.6667 98 632 97.333339 631.3333 95 632 91 634 87 636 83.333339 636.3333 80 635 76.666667 633.6667 72.333339 634 67 636 61.666669 638 55.333333 638.3333 48 637H19V683H28C40 681 81.33333 680 152 680 232.66667 680 280 681 294 683H305V637H284C243.33333 635 223 629.3333 223 620 223 618.6667 253 536 313 372 373 208 403.33335 126 404 126L490 358C546.6667 511.33335 575 591 575 597 575 609.6667 568 619.3333 554 626 540 632.6667 524.6667 636.3333 508 637H503V683H512C522 681 560.3333 680 627 680 687.6667 680 720 681 724 683H730V637H723C673 637 641 623.3333 627 596 627 595.3333 589.6667 493.6667 515 291 440.3333 88.33333 402.33335-13.333333 401-14 397.66667-19.333334 391.33335-22 382-22H374 367C357.66667-22 351.33335-19.333334 348-14 346.66667-12.666667 307.6667 93 231 303 153 512.3334 114 618 114 620Z"/>
<path transform="matrix(.010335244,0,0,-.010392491,142.06945,54.401926)" d="M132 622C127.333339 626.6667 123.666667 629.6667 121 631 118.333339 632.3333 113 633.3333 105 634 97 634.6667 82.66667 635.6667 62 637H29V683H135C192.33335 683 224.66667 682.6667 232 682 239.33333 681.3333 245 679 249 675 249.66667 674.3333 284.66667 582 354 398L458 124 562 398C631.3333 582 666.6667 674.3333 668 675 670 679 675 681.3333 683 682 691 682.6667 723.6667 683 781 683H887V637H854C827.3333 636.3333 810.3333 635.3333 803 634 795.6667 632.6667 789.6667 628.6667 785 622V61C789 54.333333 794.6667 50.333333 802 49 809.3333 47.666669 826.6667 46.666669 854 46H887V0H876C862 2 815.3333 3 736 3 648.6667 3 602 2 596 0H585V46H618C646 46.666669 663 47.666669 669 49 675 50.333333 681.3333 54.333333 688 61V347C688 398.33335 688 436.33335 688 461 688 485.66667 688 514 688 546 688 578 688 600.3333 688 613L687 632C531.6666 220 452.66667 11.666667 450 7 447.33335 3 440.66667 1 430 1 419.33335 1 412.66667 3 410 7 409.33335 8.333333 370 111.33333 292 316L176 624V606C175.33333 594 175 573 175 543 175 513 175 486.33335 175 463 175 439.66667 175 404 175 356L176 86C183.33333 62 211.66666 48.666669 261 46H278V0H269C259 2 220.66667 3 154 3 86 3 47 2 37 0H29V46H46C67.333339 47.333333 84.666667 50.666669 98 56 111.333339 61.333333 119.333339 65.666667 122 69 124.666667 72.333339 128 78 132 86V622Z"/>
<path transform="matrix(.010335244,0,0,-.010392491,142.06945,54.401926)" stroke-linecap="butt" stroke-miterlimit="4" stroke-linejoin="miter" fill="none" stroke="#000000" stroke-opacity=".0118" d="M132 622C127.333339 626.6667 123.666667 629.6667 121 631 118.333339 632.3333 113 633.3333 105 634 97 634.6667 82.66667 635.6667 62 637H29V683H135C192.33335 683 224.66667 682.6667 232 682 239.33333 681.3333 245 679 249 675 249.66667 674.3333 284.66667 582 354 398L458 124 562 398C631.3333 582 666.6667 674.3333 668 675 670 679 675 681.3333 683 682 691 682.6667 723.6667 683 781 683H887V637H854C827.3333 636.3333 810.3333 635.3333 803 634 795.6667 632.6667 789.6667 628.6667 785 622V61C789 54.333333 794.6667 50.333333 802 49 809.3333 47.666669 826.6667 46.666669 854 46H887V0H876C862 2 815.3333 3 736 3 648.6667 3 602 2 596 0H585V46H618C646 46.666669 663 47.666669 669 49 675 50.333333 681.3333 54.333333 688 61V347C688 398.33335 688 436.33335 688 461 688 485.66667 688 514 688 546 688 578 688 600.3333 688 613L687 632C531.6666 220 452.66667 11.666667 450 7 447.33335 3 440.66667 1 430 1 419.33335 1 412.66667 3 410 7 409.33335 8.333333 370 111.33333 292 316L176 624V606C175.33333 594 175 573 175 543 175 513 175 486.33335 175 463 175 439.66667 175 404 175 356L176 86C183.33333 62 211.66666 48.666669 261 46H278V0H269C259 2 220.66667 3 154 3 86 3 47 2 37 0H29V46H46C67.333339 47.333333 84.666667 50.666669 98 56 111.333339 61.333333 119.333339 65.666667 122 69 124.666667 72.333339 128 78 132 86V622Z"/>
<path transform="matrix(.010335244,0,0,-.010392491,151.5422,54.401926)" d="M130 622C125.333339 626.6667 121.666667 629.6667 119 631 116.333339 632.3333 111 633.3333 103 634 95 634.6667 80.66667 635.6667 60 637H27V683H228C342 682.3333 405.66667 682 419 682 432.33335 682 446.33335 680 461 676 489.66667 670 518 658.3333 546 641 574 623.6667 600.6667 601 626 573 651.3333 545 671 510.66667 685 470 699 429.33335 706.6667 384.66667 708 336 708 252 683.3333 178.66667 634 116 584.6667 53.333333 520.6667 15.666667 442 3 433.33335 1.6666666 362 .6666667 228 0H27V46H60C88 46.666669 105 47.666669 111 49 117 50.333333 123.333339 54.333333 130 61V622ZM593 338C593 405.33335 585.6667 459.66667 571 501 556.3333 542.3333 530.3333 576 493 602 457 625.3333 411 637 355 637H322 294C256.66667 637 236.66667 634 234 628 232 625.3333 231 530.6667 231 344 231 156 231.33333 61 232 59 232.66667 52.333333 238 48.666669 248 48 258 47.333333 288.33335 46.666669 339 46H350C420.6667 46 475.66667 62.333333 515 95 545.6667 120.333339 566.3333 152.33333 577 191 587.6667 229.66667 593 278.66667 593 338Z"/>
<path transform="matrix(.010335244,0,0,-.010392491,151.5422,54.401926)" stroke-linecap="butt" stroke-miterlimit="4" stroke-linejoin="miter" fill="none" stroke="#000000" stroke-opacity=".0118" d="M130 622C125.333339 626.6667 121.666667 629.6667 119 631 116.333339 632.3333 111 633.3333 103 634 95 634.6667 80.66667 635.6667 60 637H27V683H228C342 682.3333 405.66667 682 419 682 432.33335 682 446.33335 680 461 676 489.66667 670 518 658.3333 546 641 574 623.6667 600.6667 601 626 573 651.3333 545 671 510.66667 685 470 699 429.33335 706.6667 384.66667 708 336 708 252 683.3333 178.66667 634 116 584.6667 53.333333 520.6667 15.666667 442 3 433.33335 1.6666666 362 .6666667 228 0H27V46H60C88 46.666669 105 47.666669 111 49 117 50.333333 123.333339 54.333333 130 61V622ZM593 338C593 405.33335 585.6667 459.66667 571 501 556.3333 542.3333 530.3333 576 493 602 457 625.3333 411 637 355 637H322 294C256.66667 637 236.66667 634 234 628 232 625.3333 231 530.6667 231 344 231 156 231.33333 61 232 59 232.66667 52.333333 238 48.666669 248 48 258 47.333333 288.33335 46.666669 339 46H350C420.6667 46 475.66667 62.333333 515 95 545.6667 120.333339 566.3333 152.33333 577 191 587.6667 229.66667 593 278.66667 593 338Z"/>
</g>
<g clip-path="url(#clip_8)">
<path transform="matrix(.7152317,0,0,.7152317,.35761587,.35761587)" stroke-width="1" stroke-linecap="butt" stroke-miterlimit="10" stroke-linejoin="miter" fill="none" stroke="#000000" d="M101 57.25H134.63"/>
<path transform="matrix(.7152317,0,0,.7152317,.35761587,.35761587)" d="M139.88 57.25 132.88 60.75 134.63 57.25 132.88 53.75 139.88 57.25Z"/>
<path transform="matrix(.7152317,0,0,.7152317,.35761587,.35761587)" stroke-width="1" stroke-linecap="butt" stroke-miterlimit="10" stroke-linejoin="miter" fill="none" stroke="#000000" d="M139.88 57.25 132.88 60.75 134.63 57.25 132.88 53.75 139.88 57.25Z"/>
<path transform="matrix(.7152317,0,0,.7152317,.35761587,.35761587)" stroke-width="1" stroke-linecap="butt" stroke-miterlimit="10" stroke-linejoin="miter" fill="none" stroke="#000000" d="M101 161H122L136.13 161.21"/>
<path transform="matrix(.7152317,0,0,.7152317,.35761587,.35761587)" d="M141.38 161.28 134.33 164.68 136.13 161.21 134.43 157.68 141.38 161.28Z"/>
<path transform="matrix(.7152317,0,0,.7152317,.35761587,.35761587)" stroke-width="1" stroke-linecap="butt" stroke-miterlimit="10" stroke-linejoin="miter" fill="none" stroke="#000000" d="M141.38 161.28 134.33 164.68 136.13 161.21 134.43 157.68 141.38 161.28Z"/>
<path transform="matrix(.7152317,0,0,.7152317,.35761587,.35761587)" stroke-width="1" stroke-linecap="butt" stroke-miterlimit="10" stroke-linejoin="miter" fill="none" stroke="#000000" d="M101 267H134.63"/>
<path transform="matrix(.7152317,0,0,.7152317,.35761587,.35761587)" d="M139.88 267 132.88 270.5 134.63 267 132.88 263.5 139.88 267Z"/>
<path transform="matrix(.7152317,0,0,.7152317,.35761587,.35761587)" stroke-width="1" stroke-linecap="butt" stroke-miterlimit="10" stroke-linejoin="miter" fill="none" stroke="#000000" d="M139.88 267 132.88 270.5 134.63 267 132.88 263.5 139.88 267Z"/>
<text xml:space="preserve" transform="matrix(.7152317 0 0 .7152317 0 0)" font-size="12" font-family="Helvetica-Bold" font-weight="bold"><tspan y="20" x="181.65625 191.65225">MD</tspan></text>
<text xml:space="preserve" transform="matrix(.7152317 0 0 .7152317 0 0)" font-size="12" font-family="Helvetica-Bold" font-weight="bold"><tspan y="129" x="184.65625 192.66025">SR</tspan></text>
<text xml:space="preserve" transform="matrix(.7152317 0 0 .7152317 0 0)" font-size="12" font-family="Helvetica-Bold" font-weight="bold"><tspan y="234" x="183.65625 191.66025">ER</tspan></text>
</g>
</svg>
