<svg xmlns="http://www.w3.org/2000/svg" xmlns:xlink="http://www.w3.org/1999/xlink" xmlns:inkscape="http://www.inkscape.org/namespaces/inkscape" version="1.1" width="90.13896" height="52.506624" viewBox="0 0 90.13896 52.506624">
<defs>
<clipPath id="clip_1">
<path transform="matrix(1,0,0,-1,-4.844853,73.26544)" d="M4.844853 20.75882H94.98382V73.26544H4.844853Z" clip-rule="evenodd"/>
</clipPath>
<clipPath id="clip_2">
<path transform="matrix(.24,0,0,.24,-4.844853,-.6545563)" d="M0 0H600V308.3333H0Z" clip-rule="evenodd"/>
</clipPath>
<clipPath id="clip_3">
<path transform="matrix(.24,0,0,.24,-4.844853,-.6545563)" d="M0 0H418.74998V214.58333H0Z" clip-rule="evenodd"/>
</clipPath>
<clipPath id="clip_4">
<path transform="matrix(.24,0,0,.24,-4.844853,-.6545563)" d="M50 106.24999H366.66667V145.83333H50Z" clip-rule="evenodd"/>
</clipPath>
<clipPath id="clip_5">
<path transform="matrix(.24,0,0,.24,-4.844853,-.6545563)" d="M0 0H418.74998V214.58333H0Z" clip-rule="evenodd"/>
</clipPath>
</defs>
<g clip-path="url(#clip_1)">
<g clip-path="url(#clip_2)">
<path transform="matrix(.49999998,0,0,.49999998,-4.844853,-.6545563)" d="M0 0H288V148H0Z" fill="#ffffff"/>
</g>
<g clip-path="url(#clip_3)">
<path transform="matrix(.49999998,0,0,.49999998,-4.594853,-.40455628)" d="M14.67 .61 185.94 .75 184.26 100.06 13.45 99.15" fill="#ffffff"/>
<path transform="matrix(.49999998,0,0,.49999998,-4.594853,-.40455628)" stroke-width="1" stroke-linecap="round" stroke-linejoin="round" fill="none" stroke="#000000" d="M15 1C73.2 1.7 131.38 2.23 185 1M15 1C60.66-.71999999 105.58 .25 185 1M185 1C182.29 40.94 184.5 81.68 185 101M185 1C185.05 26.83 185.1 52.36 185 101M185 101C118.04 100.77 50.77 102.28 15 101M185 101C133.16 98.52 82.74 99.95 15 101M15 101C17.87 73.01 17.65 44.29 15 1M15 101C14.62 79.49 14.76 59.27 15 1"/>
<text xml:space="preserve" transform="matrix(.49999998 0 0 .49999998 -4.844853 -.6545563)" font-size="15" font-family="Helvetica"><tspan y="21" x="33.296876 43.301877 51.641878 59.141878 67.48188 72.47688 80.81689 84.986888 88.31689 95.81689 104.15689 108.32689 119.15689 127.496898 135.8369 144.1769 151.6769 155.0069 159.1769">Absorptive Capacity</tspan></text>
<text xml:space="preserve" transform="matrix(.49999998 0 0 .49999998 -4.844853 -.6545563)" font-size="15" font-family="Helvetica"><tspan y="21" x="166.6875"> </tspan></text>
<text xml:space="preserve" transform="matrix(.49999998 0 0 .49999998 -4.844853 -.6545563)" font-size="12" font-family="Helvetica"><tspan y="36" x="23.953125">(</tspan></text>
<text fill="#0000ff" xml:space="preserve" transform="matrix(.49999998 0 0 .49999998 -4.844853 -.6545563)" font-size="12" font-family="Helvetica"><tspan y="36" x="27.9375 35.9415 42.613504 52.609506 59.281507 62.617509 70.621509 77.2935 83.9655 90.6375 97.309497 99.973499 105.973499 109.309497 112.64549 119.31749 122.65349 125.98949 132.66149 135.32549 138.66149 141.99748 148.66948 155.34148 162.01348">Kemp Benedict et al. 2017</tspan></text>
<text xml:space="preserve" transform="matrix(.49999998 0 0 .49999998 -4.844853 -.6545563)" font-size="12" font-family="Helvetica"><tspan y="36" x="168.6875 172.6835">)&#x00a0;</tspan></text>
<text xml:space="preserve" transform="matrix(.49999998 0 0 .49999998 -4.844853 -.6545563)" font-size="12" font-family="Helvetica"><tspan y="36" x="176.01563"> </tspan></text>
</g>
<g clip-path="url(#clip_4)">
<path transform="matrix(.007292689,0,0,-.007677388,7.1613309,31.173913)" d="M166 673C166 681 171.66667 688 183 694H202C262 692 300 675.3333 316 644 320 634 339 581.3333 373 486 407 390.66667 440.66667 297.6667 474 207 507.33335 116.33333 524 69.666667 524 67 528.6667 53.666666 533 42.666669 537 34 541 25.333333 544 19 546 15 548 11 549.6667 8 551 6 552.3333 4 553.6667 2.6666668 555 2 556.3333 1.3333333 556.6667 0 556-2 555.3333-4 553.3333-7 550-11H482C465.33335-1.666666 454.66667 8 450 18 445.33335 28 428.33335 72.666667 399 152L354 277 340 262C331.33335 251.33333 315.66667 233 293 207 270.33335 181 251.33333 159 236 141 219.33333 121.666667 198.66667 97.66667 174 69 140 29 119 5.666667 111-1 103-7.666667 93.666667-11.333333 83-12 59-12 47-1.333334 47 20 47 31.333334 51.666666 42 61 52 70.333339 62 116.33333 107 199 187 219 206.33333 241.33333 228 266 252 290.66667 276 309 294 321 306L338 322C338 322.66667 321.33335 369.3333 288 462 254.66666 554.6667 236.66667 604.6667 234 612 220.66667 642 203.66667 657 183 657 171.66667 657 166 662.3333 166 673Z"/>
<path transform="matrix(.007292689,0,0,-.007677388,7.1613309,31.173913)" stroke-linecap="butt" stroke-miterlimit="4" stroke-linejoin="miter" fill="none" stroke="#000000" stroke-opacity=".0078" d="M166 673C166 681 171.66667 688 183 694H202C262 692 300 675.3333 316 644 320 634 339 581.3333 373 486 407 390.66667 440.66667 297.6667 474 207 507.33335 116.33333 524 69.666667 524 67 528.6667 53.666666 533 42.666669 537 34 541 25.333333 544 19 546 15 548 11 549.6667 8 551 6 552.3333 4 553.6667 2.6666668 555 2 556.3333 1.3333333 556.6667 0 556-2 555.3333-4 553.3333-7 550-11H482C465.33335-1.666666 454.66667 8 450 18 445.33335 28 428.33335 72.666667 399 152L354 277 340 262C331.33335 251.33333 315.66667 233 293 207 270.33335 181 251.33333 159 236 141 219.33333 121.666667 198.66667 97.66667 174 69 140 29 119 5.666667 111-1 103-7.666667 93.666667-11.333333 83-12 59-12 47-1.333334 47 20 47 31.333334 51.666666 42 61 52 70.333339 62 116.33333 107 199 187 219 206.33333 241.33333 228 266 252 290.66667 276 309 294 321 306L338 322C338 322.66667 321.33335 369.3333 288 462 254.66666 554.6667 236.66667 604.6667 234 612 220.66667 642 203.66667 657 183 657 171.66667 657 166 662.3333 166 673Z"/>
<path transform="matrix(.0051559309,0,0,-.0054279135,11.412968,32.32552)" d="M184 600C184 616 190.33333 630 203 642 215.66667 654 230.33333 660.3333 247 661 259 661 269 657 277 649 285 641 289.33335 631 290 619 290 603.6667 283.33335 589.6667 270 577 256.66667 564.3333 242 557.6667 226 557 216 557 206.66667 560.3333 198 567 189.33333 573.6667 184.66667 584.6667 184 600ZM21 287C21 292.33335 24 302.66667 30 318 36 333.33335 44 350.33335 54 369 64 387.66667 78.666667 404.66667 98 420 117.333339 435.33335 137.33333 442.66667 158 442 184 442 205.66667 434.33335 223 419 240.33333 403.66667 249.33333 383 250 357 250 345.66667 245.33333 327 236 301 226.66667 275 213.33333 240 196 196 178.66667 152 164.66667 114.333339 154 83 150.66667 68.333339 149 57.666669 149 51 149 34.333333 154.66667 26 166 26 172 26 178.33333 27 185 29 191.66667 31 199.33333 35.666669 208 43 216.66667 50.333333 225.66667 62 235 78 244.33333 94 252.66667 113.666667 260 137 262 145 263.66667 149.66667 265 151 266.33335 152.33333 272 153 282 153 295.33335 153 302 149.66667 302 143 302 137.66667 299 127.333339 293 112 287 96.666667 278.66667 79.66667 268 61 257.33335 42.333333 242.33333 25.666668 223 11 203.66667-3.666667 183-11 161-11 139.66667-11 120-4 102 10 84 24 74.666667 45.333333 74 74 74 85.333339 75.666667 96 79 106 82.333339 116 96.666667 154 122 220 147.33333 287.33335 162 327.66667 166 341 170 354.33335 172.33333 367.33335 173 380 173 396 167.33333 404 156 404H154C134 404 115.66667 393 99 371 82.33333 349 69.666667 321 61 287 60.333333 286.33335 59.666669 285.33335 59 284 58.333333 282.66667 58 281.66667 58 281 58 280.33335 57.333333 279.66667 56 279 54.666669 278.33335 53.666669 278 53 278 52.333333 278 51 278 49 278 47 278 44.333333 278 41 278H27C23 282 21 285 21 287Z"/>
<path transform="matrix(.0051559309,0,0,-.0054279135,11.412968,32.32552)" stroke-linecap="butt" stroke-miterlimit="4" stroke-linejoin="miter" fill="none" stroke="#000000" stroke-opacity=".0039" d="M184 600C184 616 190.33333 630 203 642 215.66667 654 230.33333 660.3333 247 661 259 661 269 657 277 649 285 641 289.33335 631 290 619 290 603.6667 283.33335 589.6667 270 577 256.66667 564.3333 242 557.6667 226 557 216 557 206.66667 560.3333 198 567 189.33333 573.6667 184.66667 584.6667 184 600ZM21 287C21 292.33335 24 302.66667 30 318 36 333.33335 44 350.33335 54 369 64 387.66667 78.666667 404.66667 98 420 117.333339 435.33335 137.33333 442.66667 158 442 184 442 205.66667 434.33335 223 419 240.33333 403.66667 249.33333 383 250 357 250 345.66667 245.33333 327 236 301 226.66667 275 213.33333 240 196 196 178.66667 152 164.66667 114.333339 154 83 150.66667 68.333339 149 57.666669 149 51 149 34.333333 154.66667 26 166 26 172 26 178.33333 27 185 29 191.66667 31 199.33333 35.666669 208 43 216.66667 50.333333 225.66667 62 235 78 244.33333 94 252.66667 113.666667 260 137 262 145 263.66667 149.66667 265 151 266.33335 152.33333 272 153 282 153 295.33335 153 302 149.66667 302 143 302 137.66667 299 127.333339 293 112 287 96.666667 278.66667 79.66667 268 61 257.33335 42.333333 242.33333 25.666668 223 11 203.66667-3.666667 183-11 161-11 139.66667-11 120-4 102 10 84 24 74.666667 45.333333 74 74 74 85.333339 75.666667 96 79 106 82.333339 116 96.666667 154 122 220 147.33333 287.33335 162 327.66667 166 341 170 354.33335 172.33333 367.33335 173 380 173 396 167.33333 404 156 404H154C134 404 115.66667 393 99 371 82.33333 349 69.666667 321 61 287 60.333333 286.33335 59.666669 285.33335 59 284 58.333333 282.66667 58 281.66667 58 281 58 280.33335 57.333333 279.66667 56 279 54.666669 278.33335 53.666669 278 53 278 52.333333 278 51 278 49 278 47 278 44.333333 278 41 278H27C23 282 21 285 21 287Z"/>
<path transform="matrix(.0051559309,0,0,-.0054279135,13.192383,32.32552)" d="M297 596C297 616.6667 304 632.6667 318 644 332 655.3333 346.33335 661 361 661 372.33335 661 381.66667 657.6667 389 651 396.33335 644.3333 401 635 403 623 403 604.3333 396.66667 588.6667 384 576 371.33335 563.3333 356.66667 557 340 557 328 557 318 560.3333 310 567 302 573.6667 297.66667 583.3333 297 596ZM288 376C288 395.33335 279.33335 405 262 405 247.33333 405 233.33333 401 220 393 206.66667 385 195 374.66667 185 362 175 349.33335 167 337 161 325 155 313 149.33333 302.33335 144 293L137 279C135.66667 278.33335 130.33333 278 121 278H107C103 282 101 284.66667 101 286 101 287.33335 102.333339 291.66667 105 299 119 331.66667 138.66667 362.33335 164 391 189.33333 419.66667 218.66666 436.33335 252 441 252.66667 441 255.33333 441 260 441 264.66667 441 268.66667 441.33335 272 442 288 441.33335 302.66667 438 316 432 332.66667 422.66667 345.33335 412.33335 354 401 362.66667 389.66667 367 372 367 348V332L318 133C284-.3333435 266-69.666667 264-75 252-108.333339 228.66667-138 194-164 159.33333-190 119.66667-203.33333 75-204 41.666666-204 19-197 7-183-5-169-11.333333-153.66667-12-137-12-119-5.666667-103.666667 7-91 19.666668-78.333339 35-71.666667 53-71 64.333339-71 74-74.333339 82-81 90-87.666667 94.333339-98 95-112 95-136 84.333339-154.33333 63-167 67-167.66667 71.666667-168 77-168 99.66667-168 120.33333-158.66667 139-140 157.66667-121.33333 172-99.333339 182-74L193-32C200.33333-3.333332 209 31.333333 219 72 229 112.66667 239.66667 154.33333 251 197 262.33335 239.66667 271.33335 276.66667 278 308 284.66667 339.33335 288.33335 358.33335 289 365 289 369.66667 288.66667 373.33335 288 376Z"/>
<path transform="matrix(.0051559309,0,0,-.0054279135,13.192383,32.32552)" stroke-linecap="butt" stroke-miterlimit="4" stroke-linejoin="miter" fill="none" stroke="#000000" stroke-opacity=".0039" d="M297 596C297 616.6667 304 632.6667 318 644 332 655.3333 346.33335 661 361 661 372.33335 661 381.66667 657.6667 389 651 396.33335 644.3333 401 635 403 623 403 604.3333 396.66667 588.6667 384 576 371.33335 563.3333 356.66667 557 340 557 328 557 318 560.3333 310 567 302 573.6667 297.66667 583.3333 297 596ZM288 376C288 395.33335 279.33335 405 262 405 247.33333 405 233.33333 401 220 393 206.66667 385 195 374.66667 185 362 175 349.33335 167 337 161 325 155 313 149.33333 302.33335 144 293L137 279C135.66667 278.33335 130.33333 278 121 278H107C103 282 101 284.66667 101 286 101 287.33335 102.333339 291.66667 105 299 119 331.66667 138.66667 362.33335 164 391 189.33333 419.66667 218.66666 436.33335 252 441 252.66667 441 255.33333 441 260 441 264.66667 441 268.66667 441.33335 272 442 288 441.33335 302.66667 438 316 432 332.66667 422.66667 345.33335 412.33335 354 401 362.66667 389.66667 367 372 367 348V332L318 133C284-.3333435 266-69.666667 264-75 252-108.333339 228.66667-138 194-164 159.33333-190 119.66667-203.33333 75-204 41.666666-204 19-197 7-183-5-169-11.333333-153.66667-12-137-12-119-5.666667-103.666667 7-91 19.666668-78.333339 35-71.666667 53-71 64.333339-71 74-74.333339 82-81 90-87.666667 94.333339-98 95-112 95-136 84.333339-154.33333 63-167 67-167.66667 71.666667-168 77-168 99.66667-168 120.33333-158.66667 139-140 157.66667-121.33333 172-99.333339 182-74L193-32C200.33333-3.333332 209 31.333333 219 72 229 112.66667 239.66667 154.33333 251 197 262.33335 239.66667 271.33335 276.66667 278 308 284.66667 339.33335 288.33335 358.33335 289 365 289 369.66667 288.66667 373.33335 288 376Z"/>
<path transform="matrix(.007292689,0,0,-.007677388,18.078488,31.173913)" d="M56 347C56 355.66667 60.666666 362.33335 70 367H707C717 361.66667 722 355 722 347 722 339.66667 717.3333 333.33335 708 328L390 327H72C61.333333 330.33335 56 337 56 347ZM56 153C56 163 61.333333 169.66667 72 173H708C717.3333 166.33333 722 159.66667 722 153 722 144.33333 717 137.66667 707 133H70C60.666666 137.66667 56 144.33333 56 153Z"/>
<path transform="matrix(.007292689,0,0,-.007677388,18.078488,31.173913)" stroke-linecap="butt" stroke-miterlimit="4" stroke-linejoin="miter" fill="none" stroke="#000000" stroke-opacity=".0078" d="M56 347C56 355.66667 60.666666 362.33335 70 367H707C717 361.66667 722 355 722 347 722 339.66667 717.3333 333.33335 708 328L390 327H72C61.333333 330.33335 56 337 56 347ZM56 153C56 163 61.333333 169.66667 72 173H708C717.3333 166.33333 722 159.66667 722 153 722 144.33333 717 137.66667 707 133H70C60.666666 137.66667 56 144.33333 56 153Z"/>
<path transform="matrix(.007292689,0,0,-.007677388,25.779564,31.173913)" d="M33 157C33 224.33335 58.333333 288.33335 109 349 159.66667 409.66667 216.66666 440.33335 280 441 314 441 344 424.66667 370 392 380.66667 412 396 422 416 422 424.66667 422 432.33335 419.33335 439 414 445.66667 408.66667 449 402 449 394 449 385.33335 436.66667 332 412 234 387.33335 136 374.66667 80.666667 374 68 374 51.333333 376.33335 40.333333 381 35 385.66667 29.666666 392.66667 26.666666 402 26 408 26.666666 414.66667 29.666666 422 35 436 48.333337 449.66667 80.33333 463 131 467 144.33333 470.33335 151.33333 473 152 474.33335 152.66667 477.66667 153 483 153H487C499.66667 153 506 150 506 144 506 140 504.33335 131 501 117 497.66667 103 491 85 481 63 471 41 460.33335 24.333334 449 13 440.33335 4.333333 429.66667-2.6666666 417-8 411.66667-9.333333 403.66667-10 393-10 370.33335-10 351.33335-5 336 5 320.66667 15 310.66667 25.333333 306 36L300 51C299.33335 51.666669 298 51.333333 296 50 294.66667 48.666669 293.33335 47.333333 292 46 252.66666 8.666664 212.66667-10 172-10 135.33333-10 103 3.333332 75 30 47 56.666669 33 99 33 157ZM351 328C351 332 349.33335 339.33335 346 350 342.66667 360.66667 335 372.33335 323 385 311 397.66667 295.66667 404.33335 277 405 253.66667 405 231.33333 394.66667 210 374 188.66667 353.33335 172 326.33335 160 293 140.66667 240.33333 127 185.66667 119 129 119 127 119 123.333339 119 118 119 112.666667 118.666667 108.666667 118 106 118 76 124 55.333337 136 44 148 32.666666 162.33333 26.666666 179 26 204.33333 26 229.33333 37 254 59 278.66667 81 293.33335 98 298 110 299.33335 112.666667 308.33335 148.33333 325 217 341.66667 285.6667 350.33335 322.66667 351 328Z"/>
<path transform="matrix(.007292689,0,0,-.007677388,25.779564,31.173913)" stroke-linecap="butt" stroke-miterlimit="4" stroke-linejoin="miter" fill="none" stroke="#000000" stroke-opacity=".0078" d="M33 157C33 224.33335 58.333333 288.33335 109 349 159.66667 409.66667 216.66666 440.33335 280 441 314 441 344 424.66667 370 392 380.66667 412 396 422 416 422 424.66667 422 432.33335 419.33335 439 414 445.66667 408.66667 449 402 449 394 449 385.33335 436.66667 332 412 234 387.33335 136 374.66667 80.666667 374 68 374 51.333333 376.33335 40.333333 381 35 385.66667 29.666666 392.66667 26.666666 402 26 408 26.666666 414.66667 29.666666 422 35 436 48.333337 449.66667 80.33333 463 131 467 144.33333 470.33335 151.33333 473 152 474.33335 152.66667 477.66667 153 483 153H487C499.66667 153 506 150 506 144 506 140 504.33335 131 501 117 497.66667 103 491 85 481 63 471 41 460.33335 24.333334 449 13 440.33335 4.333333 429.66667-2.6666666 417-8 411.66667-9.333333 403.66667-10 393-10 370.33335-10 351.33335-5 336 5 320.66667 15 310.66667 25.333333 306 36L300 51C299.33335 51.666669 298 51.333333 296 50 294.66667 48.666669 293.33335 47.333333 292 46 252.66666 8.666664 212.66667-10 172-10 135.33333-10 103 3.333332 75 30 47 56.666669 33 99 33 157ZM351 328C351 332 349.33335 339.33335 346 350 342.66667 360.66667 335 372.33335 323 385 311 397.66667 295.66667 404.33335 277 405 253.66667 405 231.33333 394.66667 210 374 188.66667 353.33335 172 326.33335 160 293 140.66667 240.33333 127 185.66667 119 129 119 127 119 123.333339 119 118 119 112.666667 118.666667 108.666667 118 106 118 76 124 55.333337 136 44 148 32.666666 162.33333 26.666666 179 26 204.33333 26 229.33333 37 254 59 278.66667 81 293.33335 98 298 110 299.33335 112.666667 308.33335 148.33333 325 217 341.66667 285.6667 350.33335 322.66667 351 328Z"/>
<path transform="matrix(.007292689,0,0,-.007677388,25.881667,31.166237)" d="M69 544V590H430V544H69Z"/>
<path transform="matrix(.007292689,0,0,-.007677388,25.881667,31.166237)" stroke-linecap="butt" stroke-miterlimit="4" stroke-linejoin="miter" fill="none" stroke="#000000" stroke-opacity=".0078" d="M69 544V590H430V544H69Z"/>
<path transform="matrix(.007292689,0,0,-.007677388,30.855278,31.173913)" d="M94 250C94 296 97.333339 339.66667 104 381 110.666667 422.33335 118.333339 458 127 488 135.66667 518 148 547.3333 164 576 180 604.6667 192.66667 627 202 643 211.33333 659 225.33333 676.3333 244 695 262.66667 713.6667 273.66667 725 277 729 280.33335 733 288.66667 740 302 750H315 319C328.33335 750 333 747 333 741 333 739 327.33335 732 316 720 304.66667 708 291 690.3333 275 667 259 643.6667 242.66667 615 226 581 209.33333 547 195.33333 501 184 443 172.66667 385 167 320.6667 167 250 167 179.33333 172.66667 115.333339 184 58 195.33333 .6666641 209-45.666666 225-81 241-116.333339 257.33335-145 274-167 290.66667-189 304.66667-206.66667 316-220 327.33335-233.33333 333-240.33333 333-241 333-247 328-250 318-250H315 302L274-226C211.33333-169.33333 165.66667-98.66667 137-14 108.33333 70.66667 94 158.66666 94 250Z"/>
<path transform="matrix(.007292689,0,0,-.007677388,30.855278,31.173913)" stroke-linecap="butt" stroke-miterlimit="4" stroke-linejoin="miter" fill="none" stroke="#000000" stroke-opacity=".0078" d="M94 250C94 296 97.333339 339.66667 104 381 110.666667 422.33335 118.333339 458 127 488 135.66667 518 148 547.3333 164 576 180 604.6667 192.66667 627 202 643 211.33333 659 225.33333 676.3333 244 695 262.66667 713.6667 273.66667 725 277 729 280.33335 733 288.66667 740 302 750H315 319C328.33335 750 333 747 333 741 333 739 327.33335 732 316 720 304.66667 708 291 690.3333 275 667 259 643.6667 242.66667 615 226 581 209.33333 547 195.33333 501 184 443 172.66667 385 167 320.6667 167 250 167 179.33333 172.66667 115.333339 184 58 195.33333 .6666641 209-45.666666 225-81 241-116.333339 257.33335-145 274-167 290.66667-189 304.66667-206.66667 316-220 327.33335-233.33333 333-240.33333 333-241 333-247 328-250 318-250H315 302L274-226C211.33333-169.33333 165.66667-98.66667 137-14 108.33333 70.66667 94 158.66666 94 250Z"/>
<path transform="matrix(.007292689,0,0,-.007677388,33.69213,31.173913)" d="M351 686 442 690C502.66667 692.6667 533.3333 694 534 694H540V389C540 347.66667 540 302.33335 540 253 540 203.66666 539.6667 173.66667 539 163 539 119 539.6667 92.333339 541 83 542.3333 73.666667 547 68 555 66 564.3333 63.333333 578 62 596 62H609V31C609 10.333332 608.6667 0 608 0 594.6667 0 562-1 510-3 458-5 425.33335-6 412-6 411.33335-6 411 1.333333 411 16V38L401 31C358.33335 6.333332 313-6 265-6 194.33333-6 139 15.333332 99 58 59 100.66667 38.666669 156 38 224 38 251.33333 42.333333 277.66667 51 303 59.666669 328.33335 73.33333 352.33335 92 375 110.66667 397.66667 135 415.66667 165 429 195 442.33335 230.66666 449 272 449 330 449 378.33335 436.66667 417 412V507 555C417 583 416.33335 600.3333 415 607 413.66667 613.6667 409.33335 618 402 620 392.66667 622.6667 379 624 361 624H348V686H351ZM411 350C378.33335 382.66667 338.33335 399 291 399 282.33335 399 270.66667 396.66667 256 392 241.33333 387.33335 228.66667 380.33335 218 371 202.66667 357.66667 193 340.66667 189 320 185 299.33335 182.66667 272 182 238V221C182 193 182.33333 172.33333 183 159 183.66667 145.66667 186.33333 131 191 115 195.66667 99 202.66667 85.333339 212 74 231.33333 55.333333 256.66667 46 288 46 334.66667 46 373.33335 64 404 100L411 109V350Z"/>
<path transform="matrix(.007292689,0,0,-.007677388,33.69213,31.173913)" stroke-linecap="butt" stroke-miterlimit="4" stroke-linejoin="miter" fill="none" stroke="#000000" stroke-opacity=".0078" d="M351 686 442 690C502.66667 692.6667 533.3333 694 534 694H540V389C540 347.66667 540 302.33335 540 253 540 203.66666 539.6667 173.66667 539 163 539 119 539.6667 92.333339 541 83 542.3333 73.666667 547 68 555 66 564.3333 63.333333 578 62 596 62H609V31C609 10.333332 608.6667 0 608 0 594.6667 0 562-1 510-3 458-5 425.33335-6 412-6 411.33335-6 411 1.333333 411 16V38L401 31C358.33335 6.333332 313-6 265-6 194.33333-6 139 15.333332 99 58 59 100.66667 38.666669 156 38 224 38 251.33333 42.333333 277.66667 51 303 59.666669 328.33335 73.33333 352.33335 92 375 110.66667 397.66667 135 415.66667 165 429 195 442.33335 230.66666 449 272 449 330 449 378.33335 436.66667 417 412V507 555C417 583 416.33335 600.3333 415 607 413.66667 613.6667 409.33335 618 402 620 392.66667 622.6667 379 624 361 624H348V686H351ZM411 350C378.33335 382.66667 338.33335 399 291 399 282.33335 399 270.66667 396.66667 256 392 241.33333 387.33335 228.66667 380.33335 218 371 202.66667 357.66667 193 340.66667 189 320 185 299.33335 182.66667 272 182 238V221C182 193 182.33333 172.33333 183 159 183.66667 145.66667 186.33333 131 191 115 195.66667 99 202.66667 85.333339 212 74 231.33333 55.333333 256.66667 46 288 46 334.66667 46 373.33335 64 404 100L411 109V350Z"/>
<path transform="matrix(.0051559309,0,0,-.0054279135,38.352159,32.32552)" d="M184 600C184 616 190.33333 630 203 642 215.66667 654 230.33333 660.3333 247 661 259 661 269 657 277 649 285 641 289.33335 631 290 619 290 603.6667 283.33335 589.6667 270 577 256.66667 564.3333 242 557.6667 226 557 216 557 206.66667 560.3333 198 567 189.33333 573.6667 184.66667 584.6667 184 600ZM21 287C21 292.33335 24 302.66667 30 318 36 333.33335 44 350.33335 54 369 64 387.66667 78.666667 404.66667 98 420 117.333339 435.33335 137.33333 442.66667 158 442 184 442 205.66667 434.33335 223 419 240.33333 403.66667 249.33333 383 250 357 250 345.66667 245.33333 327 236 301 226.66667 275 213.33333 240 196 196 178.66667 152 164.66667 114.333339 154 83 150.66667 68.333339 149 57.666669 149 51 149 34.333333 154.66667 26 166 26 172 26 178.33333 27 185 29 191.66667 31 199.33333 35.666669 208 43 216.66667 50.333333 225.66667 62 235 78 244.33333 94 252.66667 113.666667 260 137 262 145 263.66667 149.66667 265 151 266.33335 152.33333 272 153 282 153 295.33335 153 302 149.66667 302 143 302 137.66667 299 127.333339 293 112 287 96.666667 278.66667 79.66667 268 61 257.33335 42.333333 242.33333 25.666668 223 11 203.66667-3.666667 183-11 161-11 139.66667-11 120-4 102 10 84 24 74.666667 45.333333 74 74 74 85.333339 75.666667 96 79 106 82.333339 116 96.666667 154 122 220 147.33333 287.33335 162 327.66667 166 341 170 354.33335 172.33333 367.33335 173 380 173 396 167.33333 404 156 404H154C134 404 115.66667 393 99 371 82.33333 349 69.666667 321 61 287 60.333333 286.33335 59.666669 285.33335 59 284 58.333333 282.66667 58 281.66667 58 281 58 280.33335 57.333333 279.66667 56 279 54.666669 278.33335 53.666669 278 53 278 52.333333 278 51 278 49 278 47 278 44.333333 278 41 278H27C23 282 21 285 21 287Z"/>
<path transform="matrix(.0051559309,0,0,-.0054279135,38.352159,32.32552)" stroke-linecap="butt" stroke-miterlimit="4" stroke-linejoin="miter" fill="none" stroke="#000000" stroke-opacity=".0039" d="M184 600C184 616 190.33333 630 203 642 215.66667 654 230.33333 660.3333 247 661 259 661 269 657 277 649 285 641 289.33335 631 290 619 290 603.6667 283.33335 589.6667 270 577 256.66667 564.3333 242 557.6667 226 557 216 557 206.66667 560.3333 198 567 189.33333 573.6667 184.66667 584.6667 184 600ZM21 287C21 292.33335 24 302.66667 30 318 36 333.33335 44 350.33335 54 369 64 387.66667 78.666667 404.66667 98 420 117.333339 435.33335 137.33333 442.66667 158 442 184 442 205.66667 434.33335 223 419 240.33333 403.66667 249.33333 383 250 357 250 345.66667 245.33333 327 236 301 226.66667 275 213.33333 240 196 196 178.66667 152 164.66667 114.333339 154 83 150.66667 68.333339 149 57.666669 149 51 149 34.333333 154.66667 26 166 26 172 26 178.33333 27 185 29 191.66667 31 199.33333 35.666669 208 43 216.66667 50.333333 225.66667 62 235 78 244.33333 94 252.66667 113.666667 260 137 262 145 263.66667 149.66667 265 151 266.33335 152.33333 272 153 282 153 295.33335 153 302 149.66667 302 143 302 137.66667 299 127.333339 293 112 287 96.666667 278.66667 79.66667 268 61 257.33335 42.333333 242.33333 25.666668 223 11 203.66667-3.666667 183-11 161-11 139.66667-11 120-4 102 10 84 24 74.666667 45.333333 74 74 74 85.333339 75.666667 96 79 106 82.333339 116 96.666667 154 122 220 147.33333 287.33335 162 327.66667 166 341 170 354.33335 172.33333 367.33335 173 380 173 396 167.33333 404 156 404H154C134 404 115.66667 393 99 371 82.33333 349 69.666667 321 61 287 60.333333 286.33335 59.666669 285.33335 59 284 58.333333 282.66667 58 281.66667 58 281 58 280.33335 57.333333 279.66667 56 279 54.666669 278.33335 53.666669 278 53 278 52.333333 278 51 278 49 278 47 278 44.333333 278 41 278H27C23 282 21 285 21 287Z"/>
<path transform="matrix(.0051559309,0,0,-.0054279135,40.131574,32.32552)" d="M297 596C297 616.6667 304 632.6667 318 644 332 655.3333 346.33335 661 361 661 372.33335 661 381.66667 657.6667 389 651 396.33335 644.3333 401 635 403 623 403 604.3333 396.66667 588.6667 384 576 371.33335 563.3333 356.66667 557 340 557 328 557 318 560.3333 310 567 302 573.6667 297.66667 583.3333 297 596ZM288 376C288 395.33335 279.33335 405 262 405 247.33333 405 233.33333 401 220 393 206.66667 385 195 374.66667 185 362 175 349.33335 167 337 161 325 155 313 149.33333 302.33335 144 293L137 279C135.66667 278.33335 130.33333 278 121 278H107C103 282 101 284.66667 101 286 101 287.33335 102.333339 291.66667 105 299 119 331.66667 138.66667 362.33335 164 391 189.33333 419.66667 218.66666 436.33335 252 441 252.66667 441 255.33333 441 260 441 264.66667 441 268.66667 441.33335 272 442 288 441.33335 302.66667 438 316 432 332.66667 422.66667 345.33335 412.33335 354 401 362.66667 389.66667 367 372 367 348V332L318 133C284-.3333435 266-69.666667 264-75 252-108.333339 228.66667-138 194-164 159.33333-190 119.66667-203.33333 75-204 41.666666-204 19-197 7-183-5-169-11.333333-153.66667-12-137-12-119-5.666667-103.666667 7-91 19.666668-78.333339 35-71.666667 53-71 64.333339-71 74-74.333339 82-81 90-87.666667 94.333339-98 95-112 95-136 84.333339-154.33333 63-167 67-167.66667 71.666667-168 77-168 99.66667-168 120.33333-158.66667 139-140 157.66667-121.33333 172-99.333339 182-74L193-32C200.33333-3.333332 209 31.333333 219 72 229 112.66667 239.66667 154.33333 251 197 262.33335 239.66667 271.33335 276.66667 278 308 284.66667 339.33335 288.33335 358.33335 289 365 289 369.66667 288.66667 373.33335 288 376Z"/>
<path transform="matrix(.0051559309,0,0,-.0054279135,40.131574,32.32552)" stroke-linecap="butt" stroke-miterlimit="4" stroke-linejoin="miter" fill="none" stroke="#000000" stroke-opacity=".0039" d="M297 596C297 616.6667 304 632.6667 318 644 332 655.3333 346.33335 661 361 661 372.33335 661 381.66667 657.6667 389 651 396.33335 644.3333 401 635 403 623 403 604.3333 396.66667 588.6667 384 576 371.33335 563.3333 356.66667 557 340 557 328 557 318 560.3333 310 567 302 573.6667 297.66667 583.3333 297 596ZM288 376C288 395.33335 279.33335 405 262 405 247.33333 405 233.33333 401 220 393 206.66667 385 195 374.66667 185 362 175 349.33335 167 337 161 325 155 313 149.33333 302.33335 144 293L137 279C135.66667 278.33335 130.33333 278 121 278H107C103 282 101 284.66667 101 286 101 287.33335 102.333339 291.66667 105 299 119 331.66667 138.66667 362.33335 164 391 189.33333 419.66667 218.66666 436.33335 252 441 252.66667 441 255.33333 441 260 441 264.66667 441 268.66667 441.33335 272 442 288 441.33335 302.66667 438 316 432 332.66667 422.66667 345.33335 412.33335 354 401 362.66667 389.66667 367 372 367 348V332L318 133C284-.3333435 266-69.666667 264-75 252-108.333339 228.66667-138 194-164 159.33333-190 119.66667-203.33333 75-204 41.666666-204 19-197 7-183-5-169-11.333333-153.66667-12-137-12-119-5.666667-103.666667 7-91 19.666668-78.333339 35-71.666667 53-71 64.333339-71 74-74.333339 82-81 90-87.666667 94.333339-98 95-112 95-136 84.333339-154.33333 63-167 67-167.66667 71.666667-168 77-168 99.66667-168 120.33333-158.66667 139-140 157.66667-121.33333 172-99.333339 182-74L193-32C200.33333-3.333332 209 31.333333 219 72 229 112.66667 239.66667 154.33333 251 197 262.33335 239.66667 271.33335 276.66667 278 308 284.66667 339.33335 288.33335 358.33335 289 365 289 369.66667 288.66667 373.33335 288 376Z"/>
<path transform="matrix(.007292689,0,0,-.007677388,42.990308,31.173913)" d="M166 673C166 681 171.66667 688 183 694H202C262 692 300 675.3333 316 644 320 634 339 581.3333 373 486 407 390.66667 440.66667 297.6667 474 207 507.33335 116.33333 524 69.666667 524 67 528.6667 53.666666 533 42.666669 537 34 541 25.333333 544 19 546 15 548 11 549.6667 8 551 6 552.3333 4 553.6667 2.6666668 555 2 556.3333 1.3333333 556.6667 0 556-2 555.3333-4 553.3333-7 550-11H482C465.33335-1.666666 454.66667 8 450 18 445.33335 28 428.33335 72.666667 399 152L354 277 340 262C331.33335 251.33333 315.66667 233 293 207 270.33335 181 251.33333 159 236 141 219.33333 121.666667 198.66667 97.66667 174 69 140 29 119 5.666667 111-1 103-7.666667 93.666667-11.333333 83-12 59-12 47-1.333334 47 20 47 31.333334 51.666666 42 61 52 70.333339 62 116.33333 107 199 187 219 206.33333 241.33333 228 266 252 290.66667 276 309 294 321 306L338 322C338 322.66667 321.33335 369.3333 288 462 254.66666 554.6667 236.66667 604.6667 234 612 220.66667 642 203.66667 657 183 657 171.66667 657 166 662.3333 166 673Z"/>
<path transform="matrix(.007292689,0,0,-.007677388,42.990308,31.173913)" stroke-linecap="butt" stroke-miterlimit="4" stroke-linejoin="miter" fill="none" stroke="#000000" stroke-opacity=".0078" d="M166 673C166 681 171.66667 688 183 694H202C262 692 300 675.3333 316 644 320 634 339 581.3333 373 486 407 390.66667 440.66667 297.6667 474 207 507.33335 116.33333 524 69.666667 524 67 528.6667 53.666666 533 42.666669 537 34 541 25.333333 544 19 546 15 548 11 549.6667 8 551 6 552.3333 4 553.6667 2.6666668 555 2 556.3333 1.3333333 556.6667 0 556-2 555.3333-4 553.3333-7 550-11H482C465.33335-1.666666 454.66667 8 450 18 445.33335 28 428.33335 72.666667 399 152L354 277 340 262C331.33335 251.33333 315.66667 233 293 207 270.33335 181 251.33333 159 236 141 219.33333 121.666667 198.66667 97.66667 174 69 140 29 119 5.666667 111-1 103-7.666667 93.666667-11.333333 83-12 59-12 47-1.333334 47 20 47 31.333334 51.666666 42 61 52 70.333339 62 116.33333 107 199 187 219 206.33333 241.33333 228 266 252 290.66667 276 309 294 321 306L338 322C338 322.66667 321.33335 369.3333 288 462 254.66666 554.6667 236.66667 604.6667 234 612 220.66667 642 203.66667 657 183 657 171.66667 657 166 662.3333 166 673Z"/>
<path transform="matrix(.0051559309,0,0,-.0054279135,47.241949,32.32552)" d="M184 600C184 616 190.33333 630 203 642 215.66667 654 230.33333 660.3333 247 661 259 661 269 657 277 649 285 641 289.33335 631 290 619 290 603.6667 283.33335 589.6667 270 577 256.66667 564.3333 242 557.6667 226 557 216 557 206.66667 560.3333 198 567 189.33333 573.6667 184.66667 584.6667 184 600ZM21 287C21 292.33335 24 302.66667 30 318 36 333.33335 44 350.33335 54 369 64 387.66667 78.666667 404.66667 98 420 117.333339 435.33335 137.33333 442.66667 158 442 184 442 205.66667 434.33335 223 419 240.33333 403.66667 249.33333 383 250 357 250 345.66667 245.33333 327 236 301 226.66667 275 213.33333 240 196 196 178.66667 152 164.66667 114.333339 154 83 150.66667 68.333339 149 57.666669 149 51 149 34.333333 154.66667 26 166 26 172 26 178.33333 27 185 29 191.66667 31 199.33333 35.666669 208 43 216.66667 50.333333 225.66667 62 235 78 244.33333 94 252.66667 113.666667 260 137 262 145 263.66667 149.66667 265 151 266.33335 152.33333 272 153 282 153 295.33335 153 302 149.66667 302 143 302 137.66667 299 127.333339 293 112 287 96.666667 278.66667 79.66667 268 61 257.33335 42.333333 242.33333 25.666668 223 11 203.66667-3.666667 183-11 161-11 139.66667-11 120-4 102 10 84 24 74.666667 45.333333 74 74 74 85.333339 75.666667 96 79 106 82.333339 116 96.666667 154 122 220 147.33333 287.33335 162 327.66667 166 341 170 354.33335 172.33333 367.33335 173 380 173 396 167.33333 404 156 404H154C134 404 115.66667 393 99 371 82.33333 349 69.666667 321 61 287 60.333333 286.33335 59.666669 285.33335 59 284 58.333333 282.66667 58 281.66667 58 281 58 280.33335 57.333333 279.66667 56 279 54.666669 278.33335 53.666669 278 53 278 52.333333 278 51 278 49 278 47 278 44.333333 278 41 278H27C23 282 21 285 21 287Z"/>
<path transform="matrix(.0051559309,0,0,-.0054279135,47.241949,32.32552)" stroke-linecap="butt" stroke-miterlimit="4" stroke-linejoin="miter" fill="none" stroke="#000000" stroke-opacity=".0039" d="M184 600C184 616 190.33333 630 203 642 215.66667 654 230.33333 660.3333 247 661 259 661 269 657 277 649 285 641 289.33335 631 290 619 290 603.6667 283.33335 589.6667 270 577 256.66667 564.3333 242 557.6667 226 557 216 557 206.66667 560.3333 198 567 189.33333 573.6667 184.66667 584.6667 184 600ZM21 287C21 292.33335 24 302.66667 30 318 36 333.33335 44 350.33335 54 369 64 387.66667 78.666667 404.66667 98 420 117.333339 435.33335 137.33333 442.66667 158 442 184 442 205.66667 434.33335 223 419 240.33333 403.66667 249.33333 383 250 357 250 345.66667 245.33333 327 236 301 226.66667 275 213.33333 240 196 196 178.66667 152 164.66667 114.333339 154 83 150.66667 68.333339 149 57.666669 149 51 149 34.333333 154.66667 26 166 26 172 26 178.33333 27 185 29 191.66667 31 199.33333 35.666669 208 43 216.66667 50.333333 225.66667 62 235 78 244.33333 94 252.66667 113.666667 260 137 262 145 263.66667 149.66667 265 151 266.33335 152.33333 272 153 282 153 295.33335 153 302 149.66667 302 143 302 137.66667 299 127.333339 293 112 287 96.666667 278.66667 79.66667 268 61 257.33335 42.333333 242.33333 25.666668 223 11 203.66667-3.666667 183-11 161-11 139.66667-11 120-4 102 10 84 24 74.666667 45.333333 74 74 74 85.333339 75.666667 96 79 106 82.333339 116 96.666667 154 122 220 147.33333 287.33335 162 327.66667 166 341 170 354.33335 172.33333 367.33335 173 380 173 396 167.33333 404 156 404H154C134 404 115.66667 393 99 371 82.33333 349 69.666667 321 61 287 60.333333 286.33335 59.666669 285.33335 59 284 58.333333 282.66667 58 281.66667 58 281 58 280.33335 57.333333 279.66667 56 279 54.666669 278.33335 53.666669 278 53 278 52.333333 278 51 278 49 278 47 278 44.333333 278 41 278H27C23 282 21 285 21 287Z"/>
<path transform="matrix(.0051559309,0,0,-.0054279135,49.021364,32.32552)" d="M96 585C133.33335 639 184.33333 666 249 666 281 666 313 657.3333 345 640 377 622.6667 403 592 423 548 447.66667 492.66667 460 416.6667 460 320 460 216.66666 445.66667 137.66667 417 83 403.66667 55 385.33335 32.666669 362 16 338.66667-.66666796 318.33335-11 301-15 283.66667-19 266.66667-21.333334 250-22 232.66667-22 215.33333-20 198-16 180.66667-12 160.33333-1.333334 137 16 113.666667 33.333337 95.333339 55.666666 82 83 53.333333 137.66667 39 216.66666 39 320 39 436 58 524.3333 96 585ZM321 597C301 618.3333 277.33335 629 250 629 222 629 198 618.3333 178 597 161.33333 579.6667 150.33333 555.6667 145 525 139.66667 494.33335 137 430.33335 137 333 137 227.66666 139.66667 158.33335 145 125 150.33333 91.666667 162.33333 65.333339 181 46 199.66667 26 222.66667 16 250 16 276.66667 16 299.33335 26 318 46 337.33335 66 349.33335 94 354 130 358.66667 166 361.33335 233.66666 362 333 362 429.6667 359.33335 493.33335 354 524 348.66667 554.6667 337.66667 579 321 597Z"/>
<path transform="matrix(.0051559309,0,0,-.0054279135,49.021364,32.32552)" stroke-linecap="butt" stroke-miterlimit="4" stroke-linejoin="miter" fill="none" stroke="#000000" stroke-opacity=".0039" d="M96 585C133.33335 639 184.33333 666 249 666 281 666 313 657.3333 345 640 377 622.6667 403 592 423 548 447.66667 492.66667 460 416.6667 460 320 460 216.66666 445.66667 137.66667 417 83 403.66667 55 385.33335 32.666669 362 16 338.66667-.66666796 318.33335-11 301-15 283.66667-19 266.66667-21.333334 250-22 232.66667-22 215.33333-20 198-16 180.66667-12 160.33333-1.333334 137 16 113.666667 33.333337 95.333339 55.666666 82 83 53.333333 137.66667 39 216.66666 39 320 39 436 58 524.3333 96 585ZM321 597C301 618.3333 277.33335 629 250 629 222 629 198 618.3333 178 597 161.33333 579.6667 150.33333 555.6667 145 525 139.66667 494.33335 137 430.33335 137 333 137 227.66666 139.66667 158.33335 145 125 150.33333 91.666667 162.33333 65.333339 181 46 199.66667 26 222.66667 16 250 16 276.66667 16 299.33335 26 318 46 337.33335 66 349.33335 94 354 130 358.66667 166 361.33335 233.66666 362 333 362 429.6667 359.33335 493.33335 354 524 348.66667 554.6667 337.66667 579 321 597Z"/>
<path transform="matrix(.007292689,0,0,-.007677388,53.95851,31.173913)" d="M84 237C84 237 84 241.33333 84 250 84 258.66667 88.666667 265.33335 98 270H679C689 264.66667 694 258 694 250 694 242 689 235.33333 679 230H98C88.666667 234.66667 84 241.33333 84 250V237Z"/>
<path transform="matrix(.007292689,0,0,-.007677388,53.95851,31.173913)" stroke-linecap="butt" stroke-miterlimit="4" stroke-linejoin="miter" fill="none" stroke="#000000" stroke-opacity=".0078" d="M84 237C84 237 84 241.33333 84 250 84 258.66667 88.666667 265.33335 98 270H679C689 264.66667 694 258 694 250 694 242 689 235.33333 679 230H98C88.666667 234.66667 84 241.33333 84 250V237Z"/>
<path transform="matrix(.007292689,0,0,-.007677388,61.258489,31.173913)" d="M166 673C166 681 171.66667 688 183 694H202C262 692 300 675.3333 316 644 320 634 339 581.3333 373 486 407 390.66667 440.66667 297.6667 474 207 507.33335 116.33333 524 69.666667 524 67 528.6667 53.666666 533 42.666669 537 34 541 25.333333 544 19 546 15 548 11 549.6667 8 551 6 552.3333 4 553.6667 2.6666668 555 2 556.3333 1.3333333 556.6667 0 556-2 555.3333-4 553.3333-7 550-11H482C465.33335-1.666666 454.66667 8 450 18 445.33335 28 428.33335 72.666667 399 152L354 277 340 262C331.33335 251.33333 315.66667 233 293 207 270.33335 181 251.33333 159 236 141 219.33333 121.666667 198.66667 97.66667 174 69 140 29 119 5.666667 111-1 103-7.666667 93.666667-11.333333 83-12 59-12 47-1.333334 47 20 47 31.333334 51.666666 42 61 52 70.333339 62 116.33333 107 199 187 219 206.33333 241.33333 228 266 252 290.66667 276 309 294 321 306L338 322C338 322.66667 321.33335 369.3333 288 462 254.66666 554.6667 236.66667 604.6667 234 612 220.66667 642 203.66667 657 183 657 171.66667 657 166 662.3333 166 673Z"/>
<path transform="matrix(.007292689,0,0,-.007677388,61.258489,31.173913)" stroke-linecap="butt" stroke-miterlimit="4" stroke-linejoin="miter" fill="none" stroke="#000000" stroke-opacity=".0078" d="M166 673C166 681 171.66667 688 183 694H202C262 692 300 675.3333 316 644 320 634 339 581.3333 373 486 407 390.66667 440.66667 297.6667 474 207 507.33335 116.33333 524 69.666667 524 67 528.6667 53.666666 533 42.666669 537 34 541 25.333333 544 19 546 15 548 11 549.6667 8 551 6 552.3333 4 553.6667 2.6666668 555 2 556.3333 1.3333333 556.6667 0 556-2 555.3333-4 553.3333-7 550-11H482C465.33335-1.666666 454.66667 8 450 18 445.33335 28 428.33335 72.666667 399 152L354 277 340 262C331.33335 251.33333 315.66667 233 293 207 270.33335 181 251.33333 159 236 141 219.33333 121.666667 198.66667 97.66667 174 69 140 29 119 5.666667 111-1 103-7.666667 93.666667-11.333333 83-12 59-12 47-1.333334 47 20 47 31.333334 51.666666 42 61 52 70.333339 62 116.33333 107 199 187 219 206.33333 241.33333 228 266 252 290.66667 276 309 294 321 306L338 322C338 322.66667 321.33335 369.3333 288 462 254.66666 554.6667 236.66667 604.6667 234 612 220.66667 642 203.66667 657 183 657 171.66667 657 166 662.3333 166 673Z"/>
<path transform="matrix(.0051559309,0,0,-.0054279135,65.510128,32.32552)" d="M184 600C184 616 190.33333 630 203 642 215.66667 654 230.33333 660.3333 247 661 259 661 269 657 277 649 285 641 289.33335 631 290 619 290 603.6667 283.33335 589.6667 270 577 256.66667 564.3333 242 557.6667 226 557 216 557 206.66667 560.3333 198 567 189.33333 573.6667 184.66667 584.6667 184 600ZM21 287C21 292.33335 24 302.66667 30 318 36 333.33335 44 350.33335 54 369 64 387.66667 78.666667 404.66667 98 420 117.333339 435.33335 137.33333 442.66667 158 442 184 442 205.66667 434.33335 223 419 240.33333 403.66667 249.33333 383 250 357 250 345.66667 245.33333 327 236 301 226.66667 275 213.33333 240 196 196 178.66667 152 164.66667 114.333339 154 83 150.66667 68.333339 149 57.666669 149 51 149 34.333333 154.66667 26 166 26 172 26 178.33333 27 185 29 191.66667 31 199.33333 35.666669 208 43 216.66667 50.333333 225.66667 62 235 78 244.33333 94 252.66667 113.666667 260 137 262 145 263.66667 149.66667 265 151 266.33335 152.33333 272 153 282 153 295.33335 153 302 149.66667 302 143 302 137.66667 299 127.333339 293 112 287 96.666667 278.66667 79.66667 268 61 257.33335 42.333333 242.33333 25.666668 223 11 203.66667-3.666667 183-11 161-11 139.66667-11 120-4 102 10 84 24 74.666667 45.333333 74 74 74 85.333339 75.666667 96 79 106 82.333339 116 96.666667 154 122 220 147.33333 287.33335 162 327.66667 166 341 170 354.33335 172.33333 367.33335 173 380 173 396 167.33333 404 156 404H154C134 404 115.66667 393 99 371 82.33333 349 69.666667 321 61 287 60.333333 286.33335 59.666669 285.33335 59 284 58.333333 282.66667 58 281.66667 58 281 58 280.33335 57.333333 279.66667 56 279 54.666669 278.33335 53.666669 278 53 278 52.333333 278 51 278 49 278 47 278 44.333333 278 41 278H27C23 282 21 285 21 287Z"/>
<path transform="matrix(.0051559309,0,0,-.0054279135,65.510128,32.32552)" stroke-linecap="butt" stroke-miterlimit="4" stroke-linejoin="miter" fill="none" stroke="#000000" stroke-opacity=".0039" d="M184 600C184 616 190.33333 630 203 642 215.66667 654 230.33333 660.3333 247 661 259 661 269 657 277 649 285 641 289.33335 631 290 619 290 603.6667 283.33335 589.6667 270 577 256.66667 564.3333 242 557.6667 226 557 216 557 206.66667 560.3333 198 567 189.33333 573.6667 184.66667 584.6667 184 600ZM21 287C21 292.33335 24 302.66667 30 318 36 333.33335 44 350.33335 54 369 64 387.66667 78.666667 404.66667 98 420 117.333339 435.33335 137.33333 442.66667 158 442 184 442 205.66667 434.33335 223 419 240.33333 403.66667 249.33333 383 250 357 250 345.66667 245.33333 327 236 301 226.66667 275 213.33333 240 196 196 178.66667 152 164.66667 114.333339 154 83 150.66667 68.333339 149 57.666669 149 51 149 34.333333 154.66667 26 166 26 172 26 178.33333 27 185 29 191.66667 31 199.33333 35.666669 208 43 216.66667 50.333333 225.66667 62 235 78 244.33333 94 252.66667 113.666667 260 137 262 145 263.66667 149.66667 265 151 266.33335 152.33333 272 153 282 153 295.33335 153 302 149.66667 302 143 302 137.66667 299 127.333339 293 112 287 96.666667 278.66667 79.66667 268 61 257.33335 42.333333 242.33333 25.666668 223 11 203.66667-3.666667 183-11 161-11 139.66667-11 120-4 102 10 84 24 74.666667 45.333333 74 74 74 85.333339 75.666667 96 79 106 82.333339 116 96.666667 154 122 220 147.33333 287.33335 162 327.66667 166 341 170 354.33335 172.33333 367.33335 173 380 173 396 167.33333 404 156 404H154C134 404 115.66667 393 99 371 82.33333 349 69.666667 321 61 287 60.333333 286.33335 59.666669 285.33335 59 284 58.333333 282.66667 58 281.66667 58 281 58 280.33335 57.333333 279.66667 56 279 54.666669 278.33335 53.666669 278 53 278 52.333333 278 51 278 49 278 47 278 44.333333 278 41 278H27C23 282 21 285 21 287Z"/>
<path transform="matrix(.0051559309,0,0,-.0054279135,67.28954,32.32552)" d="M96 585C133.33335 639 184.33333 666 249 666 281 666 313 657.3333 345 640 377 622.6667 403 592 423 548 447.66667 492.66667 460 416.6667 460 320 460 216.66666 445.66667 137.66667 417 83 403.66667 55 385.33335 32.666669 362 16 338.66667-.66666796 318.33335-11 301-15 283.66667-19 266.66667-21.333334 250-22 232.66667-22 215.33333-20 198-16 180.66667-12 160.33333-1.333334 137 16 113.666667 33.333337 95.333339 55.666666 82 83 53.333333 137.66667 39 216.66666 39 320 39 436 58 524.3333 96 585ZM321 597C301 618.3333 277.33335 629 250 629 222 629 198 618.3333 178 597 161.33333 579.6667 150.33333 555.6667 145 525 139.66667 494.33335 137 430.33335 137 333 137 227.66666 139.66667 158.33335 145 125 150.33333 91.666667 162.33333 65.333339 181 46 199.66667 26 222.66667 16 250 16 276.66667 16 299.33335 26 318 46 337.33335 66 349.33335 94 354 130 358.66667 166 361.33335 233.66666 362 333 362 429.6667 359.33335 493.33335 354 524 348.66667 554.6667 337.66667 579 321 597Z"/>
<path transform="matrix(.0051559309,0,0,-.0054279135,67.28954,32.32552)" stroke-linecap="butt" stroke-miterlimit="4" stroke-linejoin="miter" fill="none" stroke="#000000" stroke-opacity=".0039" d="M96 585C133.33335 639 184.33333 666 249 666 281 666 313 657.3333 345 640 377 622.6667 403 592 423 548 447.66667 492.66667 460 416.6667 460 320 460 216.66666 445.66667 137.66667 417 83 403.66667 55 385.33335 32.666669 362 16 338.66667-.66666796 318.33335-11 301-15 283.66667-19 266.66667-21.333334 250-22 232.66667-22 215.33333-20 198-16 180.66667-12 160.33333-1.333334 137 16 113.666667 33.333337 95.333339 55.666666 82 83 53.333333 137.66667 39 216.66666 39 320 39 436 58 524.3333 96 585ZM321 597C301 618.3333 277.33335 629 250 629 222 629 198 618.3333 178 597 161.33333 579.6667 150.33333 555.6667 145 525 139.66667 494.33335 137 430.33335 137 333 137 227.66666 139.66667 158.33335 145 125 150.33333 91.666667 162.33333 65.333339 181 46 199.66667 26 222.66667 16 250 16 276.66667 16 299.33335 26 318 46 337.33335 66 349.33335 94 354 130 358.66667 166 361.33335 233.66666 362 333 362 429.6667 359.33335 493.33335 354 524 348.66667 554.6667 337.66667 579 321 597Z"/>
<path transform="matrix(.007292689,0,0,-.007677388,70.60772,31.173913)" d="M166 673C166 681 171.66667 688 183 694H202C262 692 300 675.3333 316 644 320 634 339 581.3333 373 486 407 390.66667 440.66667 297.6667 474 207 507.33335 116.33333 524 69.666667 524 67 528.6667 53.666666 533 42.666669 537 34 541 25.333333 544 19 546 15 548 11 549.6667 8 551 6 552.3333 4 553.6667 2.6666668 555 2 556.3333 1.3333333 556.6667 0 556-2 555.3333-4 553.3333-7 550-11H482C465.33335-1.666666 454.66667 8 450 18 445.33335 28 428.33335 72.666667 399 152L354 277 340 262C331.33335 251.33333 315.66667 233 293 207 270.33335 181 251.33333 159 236 141 219.33333 121.666667 198.66667 97.66667 174 69 140 29 119 5.666667 111-1 103-7.666667 93.666667-11.333333 83-12 59-12 47-1.333334 47 20 47 31.333334 51.666666 42 61 52 70.333339 62 116.33333 107 199 187 219 206.33333 241.33333 228 266 252 290.66667 276 309 294 321 306L338 322C338 322.66667 321.33335 369.3333 288 462 254.66666 554.6667 236.66667 604.6667 234 612 220.66667 642 203.66667 657 183 657 171.66667 657 166 662.3333 166 673Z"/>
<path transform="matrix(.007292689,0,0,-.007677388,70.60772,31.173913)" stroke-linecap="butt" stroke-miterlimit="4" stroke-linejoin="miter" fill="none" stroke="#000000" stroke-opacity=".0078" d="M166 673C166 681 171.66667 688 183 694H202C262 692 300 675.3333 316 644 320 634 339 581.3333 373 486 407 390.66667 440.66667 297.6667 474 207 507.33335 116.33333 524 69.666667 524 67 528.6667 53.666666 533 42.666669 537 34 541 25.333333 544 19 546 15 548 11 549.6667 8 551 6 552.3333 4 553.6667 2.6666668 555 2 556.3333 1.3333333 556.6667 0 556-2 555.3333-4 553.3333-7 550-11H482C465.33335-1.666666 454.66667 8 450 18 445.33335 28 428.33335 72.666667 399 152L354 277 340 262C331.33335 251.33333 315.66667 233 293 207 270.33335 181 251.33333 159 236 141 219.33333 121.666667 198.66667 97.66667 174 69 140 29 119 5.666667 111-1 103-7.666667 93.666667-11.333333 83-12 59-12 47-1.333334 47 20 47 31.333334 51.666666 42 61 52 70.333339 62 116.33333 107 199 187 219 206.33333 241.33333 228 266 252 290.66667 276 309 294 321 306L338 322C338 322.66667 321.33335 369.3333 288 462 254.66666 554.6667 236.66667 604.6667 234 612 220.66667 642 203.66667 657 183 657 171.66667 657 166 662.3333 166 673Z"/>
<path transform="matrix(.0051559309,0,0,-.0054279135,74.85935,32.32552)" d="M297 596C297 616.6667 304 632.6667 318 644 332 655.3333 346.33335 661 361 661 372.33335 661 381.66667 657.6667 389 651 396.33335 644.3333 401 635 403 623 403 604.3333 396.66667 588.6667 384 576 371.33335 563.3333 356.66667 557 340 557 328 557 318 560.3333 310 567 302 573.6667 297.66667 583.3333 297 596ZM288 376C288 395.33335 279.33335 405 262 405 247.33333 405 233.33333 401 220 393 206.66667 385 195 374.66667 185 362 175 349.33335 167 337 161 325 155 313 149.33333 302.33335 144 293L137 279C135.66667 278.33335 130.33333 278 121 278H107C103 282 101 284.66667 101 286 101 287.33335 102.333339 291.66667 105 299 119 331.66667 138.66667 362.33335 164 391 189.33333 419.66667 218.66666 436.33335 252 441 252.66667 441 255.33333 441 260 441 264.66667 441 268.66667 441.33335 272 442 288 441.33335 302.66667 438 316 432 332.66667 422.66667 345.33335 412.33335 354 401 362.66667 389.66667 367 372 367 348V332L318 133C284-.3333435 266-69.666667 264-75 252-108.333339 228.66667-138 194-164 159.33333-190 119.66667-203.33333 75-204 41.666666-204 19-197 7-183-5-169-11.333333-153.66667-12-137-12-119-5.666667-103.666667 7-91 19.666668-78.333339 35-71.666667 53-71 64.333339-71 74-74.333339 82-81 90-87.666667 94.333339-98 95-112 95-136 84.333339-154.33333 63-167 67-167.66667 71.666667-168 77-168 99.66667-168 120.33333-158.66667 139-140 157.66667-121.33333 172-99.333339 182-74L193-32C200.33333-3.333332 209 31.333333 219 72 229 112.66667 239.66667 154.33333 251 197 262.33335 239.66667 271.33335 276.66667 278 308 284.66667 339.33335 288.33335 358.33335 289 365 289 369.66667 288.66667 373.33335 288 376Z"/>
<path transform="matrix(.0051559309,0,0,-.0054279135,74.85935,32.32552)" stroke-linecap="butt" stroke-miterlimit="4" stroke-linejoin="miter" fill="none" stroke="#000000" stroke-opacity=".0039" d="M297 596C297 616.6667 304 632.6667 318 644 332 655.3333 346.33335 661 361 661 372.33335 661 381.66667 657.6667 389 651 396.33335 644.3333 401 635 403 623 403 604.3333 396.66667 588.6667 384 576 371.33335 563.3333 356.66667 557 340 557 328 557 318 560.3333 310 567 302 573.6667 297.66667 583.3333 297 596ZM288 376C288 395.33335 279.33335 405 262 405 247.33333 405 233.33333 401 220 393 206.66667 385 195 374.66667 185 362 175 349.33335 167 337 161 325 155 313 149.33333 302.33335 144 293L137 279C135.66667 278.33335 130.33333 278 121 278H107C103 282 101 284.66667 101 286 101 287.33335 102.333339 291.66667 105 299 119 331.66667 138.66667 362.33335 164 391 189.33333 419.66667 218.66666 436.33335 252 441 252.66667 441 255.33333 441 260 441 264.66667 441 268.66667 441.33335 272 442 288 441.33335 302.66667 438 316 432 332.66667 422.66667 345.33335 412.33335 354 401 362.66667 389.66667 367 372 367 348V332L318 133C284-.3333435 266-69.666667 264-75 252-108.333339 228.66667-138 194-164 159.33333-190 119.66667-203.33333 75-204 41.666666-204 19-197 7-183-5-169-11.333333-153.66667-12-137-12-119-5.666667-103.666667 7-91 19.666668-78.333339 35-71.666667 53-71 64.333339-71 74-74.333339 82-81 90-87.666667 94.333339-98 95-112 95-136 84.333339-154.33333 63-167 67-167.66667 71.666667-168 77-168 99.66667-168 120.33333-158.66667 139-140 157.66667-121.33333 172-99.333339 182-74L193-32C200.33333-3.333332 209 31.333333 219 72 229 112.66667 239.66667 154.33333 251 197 262.33335 239.66667 271.33335 276.66667 278 308 284.66667 339.33335 288.33335 358.33335 289 365 289 369.66667 288.66667 373.33335 288 376Z"/>
<path transform="matrix(.0051559309,0,0,-.0054279135,76.98153,32.32552)" d="M96 585C133.33335 639 184.33333 666 249 666 281 666 313 657.3333 345 640 377 622.6667 403 592 423 548 447.66667 492.66667 460 416.6667 460 320 460 216.66666 445.66667 137.66667 417 83 403.66667 55 385.33335 32.666669 362 16 338.66667-.66666796 318.33335-11 301-15 283.66667-19 266.66667-21.333334 250-22 232.66667-22 215.33333-20 198-16 180.66667-12 160.33333-1.333334 137 16 113.666667 33.333337 95.333339 55.666666 82 83 53.333333 137.66667 39 216.66666 39 320 39 436 58 524.3333 96 585ZM321 597C301 618.3333 277.33335 629 250 629 222 629 198 618.3333 178 597 161.33333 579.6667 150.33333 555.6667 145 525 139.66667 494.33335 137 430.33335 137 333 137 227.66666 139.66667 158.33335 145 125 150.33333 91.666667 162.33333 65.333339 181 46 199.66667 26 222.66667 16 250 16 276.66667 16 299.33335 26 318 46 337.33335 66 349.33335 94 354 130 358.66667 166 361.33335 233.66666 362 333 362 429.6667 359.33335 493.33335 354 524 348.66667 554.6667 337.66667 579 321 597Z"/>
<path transform="matrix(.0051559309,0,0,-.0054279135,76.98153,32.32552)" stroke-linecap="butt" stroke-miterlimit="4" stroke-linejoin="miter" fill="none" stroke="#000000" stroke-opacity=".0039" d="M96 585C133.33335 639 184.33333 666 249 666 281 666 313 657.3333 345 640 377 622.6667 403 592 423 548 447.66667 492.66667 460 416.6667 460 320 460 216.66666 445.66667 137.66667 417 83 403.66667 55 385.33335 32.666669 362 16 338.66667-.66666796 318.33335-11 301-15 283.66667-19 266.66667-21.333334 250-22 232.66667-22 215.33333-20 198-16 180.66667-12 160.33333-1.333334 137 16 113.666667 33.333337 95.333339 55.666666 82 83 53.333333 137.66667 39 216.66666 39 320 39 436 58 524.3333 96 585ZM321 597C301 618.3333 277.33335 629 250 629 222 629 198 618.3333 178 597 161.33333 579.6667 150.33333 555.6667 145 525 139.66667 494.33335 137 430.33335 137 333 137 227.66666 139.66667 158.33335 145 125 150.33333 91.666667 162.33333 65.333339 181 46 199.66667 26 222.66667 16 250 16 276.66667 16 299.33335 26 318 46 337.33335 66 349.33335 94 354 130 358.66667 166 361.33335 233.66666 362 333 362 429.6667 359.33335 493.33335 354 524 348.66667 554.6667 337.66667 579 321 597Z"/>
<path transform="matrix(.007292689,0,0,-.007677388,80.2997,31.173913)" d="M60 749 64 750C67.333339 750 70.666667 750 74 750H86L114 726C176.66667 669.3333 222.33333 598.6667 251 514 279.66667 429.3333 294 341.33335 294 250 294 204.66666 290.66667 161 284 119 277.33335 77 269.66667 41.333337 261 12 252.33333-17.333334 240-46.666666 224-76 208-105.333339 195.33333-127.666667 186-143 176.66667-158.33333 163-175.33333 145-194 127-212.66667 116.333339-223.66667 113-227 109.666667-230.33333 102-236.66667 90-246 88-248 86.666667-249.33333 86-250H74C68.666667-250 65-250 63-250 61-250 59.333333-249 58-247 56.666669-245 55.666669-242 55-238 55.666669-237.33333 59.333333-233 66-225 169.33335-117.666667 221 40.666658 221 250 221 459.33335 169.33335 617.6667 66 725 59.333333 733 55.666669 737.3333 55 738 55 743.3333 56.666669 747 60 749Z"/>
<path transform="matrix(.007292689,0,0,-.007677388,80.2997,31.173913)" stroke-linecap="butt" stroke-miterlimit="4" stroke-linejoin="miter" fill="none" stroke="#000000" stroke-opacity=".0078" d="M60 749 64 750C67.333339 750 70.666667 750 74 750H86L114 726C176.66667 669.3333 222.33333 598.6667 251 514 279.66667 429.3333 294 341.33335 294 250 294 204.66666 290.66667 161 284 119 277.33335 77 269.66667 41.333337 261 12 252.33333-17.333334 240-46.666666 224-76 208-105.333339 195.33333-127.666667 186-143 176.66667-158.33333 163-175.33333 145-194 127-212.66667 116.333339-223.66667 113-227 109.666667-230.33333 102-236.66667 90-246 88-248 86.666667-249.33333 86-250H74C68.666667-250 65-250 63-250 61-250 59.333333-249 58-247 56.666669-245 55.666669-242 55-238 55.666669-237.33333 59.333333-233 66-225 169.33335-117.666667 221 40.666658 221 250 221 459.33335 169.33335 617.6667 66 725 59.333333 733 55.666669 737.3333 55 738 55 743.3333 56.666669 747 60 749Z"/>
</g>
<g clip-path="url(#clip_5)">
<text xml:space="preserve" transform="matrix(.49999998 0 0 .49999998 -4.844853 -.6545563)" font-size="12" font-family="Helvetica"><tspan y="93" x="99.984378"> </tspan></text>
</g>
</g>
</svg>
