<svg xmlns="http://www.w3.org/2000/svg" xmlns:xlink="http://www.w3.org/1999/xlink" xmlns:inkscape="http://www.inkscape.org/namespaces/inkscape" version="1.1" width="340.1706" height="259.77668" viewBox="0 0 340.1706 259.77668">
<defs>
<clipPath id="clip_1">
<path transform="matrix(1,0,0,-1,-411.0921,383.1566)" d="M411.0921 123.3799H751.2627V383.1566H411.0921Z" clip-rule="evenodd"/>
</clipPath>
<clipPath id="clip_2">
<path transform="matrix(.24,0,0,.24,-411.0921,-213.96341)" d="M0 0H3508.3333V2485.819H0Z" clip-rule="evenodd"/>
</clipPath>
<clipPath id="clip_3">
<path transform="matrix(.24,0,0,.24,-411.0921,-213.96341)" d="M0 0H3508.3333V2482.8206H0Z" clip-rule="evenodd"/>
</clipPath>
<clipPath id="clip_4">
<path transform="matrix(.24,0,0,.24,-411.0921,-213.96341)" d="M2347.8846 1058.4972H2482.8204V1127.4645H2347.8846Z" clip-rule="evenodd"/>
</clipPath>
<clipPath id="clip_5">
<path transform="matrix(.24,0,0,.24,-411.0921,-213.96341)" d="M0 0H3508.3333V2482.8206H0Z" clip-rule="evenodd"/>
</clipPath>
<clipPath id="clip_6">
<path transform="matrix(.24,0,0,.24,-411.0921,-213.96341)" d="M2045.0285 1763.1624H2842.6495V1868.1126H2045.0285Z" clip-rule="evenodd"/>
</clipPath>
</defs>
<g clip-path="url(#clip_1)">
<g clip-path="url(#clip_2)">
<path transform="matrix(.7196581,0,0,.7196581,-411.0921,-213.96341)" d="M0 0H1170V829H0Z" fill="#ffffff"/>
<path transform="matrix(.7196581,0,0,.7196581,-411.0921,-213.96341)" d="M0 0H1170V828H0Z" fill="#ffffff"/>
</g>
<g clip-path="url(#clip_3)">
<path transform="matrix(.7196581,0,0,.7196581,-410.73228,-213.60358)" d="M708.5 318.46 895.77 318.47 896.34 451.09 711.72 449.06" fill="#ffffff"/>
<path transform="matrix(.7196581,0,0,.7196581,-410.73228,-213.60358)" stroke-width="1" stroke-linecap="round" stroke-linejoin="round" fill="none" stroke="#000000" d="M710 320C754.52 322.41 795.26 320.97 895 320M710 320C746.88 322.45 783.76 321.03 895 320M895 320C895.78 364.22 895.94 405.66 895 450M895 320C895.79 353.04 895.46 385.62 895 450M895 450C856.38 452.62 819 449.91 710 450M895 450C825.13 448.81 757.14 450.24 710 450M710 450C710.73 424.46 709.72 395.68 710 320M710 450C710.77 403.18 709.46 355.21 710 320"/>
<text xml:space="preserve" transform="matrix(.7196581 0 0 .7196581 -411.0921 -213.96341)" font-size="20" font-family="Helvetica"><tspan y="365" x="777.21878">&#x00a0;</tspan></text>
</g>
<g clip-path="url(#clip_4)">
<path transform="matrix(.017477142,0,0,-.01818117,152.4043,49.101045)" d="M576-125C576-139.66667 566.3333-156.33333 547-175 527.6667-193.66667 507.66667-203.33333 487-204H476C421.33335-204 383.66667-188.33333 363-157 343.66667-128.33333 320.33335-67.333339 293 26L284 59C283.33335 58.333333 271.33335 45 248 19 224.66667-7 198.66667-35.333333 170-66 141.33333-96.66667 115.333339-125 92-151 68.666667-177 55.666669-190.33333 53-191 50.333333-193 47-194 43-194 38.333333-194 34.333333-192.33333 31-189 27.666666-185.66667 25.666666-181.66667 25-177 24.333334-172.33333 28.666666-164.66667 38-154 47.333337-143.33333 85-102 151-30L272 102 265 131C214.33333 313.6667 171 405 135 405 114.33333 405 98.333339 389.33335 87 358 86.333339 353.33335 80 351 68 351 54.666666 351 48 354.33335 48 361 48 366.33335 50.666669 374.66667 56 386 61.333333 397.33335 72.33333 409.66667 89 423 105.66667 436.33335 125.33333 442.66667 148 442 198.66667 442 235.33333 428 258 400 270 383.33335 283 356.66667 297 320 311 283.33335 322 250.66667 330 222L341 180C343 180 381 221 455 303 529 385 568.3333 427 573 429 577 430.33335 580 431 582 431 594 431 600 425.33335 600 414 600 409.33335 595.6667 402 587 392 578.3333 382 541.6667 341.33335 477 270 396.3333 182 355 136.66667 353 134L362 102C382 27.333329 404-36.333333 428-89 452-141.66667 472.66667-168 490-168 499.33335-168 508.33335-164 517-156 525.6667-148 532-138 536-126 538-119.333339 540.3333-115.666667 543-115 545.6667-114.333339 550.3333-114 557-114 563.6667-114 568.3333-114.333339 571-115 574.3333-117 576-120.333339 576-125Z"/>
<path transform="matrix(.017477142,0,0,-.01818117,152.4043,49.101045)" stroke-linecap="butt" stroke-miterlimit="4" stroke-linejoin="miter" fill="none" stroke="#000000" stroke-opacity=".0196" d="M576-125C576-139.66667 566.3333-156.33333 547-175 527.6667-193.66667 507.66667-203.33333 487-204H476C421.33335-204 383.66667-188.33333 363-157 343.66667-128.33333 320.33335-67.333339 293 26L284 59C283.33335 58.333333 271.33335 45 248 19 224.66667-7 198.66667-35.333333 170-66 141.33333-96.66667 115.333339-125 92-151 68.666667-177 55.666669-190.33333 53-191 50.333333-193 47-194 43-194 38.333333-194 34.333333-192.33333 31-189 27.666666-185.66667 25.666666-181.66667 25-177 24.333334-172.33333 28.666666-164.66667 38-154 47.333337-143.33333 85-102 151-30L272 102 265 131C214.33333 313.6667 171 405 135 405 114.33333 405 98.333339 389.33335 87 358 86.333339 353.33335 80 351 68 351 54.666666 351 48 354.33335 48 361 48 366.33335 50.666669 374.66667 56 386 61.333333 397.33335 72.33333 409.66667 89 423 105.66667 436.33335 125.33333 442.66667 148 442 198.66667 442 235.33333 428 258 400 270 383.33335 283 356.66667 297 320 311 283.33335 322 250.66667 330 222L341 180C343 180 381 221 455 303 529 385 568.3333 427 573 429 577 430.33335 580 431 582 431 594 431 600 425.33335 600 414 600 409.33335 595.6667 402 587 392 578.3333 382 541.6667 341.33335 477 270 396.3333 182 355 136.66667 353 134L362 102C382 27.333329 404-36.333333 428-89 452-141.66667 472.66667-168 490-168 499.33335-168 508.33335-164 517-156 525.6667-148 532-138 536-126 538-119.333339 540.3333-115.666667 543-115 545.6667-114.333339 550.3333-114 557-114 563.6667-114 568.3333-114.333339 571-115 574.3333-117 576-120.333339 576-125Z"/>
<path transform="matrix(.012356339,0,0,-.012854088,163.34497,51.828218)" d="M230 637C212 637 201.33333 637.3333 198 638 194.66667 638.6667 193 642.3333 193 649 193 667 196.66667 678 204 682 205.33333 682.6667 263.3333 683 378 683 492.6667 682.3333 554.6667 681.3333 564 680 601.3333 674.6667 632.6667 665.3333 658 652 683.3333 638.6667 701.3333 623.3333 712 606 722.6667 588.6667 729.6667 574.3333 733 563 736.3333 551.6667 738.3333 540.3333 739 529 739 499 729.3333 471 710 445 690.6667 419 668.3333 399 643 385 617.6667 371 595.3333 359.66667 576 351 556.6667 342.33335 544 338 538 338L545 333C589.6667 307.66667 612 271 612 223 612 215.66667 610.3333 195.33335 607 162 603.6667 128.66666 602 101.333339 602 80V71C602 59 602.3333 49.666669 603 43 603.6667 36.333333 607.3333 30.333334 614 25 620.6667 19.666666 629.3333 16.666666 640 16 658.6667 16 674 23.333333 686 38 698 52.666669 706.6667 68.33333 712 85 715.3333 94.333339 718 100 720 102 722 104 727 105 735 105 748.3333 105 755 101 755 93 755 81 747 62 731 36 705.6667-2 675.6667-21 641-21H632C591.3333-21 557.6667-12.666668 531 4 504.33335 20.666668 489.66667 46.666666 487 82 487 100 492 128 502 166 512 204 517 228.33333 517 239 517 273 502.66667 297.66667 474 313 464 317.66667 455.66667 320.33335 449 321 442.33335 321.66667 418.66667 322.33335 378 323H309L277 193C255 105 244 60.333333 244 59 244 56.333333 244.33333 54.666669 245 54 245.66667 53.333333 248 52 252 50 256 48 261.66667 47.333333 269 48 276.33335 48.666669 287.33335 48 302 46H333C337 40.666669 339 37.666669 339 37 339 36.333333 338 30.333334 336 19 333.33335 10.333333 330 4 326 0H311C287 1.3333334 243.33335 2 180 2 157.33333 2 136.33333 2 117 2 97.666667 2 82.333339 2 71 2 59.666666 2 52.666669 1.6666668 50 1 38.666666 1 33 4 33 10 33 11.333333 34 16 36 24 39.333333 36.666669 42.666669 43.666669 46 45 48.666669 45.666669 53.666669 46 61 46H67C85 46 105 47 127 49 136.33333 51 142.66667 55 146 61 148 63.666669 172 156.33333 218 339 264 521.6667 287 618 287 628 287 632.6667 268 635.6667 230 637ZM630 554C630 575.3333 623 593.3333 609 608 595 622.6667 566.3333 632 523 636 521.6667 636 514 636 500 636 486 636 473.33335 636.3333 462 637H440C408.66667 637 390.66667 633.6667 386 627 385.33335 625 374 580.6667 352 494 330 407.3333 319 363 319 361 319 360.33335 342 360 388 360 440 360.66667 474.66667 363 492 367 534.6667 373.66667 568 393.33335 592 426 602.6667 441.33335 611.6667 461.33335 619 486 626.3333 510.66667 630 533.3333 630 554Z"/>
<path transform="matrix(.012356339,0,0,-.012854088,163.34497,51.828218)" stroke-linecap="butt" stroke-miterlimit="4" stroke-linejoin="miter" fill="none" stroke="#000000" stroke-opacity=".0118" d="M230 637C212 637 201.33333 637.3333 198 638 194.66667 638.6667 193 642.3333 193 649 193 667 196.66667 678 204 682 205.33333 682.6667 263.3333 683 378 683 492.6667 682.3333 554.6667 681.3333 564 680 601.3333 674.6667 632.6667 665.3333 658 652 683.3333 638.6667 701.3333 623.3333 712 606 722.6667 588.6667 729.6667 574.3333 733 563 736.3333 551.6667 738.3333 540.3333 739 529 739 499 729.3333 471 710 445 690.6667 419 668.3333 399 643 385 617.6667 371 595.3333 359.66667 576 351 556.6667 342.33335 544 338 538 338L545 333C589.6667 307.66667 612 271 612 223 612 215.66667 610.3333 195.33335 607 162 603.6667 128.66666 602 101.333339 602 80V71C602 59 602.3333 49.666669 603 43 603.6667 36.333333 607.3333 30.333334 614 25 620.6667 19.666666 629.3333 16.666666 640 16 658.6667 16 674 23.333333 686 38 698 52.666669 706.6667 68.33333 712 85 715.3333 94.333339 718 100 720 102 722 104 727 105 735 105 748.3333 105 755 101 755 93 755 81 747 62 731 36 705.6667-2 675.6667-21 641-21H632C591.3333-21 557.6667-12.666668 531 4 504.33335 20.666668 489.66667 46.666666 487 82 487 100 492 128 502 166 512 204 517 228.33333 517 239 517 273 502.66667 297.66667 474 313 464 317.66667 455.66667 320.33335 449 321 442.33335 321.66667 418.66667 322.33335 378 323H309L277 193C255 105 244 60.333333 244 59 244 56.333333 244.33333 54.666669 245 54 245.66667 53.333333 248 52 252 50 256 48 261.66667 47.333333 269 48 276.33335 48.666669 287.33335 48 302 46H333C337 40.666669 339 37.666669 339 37 339 36.333333 338 30.333334 336 19 333.33335 10.333333 330 4 326 0H311C287 1.3333334 243.33335 2 180 2 157.33333 2 136.33333 2 117 2 97.666667 2 82.333339 2 71 2 59.666666 2 52.666669 1.6666668 50 1 38.666666 1 33 4 33 10 33 11.333333 34 16 36 24 39.333333 36.666669 42.666669 43.666669 46 45 48.666669 45.666669 53.666669 46 61 46H67C85 46 105 47 127 49 136.33333 51 142.66667 55 146 61 148 63.666669 172 156.33333 218 339 264 521.6667 287 618 287 628 287 632.6667 268 635.6667 230 637ZM630 554C630 575.3333 623 593.3333 609 608 595 622.6667 566.3333 632 523 636 521.6667 636 514 636 500 636 486 636 473.33335 636.3333 462 637H440C408.66667 637 390.66667 633.6667 386 627 385.33335 625 374 580.6667 352 494 330 407.3333 319 363 319 361 319 360.33335 342 360 388 360 440 360.66667 474.66667 363 492 367 534.6667 373.66667 568 393.33335 592 426 602.6667 441.33335 611.6667 461.33335 619 486 626.3333 510.66667 630 533.3333 630 554Z"/>
<path transform="matrix(.008738571,0,0,-.009090585,172.73023,53.77362)" d="M184 600C184 616 190.33333 630 203 642 215.66667 654 230.33333 660.3333 247 661 259 661 269 657 277 649 285 641 289.33335 631 290 619 290 603.6667 283.33335 589.6667 270 577 256.66667 564.3333 242 557.6667 226 557 216 557 206.66667 560.3333 198 567 189.33333 573.6667 184.66667 584.6667 184 600ZM21 287C21 292.33335 24 302.66667 30 318 36 333.33335 44 350.33335 54 369 64 387.66667 78.666667 404.66667 98 420 117.333339 435.33335 137.33333 442.66667 158 442 184 442 205.66667 434.33335 223 419 240.33333 403.66667 249.33333 383 250 357 250 345.66667 245.33333 327 236 301 226.66667 275 213.33333 240 196 196 178.66667 152 164.66667 114.333339 154 83 150.66667 68.333339 149 57.666669 149 51 149 34.333333 154.66667 26 166 26 172 26 178.33333 27 185 29 191.66667 31 199.33333 35.666669 208 43 216.66667 50.333333 225.66667 62 235 78 244.33333 94 252.66667 113.666667 260 137 262 145 263.66667 149.66667 265 151 266.33335 152.33333 272 153 282 153 295.33335 153 302 149.66667 302 143 302 137.66667 299 127.333339 293 112 287 96.666667 278.66667 79.66667 268 61 257.33335 42.333333 242.33333 25.666668 223 11 203.66667-3.666667 183-11 161-11 139.66667-11 120-4 102 10 84 24 74.666667 45.333333 74 74 74 85.333339 75.666667 96 79 106 82.333339 116 96.666667 154 122 220 147.33333 287.33335 162 327.66667 166 341 170 354.33335 172.33333 367.33335 173 380 173 396 167.33333 404 156 404H154C134 404 115.66667 393 99 371 82.33333 349 69.666667 321 61 287 60.333333 286.33335 59.666669 285.33335 59 284 58.333333 282.66667 58 281.66667 58 281 58 280.33335 57.333333 279.66667 56 279 54.666669 278.33335 53.666669 278 53 278 52.333333 278 51 278 49 278 47 278 44.333333 278 41 278H27C23 282 21 285 21 287Z"/>
<path transform="matrix(.008738571,0,0,-.009090585,172.73023,53.77362)" stroke-linecap="butt" stroke-miterlimit="4" stroke-linejoin="miter" fill="none" stroke="#000000" stroke-opacity=".0078" d="M184 600C184 616 190.33333 630 203 642 215.66667 654 230.33333 660.3333 247 661 259 661 269 657 277 649 285 641 289.33335 631 290 619 290 603.6667 283.33335 589.6667 270 577 256.66667 564.3333 242 557.6667 226 557 216 557 206.66667 560.3333 198 567 189.33333 573.6667 184.66667 584.6667 184 600ZM21 287C21 292.33335 24 302.66667 30 318 36 333.33335 44 350.33335 54 369 64 387.66667 78.666667 404.66667 98 420 117.333339 435.33335 137.33333 442.66667 158 442 184 442 205.66667 434.33335 223 419 240.33333 403.66667 249.33333 383 250 357 250 345.66667 245.33333 327 236 301 226.66667 275 213.33333 240 196 196 178.66667 152 164.66667 114.333339 154 83 150.66667 68.333339 149 57.666669 149 51 149 34.333333 154.66667 26 166 26 172 26 178.33333 27 185 29 191.66667 31 199.33333 35.666669 208 43 216.66667 50.333333 225.66667 62 235 78 244.33333 94 252.66667 113.666667 260 137 262 145 263.66667 149.66667 265 151 266.33335 152.33333 272 153 282 153 295.33335 153 302 149.66667 302 143 302 137.66667 299 127.333339 293 112 287 96.666667 278.66667 79.66667 268 61 257.33335 42.333333 242.33333 25.666668 223 11 203.66667-3.666667 183-11 161-11 139.66667-11 120-4 102 10 84 24 74.666667 45.333333 74 74 74 85.333339 75.666667 96 79 106 82.333339 116 96.666667 154 122 220 147.33333 287.33335 162 327.66667 166 341 170 354.33335 172.33333 367.33335 173 380 173 396 167.33333 404 156 404H154C134 404 115.66667 393 99 371 82.33333 349 69.666667 321 61 287 60.333333 286.33335 59.666669 285.33335 59 284 58.333333 282.66667 58 281.66667 58 281 58 280.33335 57.333333 279.66667 56 279 54.666669 278.33335 53.666669 278 53 278 52.333333 278 51 278 49 278 47 278 44.333333 278 41 278H27C23 282 21 285 21 287Z"/>
<path transform="matrix(.008738571,0,0,-.009090585,175.73627,53.77362)" d="M78 35C78 35 78 43.333333 78 60 78 76.66667 83.333339 91 94 103 104.666667 115 119 121 137 121 155.66667 121 172.33333 112.66667 187 96 201.66667 79.33333 209.33333 50 210 8 210-15.333334 207-38 201-60 195-82 188-101 180-117 172-133 163.33333-146.66667 154-158 144.66667-169.33333 136.66667-178.33333 130-185 123.333339-191.66667 119-194.66667 117-194 114.333339-194 110-191 104-185 98-179 95-174.66667 95-172 95-169.33333 98.666667-164 106-156 113.333339-148 121.666667-138 131-126 140.33333-114 149-97.333339 157-76 165-54.666666 170.33333-30.333334 173-3V9L172 8C170.66667 7.3333337 169 6.6666667 167 6 165 5.3333337 163 4.3333337 161 3 159 1.6666666 156 1 152 1 148 1 144 .6666667 140 0 122 0 107.333339 5.666666 96 17L78 35Z"/>
<path transform="matrix(.008738571,0,0,-.009090585,175.73627,53.77362)" stroke-linecap="butt" stroke-miterlimit="4" stroke-linejoin="miter" fill="none" stroke="#000000" stroke-opacity=".0078" d="M78 35C78 35 78 43.333333 78 60 78 76.66667 83.333339 91 94 103 104.666667 115 119 121 137 121 155.66667 121 172.33333 112.66667 187 96 201.66667 79.33333 209.33333 50 210 8 210-15.333334 207-38 201-60 195-82 188-101 180-117 172-133 163.33333-146.66667 154-158 144.66667-169.33333 136.66667-178.33333 130-185 123.333339-191.66667 119-194.66667 117-194 114.333339-194 110-191 104-185 98-179 95-174.66667 95-172 95-169.33333 98.666667-164 106-156 113.333339-148 121.666667-138 131-126 140.33333-114 149-97.333339 157-76 165-54.666666 170.33333-30.333334 173-3V9L172 8C170.66667 7.3333337 169 6.6666667 167 6 165 5.3333337 163 4.3333337 161 3 159 1.6666666 156 1 152 1 148 1 144 .6666667 140 0 122 0 107.333339 5.666666 96 17L78 35Z"/>
<path transform="matrix(.008738571,0,0,-.009090585,178.18305,53.77362)" d="M297 596C297 616.6667 304 632.6667 318 644 332 655.3333 346.33335 661 361 661 372.33335 661 381.66667 657.6667 389 651 396.33335 644.3333 401 635 403 623 403 604.3333 396.66667 588.6667 384 576 371.33335 563.3333 356.66667 557 340 557 328 557 318 560.3333 310 567 302 573.6667 297.66667 583.3333 297 596ZM288 376C288 395.33335 279.33335 405 262 405 247.33333 405 233.33333 401 220 393 206.66667 385 195 374.66667 185 362 175 349.33335 167 337 161 325 155 313 149.33333 302.33335 144 293L137 279C135.66667 278.33335 130.33333 278 121 278H107C103 282 101 284.66667 101 286 101 287.33335 102.333339 291.66667 105 299 119 331.66667 138.66667 362.33335 164 391 189.33333 419.66667 218.66666 436.33335 252 441 252.66667 441 255.33333 441 260 441 264.66667 441 268.66667 441.33335 272 442 288 441.33335 302.66667 438 316 432 332.66667 422.66667 345.33335 412.33335 354 401 362.66667 389.66667 367 372 367 348V332L318 133C284-.3333435 266-69.666667 264-75 252-108.333339 228.66667-138 194-164 159.33333-190 119.66667-203.33333 75-204 41.666666-204 19-197 7-183-5-169-11.333333-153.66667-12-137-12-119-5.666667-103.666667 7-91 19.666668-78.333339 35-71.666667 53-71 64.333339-71 74-74.333339 82-81 90-87.666667 94.333339-98 95-112 95-136 84.333339-154.33333 63-167 67-167.66667 71.666667-168 77-168 99.66667-168 120.33333-158.66667 139-140 157.66667-121.33333 172-99.333339 182-74L193-32C200.33333-3.333332 209 31.333333 219 72 229 112.66667 239.66667 154.33333 251 197 262.33335 239.66667 271.33335 276.66667 278 308 284.66667 339.33335 288.33335 358.33335 289 365 289 369.66667 288.66667 373.33335 288 376Z"/>
<path transform="matrix(.008738571,0,0,-.009090585,178.18305,53.77362)" stroke-linecap="butt" stroke-miterlimit="4" stroke-linejoin="miter" fill="none" stroke="#000000" stroke-opacity=".0078" d="M297 596C297 616.6667 304 632.6667 318 644 332 655.3333 346.33335 661 361 661 372.33335 661 381.66667 657.6667 389 651 396.33335 644.3333 401 635 403 623 403 604.3333 396.66667 588.6667 384 576 371.33335 563.3333 356.66667 557 340 557 328 557 318 560.3333 310 567 302 573.6667 297.66667 583.3333 297 596ZM288 376C288 395.33335 279.33335 405 262 405 247.33333 405 233.33333 401 220 393 206.66667 385 195 374.66667 185 362 175 349.33335 167 337 161 325 155 313 149.33333 302.33335 144 293L137 279C135.66667 278.33335 130.33333 278 121 278H107C103 282 101 284.66667 101 286 101 287.33335 102.333339 291.66667 105 299 119 331.66667 138.66667 362.33335 164 391 189.33333 419.66667 218.66666 436.33335 252 441 252.66667 441 255.33333 441 260 441 264.66667 441 268.66667 441.33335 272 442 288 441.33335 302.66667 438 316 432 332.66667 422.66667 345.33335 412.33335 354 401 362.66667 389.66667 367 372 367 348V332L318 133C284-.3333435 266-69.666667 264-75 252-108.333339 228.66667-138 194-164 159.33333-190 119.66667-203.33333 75-204 41.666666-204 19-197 7-183-5-169-11.333333-153.66667-12-137-12-119-5.666667-103.666667 7-91 19.666668-78.333339 35-71.666667 53-71 64.333339-71 74-74.333339 82-81 90-87.666667 94.333339-98 95-112 95-136 84.333339-154.33333 63-167 67-167.66667 71.666667-168 77-168 99.66667-168 120.33333-158.66667 139-140 157.66667-121.33333 172-99.333339 182-74L193-32C200.33333-3.333332 209 31.333333 219 72 229 112.66667 239.66667 154.33333 251 197 262.33335 239.66667 271.33335 276.66667 278 308 284.66667 339.33335 288.33335 358.33335 289 365 289 369.66667 288.66667 373.33335 288 376Z"/>
</g>
<g clip-path="url(#clip_5)">
<text xml:space="preserve" transform="matrix(.7196581 0 0 .7196581 -411.0921 -213.96341)" font-size="20" font-family="Helvetica"><tspan y="365" x="827.7656"> </tspan></text>
<text xml:space="preserve" transform="matrix(.7196581 0 0 .7196581 -411.0921 -213.96341)" font-size="20" font-family="Helvetica"><tspan y="394" x="758.0469 763.6069 770.26687 781.38687 798.0468">from </tspan></text>
<text xml:space="preserve" transform="matrix(.7196581 0 0 .7196581 -411.0921 -213.96341)" font-size="20" font-family="Helvetica-Bold" font-weight="bold"><tspan y="394" x="803.59378 818.03378 829.15377 835.8137">Beta</tspan></text>
<text xml:space="preserve" transform="matrix(.7196581 0 0 .7196581 -411.0921 -213.96341)" font-size="20" font-family="Helvetica"><tspan y="418" x="751.3594 762.4794 766.9194 776.9194 782.4794 789.13937 793.57937 804.69937 815.81936 821.37936 825.81936 836.93936 848.0593">distribution&#x00a0;</tspan></text>
<path transform="matrix(.7196581,0,0,.7196581,-410.73228,-213.60358)" d="M730.03 480.69 890.88 480.19 889.17 569.62 731.31 571.05" fill="#ffffff"/>
<path transform="matrix(.7196581,0,0,.7196581,-410.73228,-213.60358)" stroke-width="1" stroke-linecap="round" stroke-linejoin="round" fill="none" stroke="#000000" d="M730 480C767.51 479.34 805.21 478.09 890 480M730 480C774.57 481.46 817.52 481.26 890 480M890 480C889.42 512.23 888.44 546.17 890 570M890 480C890.1 500.56 890.67 520.68 890 570M890 570C830.03 566.62 773.88 569.4 730 570M890 570C856.2 569.33 820.05 569.65 730 570M730 570C727.76 540.06 731.28 508.7 730 480M730 570C730.46 542.05 729.32 512.89 730 480"/>
<text xml:space="preserve" transform="matrix(.7196581 0 0 .7196581 -411.0921 -213.96341)" font-size="20" font-family="Helvetica"><tspan y="520" x="735.53128 748.8713 755.53128 766.65127 777.77127 788.89126 798.89126 804.45126 808.89126 818.89126 823.33126 828.89126 838.89126 844.45126 850.0112 856.6712 867.7912">Productivity from</tspan></text>
<text xml:space="preserve" transform="matrix(.7196581 0 0 .7196581 -411.0921 -213.96341)" font-size="20" font-family="Helvetica"><tspan y="544" x="761.625 766.065 777.185 788.305 799.425 809.425 820.545 826.105 830.545 841.665 852.785">innovation:</tspan></text>
<text xml:space="preserve" transform="matrix(.7196581 0 0 .7196581 -411.0921 -213.96341)" font-size="20" font-family="Helvetica"><tspan y="544" x="858.3594"> </tspan></text>
<path transform="matrix(.7196581,0,0,.7196581,-410.73228,-213.60358)" d="M611.55 578.92 1021 581.9 1020.99 628.14 610.9 629.03" fill="#ffffff"/>
<path transform="matrix(.7196581,0,0,.7196581,-410.73228,-213.60358)" stroke-width="1" stroke-linecap="round" stroke-linejoin="round" fill="none" stroke="#000000" d="M610 580C705.56 579.84 803.41 579.26 1020 580M610 580C751.5 578.96 893.4 579.52 1020 580M1020 580C1018.64 591.43 1020.52 601.07 1020 630M1020 580C1019.28 590.06 1020.74 599.7 1020 630M1020 630C886.99 627.89 750.92 628.04 610 630M1020 630C914.76 630.12 809.2 630.78 610 630M610 630C610.88 616.91 610.93 600.24 610 580M610 630C609.88 617.05 610.91 602.81 610 580"/>
</g>
<g clip-path="url(#clip_6)">
<path transform="matrix(.017454053,0,0,-.017928932,79.71472,225.48291)" d="M21 287C21.666666 289 22.333334 291.66667 23 295 23.666666 298.33335 25.333334 305.66667 28 317 30.666666 328.33335 34 338.66667 38 348 42 357.33335 47 368.33335 53 381 59 393.66667 65.666667 403.66667 73 411 80.333339 418.33335 89 425.66667 99 433 109 440.33335 120 443.33335 132 442 148 442 162.33333 439.66667 175 435 187.66667 430.33335 197.66667 424.33335 205 417 212.33333 409.66667 217.66667 402.33335 221 395 224.33333 387.66667 227 381.33335 229 376L231 369C231 367.66667 231.33333 367 232 367L243 378C283.66667 420.66667 330 442 382 442 418 442 447 433 469 415 491 397 502.33335 370.66667 503 336V326C503 310 481.66667 219 439 53 400.33335-103.66667 379.66667-184.33333 377-189 368.33335-207 353.33335-216 332-216 323.33335-216 316-213.33333 310-208 304-202.66667 300.33335-195.33333 299-186 299-180 318.66667-99 358 57L420 307C422 317 423 329.66667 423 345 423 384.33335 408.33335 404 379 404H374C316.66667 404 268.33335 370.33335 229 303L222 291 189 157C167 69.666667 154.33333 22.666668 151 16 142.33333-2 128-11 108-11 99.333339-11 92.333339-9 87-5 81.666667-1 78 3 76 7 74 11 73.333339 14.333333 74 17 74 25.666668 87.33333 83 114 189 140.66667 295 154 354 154 366 154 392 145.33333 405 128 405 114 405 102 395.66667 92 377 82 358.33335 74 338 68 316 62 294 58.333333 282 57 280 55.666669 278.66667 50.333337 278 41 278H27C23 282 21 285 21 287Z"/>
<path transform="matrix(.017454053,0,0,-.017928932,79.71472,225.48291)" stroke-linecap="butt" stroke-miterlimit="4" stroke-linejoin="miter" fill="none" stroke="#000000" stroke-opacity=".0196" d="M21 287C21.666666 289 22.333334 291.66667 23 295 23.666666 298.33335 25.333334 305.66667 28 317 30.666666 328.33335 34 338.66667 38 348 42 357.33335 47 368.33335 53 381 59 393.66667 65.666667 403.66667 73 411 80.333339 418.33335 89 425.66667 99 433 109 440.33335 120 443.33335 132 442 148 442 162.33333 439.66667 175 435 187.66667 430.33335 197.66667 424.33335 205 417 212.33333 409.66667 217.66667 402.33335 221 395 224.33333 387.66667 227 381.33335 229 376L231 369C231 367.66667 231.33333 367 232 367L243 378C283.66667 420.66667 330 442 382 442 418 442 447 433 469 415 491 397 502.33335 370.66667 503 336V326C503 310 481.66667 219 439 53 400.33335-103.66667 379.66667-184.33333 377-189 368.33335-207 353.33335-216 332-216 323.33335-216 316-213.33333 310-208 304-202.66667 300.33335-195.33333 299-186 299-180 318.66667-99 358 57L420 307C422 317 423 329.66667 423 345 423 384.33335 408.33335 404 379 404H374C316.66667 404 268.33335 370.33335 229 303L222 291 189 157C167 69.666667 154.33333 22.666668 151 16 142.33333-2 128-11 108-11 99.333339-11 92.333339-9 87-5 81.666667-1 78 3 76 7 74 11 73.333339 14.333333 74 17 74 25.666668 87.33333 83 114 189 140.66667 295 154 354 154 366 154 392 145.33333 405 128 405 114 405 102 395.66667 92 377 82 358.33335 74 338 68 316 62 294 58.333333 282 57 280 55.666669 278.66667 50.333337 278 41 278H27C23 282 21 285 21 287Z"/>
<path transform="matrix(.012340016,0,0,-.012675756,88.52899,219.29743)" d="M69 609C69 627.6667 75 642.3333 87 653 99 663.6667 113.666667 669 131 669 146.33333 667.6667 159.66667 662 171 652 182.33333 642 188 627.6667 188 609 188 589 182.33333 574 171 564 159.66667 554 145.66667 549 129 549 112.33333 549 98.333339 554 87 564 75.666667 574 69.666667 589 69 609ZM247 0C237 2 202.33335 3 143 3 135.66667 3 123.333339 3 106 3 88.666667 3 72 2.3333336 56 1L34 0H26V46H42C60.666669 46 77 47 91 49 97 51.666669 100.666667 55.333333 102 60 103.333339 64.666667 104 78.666667 104 102V205 293C104 327.66667 103.333339 349.66667 102 359 100.666667 368.33335 96 374.66667 88 378 78.666667 382.66667 63 385 41 385H30V408C30 423.33335 30.666666 431 32 431L42 432C48.666669 432.66667 58 433.33335 70 434 82 434.66667 94 435.33335 106 436 117.333339 436.66667 129.33333 437.33335 142 438 154.66667 438.66667 164.33333 439.66667 171 441 177.66667 442.33335 181.33333 442.66667 182 442H185V62C188.33333 55.333333 192.33333 51.333333 197 50 201.66667 48.666669 213.33333 47.333333 232 46H255V0H247Z"/>
<path transform="matrix(.012340016,0,0,-.012675756,88.52899,219.29743)" stroke-linecap="butt" stroke-miterlimit="4" stroke-linejoin="miter" fill="none" stroke="#000000" stroke-opacity=".0118" d="M69 609C69 627.6667 75 642.3333 87 653 99 663.6667 113.666667 669 131 669 146.33333 667.6667 159.66667 662 171 652 182.33333 642 188 627.6667 188 609 188 589 182.33333 574 171 564 159.66667 554 145.66667 549 129 549 112.33333 549 98.333339 554 87 564 75.666667 574 69.666667 589 69 609ZM247 0C237 2 202.33335 3 143 3 135.66667 3 123.333339 3 106 3 88.666667 3 72 2.3333336 56 1L34 0H26V46H42C60.666669 46 77 47 91 49 97 51.666669 100.666667 55.333333 102 60 103.333339 64.666667 104 78.666667 104 102V205 293C104 327.66667 103.333339 349.66667 102 359 100.666667 368.33335 96 374.66667 88 378 78.666667 382.66667 63 385 41 385H30V408C30 423.33335 30.666666 431 32 431L42 432C48.666669 432.66667 58 433.33335 70 434 82 434.66667 94 435.33335 106 436 117.333339 436.66667 129.33333 437.33335 142 438 154.66667 438.66667 164.33333 439.66667 171 441 177.66667 442.33335 181.33333 442.66667 182 442H185V62C188.33333 55.333333 192.33333 51.333333 197 50 201.66667 48.666669 213.33333 47.333333 232 46H255V0H247Z"/>
<path transform="matrix(.012340016,0,0,-.012675756,91.94998,219.29743)" d="M41 46H55C81 46 96.666667 50.666666 102 60V68C102 74 102 81.666667 102 91 102 100.333339 102 110.666667 102 122 102 133.33333 102.333339 146.33333 103 161 103.666667 175.66667 103.666667 189.66667 103 203 103 223.66667 103 245.66667 103 269 103 292.33335 102.666667 312 102 328V351C100 363.66667 95.333339 372 88 376 80.666667 380 65.66667 383 43 385H25V408C25 423.33335 25.666666 431 27 431L37 432C43.666669 432.66667 53 433.33335 65 434 77 434.66667 89.333339 435.33335 102 436 113.333339 436.66667 125.333339 437.33335 138 438 150.66667 438.66667 160.33333 439.66667 167 441 173.66667 442.33335 177.33333 442.66667 178 442H181V402C181 376.66667 181.33333 364 182 364 182.66667 364 184.33333 365.66667 187 369 189.66667 372.33335 193.66667 377.33335 199 384 204.33333 390.66667 210.66667 396.66667 218 402 225.33333 407.33335 235 413.66667 247 421 259 428.33335 271.66667 433.66667 285 437 298.33335 440.33335 315.33335 442 336 442 412 439.33335 454.33335 401.6667 463 329 463.66667 324.33335 464 278 464 190V104C464 78.666667 464.66667 63.666669 466 59 467.33335 54.333333 471 51 477 49 491 47 507.33335 46 526 46H542V0H534L510 1C494.66667 1.6666668 478 2 460 2 442 2 429.33335 2.3333333 422 3 353.3333 3 316 2 310 0H302V46H318C358.66667 46 379 51.333333 379 62 379.66667 63.333333 380 109.33333 380 200 379.33335 290 378.66667 337.66667 378 343 374 361.66667 367.33335 375.66667 358 385 348.66667 394.33335 340.66667 400 334 402 327.33335 404 318.66667 404.66667 308 404 278 404 251.66667 392.66667 229 370 211 352 199.66667 333.66667 195 315 190.33333 296.33335 187.66667 268.66667 187 232V168 108C187 88 187.33333 74.666667 188 68 188.66667 61.333333 189.66667 57 191 55 192.33333 53 195.33333 51 200 49 214 47 230.33333 46 249 46H265V0H257L234 1C218 1.6666668 201 2 183 2 165 2 152.33333 2.3333333 145 3 76.33333 3 39 2 33 0H25V46H41Z"/>
<path transform="matrix(.012340016,0,0,-.012675756,91.94998,219.29743)" stroke-linecap="butt" stroke-miterlimit="4" stroke-linejoin="miter" fill="none" stroke="#000000" stroke-opacity=".0118" d="M41 46H55C81 46 96.666667 50.666666 102 60V68C102 74 102 81.666667 102 91 102 100.333339 102 110.666667 102 122 102 133.33333 102.333339 146.33333 103 161 103.666667 175.66667 103.666667 189.66667 103 203 103 223.66667 103 245.66667 103 269 103 292.33335 102.666667 312 102 328V351C100 363.66667 95.333339 372 88 376 80.666667 380 65.66667 383 43 385H25V408C25 423.33335 25.666666 431 27 431L37 432C43.666669 432.66667 53 433.33335 65 434 77 434.66667 89.333339 435.33335 102 436 113.333339 436.66667 125.333339 437.33335 138 438 150.66667 438.66667 160.33333 439.66667 167 441 173.66667 442.33335 177.33333 442.66667 178 442H181V402C181 376.66667 181.33333 364 182 364 182.66667 364 184.33333 365.66667 187 369 189.66667 372.33335 193.66667 377.33335 199 384 204.33333 390.66667 210.66667 396.66667 218 402 225.33333 407.33335 235 413.66667 247 421 259 428.33335 271.66667 433.66667 285 437 298.33335 440.33335 315.33335 442 336 442 412 439.33335 454.33335 401.6667 463 329 463.66667 324.33335 464 278 464 190V104C464 78.666667 464.66667 63.666669 466 59 467.33335 54.333333 471 51 477 49 491 47 507.33335 46 526 46H542V0H534L510 1C494.66667 1.6666668 478 2 460 2 442 2 429.33335 2.3333333 422 3 353.3333 3 316 2 310 0H302V46H318C358.66667 46 379 51.333333 379 62 379.66667 63.333333 380 109.33333 380 200 379.33335 290 378.66667 337.66667 378 343 374 361.66667 367.33335 375.66667 358 385 348.66667 394.33335 340.66667 400 334 402 327.33335 404 318.66667 404.66667 308 404 278 404 251.66667 392.66667 229 370 211 352 199.66667 333.66667 195 315 190.33333 296.33335 187.66667 268.66667 187 232V168 108C187 88 187.33333 74.666667 188 68 188.66667 61.333333 189.66667 57 191 55 192.33333 53 195.33333 51 200 49 214 47 230.33333 46 249 46H265V0H257L234 1C218 1.6666668 201 2 183 2 165 2 152.33333 2.3333333 145 3 76.33333 3 39 2 33 0H25V46H41Z"/>
<path transform="matrix(.012340016,0,0,-.012675756,98.826908,219.29743)" d="M41 46H55C81 46 96.666667 50.666666 102 60V68C102 74 102 81.666667 102 91 102 100.333339 102 110.666667 102 122 102 133.33333 102.333339 146.33333 103 161 103.666667 175.66667 103.666667 189.66667 103 203 103 223.66667 103 245.66667 103 269 103 292.33335 102.666667 312 102 328V351C100 363.66667 95.333339 372 88 376 80.666667 380 65.66667 383 43 385H25V408C25 423.33335 25.666666 431 27 431L37 432C43.666669 432.66667 53 433.33335 65 434 77 434.66667 89.333339 435.33335 102 436 113.333339 436.66667 125.333339 437.33335 138 438 150.66667 438.66667 160.33333 439.66667 167 441 173.66667 442.33335 177.33333 442.66667 178 442H181V402C181 376.66667 181.33333 364 182 364 182.66667 364 184.33333 365.66667 187 369 189.66667 372.33335 193.66667 377.33335 199 384 204.33333 390.66667 210.66667 396.66667 218 402 225.33333 407.33335 235 413.66667 247 421 259 428.33335 271.66667 433.66667 285 437 298.33335 440.33335 315.33335 442 336 442 412 439.33335 454.33335 401.6667 463 329 463.66667 324.33335 464 278 464 190V104C464 78.666667 464.66667 63.666669 466 59 467.33335 54.333333 471 51 477 49 491 47 507.33335 46 526 46H542V0H534L510 1C494.66667 1.6666668 478 2 460 2 442 2 429.33335 2.3333333 422 3 353.3333 3 316 2 310 0H302V46H318C358.66667 46 379 51.333333 379 62 379.66667 63.333333 380 109.33333 380 200 379.33335 290 378.66667 337.66667 378 343 374 361.66667 367.33335 375.66667 358 385 348.66667 394.33335 340.66667 400 334 402 327.33335 404 318.66667 404.66667 308 404 278 404 251.66667 392.66667 229 370 211 352 199.66667 333.66667 195 315 190.33333 296.33335 187.66667 268.66667 187 232V168 108C187 88 187.33333 74.666667 188 68 188.66667 61.333333 189.66667 57 191 55 192.33333 53 195.33333 51 200 49 214 47 230.33333 46 249 46H265V0H257L234 1C218 1.6666668 201 2 183 2 165 2 152.33333 2.3333333 145 3 76.33333 3 39 2 33 0H25V46H41Z"/>
<path transform="matrix(.012340016,0,0,-.012675756,98.826908,219.29743)" stroke-linecap="butt" stroke-miterlimit="4" stroke-linejoin="miter" fill="none" stroke="#000000" stroke-opacity=".0118" d="M41 46H55C81 46 96.666667 50.666666 102 60V68C102 74 102 81.666667 102 91 102 100.333339 102 110.666667 102 122 102 133.33333 102.333339 146.33333 103 161 103.666667 175.66667 103.666667 189.66667 103 203 103 223.66667 103 245.66667 103 269 103 292.33335 102.666667 312 102 328V351C100 363.66667 95.333339 372 88 376 80.666667 380 65.66667 383 43 385H25V408C25 423.33335 25.666666 431 27 431L37 432C43.666669 432.66667 53 433.33335 65 434 77 434.66667 89.333339 435.33335 102 436 113.333339 436.66667 125.333339 437.33335 138 438 150.66667 438.66667 160.33333 439.66667 167 441 173.66667 442.33335 177.33333 442.66667 178 442H181V402C181 376.66667 181.33333 364 182 364 182.66667 364 184.33333 365.66667 187 369 189.66667 372.33335 193.66667 377.33335 199 384 204.33333 390.66667 210.66667 396.66667 218 402 225.33333 407.33335 235 413.66667 247 421 259 428.33335 271.66667 433.66667 285 437 298.33335 440.33335 315.33335 442 336 442 412 439.33335 454.33335 401.6667 463 329 463.66667 324.33335 464 278 464 190V104C464 78.666667 464.66667 63.666669 466 59 467.33335 54.333333 471 51 477 49 491 47 507.33335 46 526 46H542V0H534L510 1C494.66667 1.6666668 478 2 460 2 442 2 429.33335 2.3333333 422 3 353.3333 3 316 2 310 0H302V46H318C358.66667 46 379 51.333333 379 62 379.66667 63.333333 380 109.33333 380 200 379.33335 290 378.66667 337.66667 378 343 374 361.66667 367.33335 375.66667 358 385 348.66667 394.33335 340.66667 400 334 402 327.33335 404 318.66667 404.66667 308 404 278 404 251.66667 392.66667 229 370 211 352 199.66667 333.66667 195 315 190.33333 296.33335 187.66667 268.66667 187 232V168 108C187 88 187.33333 74.666667 188 68 188.66667 61.333333 189.66667 57 191 55 192.33333 53 195.33333 51 200 49 214 47 230.33333 46 249 46H265V0H257L234 1C218 1.6666668 201 2 183 2 165 2 152.33333 2.3333333 145 3 76.33333 3 39 2 33 0H25V46H41Z"/>
<path transform="matrix(.012340016,0,0,-.012675756,88.38937,230.93332)" d="M184 600C184 616 190.33333 630 203 642 215.66667 654 230.33333 660.3333 247 661 259 661 269 657 277 649 285 641 289.33335 631 290 619 290 603.6667 283.33335 589.6667 270 577 256.66667 564.3333 242 557.6667 226 557 216 557 206.66667 560.3333 198 567 189.33333 573.6667 184.66667 584.6667 184 600ZM21 287C21 292.33335 24 302.66667 30 318 36 333.33335 44 350.33335 54 369 64 387.66667 78.666667 404.66667 98 420 117.333339 435.33335 137.33333 442.66667 158 442 184 442 205.66667 434.33335 223 419 240.33333 403.66667 249.33333 383 250 357 250 345.66667 245.33333 327 236 301 226.66667 275 213.33333 240 196 196 178.66667 152 164.66667 114.333339 154 83 150.66667 68.333339 149 57.666669 149 51 149 34.333333 154.66667 26 166 26 172 26 178.33333 27 185 29 191.66667 31 199.33333 35.666669 208 43 216.66667 50.333333 225.66667 62 235 78 244.33333 94 252.66667 113.666667 260 137 262 145 263.66667 149.66667 265 151 266.33335 152.33333 272 153 282 153 295.33335 153 302 149.66667 302 143 302 137.66667 299 127.333339 293 112 287 96.666667 278.66667 79.66667 268 61 257.33335 42.333333 242.33333 25.666668 223 11 203.66667-3.666667 183-11 161-11 139.66667-11 120-4 102 10 84 24 74.666667 45.333333 74 74 74 85.333339 75.666667 96 79 106 82.333339 116 96.666667 154 122 220 147.33333 287.33335 162 327.66667 166 341 170 354.33335 172.33333 367.33335 173 380 173 396 167.33333 404 156 404H154C134 404 115.66667 393 99 371 82.33333 349 69.666667 321 61 287 60.333333 286.33335 59.666669 285.33335 59 284 58.333333 282.66667 58 281.66667 58 281 58 280.33335 57.333333 279.66667 56 279 54.666669 278.33335 53.666669 278 53 278 52.333333 278 51 278 49 278 47 278 44.333333 278 41 278H27C23 282 21 285 21 287Z"/>
<path transform="matrix(.012340016,0,0,-.012675756,88.38937,230.93332)" stroke-linecap="butt" stroke-miterlimit="4" stroke-linejoin="miter" fill="none" stroke="#000000" stroke-opacity=".0118" d="M184 600C184 616 190.33333 630 203 642 215.66667 654 230.33333 660.3333 247 661 259 661 269 657 277 649 285 641 289.33335 631 290 619 290 603.6667 283.33335 589.6667 270 577 256.66667 564.3333 242 557.6667 226 557 216 557 206.66667 560.3333 198 567 189.33333 573.6667 184.66667 584.6667 184 600ZM21 287C21 292.33335 24 302.66667 30 318 36 333.33335 44 350.33335 54 369 64 387.66667 78.666667 404.66667 98 420 117.333339 435.33335 137.33333 442.66667 158 442 184 442 205.66667 434.33335 223 419 240.33333 403.66667 249.33333 383 250 357 250 345.66667 245.33333 327 236 301 226.66667 275 213.33333 240 196 196 178.66667 152 164.66667 114.333339 154 83 150.66667 68.333339 149 57.666669 149 51 149 34.333333 154.66667 26 166 26 172 26 178.33333 27 185 29 191.66667 31 199.33333 35.666669 208 43 216.66667 50.333333 225.66667 62 235 78 244.33333 94 252.66667 113.666667 260 137 262 145 263.66667 149.66667 265 151 266.33335 152.33333 272 153 282 153 295.33335 153 302 149.66667 302 143 302 137.66667 299 127.333339 293 112 287 96.666667 278.66667 79.66667 268 61 257.33335 42.333333 242.33333 25.666668 223 11 203.66667-3.666667 183-11 161-11 139.66667-11 120-4 102 10 84 24 74.666667 45.333333 74 74 74 85.333339 75.666667 96 79 106 82.333339 116 96.666667 154 122 220 147.33333 287.33335 162 327.66667 166 341 170 354.33335 172.33333 367.33335 173 380 173 396 167.33333 404 156 404H154C134 404 115.66667 393 99 371 82.33333 349 69.666667 321 61 287 60.333333 286.33335 59.666669 285.33335 59 284 58.333333 282.66667 58 281.66667 58 281 58 280.33335 57.333333 279.66667 56 279 54.666669 278.33335 53.666669 278 53 278 52.333333 278 51 278 49 278 47 278 44.333333 278 41 278H27C23 282 21 285 21 287Z"/>
<path transform="matrix(.012340016,0,0,-.012675756,92.64813,230.93332)" d="M78 35C78 35 78 43.333333 78 60 78 76.66667 83.333339 91 94 103 104.666667 115 119 121 137 121 155.66667 121 172.33333 112.66667 187 96 201.66667 79.33333 209.33333 50 210 8 210-15.333334 207-38 201-60 195-82 188-101 180-117 172-133 163.33333-146.66667 154-158 144.66667-169.33333 136.66667-178.33333 130-185 123.333339-191.66667 119-194.66667 117-194 114.333339-194 110-191 104-185 98-179 95-174.66667 95-172 95-169.33333 98.666667-164 106-156 113.333339-148 121.666667-138 131-126 140.33333-114 149-97.333339 157-76 165-54.666666 170.33333-30.333334 173-3V9L172 8C170.66667 7.3333337 169 6.6666667 167 6 165 5.3333337 163 4.3333337 161 3 159 1.6666666 156 1 152 1 148 1 144 .6666667 140 0 122 0 107.333339 5.666666 96 17L78 35Z"/>
<path transform="matrix(.012340016,0,0,-.012675756,92.64813,230.93332)" stroke-linecap="butt" stroke-miterlimit="4" stroke-linejoin="miter" fill="none" stroke="#000000" stroke-opacity=".0118" d="M78 35C78 35 78 43.333333 78 60 78 76.66667 83.333339 91 94 103 104.666667 115 119 121 137 121 155.66667 121 172.33333 112.66667 187 96 201.66667 79.33333 209.33333 50 210 8 210-15.333334 207-38 201-60 195-82 188-101 180-117 172-133 163.33333-146.66667 154-158 144.66667-169.33333 136.66667-178.33333 130-185 123.333339-191.66667 119-194.66667 117-194 114.333339-194 110-191 104-185 98-179 95-174.66667 95-172 95-169.33333 98.666667-164 106-156 113.333339-148 121.666667-138 131-126 140.33333-114 149-97.333339 157-76 165-54.666666 170.33333-30.333334 173-3V9L172 8C170.66667 7.3333337 169 6.6666667 167 6 165 5.3333337 163 4.3333337 161 3 159 1.6666666 156 1 152 1 148 1 144 .6666667 140 0 122 0 107.333339 5.666666 96 17L78 35Z"/>
<path transform="matrix(.012340016,0,0,-.012675756,96.08661,230.93332)" d="M297 596C297 616.6667 304 632.6667 318 644 332 655.3333 346.33335 661 361 661 372.33335 661 381.66667 657.6667 389 651 396.33335 644.3333 401 635 403 623 403 604.3333 396.66667 588.6667 384 576 371.33335 563.3333 356.66667 557 340 557 328 557 318 560.3333 310 567 302 573.6667 297.66667 583.3333 297 596ZM288 376C288 395.33335 279.33335 405 262 405 247.33333 405 233.33333 401 220 393 206.66667 385 195 374.66667 185 362 175 349.33335 167 337 161 325 155 313 149.33333 302.33335 144 293L137 279C135.66667 278.33335 130.33333 278 121 278H107C103 282 101 284.66667 101 286 101 287.33335 102.333339 291.66667 105 299 119 331.66667 138.66667 362.33335 164 391 189.33333 419.66667 218.66666 436.33335 252 441 252.66667 441 255.33333 441 260 441 264.66667 441 268.66667 441.33335 272 442 288 441.33335 302.66667 438 316 432 332.66667 422.66667 345.33335 412.33335 354 401 362.66667 389.66667 367 372 367 348V332L318 133C284-.3333435 266-69.666667 264-75 252-108.333339 228.66667-138 194-164 159.33333-190 119.66667-203.33333 75-204 41.666666-204 19-197 7-183-5-169-11.333333-153.66667-12-137-12-119-5.666667-103.666667 7-91 19.666668-78.333339 35-71.666667 53-71 64.333339-71 74-74.333339 82-81 90-87.666667 94.333339-98 95-112 95-136 84.333339-154.33333 63-167 67-167.66667 71.666667-168 77-168 99.66667-168 120.33333-158.66667 139-140 157.66667-121.33333 172-99.333339 182-74L193-32C200.33333-3.333332 209 31.333333 219 72 229 112.66667 239.66667 154.33333 251 197 262.33335 239.66667 271.33335 276.66667 278 308 284.66667 339.33335 288.33335 358.33335 289 365 289 369.66667 288.66667 373.33335 288 376Z"/>
<path transform="matrix(.012340016,0,0,-.012675756,96.08661,230.93332)" stroke-linecap="butt" stroke-miterlimit="4" stroke-linejoin="miter" fill="none" stroke="#000000" stroke-opacity=".0118" d="M297 596C297 616.6667 304 632.6667 318 644 332 655.3333 346.33335 661 361 661 372.33335 661 381.66667 657.6667 389 651 396.33335 644.3333 401 635 403 623 403 604.3333 396.66667 588.6667 384 576 371.33335 563.3333 356.66667 557 340 557 328 557 318 560.3333 310 567 302 573.6667 297.66667 583.3333 297 596ZM288 376C288 395.33335 279.33335 405 262 405 247.33333 405 233.33333 401 220 393 206.66667 385 195 374.66667 185 362 175 349.33335 167 337 161 325 155 313 149.33333 302.33335 144 293L137 279C135.66667 278.33335 130.33333 278 121 278H107C103 282 101 284.66667 101 286 101 287.33335 102.333339 291.66667 105 299 119 331.66667 138.66667 362.33335 164 391 189.33333 419.66667 218.66666 436.33335 252 441 252.66667 441 255.33333 441 260 441 264.66667 441 268.66667 441.33335 272 442 288 441.33335 302.66667 438 316 432 332.66667 422.66667 345.33335 412.33335 354 401 362.66667 389.66667 367 372 367 348V332L318 133C284-.3333435 266-69.666667 264-75 252-108.333339 228.66667-138 194-164 159.33333-190 119.66667-203.33333 75-204 41.666666-204 19-197 7-183-5-169-11.333333-153.66667-12-137-12-119-5.666667-103.666667 7-91 19.666668-78.333339 35-71.666667 53-71 64.333339-71 74-74.333339 82-81 90-87.666667 94.333339-98 95-112 95-136 84.333339-154.33333 63-167 67-167.66667 71.666667-168 77-168 99.66667-168 120.33333-158.66667 139-140 157.66667-121.33333 172-99.333339 182-74L193-32C200.33333-3.333332 209 31.333333 219 72 229 112.66667 239.66667 154.33333 251 197 262.33335 239.66667 271.33335 276.66667 278 308 284.66667 339.33335 288.33335 358.33335 289 365 289 369.66667 288.66667 373.33335 288 376Z"/>
<path transform="matrix(.017454053,0,0,-.017928932,113.26141,225.48291)" d="M56 347C56 355.66667 60.666666 362.33335 70 367H707C717 361.66667 722 355 722 347 722 339.66667 717.3333 333.33335 708 328L390 327H72C61.333333 330.33335 56 337 56 347ZM56 153C56 163 61.333333 169.66667 72 173H708C717.3333 166.33333 722 159.66667 722 153 722 144.33333 717 137.66667 707 133H70C60.666666 137.66667 56 144.33333 56 153Z"/>
<path transform="matrix(.017454053,0,0,-.017928932,113.26141,225.48291)" stroke-linecap="butt" stroke-miterlimit="4" stroke-linejoin="miter" fill="none" stroke="#000000" stroke-opacity=".0196" d="M56 347C56 355.66667 60.666666 362.33335 70 367H707C717 361.66667 722 355 722 347 722 339.66667 717.3333 333.33335 708 328L390 327H72C61.333333 330.33335 56 337 56 347ZM56 153C56 163 61.333333 169.66667 72 173H708C717.3333 166.33333 722 159.66667 722 153 722 144.33333 717 137.66667 707 133H70C60.666666 137.66667 56 144.33333 56 153Z"/>
<path transform="matrix(.017454053,0,0,-.017928932,132.67029,225.48291)" d="M21 287C21.666666 289 22.333334 291.66667 23 295 23.666666 298.33335 25.333334 305.66667 28 317 30.666666 328.33335 34 338.66667 38 348 42 357.33335 47 368.33335 53 381 59 393.66667 65.666667 403.66667 73 411 80.333339 418.33335 89 425.66667 99 433 109 440.33335 120 443.33335 132 442 148 442 162.33333 439.66667 175 435 187.66667 430.33335 197.66667 424.33335 205 417 212.33333 409.66667 217.66667 402.33335 221 395 224.33333 387.66667 227 381.33335 229 376L231 369C231 367.66667 231.33333 367 232 367L243 378C283.66667 420.66667 330 442 382 442 418 442 447 433 469 415 491 397 502.33335 370.66667 503 336V326C503 310 481.66667 219 439 53 400.33335-103.66667 379.66667-184.33333 377-189 368.33335-207 353.33335-216 332-216 323.33335-216 316-213.33333 310-208 304-202.66667 300.33335-195.33333 299-186 299-180 318.66667-99 358 57L420 307C422 317 423 329.66667 423 345 423 384.33335 408.33335 404 379 404H374C316.66667 404 268.33335 370.33335 229 303L222 291 189 157C167 69.666667 154.33333 22.666668 151 16 142.33333-2 128-11 108-11 99.333339-11 92.333339-9 87-5 81.666667-1 78 3 76 7 74 11 73.333339 14.333333 74 17 74 25.666668 87.33333 83 114 189 140.66667 295 154 354 154 366 154 392 145.33333 405 128 405 114 405 102 395.66667 92 377 82 358.33335 74 338 68 316 62 294 58.333333 282 57 280 55.666669 278.66667 50.333337 278 41 278H27C23 282 21 285 21 287Z"/>
<path transform="matrix(.017454053,0,0,-.017928932,132.67029,225.48291)" stroke-linecap="butt" stroke-miterlimit="4" stroke-linejoin="miter" fill="none" stroke="#000000" stroke-opacity=".0196" d="M21 287C21.666666 289 22.333334 291.66667 23 295 23.666666 298.33335 25.333334 305.66667 28 317 30.666666 328.33335 34 338.66667 38 348 42 357.33335 47 368.33335 53 381 59 393.66667 65.666667 403.66667 73 411 80.333339 418.33335 89 425.66667 99 433 109 440.33335 120 443.33335 132 442 148 442 162.33333 439.66667 175 435 187.66667 430.33335 197.66667 424.33335 205 417 212.33333 409.66667 217.66667 402.33335 221 395 224.33333 387.66667 227 381.33335 229 376L231 369C231 367.66667 231.33333 367 232 367L243 378C283.66667 420.66667 330 442 382 442 418 442 447 433 469 415 491 397 502.33335 370.66667 503 336V326C503 310 481.66667 219 439 53 400.33335-103.66667 379.66667-184.33333 377-189 368.33335-207 353.33335-216 332-216 323.33335-216 316-213.33333 310-208 304-202.66667 300.33335-195.33333 299-186 299-180 318.66667-99 358 57L420 307C422 317 423 329.66667 423 345 423 384.33335 408.33335 404 379 404H374C316.66667 404 268.33335 370.33335 229 303L222 291 189 157C167 69.666667 154.33333 22.666668 151 16 142.33333-2 128-11 108-11 99.333339-11 92.333339-9 87-5 81.666667-1 78 3 76 7 74 11 73.333339 14.333333 74 17 74 25.666668 87.33333 83 114 189 140.66667 295 154 354 154 366 154 392 145.33333 405 128 405 114 405 102 395.66667 92 377 82 358.33335 74 338 68 316 62 294 58.333333 282 57 280 55.666669 278.66667 50.333337 278 41 278H27C23 282 21 285 21 287Z"/>
<path transform="matrix(.012340016,0,0,-.012675756,141.34497,228.83563)" d="M184 600C184 616 190.33333 630 203 642 215.66667 654 230.33333 660.3333 247 661 259 661 269 657 277 649 285 641 289.33335 631 290 619 290 603.6667 283.33335 589.6667 270 577 256.66667 564.3333 242 557.6667 226 557 216 557 206.66667 560.3333 198 567 189.33333 573.6667 184.66667 584.6667 184 600ZM21 287C21 292.33335 24 302.66667 30 318 36 333.33335 44 350.33335 54 369 64 387.66667 78.666667 404.66667 98 420 117.333339 435.33335 137.33333 442.66667 158 442 184 442 205.66667 434.33335 223 419 240.33333 403.66667 249.33333 383 250 357 250 345.66667 245.33333 327 236 301 226.66667 275 213.33333 240 196 196 178.66667 152 164.66667 114.333339 154 83 150.66667 68.333339 149 57.666669 149 51 149 34.333333 154.66667 26 166 26 172 26 178.33333 27 185 29 191.66667 31 199.33333 35.666669 208 43 216.66667 50.333333 225.66667 62 235 78 244.33333 94 252.66667 113.666667 260 137 262 145 263.66667 149.66667 265 151 266.33335 152.33333 272 153 282 153 295.33335 153 302 149.66667 302 143 302 137.66667 299 127.333339 293 112 287 96.666667 278.66667 79.66667 268 61 257.33335 42.333333 242.33333 25.666668 223 11 203.66667-3.666667 183-11 161-11 139.66667-11 120-4 102 10 84 24 74.666667 45.333333 74 74 74 85.333339 75.666667 96 79 106 82.333339 116 96.666667 154 122 220 147.33333 287.33335 162 327.66667 166 341 170 354.33335 172.33333 367.33335 173 380 173 396 167.33333 404 156 404H154C134 404 115.66667 393 99 371 82.33333 349 69.666667 321 61 287 60.333333 286.33335 59.666669 285.33335 59 284 58.333333 282.66667 58 281.66667 58 281 58 280.33335 57.333333 279.66667 56 279 54.666669 278.33335 53.666669 278 53 278 52.333333 278 51 278 49 278 47 278 44.333333 278 41 278H27C23 282 21 285 21 287Z"/>
<path transform="matrix(.012340016,0,0,-.012675756,141.34497,228.83563)" stroke-linecap="butt" stroke-miterlimit="4" stroke-linejoin="miter" fill="none" stroke="#000000" stroke-opacity=".0118" d="M184 600C184 616 190.33333 630 203 642 215.66667 654 230.33333 660.3333 247 661 259 661 269 657 277 649 285 641 289.33335 631 290 619 290 603.6667 283.33335 589.6667 270 577 256.66667 564.3333 242 557.6667 226 557 216 557 206.66667 560.3333 198 567 189.33333 573.6667 184.66667 584.6667 184 600ZM21 287C21 292.33335 24 302.66667 30 318 36 333.33335 44 350.33335 54 369 64 387.66667 78.666667 404.66667 98 420 117.333339 435.33335 137.33333 442.66667 158 442 184 442 205.66667 434.33335 223 419 240.33333 403.66667 249.33333 383 250 357 250 345.66667 245.33333 327 236 301 226.66667 275 213.33333 240 196 196 178.66667 152 164.66667 114.333339 154 83 150.66667 68.333339 149 57.666669 149 51 149 34.333333 154.66667 26 166 26 172 26 178.33333 27 185 29 191.66667 31 199.33333 35.666669 208 43 216.66667 50.333333 225.66667 62 235 78 244.33333 94 252.66667 113.666667 260 137 262 145 263.66667 149.66667 265 151 266.33335 152.33333 272 153 282 153 295.33335 153 302 149.66667 302 143 302 137.66667 299 127.333339 293 112 287 96.666667 278.66667 79.66667 268 61 257.33335 42.333333 242.33333 25.666668 223 11 203.66667-3.666667 183-11 161-11 139.66667-11 120-4 102 10 84 24 74.666667 45.333333 74 74 74 85.333339 75.666667 96 79 106 82.333339 116 96.666667 154 122 220 147.33333 287.33335 162 327.66667 166 341 170 354.33335 172.33333 367.33335 173 380 173 396 167.33333 404 156 404H154C134 404 115.66667 393 99 371 82.33333 349 69.666667 321 61 287 60.333333 286.33335 59.666669 285.33335 59 284 58.333333 282.66667 58 281.66667 58 281 58 280.33335 57.333333 279.66667 56 279 54.666669 278.33335 53.666669 278 53 278 52.333333 278 51 278 49 278 47 278 44.333333 278 41 278H27C23 282 21 285 21 287Z"/>
<path transform="matrix(.012340016,0,0,-.012675756,145.60376,228.83563)" d="M78 35C78 35 78 43.333333 78 60 78 76.66667 83.333339 91 94 103 104.666667 115 119 121 137 121 155.66667 121 172.33333 112.66667 187 96 201.66667 79.33333 209.33333 50 210 8 210-15.333334 207-38 201-60 195-82 188-101 180-117 172-133 163.33333-146.66667 154-158 144.66667-169.33333 136.66667-178.33333 130-185 123.333339-191.66667 119-194.66667 117-194 114.333339-194 110-191 104-185 98-179 95-174.66667 95-172 95-169.33333 98.666667-164 106-156 113.333339-148 121.666667-138 131-126 140.33333-114 149-97.333339 157-76 165-54.666666 170.33333-30.333334 173-3V9L172 8C170.66667 7.3333337 169 6.6666667 167 6 165 5.3333337 163 4.3333337 161 3 159 1.6666666 156 1 152 1 148 1 144 .6666667 140 0 122 0 107.333339 5.666666 96 17L78 35Z"/>
<path transform="matrix(.012340016,0,0,-.012675756,145.60376,228.83563)" stroke-linecap="butt" stroke-miterlimit="4" stroke-linejoin="miter" fill="none" stroke="#000000" stroke-opacity=".0118" d="M78 35C78 35 78 43.333333 78 60 78 76.66667 83.333339 91 94 103 104.666667 115 119 121 137 121 155.66667 121 172.33333 112.66667 187 96 201.66667 79.33333 209.33333 50 210 8 210-15.333334 207-38 201-60 195-82 188-101 180-117 172-133 163.33333-146.66667 154-158 144.66667-169.33333 136.66667-178.33333 130-185 123.333339-191.66667 119-194.66667 117-194 114.333339-194 110-191 104-185 98-179 95-174.66667 95-172 95-169.33333 98.666667-164 106-156 113.333339-148 121.666667-138 131-126 140.33333-114 149-97.333339 157-76 165-54.666666 170.33333-30.333334 173-3V9L172 8C170.66667 7.3333337 169 6.6666667 167 6 165 5.3333337 163 4.3333337 161 3 159 1.6666666 156 1 152 1 148 1 144 .6666667 140 0 122 0 107.333339 5.666666 96 17L78 35Z"/>
<path transform="matrix(.012340016,0,0,-.012675756,149.04224,228.83563)" d="M297 596C297 616.6667 304 632.6667 318 644 332 655.3333 346.33335 661 361 661 372.33335 661 381.66667 657.6667 389 651 396.33335 644.3333 401 635 403 623 403 604.3333 396.66667 588.6667 384 576 371.33335 563.3333 356.66667 557 340 557 328 557 318 560.3333 310 567 302 573.6667 297.66667 583.3333 297 596ZM288 376C288 395.33335 279.33335 405 262 405 247.33333 405 233.33333 401 220 393 206.66667 385 195 374.66667 185 362 175 349.33335 167 337 161 325 155 313 149.33333 302.33335 144 293L137 279C135.66667 278.33335 130.33333 278 121 278H107C103 282 101 284.66667 101 286 101 287.33335 102.333339 291.66667 105 299 119 331.66667 138.66667 362.33335 164 391 189.33333 419.66667 218.66666 436.33335 252 441 252.66667 441 255.33333 441 260 441 264.66667 441 268.66667 441.33335 272 442 288 441.33335 302.66667 438 316 432 332.66667 422.66667 345.33335 412.33335 354 401 362.66667 389.66667 367 372 367 348V332L318 133C284-.3333435 266-69.666667 264-75 252-108.333339 228.66667-138 194-164 159.33333-190 119.66667-203.33333 75-204 41.666666-204 19-197 7-183-5-169-11.333333-153.66667-12-137-12-119-5.666667-103.666667 7-91 19.666668-78.333339 35-71.666667 53-71 64.333339-71 74-74.333339 82-81 90-87.666667 94.333339-98 95-112 95-136 84.333339-154.33333 63-167 67-167.66667 71.666667-168 77-168 99.66667-168 120.33333-158.66667 139-140 157.66667-121.33333 172-99.333339 182-74L193-32C200.33333-3.333332 209 31.333333 219 72 229 112.66667 239.66667 154.33333 251 197 262.33335 239.66667 271.33335 276.66667 278 308 284.66667 339.33335 288.33335 358.33335 289 365 289 369.66667 288.66667 373.33335 288 376Z"/>
<path transform="matrix(.012340016,0,0,-.012675756,149.04224,228.83563)" stroke-linecap="butt" stroke-miterlimit="4" stroke-linejoin="miter" fill="none" stroke="#000000" stroke-opacity=".0118" d="M297 596C297 616.6667 304 632.6667 318 644 332 655.3333 346.33335 661 361 661 372.33335 661 381.66667 657.6667 389 651 396.33335 644.3333 401 635 403 623 403 604.3333 396.66667 588.6667 384 576 371.33335 563.3333 356.66667 557 340 557 328 557 318 560.3333 310 567 302 573.6667 297.66667 583.3333 297 596ZM288 376C288 395.33335 279.33335 405 262 405 247.33333 405 233.33333 401 220 393 206.66667 385 195 374.66667 185 362 175 349.33335 167 337 161 325 155 313 149.33333 302.33335 144 293L137 279C135.66667 278.33335 130.33333 278 121 278H107C103 282 101 284.66667 101 286 101 287.33335 102.333339 291.66667 105 299 119 331.66667 138.66667 362.33335 164 391 189.33333 419.66667 218.66666 436.33335 252 441 252.66667 441 255.33333 441 260 441 264.66667 441 268.66667 441.33335 272 442 288 441.33335 302.66667 438 316 432 332.66667 422.66667 345.33335 412.33335 354 401 362.66667 389.66667 367 372 367 348V332L318 133C284-.3333435 266-69.666667 264-75 252-108.333339 228.66667-138 194-164 159.33333-190 119.66667-203.33333 75-204 41.666666-204 19-197 7-183-5-169-11.333333-153.66667-12-137-12-119-5.666667-103.666667 7-91 19.666668-78.333339 35-71.666667 53-71 64.333339-71 74-74.333339 82-81 90-87.666667 94.333339-98 95-112 95-136 84.333339-154.33333 63-167 67-167.66667 71.666667-168 77-168 99.66667-168 120.33333-158.66667 139-140 157.66667-121.33333 172-99.333339 182-74L193-32C200.33333-3.333332 209 31.333333 219 72 229 112.66667 239.66667 154.33333 251 197 262.33335 239.66667 271.33335 276.66667 278 308 284.66667 339.33335 288.33335 358.33335 289 365 289 369.66667 288.66667 373.33335 288 376Z"/>
<path transform="matrix(.012340016,0,0,-.012675756,154.12134,228.83563)" d="M78 35C78 35 78 43.333333 78 60 78 76.66667 83.333339 91 94 103 104.666667 115 119 121 137 121 155.66667 121 172.33333 112.66667 187 96 201.66667 79.33333 209.33333 50 210 8 210-15.333334 207-38 201-60 195-82 188-101 180-117 172-133 163.33333-146.66667 154-158 144.66667-169.33333 136.66667-178.33333 130-185 123.333339-191.66667 119-194.66667 117-194 114.333339-194 110-191 104-185 98-179 95-174.66667 95-172 95-169.33333 98.666667-164 106-156 113.333339-148 121.666667-138 131-126 140.33333-114 149-97.333339 157-76 165-54.666666 170.33333-30.333334 173-3V9L172 8C170.66667 7.3333337 169 6.6666667 167 6 165 5.3333337 163 4.3333337 161 3 159 1.6666666 156 1 152 1 148 1 144 .6666667 140 0 122 0 107.333339 5.666666 96 17L78 35Z"/>
<path transform="matrix(.012340016,0,0,-.012675756,154.12134,228.83563)" stroke-linecap="butt" stroke-miterlimit="4" stroke-linejoin="miter" fill="none" stroke="#000000" stroke-opacity=".0118" d="M78 35C78 35 78 43.333333 78 60 78 76.66667 83.333339 91 94 103 104.666667 115 119 121 137 121 155.66667 121 172.33333 112.66667 187 96 201.66667 79.33333 209.33333 50 210 8 210-15.333334 207-38 201-60 195-82 188-101 180-117 172-133 163.33333-146.66667 154-158 144.66667-169.33333 136.66667-178.33333 130-185 123.333339-191.66667 119-194.66667 117-194 114.333339-194 110-191 104-185 98-179 95-174.66667 95-172 95-169.33333 98.666667-164 106-156 113.333339-148 121.666667-138 131-126 140.33333-114 149-97.333339 157-76 165-54.666666 170.33333-30.333334 173-3V9L172 8C170.66667 7.3333337 169 6.6666667 167 6 165 5.3333337 163 4.3333337 161 3 159 1.6666666 156 1 152 1 148 1 144 .6666667 140 0 122 0 107.333339 5.666666 96 17L78 35Z"/>
<path transform="matrix(.012340016,0,0,-.012675756,157.55976,228.83563)" d="M121 647C121 653.6667 122.333339 661.3333 125 670 127.666667 678.6667 131.66667 683 137 683 137.66667 683 161.66666 684.6667 209 688 256.33335 691.3333 280.66667 693.3333 282 694 290 694 294 691.3333 294 686 294 681.3333 277.33335 611.6667 244 477 210.66666 345 194 276.66667 194 272 206.66667 278.66667 216.33333 285 223 291 239 303 262 324 292 354 322 384 345.33335 404.33335 362 415 388.66667 433 414 442 438 442 458 442 473.66667 435.66667 485 423 496.33335 410.33335 502.33335 392.33335 503 369 503 352.33335 500.66667 338.33335 496 327 491.33335 315.66667 485 307.33335 477 302 469 296.66667 462 293 456 291 450 289 444 288 438 288 424.66667 288 414 291.66667 406 299 398 306.33335 394 316 394 328 394 344.66667 399.33335 358.33335 410 369 420.66667 379.66667 431.33335 386.66667 442 390L458 393C450 401 442 405 434 405H430C408.66667 403 387.66667 394.66667 367 380 346.33335 365.33335 322 344 294 316 266 288 244 267.66667 228 255 229.33333 254.33333 234.33333 253.33333 243 252 251.66667 250.66667 259.66667 248.66667 267 246 274.33335 243.33333 283 240.66667 293 238 303 235.33333 312 230.66667 320 224 328 217.33333 335.33335 211.33333 342 206 348.66667 200.66667 354.33335 192 359 180 363.66667 168 365.66667 157 365 147 365 135.66667 363.33335 122 360 106 356.66667 90 354.66667 76.666667 354 66 354 39.333333 363 26 381 26 413 26 439 65.666667 459 145 460.33335 150.33333 467 153 479 153H483C493.66667 153 499 150 499 144 499 140.66667 498 136 496 130 468.66667 36 429.33335-11 378-11 348-11 323.66667-2.333334 305 15 286.33335 32.333337 277 57.333333 277 90 277 102 278 112.333339 280 121 282 129.66667 283 137.66667 283 145 283 159.66667 278.33335 172.33333 269 183 259.66667 193.66667 248 201.33333 234 206 220 210.66667 208.66667 214.33333 200 217 191.33333 219.66667 185.33333 220.66667 182 220H180C172 192 165 165 159 139 153 113 148.33333 93.666667 145 81 141.66667 68.333339 138.66667 56 136 44 133.33333 32 131 24 129 20 127 16 124.666667 11.666667 122 7 119.333339 2.333333 115.666667-.6666666 111-2 102.333339-8 93-11 83-11 71.666667-11 63-7.666667 57-1 51 5.666667 48 11.333333 48 16 48 22.666668 60.333333 76 85 176 109.66667 276 134 374.3333 158 471L195 616C195.66667 624.6667 193.33333 630 188 632 182.66667 634 169.66667 635.6667 149 637H144C137.33333 637 133 637 131 637 129 637 126.666667 638 124 640 121.333339 642 120.333339 644.3333 121 647Z"/>
<path transform="matrix(.012340016,0,0,-.012675756,157.55976,228.83563)" stroke-linecap="butt" stroke-miterlimit="4" stroke-linejoin="miter" fill="none" stroke="#000000" stroke-opacity=".0118" d="M121 647C121 653.6667 122.333339 661.3333 125 670 127.666667 678.6667 131.66667 683 137 683 137.66667 683 161.66666 684.6667 209 688 256.33335 691.3333 280.66667 693.3333 282 694 290 694 294 691.3333 294 686 294 681.3333 277.33335 611.6667 244 477 210.66666 345 194 276.66667 194 272 206.66667 278.66667 216.33333 285 223 291 239 303 262 324 292 354 322 384 345.33335 404.33335 362 415 388.66667 433 414 442 438 442 458 442 473.66667 435.66667 485 423 496.33335 410.33335 502.33335 392.33335 503 369 503 352.33335 500.66667 338.33335 496 327 491.33335 315.66667 485 307.33335 477 302 469 296.66667 462 293 456 291 450 289 444 288 438 288 424.66667 288 414 291.66667 406 299 398 306.33335 394 316 394 328 394 344.66667 399.33335 358.33335 410 369 420.66667 379.66667 431.33335 386.66667 442 390L458 393C450 401 442 405 434 405H430C408.66667 403 387.66667 394.66667 367 380 346.33335 365.33335 322 344 294 316 266 288 244 267.66667 228 255 229.33333 254.33333 234.33333 253.33333 243 252 251.66667 250.66667 259.66667 248.66667 267 246 274.33335 243.33333 283 240.66667 293 238 303 235.33333 312 230.66667 320 224 328 217.33333 335.33335 211.33333 342 206 348.66667 200.66667 354.33335 192 359 180 363.66667 168 365.66667 157 365 147 365 135.66667 363.33335 122 360 106 356.66667 90 354.66667 76.666667 354 66 354 39.333333 363 26 381 26 413 26 439 65.666667 459 145 460.33335 150.33333 467 153 479 153H483C493.66667 153 499 150 499 144 499 140.66667 498 136 496 130 468.66667 36 429.33335-11 378-11 348-11 323.66667-2.333334 305 15 286.33335 32.333337 277 57.333333 277 90 277 102 278 112.333339 280 121 282 129.66667 283 137.66667 283 145 283 159.66667 278.33335 172.33333 269 183 259.66667 193.66667 248 201.33333 234 206 220 210.66667 208.66667 214.33333 200 217 191.33333 219.66667 185.33333 220.66667 182 220H180C172 192 165 165 159 139 153 113 148.33333 93.666667 145 81 141.66667 68.333339 138.66667 56 136 44 133.33333 32 131 24 129 20 127 16 124.666667 11.666667 122 7 119.333339 2.333333 115.666667-.6666666 111-2 102.333339-8 93-11 83-11 71.666667-11 63-7.666667 57-1 51 5.666667 48 11.333333 48 16 48 22.666668 60.333333 76 85 176 109.66667 276 134 374.3333 158 471L195 616C195.66667 624.6667 193.33333 630 188 632 182.66667 634 169.66667 635.6667 149 637H144C137.33333 637 133 637 131 637 129 637 126.666667 638 124 640 121.333339 642 120.333339 644.3333 121 647Z"/>
<path transform="matrix(.012340016,0,0,-.012675756,164.0003,228.83563)" d="M94 250C94 296 97.333339 339.66667 104 381 110.666667 422.33335 118.333339 458 127 488 135.66667 518 148 547.3333 164 576 180 604.6667 192.66667 627 202 643 211.33333 659 225.33333 676.3333 244 695 262.66667 713.6667 273.66667 725 277 729 280.33335 733 288.66667 740 302 750H315 319C328.33335 750 333 747 333 741 333 739 327.33335 732 316 720 304.66667 708 291 690.3333 275 667 259 643.6667 242.66667 615 226 581 209.33333 547 195.33333 501 184 443 172.66667 385 167 320.6667 167 250 167 179.33333 172.66667 115.333339 184 58 195.33333 .6666641 209-45.666666 225-81 241-116.333339 257.33335-145 274-167 290.66667-189 304.66667-206.66667 316-220 327.33335-233.33333 333-240.33333 333-241 333-247 328-250 318-250H315 302L274-226C211.33333-169.33333 165.66667-98.66667 137-14 108.33333 70.66667 94 158.66666 94 250Z"/>
<path transform="matrix(.012340016,0,0,-.012675756,164.0003,228.83563)" stroke-linecap="butt" stroke-miterlimit="4" stroke-linejoin="miter" fill="none" stroke="#000000" stroke-opacity=".0118" d="M94 250C94 296 97.333339 339.66667 104 381 110.666667 422.33335 118.333339 458 127 488 135.66667 518 148 547.3333 164 576 180 604.6667 192.66667 627 202 643 211.33333 659 225.33333 676.3333 244 695 262.66667 713.6667 273.66667 725 277 729 280.33335 733 288.66667 740 302 750H315 319C328.33335 750 333 747 333 741 333 739 327.33335 732 316 720 304.66667 708 291 690.3333 275 667 259 643.6667 242.66667 615 226 581 209.33333 547 195.33333 501 184 443 172.66667 385 167 320.6667 167 250 167 179.33333 172.66667 115.333339 184 58 195.33333 .6666641 209-45.666666 225-81 241-116.333339 257.33335-145 274-167 290.66667-189 304.66667-206.66667 316-220 327.33335-233.33333 333-240.33333 333-241 333-247 328-250 318-250H315 302L274-226C211.33333-169.33333 165.66667-98.66667 137-14 108.33333 70.66667 94 158.66666 94 250Z"/>
<path transform="matrix(.012340016,0,0,-.012675756,168.80023,228.83563)" d="M84 237C84 237 84 241.33333 84 250 84 258.66667 88.666667 265.33335 98 270H679C689 264.66667 694 258 694 250 694 242 689 235.33333 679 230H98C88.666667 234.66667 84 241.33333 84 250V237Z"/>
<path transform="matrix(.012340016,0,0,-.012675756,168.80023,228.83563)" stroke-linecap="butt" stroke-miterlimit="4" stroke-linejoin="miter" fill="none" stroke="#000000" stroke-opacity=".0118" d="M84 237C84 237 84 241.33333 84 250 84 258.66667 88.666667 265.33335 98 270H679C689 264.66667 694 258 694 250 694 242 689 235.33333 679 230H98C88.666667 234.66667 84 241.33333 84 250V237Z"/>
<path transform="matrix(.012340016,0,0,-.012675756,178.3999,228.83563)" d="M213 578 200 573C190.66667 569.6667 177.33333 566.3333 160 563 142.66667 559.6667 123.333339 557.3333 102 556H83V602H102C133.33333 603.3333 162.33333 608.3333 189 617 215.66667 625.6667 234.33333 633.6667 245 641 255.66667 648.3333 265 655.6667 273 663 274.33335 665 278.33335 666 285 666 291 666 296.66667 664 302 660V361L303 61C307.66667 56.333333 311.66667 53.333333 315 52 318.33335 50.666669 326.33335 49.333333 339 48 351.66667 46.666669 372.33335 46 401 46H427V0H416C402 2 349 3 257 3 166.33333 3 114 2 100 0H88V46H114C128.66667 46 141.33333 46 152 46 162.66667 46 171 46.333333 177 47 183 47.666669 188.33333 48.666669 193 50 197.66667 51.333333 200.33333 52 201 52 201.66667 52 203.66667 53.666669 207 57 210.33333 60.333333 212.33333 61.666669 213 61V578Z"/>
<path transform="matrix(.012340016,0,0,-.012675756,178.3999,228.83563)" stroke-linecap="butt" stroke-miterlimit="4" stroke-linejoin="miter" fill="none" stroke="#000000" stroke-opacity=".0118" d="M213 578 200 573C190.66667 569.6667 177.33333 566.3333 160 563 142.66667 559.6667 123.333339 557.3333 102 556H83V602H102C133.33333 603.3333 162.33333 608.3333 189 617 215.66667 625.6667 234.33333 633.6667 245 641 255.66667 648.3333 265 655.6667 273 663 274.33335 665 278.33335 666 285 666 291 666 296.66667 664 302 660V361L303 61C307.66667 56.333333 311.66667 53.333333 315 52 318.33335 50.666669 326.33335 49.333333 339 48 351.66667 46.666669 372.33335 46 401 46H427V0H416C402 2 349 3 257 3 166.33333 3 114 2 100 0H88V46H114C128.66667 46 141.33333 46 152 46 162.66667 46 171 46.333333 177 47 183 47.666669 188.33333 48.666669 193 50 197.66667 51.333333 200.33333 52 201 52 201.66667 52 203.66667 53.666669 207 57 210.33333 60.333333 212.33333 61.666669 213 61V578Z"/>
<path transform="matrix(.012340016,0,0,-.012675756,184.57862,228.83563)" d="M60 749 64 750C67.333339 750 70.666667 750 74 750H86L114 726C176.66667 669.3333 222.33333 598.6667 251 514 279.66667 429.3333 294 341.33335 294 250 294 204.66666 290.66667 161 284 119 277.33335 77 269.66667 41.333337 261 12 252.33333-17.333334 240-46.666666 224-76 208-105.333339 195.33333-127.666667 186-143 176.66667-158.33333 163-175.33333 145-194 127-212.66667 116.333339-223.66667 113-227 109.666667-230.33333 102-236.66667 90-246 88-248 86.666667-249.33333 86-250H74C68.666667-250 65-250 63-250 61-250 59.333333-249 58-247 56.666669-245 55.666669-242 55-238 55.666669-237.33333 59.333333-233 66-225 169.33335-117.666667 221 40.666658 221 250 221 459.33335 169.33335 617.6667 66 725 59.333333 733 55.666669 737.3333 55 738 55 743.3333 56.666669 747 60 749Z"/>
<path transform="matrix(.012340016,0,0,-.012675756,184.57862,228.83563)" stroke-linecap="butt" stroke-miterlimit="4" stroke-linejoin="miter" fill="none" stroke="#000000" stroke-opacity=".0118" d="M60 749 64 750C67.333339 750 70.666667 750 74 750H86L114 726C176.66667 669.3333 222.33333 598.6667 251 514 279.66667 429.3333 294 341.33335 294 250 294 204.66666 290.66667 161 284 119 277.33335 77 269.66667 41.333337 261 12 252.33333-17.333334 240-46.666666 224-76 208-105.333339 195.33333-127.666667 186-143 176.66667-158.33333 163-175.33333 145-194 127-212.66667 116.333339-223.66667 113-227 109.666667-230.33333 102-236.66667 90-246 88-248 86.666667-249.33333 86-250H74C68.666667-250 65-250 63-250 61-250 59.333333-249 58-247 56.666669-245 55.666669-242 55-238 55.666669-237.33333 59.333333-233 66-225 169.33335-117.666667 221 40.666658 221 250 221 459.33335 169.33335 617.6667 66 725 59.333333 733 55.666669 737.3333 55 738 55 743.3333 56.666669 747 60 749Z"/>
<path transform="matrix(.017454053,0,0,-.017928932,191.15882,225.48291)" d="M152 251C152 514.3334 230.66666 714 388 850H416C420 846 422 843 422 841 422 838.3333 415.66667 830 403 816 390.33335 802 375 781 357 753 339 725 320.66667 690.3333 302 649 283.33335 607.6667 267.66667 552 255 482 242.33333 412 236 334.6667 236 250 236 166 242.33333 89 255 19 267.66667-51 283-106.33333 301-147 319-187.66667 337.33335-222.33333 356-251 374.66667-279.66667 390.33335-301 403-315 415.66667-329 422-337.33335 422-340 422-342 420-345 416-349H388C368.66667-333 350-315.33335 332-296 314-276.66667 293.66667-249 271-213 248.33333-177 228.66667-138.33335 212-97 195.33333-55.666666 181.33333-4.666668 170 56 158.66667 116.66667 152.66667 181.66666 152 251Z"/>
<path transform="matrix(.017454053,0,0,-.017928932,191.15882,225.48291)" stroke-linecap="butt" stroke-miterlimit="4" stroke-linejoin="miter" fill="none" stroke="#000000" stroke-opacity=".0196" d="M152 251C152 514.3334 230.66666 714 388 850H416C420 846 422 843 422 841 422 838.3333 415.66667 830 403 816 390.33335 802 375 781 357 753 339 725 320.66667 690.3333 302 649 283.33335 607.6667 267.66667 552 255 482 242.33333 412 236 334.6667 236 250 236 166 242.33333 89 255 19 267.66667-51 283-106.33333 301-147 319-187.66667 337.33335-222.33333 356-251 374.66667-279.66667 390.33335-301 403-315 415.66667-329 422-337.33335 422-340 422-342 420-345 416-349H388C368.66667-333 350-315.33335 332-296 314-276.66667 293.66667-249 271-213 248.33333-177 228.66667-138.33335 212-97 195.33333-55.666666 181.33333-4.666668 170 56 158.66667 116.66667 152.66667 181.66666 152 251Z"/>
<path transform="matrix(.017454053,0,0,-.017928932,199.15277,225.48291)" d="M213 578 200 573C190.66667 569.6667 177.33333 566.3333 160 563 142.66667 559.6667 123.333339 557.3333 102 556H83V602H102C133.33333 603.3333 162.33333 608.3333 189 617 215.66667 625.6667 234.33333 633.6667 245 641 255.66667 648.3333 265 655.6667 273 663 274.33335 665 278.33335 666 285 666 291 666 296.66667 664 302 660V361L303 61C307.66667 56.333333 311.66667 53.333333 315 52 318.33335 50.666669 326.33335 49.333333 339 48 351.66667 46.666669 372.33335 46 401 46H427V0H416C402 2 349 3 257 3 166.33333 3 114 2 100 0H88V46H114C128.66667 46 141.33333 46 152 46 162.66667 46 171 46.333333 177 47 183 47.666669 188.33333 48.666669 193 50 197.66667 51.333333 200.33333 52 201 52 201.66667 52 203.66667 53.666669 207 57 210.33333 60.333333 212.33333 61.666669 213 61V578Z"/>
<path transform="matrix(.017454053,0,0,-.017928932,199.15277,225.48291)" stroke-linecap="butt" stroke-miterlimit="4" stroke-linejoin="miter" fill="none" stroke="#000000" stroke-opacity=".0196" d="M213 578 200 573C190.66667 569.6667 177.33333 566.3333 160 563 142.66667 559.6667 123.333339 557.3333 102 556H83V602H102C133.33333 603.3333 162.33333 608.3333 189 617 215.66667 625.6667 234.33333 633.6667 245 641 255.66667 648.3333 265 655.6667 273 663 274.33335 665 278.33335 666 285 666 291 666 296.66667 664 302 660V361L303 61C307.66667 56.333333 311.66667 53.333333 315 52 318.33335 50.666669 326.33335 49.333333 339 48 351.66667 46.666669 372.33335 46 401 46H427V0H416C402 2 349 3 257 3 166.33333 3 114 2 100 0H88V46H114C128.66667 46 141.33333 46 152 46 162.66667 46 171 46.333333 177 47 183 47.666669 188.33333 48.666669 193 50 197.66667 51.333333 200.33333 52 201 52 201.66667 52 203.66667 53.666669 207 57 210.33333 60.333333 212.33333 61.666669 213 61V578Z"/>
<path transform="matrix(.017454053,0,0,-.017928932,212.54004,225.48291)" d="M56 237C56 237 56 241.33333 56 250 56 258.66667 60.666666 265.33335 70 270H369V420L370 570C376.66667 578.6667 383 583 389 583 397.66667 583 404.33335 578 409 568V270H707C717 264.66667 722 258 722 250 722 242 717 235.33333 707 230H409V-68C403.66667-77.333339 397.66667-82 391-82H389 387C379-82 373-77.333339 369-68V230H70C60.666666 234.66667 56 241.33333 56 250V237Z"/>
<path transform="matrix(.017454053,0,0,-.017928932,212.54004,225.48291)" stroke-linecap="butt" stroke-miterlimit="4" stroke-linejoin="miter" fill="none" stroke="#000000" stroke-opacity=".0196" d="M56 237C56 237 56 241.33333 56 250 56 258.66667 60.666666 265.33335 70 270H369V420L370 570C376.66667 578.6667 383 583 389 583 397.66667 583 404.33335 578 409 568V270H707C717 264.66667 722 258 722 250 722 242 717 235.33333 707 230H409V-68C403.66667-77.333339 397.66667-82 391-82H389 387C379-82 373-77.333339 369-68V230H70C60.666666 234.66667 56 241.33333 56 250V237Z"/>
<path transform="matrix(.017454053,0,0,-.017928932,230.77954,225.48291)" d="M576-125C576-139.66667 566.3333-156.33333 547-175 527.6667-193.66667 507.66667-203.33333 487-204H476C421.33335-204 383.66667-188.33333 363-157 343.66667-128.33333 320.33335-67.333339 293 26L284 59C283.33335 58.333333 271.33335 45 248 19 224.66667-7 198.66667-35.333333 170-66 141.33333-96.66667 115.333339-125 92-151 68.666667-177 55.666669-190.33333 53-191 50.333333-193 47-194 43-194 38.333333-194 34.333333-192.33333 31-189 27.666666-185.66667 25.666666-181.66667 25-177 24.333334-172.33333 28.666666-164.66667 38-154 47.333337-143.33333 85-102 151-30L272 102 265 131C214.33333 313.6667 171 405 135 405 114.33333 405 98.333339 389.33335 87 358 86.333339 353.33335 80 351 68 351 54.666666 351 48 354.33335 48 361 48 366.33335 50.666669 374.66667 56 386 61.333333 397.33335 72.33333 409.66667 89 423 105.66667 436.33335 125.33333 442.66667 148 442 198.66667 442 235.33333 428 258 400 270 383.33335 283 356.66667 297 320 311 283.33335 322 250.66667 330 222L341 180C343 180 381 221 455 303 529 385 568.3333 427 573 429 577 430.33335 580 431 582 431 594 431 600 425.33335 600 414 600 409.33335 595.6667 402 587 392 578.3333 382 541.6667 341.33335 477 270 396.3333 182 355 136.66667 353 134L362 102C382 27.333329 404-36.333333 428-89 452-141.66667 472.66667-168 490-168 499.33335-168 508.33335-164 517-156 525.6667-148 532-138 536-126 538-119.333339 540.3333-115.666667 543-115 545.6667-114.333339 550.3333-114 557-114 563.6667-114 568.3333-114.333339 571-115 574.3333-117 576-120.333339 576-125Z"/>
<path transform="matrix(.017454053,0,0,-.017928932,230.77954,225.48291)" stroke-linecap="butt" stroke-miterlimit="4" stroke-linejoin="miter" fill="none" stroke="#000000" stroke-opacity=".0196" d="M576-125C576-139.66667 566.3333-156.33333 547-175 527.6667-193.66667 507.66667-203.33333 487-204H476C421.33335-204 383.66667-188.33333 363-157 343.66667-128.33333 320.33335-67.333339 293 26L284 59C283.33335 58.333333 271.33335 45 248 19 224.66667-7 198.66667-35.333333 170-66 141.33333-96.66667 115.333339-125 92-151 68.666667-177 55.666669-190.33333 53-191 50.333333-193 47-194 43-194 38.333333-194 34.333333-192.33333 31-189 27.666666-185.66667 25.666666-181.66667 25-177 24.333334-172.33333 28.666666-164.66667 38-154 47.333337-143.33333 85-102 151-30L272 102 265 131C214.33333 313.6667 171 405 135 405 114.33333 405 98.333339 389.33335 87 358 86.333339 353.33335 80 351 68 351 54.666666 351 48 354.33335 48 361 48 366.33335 50.666669 374.66667 56 386 61.333333 397.33335 72.33333 409.66667 89 423 105.66667 436.33335 125.33333 442.66667 148 442 198.66667 442 235.33333 428 258 400 270 383.33335 283 356.66667 297 320 311 283.33335 322 250.66667 330 222L341 180C343 180 381 221 455 303 529 385 568.3333 427 573 429 577 430.33335 580 431 582 431 594 431 600 425.33335 600 414 600 409.33335 595.6667 402 587 392 578.3333 382 541.6667 341.33335 477 270 396.3333 182 355 136.66667 353 134L362 102C382 27.333329 404-36.333333 428-89 452-141.66667 472.66667-168 490-168 499.33335-168 508.33335-164 517-156 525.6667-148 532-138 536-126 538-119.333339 540.3333-115.666667 543-115 545.6667-114.333339 550.3333-114 557-114 563.6667-114 568.3333-114.333339 571-115 574.3333-117 576-120.333339 576-125Z"/>
<path transform="matrix(.012340016,0,0,-.012675756,241.70575,228.17227)" d="M230 637C212 637 201.33333 637.3333 198 638 194.66667 638.6667 193 642.3333 193 649 193 667 196.66667 678 204 682 205.33333 682.6667 263.3333 683 378 683 492.6667 682.3333 554.6667 681.3333 564 680 601.3333 674.6667 632.6667 665.3333 658 652 683.3333 638.6667 701.3333 623.3333 712 606 722.6667 588.6667 729.6667 574.3333 733 563 736.3333 551.6667 738.3333 540.3333 739 529 739 499 729.3333 471 710 445 690.6667 419 668.3333 399 643 385 617.6667 371 595.3333 359.66667 576 351 556.6667 342.33335 544 338 538 338L545 333C589.6667 307.66667 612 271 612 223 612 215.66667 610.3333 195.33335 607 162 603.6667 128.66666 602 101.333339 602 80V71C602 59 602.3333 49.666669 603 43 603.6667 36.333333 607.3333 30.333334 614 25 620.6667 19.666666 629.3333 16.666666 640 16 658.6667 16 674 23.333333 686 38 698 52.666669 706.6667 68.33333 712 85 715.3333 94.333339 718 100 720 102 722 104 727 105 735 105 748.3333 105 755 101 755 93 755 81 747 62 731 36 705.6667-2 675.6667-21 641-21H632C591.3333-21 557.6667-12.666668 531 4 504.33335 20.666668 489.66667 46.666666 487 82 487 100 492 128 502 166 512 204 517 228.33333 517 239 517 273 502.66667 297.66667 474 313 464 317.66667 455.66667 320.33335 449 321 442.33335 321.66667 418.66667 322.33335 378 323H309L277 193C255 105 244 60.333333 244 59 244 56.333333 244.33333 54.666669 245 54 245.66667 53.333333 248 52 252 50 256 48 261.66667 47.333333 269 48 276.33335 48.666669 287.33335 48 302 46H333C337 40.666669 339 37.666669 339 37 339 36.333333 338 30.333334 336 19 333.33335 10.333333 330 4 326 0H311C287 1.3333334 243.33335 2 180 2 157.33333 2 136.33333 2 117 2 97.666667 2 82.333339 2 71 2 59.666666 2 52.666669 1.6666668 50 1 38.666666 1 33 4 33 10 33 11.333333 34 16 36 24 39.333333 36.666669 42.666669 43.666669 46 45 48.666669 45.666669 53.666669 46 61 46H67C85 46 105 47 127 49 136.33333 51 142.66667 55 146 61 148 63.666669 172 156.33333 218 339 264 521.6667 287 618 287 628 287 632.6667 268 635.6667 230 637ZM630 554C630 575.3333 623 593.3333 609 608 595 622.6667 566.3333 632 523 636 521.6667 636 514 636 500 636 486 636 473.33335 636.3333 462 637H440C408.66667 637 390.66667 633.6667 386 627 385.33335 625 374 580.6667 352 494 330 407.3333 319 363 319 361 319 360.33335 342 360 388 360 440 360.66667 474.66667 363 492 367 534.6667 373.66667 568 393.33335 592 426 602.6667 441.33335 611.6667 461.33335 619 486 626.3333 510.66667 630 533.3333 630 554Z"/>
<path transform="matrix(.012340016,0,0,-.012675756,241.70575,228.17227)" stroke-linecap="butt" stroke-miterlimit="4" stroke-linejoin="miter" fill="none" stroke="#000000" stroke-opacity=".0118" d="M230 637C212 637 201.33333 637.3333 198 638 194.66667 638.6667 193 642.3333 193 649 193 667 196.66667 678 204 682 205.33333 682.6667 263.3333 683 378 683 492.6667 682.3333 554.6667 681.3333 564 680 601.3333 674.6667 632.6667 665.3333 658 652 683.3333 638.6667 701.3333 623.3333 712 606 722.6667 588.6667 729.6667 574.3333 733 563 736.3333 551.6667 738.3333 540.3333 739 529 739 499 729.3333 471 710 445 690.6667 419 668.3333 399 643 385 617.6667 371 595.3333 359.66667 576 351 556.6667 342.33335 544 338 538 338L545 333C589.6667 307.66667 612 271 612 223 612 215.66667 610.3333 195.33335 607 162 603.6667 128.66666 602 101.333339 602 80V71C602 59 602.3333 49.666669 603 43 603.6667 36.333333 607.3333 30.333334 614 25 620.6667 19.666666 629.3333 16.666666 640 16 658.6667 16 674 23.333333 686 38 698 52.666669 706.6667 68.33333 712 85 715.3333 94.333339 718 100 720 102 722 104 727 105 735 105 748.3333 105 755 101 755 93 755 81 747 62 731 36 705.6667-2 675.6667-21 641-21H632C591.3333-21 557.6667-12.666668 531 4 504.33335 20.666668 489.66667 46.666666 487 82 487 100 492 128 502 166 512 204 517 228.33333 517 239 517 273 502.66667 297.66667 474 313 464 317.66667 455.66667 320.33335 449 321 442.33335 321.66667 418.66667 322.33335 378 323H309L277 193C255 105 244 60.333333 244 59 244 56.333333 244.33333 54.666669 245 54 245.66667 53.333333 248 52 252 50 256 48 261.66667 47.333333 269 48 276.33335 48.666669 287.33335 48 302 46H333C337 40.666669 339 37.666669 339 37 339 36.333333 338 30.333334 336 19 333.33335 10.333333 330 4 326 0H311C287 1.3333334 243.33335 2 180 2 157.33333 2 136.33333 2 117 2 97.666667 2 82.333339 2 71 2 59.666666 2 52.666669 1.6666668 50 1 38.666666 1 33 4 33 10 33 11.333333 34 16 36 24 39.333333 36.666669 42.666669 43.666669 46 45 48.666669 45.666669 53.666669 46 61 46H67C85 46 105 47 127 49 136.33333 51 142.66667 55 146 61 148 63.666669 172 156.33333 218 339 264 521.6667 287 618 287 628 287 632.6667 268 635.6667 230 637ZM630 554C630 575.3333 623 593.3333 609 608 595 622.6667 566.3333 632 523 636 521.6667 636 514 636 500 636 486 636 473.33335 636.3333 462 637H440C408.66667 637 390.66667 633.6667 386 627 385.33335 625 374 580.6667 352 494 330 407.3333 319 363 319 361 319 360.33335 342 360 388 360 440 360.66667 474.66667 363 492 367 534.6667 373.66667 568 393.33335 592 426 602.6667 441.33335 611.6667 461.33335 619 486 626.3333 510.66667 630 533.3333 630 554Z"/>
<path transform="matrix(.008727026,0,0,-.008964466,251.07862,230.09067)" d="M184 600C184 616 190.33333 630 203 642 215.66667 654 230.33333 660.3333 247 661 259 661 269 657 277 649 285 641 289.33335 631 290 619 290 603.6667 283.33335 589.6667 270 577 256.66667 564.3333 242 557.6667 226 557 216 557 206.66667 560.3333 198 567 189.33333 573.6667 184.66667 584.6667 184 600ZM21 287C21 292.33335 24 302.66667 30 318 36 333.33335 44 350.33335 54 369 64 387.66667 78.666667 404.66667 98 420 117.333339 435.33335 137.33333 442.66667 158 442 184 442 205.66667 434.33335 223 419 240.33333 403.66667 249.33333 383 250 357 250 345.66667 245.33333 327 236 301 226.66667 275 213.33333 240 196 196 178.66667 152 164.66667 114.333339 154 83 150.66667 68.333339 149 57.666669 149 51 149 34.333333 154.66667 26 166 26 172 26 178.33333 27 185 29 191.66667 31 199.33333 35.666669 208 43 216.66667 50.333333 225.66667 62 235 78 244.33333 94 252.66667 113.666667 260 137 262 145 263.66667 149.66667 265 151 266.33335 152.33333 272 153 282 153 295.33335 153 302 149.66667 302 143 302 137.66667 299 127.333339 293 112 287 96.666667 278.66667 79.66667 268 61 257.33335 42.333333 242.33333 25.666668 223 11 203.66667-3.666667 183-11 161-11 139.66667-11 120-4 102 10 84 24 74.666667 45.333333 74 74 74 85.333339 75.666667 96 79 106 82.333339 116 96.666667 154 122 220 147.33333 287.33335 162 327.66667 166 341 170 354.33335 172.33333 367.33335 173 380 173 396 167.33333 404 156 404H154C134 404 115.66667 393 99 371 82.33333 349 69.666667 321 61 287 60.333333 286.33335 59.666669 285.33335 59 284 58.333333 282.66667 58 281.66667 58 281 58 280.33335 57.333333 279.66667 56 279 54.666669 278.33335 53.666669 278 53 278 52.333333 278 51 278 49 278 47 278 44.333333 278 41 278H27C23 282 21 285 21 287Z"/>
<path transform="matrix(.008727026,0,0,-.008964466,251.07862,230.09067)" stroke-linecap="butt" stroke-miterlimit="4" stroke-linejoin="miter" fill="none" stroke="#000000" stroke-opacity=".0078" d="M184 600C184 616 190.33333 630 203 642 215.66667 654 230.33333 660.3333 247 661 259 661 269 657 277 649 285 641 289.33335 631 290 619 290 603.6667 283.33335 589.6667 270 577 256.66667 564.3333 242 557.6667 226 557 216 557 206.66667 560.3333 198 567 189.33333 573.6667 184.66667 584.6667 184 600ZM21 287C21 292.33335 24 302.66667 30 318 36 333.33335 44 350.33335 54 369 64 387.66667 78.666667 404.66667 98 420 117.333339 435.33335 137.33333 442.66667 158 442 184 442 205.66667 434.33335 223 419 240.33333 403.66667 249.33333 383 250 357 250 345.66667 245.33333 327 236 301 226.66667 275 213.33333 240 196 196 178.66667 152 164.66667 114.333339 154 83 150.66667 68.333339 149 57.666669 149 51 149 34.333333 154.66667 26 166 26 172 26 178.33333 27 185 29 191.66667 31 199.33333 35.666669 208 43 216.66667 50.333333 225.66667 62 235 78 244.33333 94 252.66667 113.666667 260 137 262 145 263.66667 149.66667 265 151 266.33335 152.33333 272 153 282 153 295.33335 153 302 149.66667 302 143 302 137.66667 299 127.333339 293 112 287 96.666667 278.66667 79.66667 268 61 257.33335 42.333333 242.33333 25.666668 223 11 203.66667-3.666667 183-11 161-11 139.66667-11 120-4 102 10 84 24 74.666667 45.333333 74 74 74 85.333339 75.666667 96 79 106 82.333339 116 96.666667 154 122 220 147.33333 287.33335 162 327.66667 166 341 170 354.33335 172.33333 367.33335 173 380 173 396 167.33333 404 156 404H154C134 404 115.66667 393 99 371 82.33333 349 69.666667 321 61 287 60.333333 286.33335 59.666669 285.33335 59 284 58.333333 282.66667 58 281.66667 58 281 58 280.33335 57.333333 279.66667 56 279 54.666669 278.33335 53.666669 278 53 278 52.333333 278 51 278 49 278 47 278 44.333333 278 41 278H27C23 282 21 285 21 287Z"/>
<path transform="matrix(.008727026,0,0,-.008964466,254.08063,230.09067)" d="M78 35C78 35 78 43.333333 78 60 78 76.66667 83.333339 91 94 103 104.666667 115 119 121 137 121 155.66667 121 172.33333 112.66667 187 96 201.66667 79.33333 209.33333 50 210 8 210-15.333334 207-38 201-60 195-82 188-101 180-117 172-133 163.33333-146.66667 154-158 144.66667-169.33333 136.66667-178.33333 130-185 123.333339-191.66667 119-194.66667 117-194 114.333339-194 110-191 104-185 98-179 95-174.66667 95-172 95-169.33333 98.666667-164 106-156 113.333339-148 121.666667-138 131-126 140.33333-114 149-97.333339 157-76 165-54.666666 170.33333-30.333334 173-3V9L172 8C170.66667 7.3333337 169 6.6666667 167 6 165 5.3333337 163 4.3333337 161 3 159 1.6666666 156 1 152 1 148 1 144 .6666667 140 0 122 0 107.333339 5.666666 96 17L78 35Z"/>
<path transform="matrix(.008727026,0,0,-.008964466,254.08063,230.09067)" stroke-linecap="butt" stroke-miterlimit="4" stroke-linejoin="miter" fill="none" stroke="#000000" stroke-opacity=".0078" d="M78 35C78 35 78 43.333333 78 60 78 76.66667 83.333339 91 94 103 104.666667 115 119 121 137 121 155.66667 121 172.33333 112.66667 187 96 201.66667 79.33333 209.33333 50 210 8 210-15.333334 207-38 201-60 195-82 188-101 180-117 172-133 163.33333-146.66667 154-158 144.66667-169.33333 136.66667-178.33333 130-185 123.333339-191.66667 119-194.66667 117-194 114.333339-194 110-191 104-185 98-179 95-174.66667 95-172 95-169.33333 98.666667-164 106-156 113.333339-148 121.666667-138 131-126 140.33333-114 149-97.333339 157-76 165-54.666666 170.33333-30.333334 173-3V9L172 8C170.66667 7.3333337 169 6.6666667 167 6 165 5.3333337 163 4.3333337 161 3 159 1.6666666 156 1 152 1 148 1 144 .6666667 140 0 122 0 107.333339 5.666666 96 17L78 35Z"/>
<path transform="matrix(.008727026,0,0,-.008964466,256.52424,230.09067)" d="M297 596C297 616.6667 304 632.6667 318 644 332 655.3333 346.33335 661 361 661 372.33335 661 381.66667 657.6667 389 651 396.33335 644.3333 401 635 403 623 403 604.3333 396.66667 588.6667 384 576 371.33335 563.3333 356.66667 557 340 557 328 557 318 560.3333 310 567 302 573.6667 297.66667 583.3333 297 596ZM288 376C288 395.33335 279.33335 405 262 405 247.33333 405 233.33333 401 220 393 206.66667 385 195 374.66667 185 362 175 349.33335 167 337 161 325 155 313 149.33333 302.33335 144 293L137 279C135.66667 278.33335 130.33333 278 121 278H107C103 282 101 284.66667 101 286 101 287.33335 102.333339 291.66667 105 299 119 331.66667 138.66667 362.33335 164 391 189.33333 419.66667 218.66666 436.33335 252 441 252.66667 441 255.33333 441 260 441 264.66667 441 268.66667 441.33335 272 442 288 441.33335 302.66667 438 316 432 332.66667 422.66667 345.33335 412.33335 354 401 362.66667 389.66667 367 372 367 348V332L318 133C284-.3333435 266-69.666667 264-75 252-108.333339 228.66667-138 194-164 159.33333-190 119.66667-203.33333 75-204 41.666666-204 19-197 7-183-5-169-11.333333-153.66667-12-137-12-119-5.666667-103.666667 7-91 19.666668-78.333339 35-71.666667 53-71 64.333339-71 74-74.333339 82-81 90-87.666667 94.333339-98 95-112 95-136 84.333339-154.33333 63-167 67-167.66667 71.666667-168 77-168 99.66667-168 120.33333-158.66667 139-140 157.66667-121.33333 172-99.333339 182-74L193-32C200.33333-3.333332 209 31.333333 219 72 229 112.66667 239.66667 154.33333 251 197 262.33335 239.66667 271.33335 276.66667 278 308 284.66667 339.33335 288.33335 358.33335 289 365 289 369.66667 288.66667 373.33335 288 376Z"/>
<path transform="matrix(.008727026,0,0,-.008964466,256.52424,230.09067)" stroke-linecap="butt" stroke-miterlimit="4" stroke-linejoin="miter" fill="none" stroke="#000000" stroke-opacity=".0078" d="M297 596C297 616.6667 304 632.6667 318 644 332 655.3333 346.33335 661 361 661 372.33335 661 381.66667 657.6667 389 651 396.33335 644.3333 401 635 403 623 403 604.3333 396.66667 588.6667 384 576 371.33335 563.3333 356.66667 557 340 557 328 557 318 560.3333 310 567 302 573.6667 297.66667 583.3333 297 596ZM288 376C288 395.33335 279.33335 405 262 405 247.33333 405 233.33333 401 220 393 206.66667 385 195 374.66667 185 362 175 349.33335 167 337 161 325 155 313 149.33333 302.33335 144 293L137 279C135.66667 278.33335 130.33333 278 121 278H107C103 282 101 284.66667 101 286 101 287.33335 102.333339 291.66667 105 299 119 331.66667 138.66667 362.33335 164 391 189.33333 419.66667 218.66666 436.33335 252 441 252.66667 441 255.33333 441 260 441 264.66667 441 268.66667 441.33335 272 442 288 441.33335 302.66667 438 316 432 332.66667 422.66667 345.33335 412.33335 354 401 362.66667 389.66667 367 372 367 348V332L318 133C284-.3333435 266-69.666667 264-75 252-108.333339 228.66667-138 194-164 159.33333-190 119.66667-203.33333 75-204 41.666666-204 19-197 7-183-5-169-11.333333-153.66667-12-137-12-119-5.666667-103.666667 7-91 19.666668-78.333339 35-71.666667 53-71 64.333339-71 74-74.333339 82-81 90-87.666667 94.333339-98 95-112 95-136 84.333339-154.33333 63-167 67-167.66667 71.666667-168 77-168 99.66667-168 120.33333-158.66667 139-140 157.66667-121.33333 172-99.333339 182-74L193-32C200.33333-3.333332 209 31.333333 219 72 229 112.66667 239.66667 154.33333 251 197 262.33335 239.66667 271.33335 276.66667 278 308 284.66667 339.33335 288.33335 358.33335 289 365 289 369.66667 288.66667 373.33335 288 376Z"/>
<path transform="matrix(.017454053,0,0,-.017928932,263.1219,225.50083)" d="M305 251C305-13 226.33335-213 69-349H56C47.333333-349 41.666669-348.33335 39-347 36.333333-345.66667 35-342.66667 35-338 36.333333-334.66667 44.666666-324.33335 60-307 75.333339-289.66667 91.33333-267 108-239 124.66667-211 142-176.66667 160-136 178-95.33333 192.66667-41 204 27 215.33333 95 221 169.33333 221 250 221 330.6667 215.33333 405 204 473 192.66667 541 178 595.3333 160 636 142 676.6667 124.66667 711.3333 108 740 91.33333 768.6667 75.333339 791 60 807 44.666666 823 36.333333 833.6667 35 839 35 846.3333 40 850 50 850H56 69C154.33335 778.6667 216.66666 684 256 566 288.66667 472 305 367 305 251Z"/>
<path transform="matrix(.017454053,0,0,-.017928932,263.1219,225.50083)" stroke-linecap="butt" stroke-miterlimit="4" stroke-linejoin="miter" fill="none" stroke="#000000" stroke-opacity=".0196" d="M305 251C305-13 226.33335-213 69-349H56C47.333333-349 41.666669-348.33335 39-347 36.333333-345.66667 35-342.66667 35-338 36.333333-334.66667 44.666666-324.33335 60-307 75.333339-289.66667 91.33333-267 108-239 124.66667-211 142-176.66667 160-136 178-95.33333 192.66667-41 204 27 215.33333 95 221 169.33333 221 250 221 330.6667 215.33333 405 204 473 192.66667 541 178 595.3333 160 636 142 676.6667 124.66667 711.3333 108 740 91.33333 768.6667 75.333339 791 60 807 44.666666 823 36.333333 833.6667 35 839 35 846.3333 40 850 50 850H56 69C154.33335 778.6667 216.66666 684 256 566 288.66667 472 305 367 305 251Z"/>
</g>
</g>
</svg>
