<svg xmlns="http://www.w3.org/2000/svg" xmlns:xlink="http://www.w3.org/1999/xlink" width="280.197" height="137.357" viewBox="0 0 210.148 103.018"><clipPath id="a"><path transform="matrix(.24 0 0 .24 -319.592 -473.842)" d="M0 0h3508.333v2485.819H0z" fill-rule="evenodd"/></clipPath><g clip-path="url(#a)" fill="#fff"><path d="M-319.592-473.842h842v596.597h-842z"/><path d="M-319.592-473.842h842v595.877h-842z"/></g><clipPath id="b"><path transform="matrix(.24 0 0 .24 -319.592 -473.842)" d="M0 0h3508.333v2482.82H0z" fill-rule="evenodd"/></clipPath><g clip-path="url(#b)"><path d="m11.652 58.252 188.299.201-.468 37.142-187.637-1.583" fill="#fff"/><path stroke-linecap="round" stroke-linejoin="round" fill="none" stroke="#000" d="M12.264 59.065c39.135-1.389 79.392-1.317 187.11 0m-187.11 0c43.02.943 85.315 1.554 187.11 0m0 0c-.114 9.427.397 19.92 0 35.983m0-35.983c-.057 8.73.166 15.897 0 35.983m0 0c-62.717-1.036-125.248-1.08-187.11 0m187.11 0c-42.603.122-86.61.201-187.11 0m0 0c.41-14.25-1.173-27.75 0-35.983m0 35.983c-.029-8.938.259-18.467 0-35.983" stroke-width=".71966"/></g><clipPath id="c"><path transform="matrix(.24 0 0 .24 -319.592 -473.842)" d="M1445.313 2245.933h653.69v98.953h-653.69z" fill-rule="evenodd"/></clipPath><g clip-path="url(#c)"><path d="M27.672 75.28c.012-.035.024-.082.035-.14.012-.058.041-.186.088-.383.047-.198.105-.378.175-.541.07-.163.158-.355.263-.576a1.86 1.86 0 0 1 .35-.523c.129-.128.28-.256.456-.384a.8.8 0 0 1 .578-.157c.28 0 .531.04.753.122.222.082.397.186.525.314.129.128.222.256.28.384.059.128.106.238.14.331l.036.122c0 .024.006.035.017.035l.193-.191c.712-.745 1.524-1.117 2.435-1.117.63 0 1.138.157 1.524.471.385.314.584.773.595 1.378v.175c0 .279-.373 1.866-1.12 4.761-.678 2.733-1.04 4.14-1.087 4.222-.152.314-.414.47-.788.47a.56.56 0 0 1-.385-.139.607.607 0 0 1-.193-.384c0-.104.344-1.517 1.033-4.238l1.086-4.361c.035-.174.053-.395.053-.663 0-.686-.257-1.029-.77-1.029h-.088c-1.005 0-1.851.587-2.54 1.762l-.123.21-.578 2.336c-.385 1.524-.607 2.344-.666 2.46a.778.778 0 0 1-.753.47.6.6 0 0 1-.368-.104.63.63 0 0 1-.192-.21c-.035-.069-.047-.127-.035-.174 0-.15.233-1.15.7-3 .467-1.849.701-2.878.701-3.087 0-.454-.152-.68-.455-.68-.246 0-.456.162-.631.488-.175.326-.315.68-.42 1.064-.105.384-.17.593-.193.628-.023.023-.117.035-.28.035h-.246c-.07-.07-.105-.122-.105-.157z"/><path fill="none" d="M27.672 75.28c.012-.035.024-.082.035-.14.012-.058.041-.186.088-.383.047-.198.105-.378.175-.541.07-.163.158-.355.263-.576a1.86 1.86 0 0 1 .35-.523c.129-.128.28-.256.456-.384a.8.8 0 0 1 .578-.157c.28 0 .531.04.753.122.222.082.397.186.525.314.129.128.222.256.28.384.059.128.106.238.14.331l.036.122c0 .024.006.035.017.035l.193-.191c.712-.745 1.524-1.117 2.435-1.117.63 0 1.138.157 1.524.471.385.314.584.773.595 1.378v.175c0 .279-.373 1.866-1.12 4.761-.678 2.733-1.04 4.14-1.087 4.222-.152.314-.414.47-.788.47a.56.56 0 0 1-.385-.139.607.607 0 0 1-.193-.384c0-.104.344-1.517 1.033-4.238l1.086-4.361c.035-.174.053-.395.053-.663 0-.686-.257-1.029-.77-1.029h-.088c-1.005 0-1.851.587-2.54 1.762l-.123.21-.578 2.336c-.385 1.524-.607 2.344-.666 2.46a.778.778 0 0 1-.753.47.6.6 0 0 1-.368-.104.63.63 0 0 1-.192-.21c-.035-.069-.047-.127-.035-.174 0-.15.233-1.15.7-3 .467-1.849.701-2.878.701-3.087 0-.454-.152-.68-.455-.68-.246 0-.456.162-.631.488-.175.326-.315.68-.42 1.064-.105.384-.17.593-.193.628-.023.023-.117.035-.28.035h-.246c-.07-.07-.105-.122-.105-.157z"/><path d="M38.289 75.503c0-.197.078-.37.235-.518a.82.82 0 0 1 .545-.234c.149 0 .272.05.371.148.1.098.153.222.161.37 0 .189-.082.362-.247.518a.83.83 0 0 1-.545.246.56.56 0 0 1-.347-.123c-.107-.082-.165-.218-.173-.407zm-2.019 3.86c0-.066.037-.193.112-.382.074-.19.173-.399.297-.63.124-.23.305-.439.545-.628.24-.19.487-.28.743-.271.322 0 .59.094.805.283.214.19.326.444.334.765 0 .14-.058.37-.173.69-.116.321-.281.753-.496 1.295a32.204 32.204 0 0 0-.52 1.394c-.041.18-.062.312-.062.394 0 .206.07.309.21.309a.822.822 0 0 0 .236-.037.847.847 0 0 0 .285-.173c.107-.09.219-.234.334-.431.116-.198.22-.44.31-.728a.506.506 0 0 1 .062-.173c.016-.016.087-.024.21-.024.166 0 .248.04.248.123 0 .066-.037.193-.111.382-.075.19-.178.399-.31.63-.132.23-.318.435-.557.616a1.25 1.25 0 0 1-.768.271c-.264 0-.508-.086-.73-.259-.224-.173-.34-.436-.347-.79 0-.139.02-.27.061-.394.042-.123.22-.592.533-1.406.314-.83.495-1.327.545-1.492.05-.164.078-.325.087-.48 0-.198-.07-.297-.211-.297h-.025c-.247 0-.474.136-.68.407-.207.271-.364.617-.471 1.036a.143.143 0 0 0-.025.037.094.094 0 0 0-.013.037c0 .008-.008.017-.024.025a.095.095 0 0 1-.038.012h-.322c-.049-.05-.074-.086-.074-.11z"/><path fill="none" d="M38.289 75.503c0-.197.078-.37.235-.518a.82.82 0 0 1 .545-.234c.149 0 .272.05.371.148.1.098.153.222.161.37 0 .189-.082.362-.247.518a.83.83 0 0 1-.545.246.56.56 0 0 1-.347-.123c-.107-.082-.165-.218-.173-.407zm-2.019 3.86c0-.066.037-.193.112-.382.074-.19.173-.399.297-.63.124-.23.305-.439.545-.628.24-.19.487-.28.743-.271.322 0 .59.094.805.283.214.19.326.444.334.765 0 .14-.058.37-.173.69-.116.321-.281.753-.496 1.295a32.204 32.204 0 0 0-.52 1.394c-.041.18-.062.312-.062.394 0 .206.07.309.21.309a.822.822 0 0 0 .236-.037.847.847 0 0 0 .285-.173c.107-.09.219-.234.334-.431.116-.198.22-.44.31-.728a.506.506 0 0 1 .062-.173c.016-.016.087-.024.21-.024.166 0 .248.04.248.123 0 .066-.037.193-.111.382-.075.19-.178.399-.31.63-.132.23-.318.435-.557.616a1.25 1.25 0 0 1-.768.271c-.264 0-.508-.086-.73-.259-.224-.173-.34-.436-.347-.79 0-.139.02-.27.061-.394.042-.123.22-.592.533-1.406.314-.83.495-1.327.545-1.492.05-.164.078-.325.087-.48 0-.198-.07-.297-.211-.297h-.025c-.247 0-.474.136-.68.407-.207.271-.364.617-.471 1.036a.143.143 0 0 0-.025.037.094.094 0 0 0-.013.037c0 .008-.008.017-.024.025a.095.095 0 0 1-.038.012h-.322c-.049-.05-.074-.086-.074-.11z"/><path d="M41.25 82.47v-.307a.77.77 0 0 1 .198-.53.678.678 0 0 1 .533-.223c.23 0 .437.103.619.309.182.205.277.567.285 1.085 0 .288-.037.567-.112.838a3.824 3.824 0 0 1-.26.703c-.099.198-.206.366-.322.506-.115.14-.214.25-.297.333-.083.082-.136.12-.161.11-.033 0-.087-.036-.16-.11-.075-.074-.112-.128-.112-.16 0-.033.045-.1.136-.198.09-.098.194-.222.31-.37.115-.148.222-.353.321-.616.1-.263.166-.563.199-.9v-.149l-.013.013a.482.482 0 0 1-.062.024.313.313 0 0 0-.074.037.203.203 0 0 1-.112.025c-.049 0-.099.004-.148.012a.739.739 0 0 1-.545-.21l-.223-.221z"/><path fill="none" d="M41.25 82.47v-.307a.77.77 0 0 1 .198-.53.678.678 0 0 1 .533-.223c.23 0 .437.103.619.309.182.205.277.567.285 1.085 0 .288-.037.567-.112.838a3.824 3.824 0 0 1-.26.703c-.099.198-.206.366-.322.506-.115.14-.214.25-.297.333-.083.082-.136.12-.161.11-.033 0-.087-.036-.16-.11-.075-.074-.112-.128-.112-.16 0-.033.045-.1.136-.198.09-.098.194-.222.31-.37.115-.148.222-.353.321-.616.1-.263.166-.563.199-.9v-.149l-.013.013a.482.482 0 0 1-.062.024.313.313 0 0 0-.074.037.203.203 0 0 1-.112.025c-.049 0-.099.004-.148.012a.739.739 0 0 1-.545-.21l-.223-.221z"/><path d="M47.413 75.552c0-.254.087-.452.26-.592.173-.14.35-.21.532-.21.14 0 .256.042.347.124.091.082.149.197.174.345 0 .23-.079.424-.236.58a.75.75 0 0 1-.545.234.562.562 0 0 1-.371-.123.473.473 0 0 1-.161-.358zm-.112 2.714c0-.239-.107-.358-.322-.358a.999.999 0 0 0-.52.148c-.165.099-.31.226-.433.382a2.671 2.671 0 0 0-.297.456c-.075.148-.145.28-.21.395l-.088.173a.792.792 0 0 1-.198.012h-.173c-.05-.05-.074-.082-.074-.099 0-.016.016-.07.05-.16a4.22 4.22 0 0 1 .73-1.134c.314-.354.677-.56 1.09-.617h.099a.772.772 0 0 0 .148-.012c.198.008.38.049.545.123.207.115.363.242.47.382.108.14.162.358.162.654v.197l-.607 2.454c-.421 1.645-.644 2.5-.669 2.565-.148.411-.437.777-.867 1.098-.429.32-.92.485-1.473.493-.413 0-.694-.086-.843-.259a.91.91 0 0 1-.235-.567c0-.222.079-.411.235-.567a.823.823 0 0 1 .57-.247c.14 0 .26.041.36.123.098.083.152.21.16.383 0 .296-.132.522-.396.678.05.008.107.012.173.012.281 0 .537-.115.768-.345.231-.23.409-.502.533-.814l.136-.518c.09-.353.198-.781.322-1.282a85.71 85.71 0 0 1 .396-1.542c.14-.526.252-.982.335-1.369.082-.386.128-.62.136-.703a.583.583 0 0 0-.013-.135z"/><path fill="none" d="M47.413 75.552c0-.254.087-.452.26-.592.173-.14.35-.21.532-.21.14 0 .256.042.347.124.091.082.149.197.174.345 0 .23-.079.424-.236.58a.75.75 0 0 1-.545.234.562.562 0 0 1-.371-.123.473.473 0 0 1-.161-.358zm-.112 2.714c0-.239-.107-.358-.322-.358a.999.999 0 0 0-.52.148c-.165.099-.31.226-.433.382a2.671 2.671 0 0 0-.297.456c-.075.148-.145.28-.21.395l-.088.173a.792.792 0 0 1-.198.012h-.173c-.05-.05-.074-.082-.074-.099 0-.016.016-.07.05-.16a4.22 4.22 0 0 1 .73-1.134c.314-.354.677-.56 1.09-.617h.099a.772.772 0 0 0 .148-.012c.198.008.38.049.545.123.207.115.363.242.47.382.108.14.162.358.162.654v.197l-.607 2.454c-.421 1.645-.644 2.5-.669 2.565-.148.411-.437.777-.867 1.098-.429.32-.92.485-1.473.493-.413 0-.694-.086-.843-.259a.91.91 0 0 1-.235-.567c0-.222.079-.411.235-.567a.823.823 0 0 1 .57-.247c.14 0 .26.041.36.123.098.083.152.21.16.383 0 .296-.132.522-.396.678.05.008.107.012.173.012.281 0 .537-.115.768-.345.231-.23.409-.502.533-.814l.136-.518c.09-.353.198-.781.322-1.282a85.71 85.71 0 0 1 .396-1.542c.14-.526.252-.982.335-1.369.082-.386.128-.62.136-.703a.583.583 0 0 0-.013-.135z"/><path d="M56.452 74.233c0-.15.081-.267.245-.349h11.158c.175.093.262.21.262.35 0 .127-.081.238-.245.33l-5.57.018h-5.57c-.187-.058-.28-.174-.28-.349zm0 3.384c0-.174.093-.29.28-.349h11.14c.164.117.245.233.245.35 0 .15-.087.267-.262.348H56.697c-.164-.081-.245-.198-.245-.349z"/><path fill="none" d="M56.452 74.233c0-.15.081-.267.245-.349h11.158c.175.093.262.21.262.35 0 .127-.081.238-.245.33l-5.57.018h-5.57c-.187-.058-.28-.174-.28-.349zm0 3.384c0-.174.093-.29.28-.349h11.14c.164.117.245.233.245.35 0 .15-.087.267-.262.348H56.697c-.164-.081-.245-.198-.245-.349z"/><path d="M74.686 79.484h.245c.456 0 .73-.082.824-.245v-1.081c0-.198.005-.425.017-.68a7.66 7.66 0 0 0 0-.733v-1.151c0-.407-.006-.75-.017-1.03v-.4c-.036-.221-.117-.367-.246-.437-.128-.07-.39-.122-.788-.157h-.315v-.4c0-.268.011-.402.035-.402l.175-.017c.117-.012.28-.024.49-.035l.649-.035.63-.035c.222-.012.391-.03.508-.052.117-.024.181-.03.193-.018h.052v.698c0 .442.006.663.018.663.012 0 .04-.03.087-.088l.21-.261c.094-.116.205-.221.333-.314.129-.093.298-.204.508-.332.21-.127.432-.22.666-.279.234-.058.531-.087.893-.087.175 0 .339.012.49.035.153.023.287.058.404.105.116.046.227.093.332.14.106.046.193.098.263.156.07.058.135.122.193.192l.158.192a1.076 1.076 0 0 1 .192.366.68.68 0 0 0 .053.14l.035.087.052-.07.105-.14c.035-.046.088-.11.158-.191.07-.082.146-.157.228-.227.082-.07.17-.145.263-.227.093-.081.21-.15.35-.209.14-.058.274-.116.403-.174.128-.059.28-.1.455-.123.175-.023.356-.04.543-.052 1.472 0 2.271.657 2.4 1.971.012.082.017.89.017 2.425v1.5c0 .442.012.703.035.785.024.081.088.14.193.174.245.035.531.053.858.053h.28v.802h-.14l-.402-.017a21.6 21.6 0 0 0-.894-.018c-.315 0-.537-.006-.665-.017-1.203 0-1.857.017-1.962.052h-.14v-.802h.28c.712 0 1.069-.093 1.069-.28.011-.023.017-.825.017-2.407-.012-1.57-.023-2.401-.035-2.494-.07-.326-.187-.57-.35-.733-.164-.162-.304-.261-.42-.296a1.338 1.338 0 0 0-.456-.035c-.526 0-.987.198-1.384.593-.315.314-.514.634-.595.96-.082.325-.129.808-.14 1.447V78.402c0 .349.005.582.017.698.012.116.03.192.052.227.024.034.076.07.158.104.245.035.531.053.858.053h.28v.802h-.14l-.42-.017a20.34 20.34 0 0 0-.876-.018c-.315 0-.537-.006-.665-.017-1.203 0-1.857.017-1.962.052h-.14v-.802h.28c.712 0 1.069-.093 1.069-.28.011-.023.017-.825.017-2.407-.012-1.57-.023-2.401-.035-2.494-.07-.326-.187-.57-.35-.733-.164-.162-.304-.261-.42-.296a1.338 1.338 0 0 0-.456-.035c-.526 0-.987.198-1.384.593-.315.314-.514.634-.595.96-.082.325-.129.808-.14 1.447V78.402c0 .349.005.582.017.698.012.116.03.192.052.227.024.034.076.07.158.104.245.035.531.053.858.053h.28v.802h-.14l-.402-.017a21.6 21.6 0 0 0-.894-.018c-.315 0-.537-.006-.665-.017-1.203 0-1.857.017-1.962.052h-.14v-.802h.28z"/><path fill="none" d="M74.686 79.484h.245c.456 0 .73-.082.824-.245v-1.081c0-.198.005-.425.017-.68a7.66 7.66 0 0 0 0-.733v-1.151c0-.407-.006-.75-.017-1.03v-.4c-.036-.221-.117-.367-.246-.437-.128-.07-.39-.122-.788-.157h-.315v-.4c0-.268.011-.402.035-.402l.175-.017c.117-.012.28-.024.49-.035l.649-.035.63-.035c.222-.012.391-.03.508-.052.117-.024.181-.03.193-.018h.052v.698c0 .442.006.663.018.663.012 0 .04-.03.087-.088l.21-.261c.094-.116.205-.221.333-.314.129-.093.298-.204.508-.332.21-.127.432-.22.666-.279.234-.058.531-.087.893-.087.175 0 .339.012.49.035.153.023.287.058.404.105.116.046.227.093.332.14.106.046.193.098.263.156.07.058.135.122.193.192l.158.192a1.076 1.076 0 0 1 .192.366.68.68 0 0 0 .053.14l.035.087.052-.07.105-.14c.035-.046.088-.11.158-.191.07-.082.146-.157.228-.227.082-.07.17-.145.263-.227.093-.081.21-.15.35-.209.14-.058.274-.116.403-.174.128-.059.28-.1.455-.123.175-.023.356-.04.543-.052 1.472 0 2.271.657 2.4 1.971.012.082.017.89.017 2.425v1.5c0 .442.012.703.035.785.024.081.088.14.193.174.245.035.531.053.858.053h.28v.802h-.14l-.402-.017a21.6 21.6 0 0 0-.894-.018c-.315 0-.537-.006-.665-.017-1.203 0-1.857.017-1.962.052h-.14v-.802h.28c.712 0 1.069-.093 1.069-.28.011-.023.017-.825.017-2.407-.012-1.57-.023-2.401-.035-2.494-.07-.326-.187-.57-.35-.733-.164-.162-.304-.261-.42-.296a1.338 1.338 0 0 0-.456-.035c-.526 0-.987.198-1.384.593-.315.314-.514.634-.595.96-.082.325-.129.808-.14 1.447V78.402c0 .349.005.582.017.698.012.116.03.192.052.227.024.034.076.07.158.104.245.035.531.053.858.053h.28v.802h-.14l-.42-.017a20.34 20.34 0 0 0-.876-.018c-.315 0-.537-.006-.665-.017-1.203 0-1.857.017-1.962.052h-.14v-.802h.28c.712 0 1.069-.093 1.069-.28.011-.023.017-.825.017-2.407-.012-1.57-.023-2.401-.035-2.494-.07-.326-.187-.57-.35-.733-.164-.162-.304-.261-.42-.296a1.338 1.338 0 0 0-.456-.035c-.526 0-.987.198-1.384.593-.315.314-.514.634-.595.96-.082.325-.129.808-.14 1.447V78.402c0 .349.005.582.017.698.012.116.03.192.052.227.024.034.076.07.158.104.245.035.531.053.858.053h.28v.802h-.14l-.402-.017a21.6 21.6 0 0 0-.894-.018c-.315 0-.537-.006-.665-.017-1.203 0-1.857.017-1.962.052h-.14v-.802h.28z"/><path d="M90.959 74.966h-.386a.883.883 0 0 1-.648-.262c-.175-.174-.263-.401-.263-.68 0-.407.199-.768.596-1.082.397-.314 1.104-.47 2.12-.47.852 0 1.54.186 2.066.558.526.372.876.814 1.051 1.325.059.163.088.343.088.541s.006.866.017 2.006v1.221c0 .558.03.942.088 1.151.058.21.181.314.368.314.175 0 .292-.093.35-.279.059-.186.088-.494.088-.924v-.628h.7v.68c-.011.465-.029.738-.052.82-.105.349-.31.622-.613.82a1.857 1.857 0 0 1-.964.314c-.338.011-.613-.093-.823-.314a1.67 1.67 0 0 1-.42-.733v-.07l-.035.053a.694.694 0 0 1-.088.104 2.487 2.487 0 0 0-.14.157c-.058.07-.128.134-.21.192-.082.058-.17.128-.263.21a1.09 1.09 0 0 1-.315.191 7.031 7.031 0 0 1-.386.14c-.14.046-.292.081-.455.105a6.63 6.63 0 0 1-.543.052c-.7 0-1.331-.18-1.892-.54-.56-.361-.84-.867-.84-1.518 0-.245.04-.477.122-.698.082-.221.24-.46.473-.715.234-.256.514-.471.84-.646.328-.174.783-.337 1.367-.488a8.86 8.86 0 0 1 1.927-.262h.245v-.384c0-.395-.035-.686-.105-.872-.257-.825-.823-1.238-1.7-1.238-.21 0-.408.006-.595.017a1.805 1.805 0 0 0-.438.07c-.105.035-.151.052-.14.052.257.175.386.43.386.768 0 .29-.094.517-.28.68l-.298.262zm-.193 3.471c0 .36.14.68.42.96.28.278.625.424 1.034.435a1.84 1.84 0 0 0 1.173-.4c.339-.268.567-.617.684-1.047.023-.082.04-.465.052-1.152 0-.674-.006-1.011-.017-1.011-.094 0-.216.006-.368.017a5.627 5.627 0 0 0-.789.157c-.373.093-.712.21-1.015.349-.304.14-.573.355-.806.645a1.7 1.7 0 0 0-.368 1.047z"/><path fill="none" d="M90.959 74.966h-.386a.883.883 0 0 1-.648-.262c-.175-.174-.263-.401-.263-.68 0-.407.199-.768.596-1.082.397-.314 1.104-.47 2.12-.47.852 0 1.54.186 2.066.558.526.372.876.814 1.051 1.325.059.163.088.343.088.541s.006.866.017 2.006v1.221c0 .558.03.942.088 1.151.058.21.181.314.368.314.175 0 .292-.093.35-.279.059-.186.088-.494.088-.924v-.628h.7v.68c-.011.465-.029.738-.052.82-.105.349-.31.622-.613.82a1.857 1.857 0 0 1-.964.314c-.338.011-.613-.093-.823-.314a1.67 1.67 0 0 1-.42-.733v-.07l-.035.053a.694.694 0 0 1-.088.104 2.487 2.487 0 0 0-.14.157c-.058.07-.128.134-.21.192-.082.058-.17.128-.263.21a1.09 1.09 0 0 1-.315.191 7.031 7.031 0 0 1-.386.14c-.14.046-.292.081-.455.105a6.63 6.63 0 0 1-.543.052c-.7 0-1.331-.18-1.892-.54-.56-.361-.84-.867-.84-1.518 0-.245.04-.477.122-.698.082-.221.24-.46.473-.715.234-.256.514-.471.84-.646.328-.174.783-.337 1.367-.488a8.86 8.86 0 0 1 1.927-.262h.245v-.384c0-.395-.035-.686-.105-.872-.257-.825-.823-1.238-1.7-1.238-.21 0-.408.006-.595.017a1.805 1.805 0 0 0-.438.07c-.105.035-.151.052-.14.052.257.175.386.43.386.768 0 .29-.094.517-.28.68l-.298.262zm-.193 3.471c0 .36.14.68.42.96.28.278.625.424 1.034.435a1.84 1.84 0 0 0 1.173-.4c.339-.268.567-.617.684-1.047.023-.082.04-.465.052-1.152 0-.674-.006-1.011-.017-1.011-.094 0-.216.006-.368.017a5.627 5.627 0 0 0-.789.157c-.373.093-.712.21-1.015.349-.304.14-.573.355-.806.645a1.7 1.7 0 0 0-.368 1.047z"/><path d="M100.855 80.286c-.14-.035-.718-.052-1.734-.052-.887 0-1.384.017-1.489.052h-.105v-.802h.245c.27-.012.514-.047.736-.105.222-.058.391-.11.508-.157a1.7 1.7 0 0 0 .438-.297c.175-.15.28-.255.315-.314.035-.058.158-.209.368-.453.21-.244.327-.407.35-.488l.806-1.047-1.016-1.36a39.213 39.213 0 0 0-.333-.472 5.605 5.605 0 0 0-.28-.366 2.162 2.162 0 0 1-.192-.262 1.21 1.21 0 0 0-.158-.209.847.847 0 0 1-.105-.122.38.38 0 0 0-.123-.105.385.385 0 0 0-.105-.052.49.49 0 0 1-.105-.035.405.405 0 0 0-.14-.035c-.07 0-.28-.011-.63-.035h-.491v-.802h.122c.42.023 1.022.035 1.805.035 1.086 0 1.687-.012 1.804-.035h.14v.802c-.42.047-.63.14-.63.28 0 .023.058.116.174.279.117.162.28.383.491.662.21.28.38.518.508.716l.07.07.438-.594c.374-.476.56-.79.56-.942a.51.51 0 0 0-.035-.192.255.255 0 0 0-.087-.122.574.574 0 0 1-.088-.07.376.376 0 0 0-.122-.07l-.053-.017h-.088v-.802h.123c.175.035.753.052 1.734.052.923 0 1.419-.017 1.49-.052h.104v.802h-.122c-.573 0-1.046.1-1.42.297-.198.093-.396.25-.595.47-.198.222-.578.71-1.138 1.466l-.28.366 1.085 1.483c.771 1.047 1.186 1.593 1.244 1.64a.812.812 0 0 0 .298.122c.21.046.52.07.928.07h.298v.802h-.245a2.917 2.917 0 0 0-.35-.017 5.74 5.74 0 0 1-.438-.018 2.752 2.752 0 0 0-.438 0 .844.844 0 0 1-.316-.017h-.648c-.303 0-.595.011-.876.035l-.402.017h-.158v-.802h.052c.129 0 .257-.03.386-.088.128-.058.192-.128.192-.209 0-.023-.233-.355-.7-.994l-.718-.96c-.012.012-.193.256-.543.733-.35.477-.55.738-.596.785a.38.38 0 0 0-.07.244c0 .128.04.239.123.332a.459.459 0 0 0 .315.157c.023 0 .035.133.035.4v.402h-.123z"/><path fill="none" d="M100.855 80.286c-.14-.035-.718-.052-1.734-.052-.887 0-1.384.017-1.489.052h-.105v-.802h.245c.27-.012.514-.047.736-.105.222-.058.391-.11.508-.157a1.7 1.7 0 0 0 .438-.297c.175-.15.28-.255.315-.314.035-.058.158-.209.368-.453.21-.244.327-.407.35-.488l.806-1.047-1.016-1.36a39.213 39.213 0 0 0-.333-.472 5.605 5.605 0 0 0-.28-.366 2.162 2.162 0 0 1-.192-.262 1.21 1.21 0 0 0-.158-.209.847.847 0 0 1-.105-.122.38.38 0 0 0-.123-.105.385.385 0 0 0-.105-.052.49.49 0 0 1-.105-.035.405.405 0 0 0-.14-.035c-.07 0-.28-.011-.63-.035h-.491v-.802h.122c.42.023 1.022.035 1.805.035 1.086 0 1.687-.012 1.804-.035h.14v.802c-.42.047-.63.14-.63.28 0 .023.058.116.174.279.117.162.28.383.491.662.21.28.38.518.508.716l.07.07.438-.594c.374-.476.56-.79.56-.942a.51.51 0 0 0-.035-.192.255.255 0 0 0-.087-.122.574.574 0 0 1-.088-.07.376.376 0 0 0-.122-.07l-.053-.017h-.088v-.802h.123c.175.035.753.052 1.734.052.923 0 1.419-.017 1.49-.052h.104v.802h-.122c-.573 0-1.046.1-1.42.297-.198.093-.396.25-.595.47-.198.222-.578.71-1.138 1.466l-.28.366 1.085 1.483c.771 1.047 1.186 1.593 1.244 1.64a.812.812 0 0 0 .298.122c.21.046.52.07.928.07h.298v.802h-.245a2.917 2.917 0 0 0-.35-.017 5.74 5.74 0 0 1-.438-.018 2.752 2.752 0 0 0-.438 0 .844.844 0 0 1-.316-.017h-.648c-.303 0-.595.011-.876.035l-.402.017h-.158v-.802h.052c.129 0 .257-.03.386-.088.128-.058.192-.128.192-.209 0-.023-.233-.355-.7-.994l-.718-.96c-.012.012-.193.256-.543.733-.35.477-.55.738-.596.785a.38.38 0 0 0-.07.244c0 .128.04.239.123.332a.459.459 0 0 0 .315.157c.023 0 .035.133.035.4v.402h-.123z"/><path d="M114.185 84.315c0 .151-.035.262-.105.332h-.315c-1.507 0-2.558-.384-3.153-1.151a3.24 3.24 0 0 1-.14-.21.962.962 0 0 1-.088-.192 5.463 5.463 0 0 1-.07-.226.945.945 0 0 1-.035-.262c0-.093-.006-.221-.017-.384a6.588 6.588 0 0 1-.018-.47V79.36c-.012-1.034-.04-1.616-.088-1.744-.011-.011-.017-.023-.017-.035a1.877 1.877 0 0 0-.876-.977c-.42-.232-.835-.348-1.244-.348-.128 0-.21-.018-.245-.053s-.052-.128-.052-.279c0-.151.017-.244.052-.279.035-.035.117-.052.245-.052.398 0 .806-.116 1.227-.35.42-.232.718-.557.893-.976.058-.128.088-.314.088-.558 0-.244.005-1.128.017-2.651v-.873c0-.64.035-1.087.105-1.343.07-.255.24-.5.508-.732.304-.303.77-.547 1.401-.733.432-.093.742-.145.929-.157h.228c.128 0 .233-.006.315-.017h.35c.07.07.105.174.105.314 0 .15-.017.244-.052.279-.024.035-.117.052-.28.052-.62.035-1.104.175-1.454.419-.35.244-.561.488-.631.732-.058.151-.088 1.012-.088 2.582v1.43c0 .547-.017.919-.052 1.117-.035.197-.134.424-.298.68-.362.5-.87.843-1.524 1.029l-.245.087.245.087c.21.07.42.157.63.262.21.105.456.302.736.593.28.29.444.634.49 1.03.013.07.018.86.018 2.372 0 1.57.03 2.43.088 2.581.117.314.368.576.753.785.386.21.83.331 1.331.366.164 0 .257.018.28.053.036.035.053.122.053.261z"/><path fill="none" d="M114.185 84.315c0 .151-.035.262-.105.332h-.315c-1.507 0-2.558-.384-3.153-1.151a3.24 3.24 0 0 1-.14-.21.962.962 0 0 1-.088-.192 5.463 5.463 0 0 1-.07-.226.945.945 0 0 1-.035-.262c0-.093-.006-.221-.017-.384a6.588 6.588 0 0 1-.018-.47V79.36c-.012-1.034-.04-1.616-.088-1.744-.011-.011-.017-.023-.017-.035a1.877 1.877 0 0 0-.876-.977c-.42-.232-.835-.348-1.244-.348-.128 0-.21-.018-.245-.053s-.052-.128-.052-.279c0-.151.017-.244.052-.279.035-.035.117-.052.245-.052.398 0 .806-.116 1.227-.35.42-.232.718-.557.893-.976.058-.128.088-.314.088-.558 0-.244.005-1.128.017-2.651v-.873c0-.64.035-1.087.105-1.343.07-.255.24-.5.508-.732.304-.303.77-.547 1.401-.733.432-.093.742-.145.929-.157h.228c.128 0 .233-.006.315-.017h.35c.07.07.105.174.105.314 0 .15-.017.244-.052.279-.024.035-.117.052-.28.052-.62.035-1.104.175-1.454.419-.35.244-.561.488-.631.732-.058.151-.088 1.012-.088 2.582v1.43c0 .547-.017.919-.052 1.117-.035.197-.134.424-.298.68-.362.5-.87.843-1.524 1.029l-.245.087.245.087c.21.07.42.157.63.262.21.105.456.302.736.593.28.29.444.634.49 1.03.013.07.018.86.018 2.372 0 1.57.03 2.43.088 2.581.117.314.368.576.753.785.386.21.83.331 1.331.366.164 0 .257.018.28.053.036.035.053.122.053.261z"/><path d="M115.727 75.28c.011-.035.023-.082.035-.14.011-.058.04-.186.087-.383.047-.198.105-.378.175-.541.07-.163.158-.355.263-.576a1.86 1.86 0 0 1 .35-.523c.129-.128.28-.256.456-.384a.8.8 0 0 1 .578-.157c.28 0 .531.04.753.122.222.082.397.186.526.314.128.128.222.256.28.384.058.128.105.238.14.331l.035.122c0 .024.006.035.018.035l.192-.191c.713-.745 1.524-1.117 2.435-1.117.63 0 1.139.157 1.524.471.385.314.584.773.596 1.378v.175c0 .279-.374 1.866-1.122 4.761-.677 2.733-1.039 4.14-1.086 4.222-.151.314-.414.47-.788.47a.56.56 0 0 1-.385-.139.607.607 0 0 1-.193-.384c0-.104.345-1.517 1.034-4.238l1.086-4.361c.035-.174.052-.395.052-.663 0-.686-.257-1.029-.77-1.029h-.088c-1.004 0-1.851.587-2.54 1.762l-.123.21-.578 2.336c-.385 1.524-.607 2.344-.665 2.46a.778.778 0 0 1-.753.47.6.6 0 0 1-.368-.104.63.63 0 0 1-.193-.21c-.035-.069-.047-.127-.035-.174 0-.15.234-1.15.7-3 .468-1.849.701-2.878.701-3.087 0-.454-.151-.68-.455-.68-.245 0-.456.162-.63.488-.176.326-.316.68-.421 1.064-.105.384-.17.593-.193.628-.023.023-.117.035-.28.035h-.245c-.07-.07-.105-.122-.105-.157z"/><path fill="none" d="M115.727 75.28c.011-.035.023-.082.035-.14.011-.058.04-.186.087-.383.047-.198.105-.378.175-.541.07-.163.158-.355.263-.576a1.86 1.86 0 0 1 .35-.523c.129-.128.28-.256.456-.384a.8.8 0 0 1 .578-.157c.28 0 .531.04.753.122.222.082.397.186.526.314.128.128.222.256.28.384.058.128.105.238.14.331l.035.122c0 .024.006.035.018.035l.192-.191c.713-.745 1.524-1.117 2.435-1.117.63 0 1.139.157 1.524.471.385.314.584.773.596 1.378v.175c0 .279-.374 1.866-1.122 4.761-.677 2.733-1.039 4.14-1.086 4.222-.151.314-.414.47-.788.47a.56.56 0 0 1-.385-.139.607.607 0 0 1-.193-.384c0-.104.345-1.517 1.034-4.238l1.086-4.361c.035-.174.052-.395.052-.663 0-.686-.257-1.029-.77-1.029h-.088c-1.004 0-1.851.587-2.54 1.762l-.123.21-.578 2.336c-.385 1.524-.607 2.344-.665 2.46a.778.778 0 0 1-.753.47.6.6 0 0 1-.368-.104.63.63 0 0 1-.193-.21c-.035-.069-.047-.127-.035-.174 0-.15.234-1.15.7-3 .468-1.849.701-2.878.701-3.087 0-.454-.151-.68-.455-.68-.245 0-.456.162-.63.488-.176.326-.316.68-.421 1.064-.105.384-.17.593-.193.628-.023.023-.117.035-.28.035h-.245c-.07-.07-.105-.122-.105-.157z"/><path d="M125.059 66.758c0-.23.074-.411.223-.543a.793.793 0 0 1 .545-.197c.19.016.355.086.495.21.14.123.21.3.21.53 0 .246-.07.431-.21.555a.76.76 0 0 1-.52.185.76.76 0 0 1-.52-.185c-.14-.124-.215-.309-.223-.555zm2.204 7.51c-.123-.025-.553-.037-1.288-.037h-.458c-.214 0-.42.008-.619.025l-.272.012h-.1v-.567h.199c.23 0 .433-.013.606-.037.075-.033.12-.078.137-.136.016-.057.024-.23.024-.518v-2.355c0-.428-.008-.7-.024-.814a.277.277 0 0 0-.174-.234c-.115-.058-.31-.087-.582-.087h-.136v-.283c0-.19.008-.284.025-.284l.124-.012c.082-.009.198-.017.346-.025l.446-.025.446-.024c.157-.009.277-.021.36-.037.082-.017.127-.021.135-.013h.038v4.687c.04.082.09.131.148.147.058.017.202.033.434.05h.284v.567h-.099z"/><path fill="none" d="M125.059 66.758c0-.23.074-.411.223-.543a.793.793 0 0 1 .545-.197c.19.016.355.086.495.21.14.123.21.3.21.53 0 .246-.07.431-.21.555a.76.76 0 0 1-.52.185.76.76 0 0 1-.52-.185c-.14-.124-.215-.309-.223-.555zm2.204 7.51c-.123-.025-.553-.037-1.288-.037h-.458c-.214 0-.42.008-.619.025l-.272.012h-.1v-.567h.199c.23 0 .433-.013.606-.037.075-.033.12-.078.137-.136.016-.057.024-.23.024-.518v-2.355c0-.428-.008-.7-.024-.814a.277.277 0 0 0-.174-.234c-.115-.058-.31-.087-.582-.087h-.136v-.283c0-.19.008-.284.025-.284l.124-.012c.082-.009.198-.017.346-.025l.446-.025.446-.024c.157-.009.277-.021.36-.037.082-.017.127-.021.135-.013h.038v4.687c.04.082.09.131.148.147.058.017.202.033.434.05h.284v.567h-.099z"/><path d="M128.145 73.7h.174c.322 0 .516-.057.582-.172v-.764c0-.14.004-.3.012-.481.009-.181.009-.354 0-.518v-.814c0-.288-.004-.53-.012-.728v-.284c-.025-.156-.083-.258-.173-.308-.091-.05-.277-.086-.558-.11h-.223v-.284c0-.19.009-.284.025-.284l.124-.012c.082-.009.198-.017.347-.025a158.05 158.05 0 0 1 .904-.05c.157-.008.276-.02.359-.036.082-.017.128-.021.136-.013h.037v.494c0 .312.004.468.013.468.008 0 .029-.02.062-.061l.148-.185a1.21 1.21 0 0 1 .235-.222c.091-.066.211-.144.36-.235.148-.09.305-.156.47-.197a2.68 2.68 0 0 1 .632-.062c.94.033 1.465.498 1.573 1.394.008.057.012.629.012 1.714v1.06c0 .313.008.498.025.555.016.058.062.1.136.124.173.024.376.037.607.037h.198v.567h-.1l-.296-.012a14.38 14.38 0 0 0-.62-.013c-.223 0-.38-.004-.47-.012-.85 0-1.313.012-1.387.037h-.1v-.567h.199c.503 0 .755-.066.755-.197.009-.017.013-.584.013-1.702-.009-1.11-.017-1.698-.025-1.764-.05-.23-.132-.403-.248-.518-.115-.115-.214-.185-.297-.21a.946.946 0 0 0-.322-.024c-.372 0-.698.14-.978.42-.223.221-.364.447-.421.677-.058.23-.091.572-.1 1.024v1.53c0 .246.005.41.013.493.008.082.02.135.037.16.017.024.054.05.112.074.173.024.375.037.606.037h.198v.567h-.099l-.284-.012a15.272 15.272 0 0 0-.632-.013c-.223 0-.38-.004-.47-.012-.851 0-1.313.012-1.388.037h-.099v-.567h.198z"/><path fill="none" d="M128.145 73.7h.174c.322 0 .516-.057.582-.172v-.764c0-.14.004-.3.012-.481.009-.181.009-.354 0-.518v-.814c0-.288-.004-.53-.012-.728v-.284c-.025-.156-.083-.258-.173-.308-.091-.05-.277-.086-.558-.11h-.223v-.284c0-.19.009-.284.025-.284l.124-.012c.082-.009.198-.017.347-.025a158.05 158.05 0 0 1 .904-.05c.157-.008.276-.02.359-.036.082-.017.128-.021.136-.013h.037v.494c0 .312.004.468.013.468.008 0 .029-.02.062-.061l.148-.185a1.21 1.21 0 0 1 .235-.222c.091-.066.211-.144.36-.235.148-.09.305-.156.47-.197a2.68 2.68 0 0 1 .632-.062c.94.033 1.465.498 1.573 1.394.008.057.012.629.012 1.714v1.06c0 .313.008.498.025.555.016.058.062.1.136.124.173.024.376.037.607.037h.198v.567h-.1l-.296-.012a14.38 14.38 0 0 0-.62-.013c-.223 0-.38-.004-.47-.012-.85 0-1.313.012-1.387.037h-.1v-.567h.199c.503 0 .755-.066.755-.197.009-.017.013-.584.013-1.702-.009-1.11-.017-1.698-.025-1.764-.05-.23-.132-.403-.248-.518-.115-.115-.214-.185-.297-.21a.946.946 0 0 0-.322-.024c-.372 0-.698.14-.978.42-.223.221-.364.447-.421.677-.058.23-.091.572-.1 1.024v1.53c0 .246.005.41.013.493.008.082.02.135.037.16.017.024.054.05.112.074.173.024.375.037.606.037h.198v.567h-.099l-.284-.012a15.272 15.272 0 0 0-.632-.013c-.223 0-.38-.004-.47-.012-.851 0-1.313.012-1.388.037h-.099v-.567h.198z"/><path d="M135.047 73.7h.173c.322 0 .516-.057.582-.172v-.764c0-.14.004-.3.013-.481.008-.181.008-.354 0-.518v-.814c0-.288-.004-.53-.013-.728v-.284c-.024-.156-.082-.258-.173-.308-.09-.05-.277-.086-.557-.11h-.223v-.284c0-.19.008-.284.024-.284l.124-.012c.083-.009.198-.017.347-.025a158.05 158.05 0 0 1 .904-.05c.157-.008.277-.02.36-.036.082-.017.127-.021.135-.013h.038v.494c0 .312.004.468.012.468s.029-.02.062-.061l.149-.185a1.21 1.21 0 0 1 .235-.222c.09-.066.21-.144.359-.235.149-.09.305-.156.47-.197a2.68 2.68 0 0 1 .632-.062c.941.033 1.466.498 1.573 1.394.008.057.012.629.012 1.714v1.06c0 .313.009.498.025.555.017.058.062.1.136.124.174.024.376.037.607.037h.198v.567h-.099l-.297-.012a14.38 14.38 0 0 0-.62-.013c-.222 0-.379-.004-.47-.012-.85 0-1.313.012-1.387.037h-.099v-.567h.198c.504 0 .756-.066.756-.197.008-.017.012-.584.012-1.702-.008-1.11-.016-1.698-.025-1.764-.05-.23-.132-.403-.247-.518-.116-.115-.215-.185-.298-.21a.946.946 0 0 0-.322-.024c-.371 0-.697.14-.978.42-.223.221-.363.447-.421.677-.058.23-.09.572-.1 1.024v1.53c0 .246.005.41.013.493.009.082.021.135.037.16.017.024.054.05.112.074.173.024.376.037.607.037h.198v.567h-.1l-.284-.012a15.272 15.272 0 0 0-.632-.013c-.223 0-.38-.004-.47-.012-.85 0-1.313.012-1.387.037h-.1v-.567h.199z"/><path fill="none" d="M135.047 73.7h.173c.322 0 .516-.057.582-.172v-.764c0-.14.004-.3.013-.481.008-.181.008-.354 0-.518v-.814c0-.288-.004-.53-.013-.728v-.284c-.024-.156-.082-.258-.173-.308-.09-.05-.277-.086-.557-.11h-.223v-.284c0-.19.008-.284.024-.284l.124-.012c.083-.009.198-.017.347-.025a158.05 158.05 0 0 1 .904-.05c.157-.008.277-.02.36-.036.082-.017.127-.021.135-.013h.038v.494c0 .312.004.468.012.468s.029-.02.062-.061l.149-.185a1.21 1.21 0 0 1 .235-.222c.09-.066.21-.144.359-.235.149-.09.305-.156.47-.197a2.68 2.68 0 0 1 .632-.062c.941.033 1.466.498 1.573 1.394.008.057.012.629.012 1.714v1.06c0 .313.009.498.025.555.017.058.062.1.136.124.174.024.376.037.607.037h.198v.567h-.099l-.297-.012a14.38 14.38 0 0 0-.62-.013c-.222 0-.379-.004-.47-.012-.85 0-1.313.012-1.387.037h-.099v-.567h.198c.504 0 .756-.066.756-.197.008-.017.012-.584.012-1.702-.008-1.11-.016-1.698-.025-1.764-.05-.23-.132-.403-.247-.518-.116-.115-.215-.185-.298-.21a.946.946 0 0 0-.322-.024c-.371 0-.697.14-.978.42-.223.221-.363.447-.421.677-.058.23-.09.572-.1 1.024v1.53c0 .246.005.41.013.493.009.082.021.135.037.16.017.024.054.05.112.074.173.024.376.037.607.037h.198v.567h-.1l-.284-.012a15.272 15.272 0 0 0-.632-.013c-.223 0-.38-.004-.47-.012-.85 0-1.313.012-1.387.037h-.1v-.567h.199z"/><path d="M126.343 78.19c0-.198.078-.37.235-.519a.82.82 0 0 1 .545-.234c.149 0 .273.05.372.148.099.099.152.222.16.37 0 .19-.082.362-.247.518a.83.83 0 0 1-.545.247.56.56 0 0 1-.347-.124c-.107-.082-.165-.218-.173-.407zm-2.019 3.86c0-.066.038-.194.112-.383.074-.19.173-.399.297-.629.124-.23.306-.44.545-.629.24-.189.487-.28.743-.271.322 0 .59.094.805.283.215.19.326.444.334.765 0 .14-.057.37-.173.69-.116.321-.28.753-.495 1.296a32.204 32.204 0 0 0-.52 1.393c-.042.18-.062.312-.062.395 0 .205.07.308.21.308a.822.822 0 0 0 .235-.037.847.847 0 0 0 .285-.173c.108-.09.219-.234.335-.431.115-.198.218-.44.31-.728a.506.506 0 0 1 .061-.173c.017-.016.087-.024.21-.024.166 0 .248.04.248.123 0 .066-.037.193-.111.382-.074.19-.178.4-.31.63-.132.23-.318.435-.557.616a1.25 1.25 0 0 1-.768.271c-.264 0-.508-.086-.73-.259-.223-.172-.339-.435-.347-.789 0-.14.02-.271.062-.395.041-.123.219-.592.532-1.405.314-.83.496-1.328.545-1.493.05-.164.079-.324.087-.48 0-.198-.07-.297-.21-.297h-.025c-.248 0-.475.136-.682.407-.206.272-.363.617-.47 1.036a.143.143 0 0 0-.025.037.094.094 0 0 0-.012.037c0 .009-.009.017-.025.025a.095.095 0 0 1-.037.012h-.322c-.05-.049-.075-.086-.075-.11z"/><path fill="none" d="M126.343 78.19c0-.198.078-.37.235-.519a.82.82 0 0 1 .545-.234c.149 0 .273.05.372.148.099.099.152.222.16.37 0 .19-.082.362-.247.518a.83.83 0 0 1-.545.247.56.56 0 0 1-.347-.124c-.107-.082-.165-.218-.173-.407zm-2.019 3.86c0-.066.038-.194.112-.383.074-.19.173-.399.297-.629.124-.23.306-.44.545-.629.24-.189.487-.28.743-.271.322 0 .59.094.805.283.215.19.326.444.334.765 0 .14-.057.37-.173.69-.116.321-.28.753-.495 1.296a32.204 32.204 0 0 0-.52 1.393c-.042.18-.062.312-.062.395 0 .205.07.308.21.308a.822.822 0 0 0 .235-.037.847.847 0 0 0 .285-.173c.108-.09.219-.234.335-.431.115-.198.218-.44.31-.728a.506.506 0 0 1 .061-.173c.017-.016.087-.024.21-.024.166 0 .248.04.248.123 0 .066-.037.193-.111.382-.074.19-.178.4-.31.63-.132.23-.318.435-.557.616a1.25 1.25 0 0 1-.768.271c-.264 0-.508-.086-.73-.259-.223-.172-.339-.435-.347-.789 0-.14.02-.271.062-.395.041-.123.219-.592.532-1.405.314-.83.496-1.328.545-1.493.05-.164.079-.324.087-.48 0-.198-.07-.297-.21-.297h-.025c-.248 0-.475.136-.682.407-.206.272-.363.617-.47 1.036a.143.143 0 0 0-.025.037.094.094 0 0 0-.012.037c0 .009-.009.017-.025.025a.095.095 0 0 1-.037.012h-.322c-.05-.049-.075-.086-.075-.11z"/><path d="M129.304 85.157v-.308a.77.77 0 0 1 .198-.53.678.678 0 0 1 .533-.223c.231 0 .438.103.62.309.18.205.276.567.284 1.085 0 .288-.037.567-.111.839a3.824 3.824 0 0 1-.26.703c-.1.197-.207.365-.323.505-.115.14-.214.25-.297.333-.082.082-.136.12-.16.111-.034 0-.087-.037-.162-.11-.074-.075-.111-.128-.111-.161s.045-.099.136-.198c.09-.098.194-.222.31-.37.115-.147.223-.353.322-.616s.165-.563.198-.9v-.148l-.013.012a.482.482 0 0 1-.062.025.313.313 0 0 0-.074.037.203.203 0 0 1-.111.024c-.05 0-.1.004-.149.013a.739.739 0 0 1-.545-.21l-.223-.222z"/><path fill="none" d="M129.304 85.157v-.308a.77.77 0 0 1 .198-.53.678.678 0 0 1 .533-.223c.231 0 .438.103.62.309.18.205.276.567.284 1.085 0 .288-.037.567-.111.839a3.824 3.824 0 0 1-.26.703c-.1.197-.207.365-.323.505-.115.14-.214.25-.297.333-.082.082-.136.12-.16.111-.034 0-.087-.037-.162-.11-.074-.075-.111-.128-.111-.161s.045-.099.136-.198c.09-.098.194-.222.31-.37.115-.147.223-.353.322-.616s.165-.563.198-.9v-.148l-.013.012a.482.482 0 0 1-.062.025.313.313 0 0 0-.074.037.203.203 0 0 1-.111.024c-.05 0-.1.004-.149.013a.739.739 0 0 1-.545-.21l-.223-.222z"/><path d="M135.467 78.239c0-.255.087-.453.26-.592.174-.14.351-.21.533-.21.14 0 .256.041.346.123.091.083.15.198.174.346 0 .23-.079.423-.235.58a.75.75 0 0 1-.545.234.562.562 0 0 1-.372-.124.473.473 0 0 1-.16-.357zm-.111 2.713c0-.239-.108-.358-.322-.358a.999.999 0 0 0-.52.148c-.166.099-.31.226-.434.382a2.671 2.671 0 0 0-.297.457c-.074.148-.145.28-.21.394l-.087.173a.792.792 0 0 1-.198.012h-.174c-.05-.049-.074-.082-.074-.098 0-.017.016-.07.05-.16a4.22 4.22 0 0 1 .73-1.135c.314-.354.677-.56 1.09-.617h.099a.772.772 0 0 0 .149-.012c.198.008.38.05.544.123.207.115.364.243.471.382.107.14.161.358.161.654v.197l-.607 2.454c-.42 1.645-.644 2.5-.669 2.566-.148.41-.437.776-.866 1.097-.43.32-.921.485-1.474.493-.413 0-.694-.086-.842-.259a.91.91 0 0 1-.236-.567c0-.222.079-.41.236-.567a.823.823 0 0 1 .57-.247c.14 0 .26.041.359.124.099.082.152.21.16.382 0 .296-.132.522-.396.678.05.008.108.012.174.012.28 0 .536-.115.767-.345.232-.23.41-.501.533-.814l.136-.518c.091-.353.198-.78.322-1.282a85.71 85.71 0 0 1 .396-1.542c.14-.526.252-.982.335-1.369.082-.386.128-.62.136-.703a.583.583 0 0 0-.012-.135z"/><path fill="none" d="M135.467 78.239c0-.255.087-.453.26-.592.174-.14.351-.21.533-.21.14 0 .256.041.346.123.091.083.15.198.174.346 0 .23-.079.423-.235.58a.75.75 0 0 1-.545.234.562.562 0 0 1-.372-.124.473.473 0 0 1-.16-.357zm-.111 2.713c0-.239-.108-.358-.322-.358a.999.999 0 0 0-.52.148c-.166.099-.31.226-.434.382a2.671 2.671 0 0 0-.297.457c-.074.148-.145.28-.21.394l-.087.173a.792.792 0 0 1-.198.012h-.174c-.05-.049-.074-.082-.074-.098 0-.017.016-.07.05-.16a4.22 4.22 0 0 1 .73-1.135c.314-.354.677-.56 1.09-.617h.099a.772.772 0 0 0 .149-.012c.198.008.38.05.544.123.207.115.364.243.471.382.107.14.161.358.161.654v.197l-.607 2.454c-.42 1.645-.644 2.5-.669 2.566-.148.41-.437.776-.866 1.097-.43.32-.921.485-1.474.493-.413 0-.694-.086-.842-.259a.91.91 0 0 1-.236-.567c0-.222.079-.41.236-.567a.823.823 0 0 1 .57-.247c.14 0 .26.041.359.124.099.082.152.21.16.382 0 .296-.132.522-.396.678.05.008.108.012.174.012.28 0 .536-.115.767-.345.232-.23.41-.501.533-.814l.136-.518c.091-.353.198-.78.322-1.282a85.71 85.71 0 0 1 .396-1.542c.14-.526.252-.982.335-1.369.082-.386.128-.62.136-.703a.583.583 0 0 0-.012-.135z"/><path d="M144.558 79.675v-.436c0-.29.094-.54.28-.75.188-.209.439-.314.754-.314.327 0 .619.146.876.436.257.291.39.803.403 1.535 0 .407-.053.803-.158 1.187a5.409 5.409 0 0 1-.368.994 3.78 3.78 0 0 1-.455.715 6.784 6.784 0 0 1-.42.47c-.117.117-.193.17-.228.158-.047 0-.123-.052-.228-.157-.105-.105-.158-.18-.158-.227 0-.046.064-.14.193-.279.128-.14.274-.314.438-.523.163-.21.315-.5.455-.872s.234-.797.28-1.274v-.209l-.017.017a.681.681 0 0 1-.088.035.443.443 0 0 0-.105.053.288.288 0 0 1-.157.035c-.07 0-.14.005-.21.017-.316 0-.573-.099-.771-.297l-.316-.314z"/><path fill="none" d="M144.558 79.675v-.436c0-.29.094-.54.28-.75.188-.209.439-.314.754-.314.327 0 .619.146.876.436.257.291.39.803.403 1.535 0 .407-.053.803-.158 1.187a5.409 5.409 0 0 1-.368.994 3.78 3.78 0 0 1-.455.715 6.784 6.784 0 0 1-.42.47c-.117.117-.193.17-.228.158-.047 0-.123-.052-.228-.157-.105-.105-.158-.18-.158-.227 0-.046.064-.14.193-.279.128-.14.274-.314.438-.523.163-.21.315-.5.455-.872s.234-.797.28-1.274v-.209l-.017.017a.681.681 0 0 1-.088.035.443.443 0 0 0-.105.053.288.288 0 0 1-.157.035c-.07 0-.14.005-.21.017-.316 0-.573-.099-.771-.297l-.316-.314z"/><path d="M151.355 75.28c.011-.035.023-.082.035-.14.011-.058.04-.186.087-.383.047-.198.105-.378.175-.541.07-.163.158-.355.263-.576a1.86 1.86 0 0 1 .35-.523c.129-.128.28-.256.456-.384a.8.8 0 0 1 .578-.157c.28 0 .531.04.753.122.222.082.397.186.526.314.128.128.222.256.28.384.058.128.105.238.14.331l.035.122c0 .024.006.035.018.035l.192-.191c.713-.745 1.524-1.117 2.435-1.117.63 0 1.139.157 1.524.471.385.314.584.773.596 1.378v.175c0 .279-.374 1.866-1.121 4.761-.678 2.733-1.04 4.14-1.086 4.222-.152.314-.415.47-.789.47a.56.56 0 0 1-.385-.139.607.607 0 0 1-.193-.384c0-.104.345-1.517 1.034-4.238l1.086-4.361c.035-.174.052-.395.052-.663 0-.686-.257-1.029-.77-1.029h-.088c-1.004 0-1.85.587-2.54 1.762l-.123.21-.578 2.336c-.385 1.524-.607 2.344-.665 2.46a.778.778 0 0 1-.753.47.6.6 0 0 1-.368-.104.63.63 0 0 1-.193-.21c-.035-.069-.047-.127-.035-.174 0-.15.234-1.15.7-3 .468-1.849.701-2.878.701-3.087 0-.454-.151-.68-.455-.68-.245 0-.455.162-.63.488-.176.326-.316.68-.421 1.064-.105.384-.17.593-.193.628-.023.023-.116.035-.28.035h-.245c-.07-.07-.105-.122-.105-.157z"/><path fill="none" d="M151.355 75.28c.011-.035.023-.082.035-.14.011-.058.04-.186.087-.383.047-.198.105-.378.175-.541.07-.163.158-.355.263-.576a1.86 1.86 0 0 1 .35-.523c.129-.128.28-.256.456-.384a.8.8 0 0 1 .578-.157c.28 0 .531.04.753.122.222.082.397.186.526.314.128.128.222.256.28.384.058.128.105.238.14.331l.035.122c0 .024.006.035.018.035l.192-.191c.713-.745 1.524-1.117 2.435-1.117.63 0 1.139.157 1.524.471.385.314.584.773.596 1.378v.175c0 .279-.374 1.866-1.121 4.761-.678 2.733-1.04 4.14-1.086 4.222-.152.314-.415.47-.789.47a.56.56 0 0 1-.385-.139.607.607 0 0 1-.193-.384c0-.104.345-1.517 1.034-4.238l1.086-4.361c.035-.174.052-.395.052-.663 0-.686-.257-1.029-.77-1.029h-.088c-1.004 0-1.85.587-2.54 1.762l-.123.21-.578 2.336c-.385 1.524-.607 2.344-.665 2.46a.778.778 0 0 1-.753.47.6.6 0 0 1-.368-.104.63.63 0 0 1-.193-.21c-.035-.069-.047-.127-.035-.174 0-.15.234-1.15.7-3 .468-1.849.701-2.878.701-3.087 0-.454-.151-.68-.455-.68-.245 0-.455.162-.63.488-.176.326-.316.68-.421 1.064-.105.384-.17.593-.193.628-.023.023-.116.035-.28.035h-.245c-.07-.07-.105-.122-.105-.157z"/><path d="M160.687 66.758c0-.23.074-.411.223-.543a.793.793 0 0 1 .545-.197c.19.016.355.086.495.21.14.123.21.3.21.53 0 .246-.07.431-.21.555a.76.76 0 0 1-.52.185.76.76 0 0 1-.52-.185c-.14-.124-.215-.309-.223-.555zm2.204 7.51c-.123-.025-.553-.037-1.288-.037h-.458c-.214 0-.42.008-.619.025l-.272.012h-.1v-.567h.199c.23 0 .433-.013.607-.037.074-.033.12-.078.136-.136.016-.057.025-.23.025-.518v-2.355c0-.428-.009-.7-.025-.814a.277.277 0 0 0-.174-.234c-.115-.058-.31-.087-.582-.087h-.136v-.283c0-.19.008-.284.025-.284l.124-.012c.082-.009.198-.017.346-.025l.446-.025.446-.024c.157-.009.277-.021.36-.037.082-.017.127-.021.135-.013h.038v4.687c.04.082.09.131.148.147.058.017.202.033.434.05h.284v.567h-.099z"/><path fill="none" d="M160.687 66.758c0-.23.074-.411.223-.543a.793.793 0 0 1 .545-.197c.19.016.355.086.495.21.14.123.21.3.21.53 0 .246-.07.431-.21.555a.76.76 0 0 1-.52.185.76.76 0 0 1-.52-.185c-.14-.124-.215-.309-.223-.555zm2.204 7.51c-.123-.025-.553-.037-1.288-.037h-.458c-.214 0-.42.008-.619.025l-.272.012h-.1v-.567h.199c.23 0 .433-.013.607-.037.074-.033.12-.078.136-.136.016-.057.025-.23.025-.518v-2.355c0-.428-.009-.7-.025-.814a.277.277 0 0 0-.174-.234c-.115-.058-.31-.087-.582-.087h-.136v-.283c0-.19.008-.284.025-.284l.124-.012c.082-.009.198-.017.346-.025l.446-.025.446-.024c.157-.009.277-.021.36-.037.082-.017.127-.021.135-.013h.038v4.687c.04.082.09.131.148.147.058.017.202.033.434.05h.284v.567h-.099z"/><path d="M163.774 73.7h.173c.322 0 .516-.057.582-.172v-.764c0-.14.004-.3.012-.481.009-.181.009-.354 0-.518v-.814c0-.288-.004-.53-.012-.728v-.284c-.025-.156-.083-.258-.173-.308-.091-.05-.277-.086-.558-.11h-.223v-.284c0-.19.009-.284.025-.284l.124-.012c.083-.009.198-.017.347-.025a158.05 158.05 0 0 1 .904-.05c.157-.008.276-.02.359-.036.082-.017.128-.021.136-.013h.037v.494c0 .312.004.468.013.468.008 0 .029-.02.062-.061l.148-.185a1.21 1.21 0 0 1 .236-.222c.09-.066.21-.144.359-.235.148-.09.305-.156.47-.197a2.68 2.68 0 0 1 .632-.062c.124 0 .24.008.347.025.107.016.202.041.284.074.083.033.161.066.236.099a.79.79 0 0 1 .185.11c.05.042.095.087.137.136l.111.136a.76.76 0 0 1 .136.259.48.48 0 0 0 .038.099l.024.061.037-.05.075-.098c.025-.033.062-.078.111-.135.05-.058.103-.111.161-.16l.186-.161a.897.897 0 0 1 .248-.148c.099-.041.194-.082.284-.123.091-.042.199-.07.322-.087.124-.016.252-.029.384-.037 1.04 0 1.606.465 1.697 1.394.008.057.012.629.012 1.714v1.06c0 .313.009.498.025.555.017.058.062.1.136.124.174.024.376.037.607.037h.198v.567h-.099l-.285-.012a15.272 15.272 0 0 0-.631-.013c-.223 0-.38-.004-.47-.012-.851 0-1.313.012-1.388.037h-.099v-.567h.198c.504 0 .756-.066.756-.197.008-.017.012-.584.012-1.702-.008-1.11-.016-1.698-.025-1.764-.05-.23-.132-.403-.247-.518-.116-.115-.215-.185-.298-.21-.082-.024-.19-.032-.322-.024-.371 0-.697.14-.978.42-.223.221-.363.447-.42.677-.059.23-.092.572-.1 1.024v1.53c0 .246.004.41.012.493.009.082.021.135.038.16.016.024.053.05.111.074.173.024.376.037.607.037h.198v.567h-.1l-.296-.012a14.38 14.38 0 0 0-.62-.013c-.222 0-.38-.004-.47-.012-.85 0-1.313.012-1.387.037h-.1v-.567h.199c.504 0 .755-.066.755-.197.009-.017.013-.584.013-1.702-.009-1.11-.017-1.698-.025-1.764-.05-.23-.132-.403-.248-.518-.115-.115-.214-.185-.297-.21a.946.946 0 0 0-.322-.024c-.371 0-.698.14-.978.42-.223.221-.364.447-.421.677-.058.23-.091.572-.1 1.024v1.53c0 .246.005.41.013.493.008.082.02.135.037.16.017.024.054.05.112.074.173.024.375.037.606.037h.199v.567h-.1l-.284-.012a15.272 15.272 0 0 0-.632-.013c-.223 0-.38-.004-.47-.012-.85 0-1.313.012-1.388.037h-.099v-.567h.199z"/><path fill="none" d="M163.774 73.7h.173c.322 0 .516-.057.582-.172v-.764c0-.14.004-.3.012-.481.009-.181.009-.354 0-.518v-.814c0-.288-.004-.53-.012-.728v-.284c-.025-.156-.083-.258-.173-.308-.091-.05-.277-.086-.558-.11h-.223v-.284c0-.19.009-.284.025-.284l.124-.012c.083-.009.198-.017.347-.025a158.05 158.05 0 0 1 .904-.05c.157-.008.276-.02.359-.036.082-.017.128-.021.136-.013h.037v.494c0 .312.004.468.013.468.008 0 .029-.02.062-.061l.148-.185a1.21 1.21 0 0 1 .236-.222c.09-.066.21-.144.359-.235.148-.09.305-.156.47-.197a2.68 2.68 0 0 1 .632-.062c.124 0 .24.008.347.025.107.016.202.041.284.074.083.033.161.066.236.099a.79.79 0 0 1 .185.11c.05.042.095.087.137.136l.111.136a.76.76 0 0 1 .136.259.48.48 0 0 0 .038.099l.024.061.037-.05.075-.098c.025-.033.062-.078.111-.135.05-.058.103-.111.161-.16l.186-.161a.897.897 0 0 1 .248-.148c.099-.041.194-.082.284-.123.091-.042.199-.07.322-.087.124-.016.252-.029.384-.037 1.04 0 1.606.465 1.697 1.394.008.057.012.629.012 1.714v1.06c0 .313.009.498.025.555.017.058.062.1.136.124.174.024.376.037.607.037h.198v.567h-.099l-.285-.012a15.272 15.272 0 0 0-.631-.013c-.223 0-.38-.004-.47-.012-.851 0-1.313.012-1.388.037h-.099v-.567h.198c.504 0 .756-.066.756-.197.008-.017.012-.584.012-1.702-.008-1.11-.016-1.698-.025-1.764-.05-.23-.132-.403-.247-.518-.116-.115-.215-.185-.298-.21-.082-.024-.19-.032-.322-.024-.371 0-.697.14-.978.42-.223.221-.363.447-.42.677-.059.23-.092.572-.1 1.024v1.53c0 .246.004.41.012.493.009.082.021.135.038.16.016.024.053.05.111.074.173.024.376.037.607.037h.198v.567h-.1l-.296-.012a14.38 14.38 0 0 0-.62-.013c-.222 0-.38-.004-.47-.012-.85 0-1.313.012-1.387.037h-.1v-.567h.199c.504 0 .755-.066.755-.197.009-.017.013-.584.013-1.702-.009-1.11-.017-1.698-.025-1.764-.05-.23-.132-.403-.248-.518-.115-.115-.214-.185-.297-.21a.946.946 0 0 0-.322-.024c-.371 0-.698.14-.978.42-.223.221-.364.447-.421.677-.058.23-.091.572-.1 1.024v1.53c0 .246.005.41.013.493.008.082.02.135.037.16.017.024.054.05.112.074.173.024.375.037.606.037h.199v.567h-.1l-.284-.012a15.272 15.272 0 0 0-.632-.013c-.223 0-.38-.004-.47-.012-.85 0-1.313.012-1.388.037h-.099v-.567h.199z"/><path d="M161.971 78.19c0-.198.079-.37.235-.519a.82.82 0 0 1 .545-.234c.149 0 .273.05.372.148.099.099.153.222.16.37 0 .19-.082.362-.247.518a.83.83 0 0 1-.545.247.56.56 0 0 1-.346-.124c-.108-.082-.166-.218-.174-.407zm-2.018 3.86c0-.066.037-.194.111-.383.074-.19.173-.399.297-.629.124-.23.306-.44.545-.629.24-.189.487-.28.743-.271.322 0 .59.094.805.283.215.19.326.444.334.765 0 .14-.057.37-.173.69-.115.321-.28.753-.495 1.296a32.204 32.204 0 0 0-.52 1.393c-.042.18-.062.312-.062.395 0 .205.07.308.21.308a.822.822 0 0 0 .236-.037.847.847 0 0 0 .284-.173c.108-.09.22-.234.335-.431.115-.198.219-.44.31-.728a.506.506 0 0 1 .061-.173c.017-.016.087-.024.21-.024.166 0 .248.04.248.123 0 .066-.037.193-.111.382-.074.19-.178.4-.31.63-.132.23-.317.435-.557.616a1.25 1.25 0 0 1-.768.271c-.264 0-.507-.086-.73-.259-.223-.172-.339-.435-.347-.789 0-.14.02-.271.062-.395.041-.123.219-.592.532-1.405.314-.83.496-1.328.545-1.493.05-.164.079-.324.087-.48 0-.198-.07-.297-.21-.297h-.025c-.248 0-.475.136-.682.407-.206.272-.363.617-.47 1.036a.143.143 0 0 0-.025.037.094.094 0 0 0-.012.037c0 .009-.009.017-.025.025a.095.095 0 0 1-.037.012h-.322c-.05-.049-.074-.086-.074-.11z"/><path fill="none" d="M161.971 78.19c0-.198.079-.37.235-.519a.82.82 0 0 1 .545-.234c.149 0 .273.05.372.148.099.099.153.222.16.37 0 .19-.082.362-.247.518a.83.83 0 0 1-.545.247.56.56 0 0 1-.346-.124c-.108-.082-.166-.218-.174-.407zm-2.018 3.86c0-.066.037-.194.111-.383.074-.19.173-.399.297-.629.124-.23.306-.44.545-.629.24-.189.487-.28.743-.271.322 0 .59.094.805.283.215.19.326.444.334.765 0 .14-.057.37-.173.69-.115.321-.28.753-.495 1.296a32.204 32.204 0 0 0-.52 1.393c-.042.18-.062.312-.062.395 0 .205.07.308.21.308a.822.822 0 0 0 .236-.037.847.847 0 0 0 .284-.173c.108-.09.22-.234.335-.431.115-.198.219-.44.31-.728a.506.506 0 0 1 .061-.173c.017-.016.087-.024.21-.024.166 0 .248.04.248.123 0 .066-.037.193-.111.382-.074.19-.178.4-.31.63-.132.23-.317.435-.557.616a1.25 1.25 0 0 1-.768.271c-.264 0-.507-.086-.73-.259-.223-.172-.339-.435-.347-.789 0-.14.02-.271.062-.395.041-.123.219-.592.532-1.405.314-.83.496-1.328.545-1.493.05-.164.079-.324.087-.48 0-.198-.07-.297-.21-.297h-.025c-.248 0-.475.136-.682.407-.206.272-.363.617-.47 1.036a.143.143 0 0 0-.025.037.094.094 0 0 0-.012.037c0 .009-.009.017-.025.025a.095.095 0 0 1-.037.012h-.322c-.05-.049-.074-.086-.074-.11z"/><path d="M164.932 85.157v-.308a.77.77 0 0 1 .199-.53.678.678 0 0 1 .532-.223c.231 0 .438.103.62.309.18.205.276.567.284 1.085 0 .288-.037.567-.111.839a3.824 3.824 0 0 1-.26.703c-.1.197-.207.365-.322.505-.116.14-.215.25-.298.333-.082.082-.136.12-.16.111-.034 0-.087-.037-.162-.11-.074-.075-.111-.128-.111-.161s.045-.099.136-.198c.09-.098.194-.222.31-.37.115-.147.223-.353.322-.616s.165-.563.198-.9v-.148l-.013.012a.482.482 0 0 1-.061.025.313.313 0 0 0-.075.037.203.203 0 0 1-.111.024c-.05 0-.1.004-.149.013a.739.739 0 0 1-.545-.21l-.223-.222z"/><path fill="none" d="M164.932 85.157v-.308a.77.77 0 0 1 .199-.53.678.678 0 0 1 .532-.223c.231 0 .438.103.62.309.18.205.276.567.284 1.085 0 .288-.037.567-.111.839a3.824 3.824 0 0 1-.26.703c-.1.197-.207.365-.322.505-.116.14-.215.25-.298.333-.082.082-.136.12-.16.111-.034 0-.087-.037-.162-.11-.074-.075-.111-.128-.111-.161s.045-.099.136-.198c.09-.098.194-.222.31-.37.115-.147.223-.353.322-.616s.165-.563.198-.9v-.148l-.013.012a.482.482 0 0 1-.061.025.313.313 0 0 0-.075.037.203.203 0 0 1-.111.024c-.05 0-.1.004-.149.013a.739.739 0 0 1-.545-.21l-.223-.222z"/><path d="M171.095 78.239c0-.255.087-.453.26-.592.174-.14.351-.21.533-.21.14 0 .256.041.347.123.09.083.148.198.173.346 0 .23-.079.423-.235.58a.75.75 0 0 1-.545.234.562.562 0 0 1-.372-.124.473.473 0 0 1-.16-.357zm-.111 2.713c0-.239-.108-.358-.322-.358a.999.999 0 0 0-.52.148c-.165.099-.31.226-.434.382a2.671 2.671 0 0 0-.297.457c-.074.148-.145.28-.21.394l-.087.173a.792.792 0 0 1-.198.012h-.174c-.05-.049-.074-.082-.074-.098 0-.017.016-.07.05-.16a4.22 4.22 0 0 1 .73-1.135c.314-.354.677-.56 1.09-.617h.099a.772.772 0 0 0 .149-.012c.198.008.38.05.544.123.207.115.364.243.471.382.107.14.161.358.161.654v.197l-.607 2.454c-.42 1.645-.644 2.5-.668 2.566-.15.41-.438.776-.867 1.097-.43.32-.92.485-1.474.493-.413 0-.694-.086-.842-.259a.91.91 0 0 1-.235-.567c0-.222.078-.41.235-.567a.823.823 0 0 1 .57-.247c.14 0 .26.041.359.124.099.082.152.21.16.382 0 .296-.131.522-.396.678.05.008.108.012.174.012.28 0 .536-.115.768-.345.23-.23.408-.501.532-.814l.136-.518c.091-.353.198-.78.322-1.282a85.71 85.71 0 0 1 .397-1.542c.14-.526.251-.982.334-1.369.082-.386.128-.62.136-.703a.583.583 0 0 0-.012-.135z"/><path fill="none" d="M171.095 78.239c0-.255.087-.453.26-.592.174-.14.351-.21.533-.21.14 0 .256.041.347.123.09.083.148.198.173.346 0 .23-.079.423-.235.58a.75.75 0 0 1-.545.234.562.562 0 0 1-.372-.124.473.473 0 0 1-.16-.357zm-.111 2.713c0-.239-.108-.358-.322-.358a.999.999 0 0 0-.52.148c-.165.099-.31.226-.434.382a2.671 2.671 0 0 0-.297.457c-.074.148-.145.28-.21.394l-.087.173a.792.792 0 0 1-.198.012h-.174c-.05-.049-.074-.082-.074-.098 0-.017.016-.07.05-.16a4.22 4.22 0 0 1 .73-1.135c.314-.354.677-.56 1.09-.617h.099a.772.772 0 0 0 .149-.012c.198.008.38.05.544.123.207.115.364.243.471.382.107.14.161.358.161.654v.197l-.607 2.454c-.42 1.645-.644 2.5-.668 2.566-.15.41-.438.776-.867 1.097-.43.32-.92.485-1.474.493-.413 0-.694-.086-.842-.259a.91.91 0 0 1-.235-.567c0-.222.078-.41.235-.567a.823.823 0 0 1 .57-.247c.14 0 .26.041.359.124.099.082.152.21.16.382 0 .296-.131.522-.396.678.05.008.108.012.174.012.28 0 .536-.115.768-.345.23-.23.408-.501.532-.814l.136-.518c.091-.353.198-.78.322-1.282a85.71 85.71 0 0 1 .397-1.542c.14-.526.251-.982.334-1.369.082-.386.128-.62.136-.703a.583.583 0 0 0-.012-.135z"/><path d="M176.508 67.535c0-.163.018-.256.053-.279.035-.023.151-.04.35-.052.97 0 1.717.145 2.242.436.526.29.893.61 1.104.96.105.243.163.447.175.61.011.162.023.942.035 2.337.011 1.616.023 2.454.035 2.512.152.523.455.907.91 1.151.456.244.876.372 1.262.384.128 0 .21.017.245.052.035.035.053.128.053.28 0 .15-.018.243-.053.278-.035.035-.117.053-.245.053-.432 0-.853.122-1.261.366-.41.244-.683.552-.824.924a2.19 2.19 0 0 0-.105.628 99.083 99.083 0 0 0-.017 2.6v.889c0 .64-.035 1.087-.105 1.343-.07.256-.24.5-.508.733-.63.604-1.606.907-2.926.907-.21 0-.332-.018-.367-.053-.035-.034-.053-.133-.053-.296v-.122c0-.012.006-.04.018-.087.011-.047.029-.07.052-.07.024 0 .07-.006.14-.018.164 0 .345-.017.543-.052.199-.035.42-.093.666-.174a1.64 1.64 0 0 0 .648-.402c.187-.186.327-.407.42-.662.012-.059.024-.884.035-2.477l.018-2.373c.152-.662.56-1.192 1.226-1.587.409-.198.7-.314.876-.349a4.58 4.58 0 0 1-.876-.349c-.642-.395-1.04-.872-1.191-1.43l-.035-.174-.018-2.373c-.011-1.593-.023-2.418-.035-2.477-.14-.465-.45-.79-.928-.976a4.047 4.047 0 0 0-1.349-.297c-.105 0-.163-.017-.175-.052a1.53 1.53 0 0 1-.035-.262z"/><path fill="none" d="M176.508 67.535c0-.163.018-.256.053-.279.035-.023.151-.04.35-.052.97 0 1.717.145 2.242.436.526.29.893.61 1.104.96.105.243.163.447.175.61.011.162.023.942.035 2.337.011 1.616.023 2.454.035 2.512.152.523.455.907.91 1.151.456.244.876.372 1.262.384.128 0 .21.017.245.052.035.035.053.128.053.28 0 .15-.018.243-.053.278-.035.035-.117.053-.245.053-.432 0-.853.122-1.261.366-.41.244-.683.552-.824.924a2.19 2.19 0 0 0-.105.628 99.083 99.083 0 0 0-.017 2.6v.889c0 .64-.035 1.087-.105 1.343-.07.256-.24.5-.508.733-.63.604-1.606.907-2.926.907-.21 0-.332-.018-.367-.053-.035-.034-.053-.133-.053-.296v-.122c0-.012.006-.04.018-.087.011-.047.029-.07.052-.07.024 0 .07-.006.14-.018.164 0 .345-.017.543-.052.199-.035.42-.093.666-.174a1.64 1.64 0 0 0 .648-.402c.187-.186.327-.407.42-.662.012-.059.024-.884.035-2.477l.018-2.373c.152-.662.56-1.192 1.226-1.587.409-.198.7-.314.876-.349a4.58 4.58 0 0 1-.876-.349c-.642-.395-1.04-.872-1.191-1.43l-.035-.174-.018-2.373c-.011-1.593-.023-2.418-.035-2.477-.14-.465-.45-.79-.928-.976a4.047 4.047 0 0 0-1.349-.297c-.105 0-.163-.017-.175-.052a1.53 1.53 0 0 1-.035-.262z"/></g><clipPath id="d"><path transform="matrix(.24 0 0 .24 -319.592 -473.842)" d="M0 0h3508.333v2482.82H0z" fill-rule="evenodd"/></clipPath><g clip-path="url(#d)"><path d="m25.613 7.293 153.252.288-2.483 43.41-152.438 1.568" fill="#fff"/><path stroke-linecap="round" stroke-linejoin="round" fill="none" stroke="#000" d="M24.764 8.689c36.602-1.015 70.663-1.044 152.978 0m-152.978 0c46.699 1.1 93.8.532 152.978 0m0 0c.655 16.458.784 33.4 0 43.18m0-43.18c-.864 12.594-.907 23.49 0 43.18m0 0c-51.909.762-101.695.618-152.978 0m152.978 0c-39.848-.972-79.48-1.202-152.978 0m0 0c.741-16.042-.194-33.832 0-43.18m0 43.18c.562-9.709.46-19.187 0-43.18" stroke-width=".71966"/><symbol id="e"><path d="M.51.592H.15V.427h.315V.302H.15V0H0v.719h.51V.592z"/></symbol><symbol id="f"><path d="M.141.532V0H0v.532h.141m0 .192V.596H0v.128h.141z"/></symbol><symbol id="g"><path d="M.25.43C.202.43.17.41.152.37A.206.206 0 0 1 .14.287V0H0v.531h.134V.454a.236.236 0 0 0 .051.059.176.176 0 0 0 .109.032C.349.545.394.53.429.5.464.473.48.425.48.358V0H.34v.324c0 .028-.004.05-.011.064C.314.416.288.43.25.43z"/></symbol><symbol id="h"><path d="M.056.491c.037.047.1.07.19.07C.304.562.356.55.4.528.446.504.469.46.469.396V.09C.472.072.474.06.479.053a.05.05 0 0 1 .02-.016v-.02h-.15a.155.155 0 0 0-.01.03.365.365 0 0 0-.004.032.286.286 0 0 0-.066-.053A.2.2 0 0 0 .167 0a.176.176 0 0 0-.12.041A.148.148 0 0 0 0 .158C0 .224.025.271.076.3a.336.336 0 0 0 .122.034L.245.34A.217.217 0 0 1 .3.353c.02.008.03.021.03.04 0 .02-.008.036-.023.044A.138.138 0 0 1 .241.45C.208.45.185.442.17.425A.101.101 0 0 1 .15.376H.017a.204.204 0 0 0 .04.115M.16.117A.073.073 0 0 1 .208.101.14.14 0 0 1 .29.127c.025.018.039.05.04.097v.051A.16.16 0 0 0 .266.252L.235.247a.202.202 0 0 1-.063-.02A.064.064 0 0 1 .14.169c0-.023.006-.04.02-.05z"/></symbol><symbol id="i"><path d="M0 .72h.14V0H0v.72z"/></symbol><symbol id="j"><path d="M0 0z"/></symbol><symbol id="k"><path d="M.302.259H.15V0H0v.72h.313C.386.72.443.7.486.664.53.627.551.57.551.492.55.407.529.347.486.312A.284.284 0 0 0 .302.259m.07.15c.02.017.03.044.03.082 0 .037-.01.064-.03.08A.127.127 0 0 1 .29.595H.15V.383h.14c.035 0 .063.008.083.026z"/></symbol><symbol id="l"><path d="M.269.404C.213.404.175.386.156.349A.213.213 0 0 1 .14.254V0H0v.532h.133V.44c.021.036.04.06.056.073a.153.153 0 0 0 .108.032h.012V.4a.377.377 0 0 1-.04.003z"/></symbol><symbol id="m"><path d="M.477.483a.31.31 0 0 0 .067-.2.31.31 0 0 0-.067-.2C.432.028.363 0 .272 0 .181 0 .112.028.067.083a.31.31 0 0 0-.067.2.31.31 0 0 0 .067.2C.112.54.181.568.272.568.363.568.432.54.477.483M.27.45A.112.112 0 0 1 .177.407.2.2 0 0 1 .145.284C.145.23.155.189.177.16A.112.112 0 0 1 .271.117.11.11 0 0 1 .365.16c.022.03.033.07.033.124a.2.2 0 0 1-.033.123.11.11 0 0 1-.094.043z"/></symbol><symbol id="n"><path d="M.519.735V.017H.383V.09A.196.196 0 0 0 .315.021.19.19 0 0 0 .221 0a.199.199 0 0 0-.158.075A.291.291 0 0 0 0 .27c0 .09.02.162.063.214A.205.205 0 0 0 .23.562a.17.17 0 0 0 .147-.08v.253H.52M.144.28c0-.049.01-.088.029-.117C.193.132.22.117.26.117c.04 0 .07.015.09.044.02.03.03.067.03.114 0 .065-.016.112-.049.14a.106.106 0 0 1-.07.025C.22.44.192.424.172.394A.214.214 0 0 1 .144.279z"/></symbol><symbol id="o"><path d="M.345.087a.256.256 0 0 1-.01-.015A.193.193 0 0 0 .253.01.213.213 0 0 0 .183 0C.102 0 .05.028.022.085A.325.325 0 0 0 0 .223v.32h.143v-.32c0-.03.003-.053.01-.068.013-.027.038-.04.075-.04.048 0 .08.018.098.057.009.02.013.048.013.082v.29H.48V.012H.345v.075z"/></symbol><symbol id="p"><path d="M.49.36H.349a.124.124 0 0 1-.02.054C.312.435.288.446.255.446.208.446.176.423.16.376A.292.292 0 0 1 .146.277c0-.039.004-.07.013-.094C.176.14.207.117.253.117c.032 0 .056.008.07.026.013.018.021.04.024.068H.49a.233.233 0 0 0-.046-.12C.4.031.335 0 .25 0 .164 0 .1.025.06.076A.308.308 0 0 0 0 .274c0 .091.022.163.067.213C.11.538.173.563.25.563A.277.277 0 0 0 .415.52C.458.489.483.436.491.359z"/></symbol><symbol id="q"><path d="M.298.109V.005L.232.002C.167 0 .122.012.098.036.082.052.074.077.074.11v.328H0v.099h.074v.148h.138V.537h.086v-.1H.212v-.28C.212.135.215.12.22.116.226.11.243.108.271.108h.027z"/></symbol><symbol id="r"><path d="M0 .532h.156L.267.14.38.532h.15L.338 0H.19L0 .532z"/></symbol><symbol id="s"><path d="m.271.355.11.393h.148L.346.224A.729.729 0 0 0 .263.037C.243.012.2 0 .14 0a.719.719 0 0 0-.064.002v.111h.018a.22.22 0 0 1 .039 0 .07.07 0 0 1 .031.012C.172.131.18.142.187.16c.007.017.01.028.008.032L0 .748h.155L.27.355z"/></symbol><use xlink:href="#e" transform="matrix(14.39316 0 0 -14.39316 41.76 34.956)"/><use xlink:href="#f" transform="matrix(14.39316 0 0 -14.39316 50.421 34.956)"/><use xlink:href="#g" transform="matrix(14.39316 0 0 -14.39316 54.408 34.956)"/><use xlink:href="#h" transform="matrix(14.39316 0 0 -14.39316 62.668 35.195)"/><use xlink:href="#i" transform="matrix(14.39316 0 0 -14.39316 71.233 34.956)"/><use xlink:href="#j" transform="matrix(14.39316 0 0 -14.39316 74.258 34.956)"/><use xlink:href="#k" transform="matrix(14.39316 0 0 -14.39316 79.405 34.956)"/><use xlink:href="#l" transform="matrix(14.39316 0 0 -14.39316 88.773 34.956)"/><use xlink:href="#m" transform="matrix(14.39316 0 0 -14.39316 93.922 35.223)"/><use xlink:href="#n" transform="matrix(14.39316 0 0 -14.39316 102.695 35.195)"/><use xlink:href="#o" transform="matrix(14.39316 0 0 -14.39316 111.925 35.125)"/><use xlink:href="#p" transform="matrix(14.39316 0 0 -14.39316 120.34 35.223)"/><use xlink:href="#q" transform="matrix(14.39316 0 0 -14.39316 127.991 35.095)"/><use xlink:href="#f" transform="matrix(14.39316 0 0 -14.39316 133.6 34.956)"/><use xlink:href="#r" transform="matrix(14.39316 0 0 -14.39316 136.82 34.956)"/><use xlink:href="#f" transform="matrix(14.39316 0 0 -14.39316 145.603 34.956)"/><use xlink:href="#q" transform="matrix(14.39316 0 0 -14.39316 148.79 35.095)"/><use xlink:href="#s" transform="matrix(14.39316 0 0 -14.39316 153.582 38.056)"/></g></svg>