<svg xmlns="http://www.w3.org/2000/svg" xmlns:xlink="http://www.w3.org/1999/xlink" xmlns:inkscape="http://www.inkscape.org/namespaces/inkscape" version="1.1" width="131.4338" height="74.29053" viewBox="0 0 131.4338 74.29053">
<defs>
<clipPath id="clip_1">
<path transform="matrix(1,0,0,-1,0,96)" d="M0 21.70947H131.4338V96H0Z" clip-rule="evenodd"/>
</clipPath>
<clipPath id="clip_2">
<path transform="matrix(.24,0,0,.24,0,0)" d="M0 0H695.8333V398.94444H0Z" clip-rule="evenodd"/>
</clipPath>
<clipPath id="clip_3">
<path transform="matrix(.24,0,0,.24,0,0)" d="M0 0H540.43057V308.4861H0Z" clip-rule="evenodd"/>
</clipPath>
<clipPath id="clip_4">
<path transform="matrix(.24,0,0,.24,0,0)" d="M60.305555 109.013889H477.80555V241.22222H60.305555Z" clip-rule="evenodd"/>
</clipPath>
</defs>
<g clip-path="url(#clip_1)">
<g clip-path="url(#clip_2)">
<path transform="matrix(.5566667,0,0,.5566667,0,0)" d="M0 0H300V172H0Z" fill="#ffffff"/>
</g>
<g clip-path="url(#clip_3)">
<path transform="matrix(.5566667,0,0,.5566667,.27833335,.27833335)" d="M.8-.52 229.82 2.05 230.89 129.34 1.8 132.63" fill="#ffffff"/>
<path transform="matrix(.5566667,0,0,.5566667,.27833335,.27833335)" stroke-width="1" stroke-linecap="round" stroke-linejoin="round" fill="none" stroke="#000000" d="M1 1C61.58 1.1800001 123.91 1.9200001 231 1M1 1C89.12-.44 177.18 .26 231 1M231 1C232.4 37.56 230.67 73.35 231 131M231 1C230.54 42.65 230.4 84.38 231 131M231 131C181.95 131.71 134.78 130.06 1 131M231 131C166.44 130.06 102.89 129.05 1 131M1 131C-1.89 91.8-1.84 47.57 1 1M1 131C.64000007 91.23 .22 50.39 1 1"/>
<text xml:space="preserve" transform="matrix(.5566667 0 0 .5566667 0 0)" font-size="15" font-family="Helvetica"><tspan y="28" x="64.71875 75.54875 83.888759 91.388759 94.71876 99.71376 108.053768 116.39377 120.56377 131.39377 139.73377 148.07376 151.40377 155.57376 163.91376">Desired Capital</tspan></text>
<text xml:space="preserve" transform="matrix(.5566667 0 0 .5566667 0 0)" font-size="15" font-family="Helvetica"><tspan y="28" x="167.25"> </tspan></text>
</g>
<g clip-path="url(#clip_4)">
<path transform="matrix(.010147115,0,0,-.010136409,14.484133,44.530504)" d="M121 647C121 653.6667 122.333339 661.3333 125 670 127.666667 678.6667 131.66667 683 137 683 137.66667 683 161.66666 684.6667 209 688 256.33335 691.3333 280.66667 693.3333 282 694 290 694 294 691.3333 294 686 294 681.3333 277.33335 611.6667 244 477 210.66666 345 194 276.66667 194 272 206.66667 278.66667 216.33333 285 223 291 239 303 262 324 292 354 322 384 345.33335 404.33335 362 415 388.66667 433 414 442 438 442 458 442 473.66667 435.66667 485 423 496.33335 410.33335 502.33335 392.33335 503 369 503 352.33335 500.66667 338.33335 496 327 491.33335 315.66667 485 307.33335 477 302 469 296.66667 462 293 456 291 450 289 444 288 438 288 424.66667 288 414 291.66667 406 299 398 306.33335 394 316 394 328 394 344.66667 399.33335 358.33335 410 369 420.66667 379.66667 431.33335 386.66667 442 390L458 393C450 401 442 405 434 405H430C408.66667 403 387.66667 394.66667 367 380 346.33335 365.33335 322 344 294 316 266 288 244 267.66667 228 255 229.33333 254.33333 234.33333 253.33333 243 252 251.66667 250.66667 259.66667 248.66667 267 246 274.33335 243.33333 283 240.66667 293 238 303 235.33333 312 230.66667 320 224 328 217.33333 335.33335 211.33333 342 206 348.66667 200.66667 354.33335 192 359 180 363.66667 168 365.66667 157 365 147 365 135.66667 363.33335 122 360 106 356.66667 90 354.66667 76.666667 354 66 354 39.333333 363 26 381 26 413 26 439 65.666667 459 145 460.33335 150.33333 467 153 479 153H483C493.66667 153 499 150 499 144 499 140.66667 498 136 496 130 468.66667 36 429.33335-11 378-11 348-11 323.66667-2.333334 305 15 286.33335 32.333337 277 57.333333 277 90 277 102 278 112.333339 280 121 282 129.66667 283 137.66667 283 145 283 159.66667 278.33335 172.33333 269 183 259.66667 193.66667 248 201.33333 234 206 220 210.66667 208.66667 214.33333 200 217 191.33333 219.66667 185.33333 220.66667 182 220H180C172 192 165 165 159 139 153 113 148.33333 93.666667 145 81 141.66667 68.333339 138.66667 56 136 44 133.33333 32 131 24 129 20 127 16 124.666667 11.666667 122 7 119.333339 2.333333 115.666667-.6666666 111-2 102.333339-8 93-11 83-11 71.666667-11 63-7.666667 57-1 51 5.666667 48 11.333333 48 16 48 22.666668 60.333333 76 85 176 109.66667 276 134 374.3333 158 471L195 616C195.66667 624.6667 193.33333 630 188 632 182.66667 634 169.66667 635.6667 149 637H144C137.33333 637 133 637 131 637 129 637 126.666667 638 124 640 121.333339 642 120.333339 644.3333 121 647Z"/>
<path transform="matrix(.010147115,0,0,-.010136409,14.484133,44.530504)" stroke-linecap="butt" stroke-miterlimit="4" stroke-linejoin="miter" fill="none" stroke="#000000" stroke-opacity=".0118" d="M121 647C121 653.6667 122.333339 661.3333 125 670 127.666667 678.6667 131.66667 683 137 683 137.66667 683 161.66666 684.6667 209 688 256.33335 691.3333 280.66667 693.3333 282 694 290 694 294 691.3333 294 686 294 681.3333 277.33335 611.6667 244 477 210.66666 345 194 276.66667 194 272 206.66667 278.66667 216.33333 285 223 291 239 303 262 324 292 354 322 384 345.33335 404.33335 362 415 388.66667 433 414 442 438 442 458 442 473.66667 435.66667 485 423 496.33335 410.33335 502.33335 392.33335 503 369 503 352.33335 500.66667 338.33335 496 327 491.33335 315.66667 485 307.33335 477 302 469 296.66667 462 293 456 291 450 289 444 288 438 288 424.66667 288 414 291.66667 406 299 398 306.33335 394 316 394 328 394 344.66667 399.33335 358.33335 410 369 420.66667 379.66667 431.33335 386.66667 442 390L458 393C450 401 442 405 434 405H430C408.66667 403 387.66667 394.66667 367 380 346.33335 365.33335 322 344 294 316 266 288 244 267.66667 228 255 229.33333 254.33333 234.33333 253.33333 243 252 251.66667 250.66667 259.66667 248.66667 267 246 274.33335 243.33333 283 240.66667 293 238 303 235.33333 312 230.66667 320 224 328 217.33333 335.33335 211.33333 342 206 348.66667 200.66667 354.33335 192 359 180 363.66667 168 365.66667 157 365 147 365 135.66667 363.33335 122 360 106 356.66667 90 354.66667 76.666667 354 66 354 39.333333 363 26 381 26 413 26 439 65.666667 459 145 460.33335 150.33333 467 153 479 153H483C493.66667 153 499 150 499 144 499 140.66667 498 136 496 130 468.66667 36 429.33335-11 378-11 348-11 323.66667-2.333334 305 15 286.33335 32.333337 277 57.333333 277 90 277 102 278 112.333339 280 121 282 129.66667 283 137.66667 283 145 283 159.66667 278.33335 172.33333 269 183 259.66667 193.66667 248 201.33333 234 206 220 210.66667 208.66667 214.33333 200 217 191.33333 219.66667 185.33333 220.66667 182 220H180C172 192 165 165 159 139 153 113 148.33333 93.666667 145 81 141.66667 68.333339 138.66667 56 136 44 133.33333 32 131 24 129 20 127 16 124.666667 11.666667 122 7 119.333339 2.333333 115.666667-.6666666 111-2 102.333339-8 93-11 83-11 71.666667-11 63-7.666667 57-1 51 5.666667 48 11.333333 48 16 48 22.666668 60.333333 76 85 176 109.66667 276 134 374.3333 158 471L195 616C195.66667 624.6667 193.33333 630 188 632 182.66667 634 169.66667 635.6667 149 637H144C137.33333 637 133 637 131 637 129 637 126.666667 638 124 640 121.333339 642 120.333339 644.3333 121 647Z"/>
<path transform="matrix(.00717401,0,0,-.0071664408,19.770779,40.962488)" d="M376 495C376 505.66667 376 519 376 535 376 551 376.33335 562 377 568 377 598 373.66667 616.6667 367 624 360.33335 631.3333 343.33335 635.6667 316 637H298V660C298 675.3333 298.66667 683 300 683L310 684C316.66667 684.6667 326.33335 685.3333 339 686 351.66667 686.6667 364 687.3333 376 688 387.33335 688.6667 399.66667 689.3333 413 690 426.33335 690.6667 436.33335 691.6667 443 693 449.66667 694.3333 453.33335 694.6667 454 694H457V390C457 186 457.33335 83 458 81 460 67.666667 464.66667 59 472 55 479.33335 51 494.33335 48 517 46H535V0C533.6667 0 508.33335-1.6666665 459-5 409.66667-8.333334 383.33335-10.333333 380-11H373V44L365 37C326.33335 5 283-11 235-11 183.66666-11 137.33335 9.333332 96 50 54.666666 90.66667 34 145.66666 34 215 34 281.6667 55 336 97 378 139 420 188 441.33335 244 442 294 442 338 425.66667 376 393V495ZM373 342C343 384 305.33335 405 260 405 227.33333 405 198.33333 393 173 369 155 350.33335 143.66667 329 139 305 134.33333 281 131.66667 249.66667 131 211 131 173.66666 133.33333 143.33333 138 120 142.66667 96.666667 154.33333 76.333339 173 59 193 37 219 26 251 26 298.33335 26 339 51.666666 373 103V342Z"/>
<path transform="matrix(.00717401,0,0,-.0071664408,19.770779,40.962488)" stroke-linecap="butt" stroke-miterlimit="4" stroke-linejoin="miter" fill="none" stroke="#000000" stroke-opacity=".0078" d="M376 495C376 505.66667 376 519 376 535 376 551 376.33335 562 377 568 377 598 373.66667 616.6667 367 624 360.33335 631.3333 343.33335 635.6667 316 637H298V660C298 675.3333 298.66667 683 300 683L310 684C316.66667 684.6667 326.33335 685.3333 339 686 351.66667 686.6667 364 687.3333 376 688 387.33335 688.6667 399.66667 689.3333 413 690 426.33335 690.6667 436.33335 691.6667 443 693 449.66667 694.3333 453.33335 694.6667 454 694H457V390C457 186 457.33335 83 458 81 460 67.666667 464.66667 59 472 55 479.33335 51 494.33335 48 517 46H535V0C533.6667 0 508.33335-1.6666665 459-5 409.66667-8.333334 383.33335-10.333333 380-11H373V44L365 37C326.33335 5 283-11 235-11 183.66666-11 137.33335 9.333332 96 50 54.666666 90.66667 34 145.66666 34 215 34 281.6667 55 336 97 378 139 420 188 441.33335 244 442 294 442 338 425.66667 376 393V495ZM373 342C343 384 305.33335 405 260 405 227.33333 405 198.33333 393 173 369 155 350.33335 143.66667 329 139 305 134.33333 281 131.66667 249.66667 131 211 131 173.66666 133.33333 143.33333 138 120 142.66667 96.666667 154.33333 76.333339 173 59 193 37 219 26 251 26 298.33335 26 339 51.666666 373 103V342Z"/>
<path transform="matrix(.00717401,0,0,-.0071664408,23.758597,40.962488)" d="M28 218C28 254.66667 34.666666 288 48 318 61.333337 348 78 372.33335 98 391 118 409.66667 139.66667 423.66667 163 433 186.33333 442.33335 208.33333 447.33335 229 448 264.33335 448 294.66667 442 320 430 345.33335 418 364.66667 401.33335 378 380 391.33335 358.66667 400.66667 337.33335 406 316 411.33335 294.66667 414.33335 271 415 245 415 240.33333 412.66667 235.66667 408 231H126V216C126 117.33333 159.33333 57.333337 226 36 239.33333 32 254 30 270 30 298 30 322 40.666666 342 62 353.33335 73.333339 362.33335 87.33333 369 104L379 128C381 130 386.33335 131 395 131H398C409.33335 131 415 127.666667 415 121 415 118.333339 414 114 412 108 399.33335 71.33333 378.33335 42.333337 349 21 319.66667-.33333398 286.66667-11 250-11 186.66666-11 134 12 92 58 50 104 28.666666 157.33333 28 218ZM333 275C325.66667 360.33335 294 405.66667 238 411H236C230.66667 411 225.33333 410.66667 220 410 214.66667 409.33335 206.33333 406.66667 195 402 183.66667 397.33335 174 390.33335 166 381 158 371.66667 150.33333 358 143 340 135.66667 322 130.33333 300 127 274V267H333V275Z"/>
<path transform="matrix(.00717401,0,0,-.0071664408,23.758597,40.962488)" stroke-linecap="butt" stroke-miterlimit="4" stroke-linejoin="miter" fill="none" stroke="#000000" stroke-opacity=".0078" d="M28 218C28 254.66667 34.666666 288 48 318 61.333337 348 78 372.33335 98 391 118 409.66667 139.66667 423.66667 163 433 186.33333 442.33335 208.33333 447.33335 229 448 264.33335 448 294.66667 442 320 430 345.33335 418 364.66667 401.33335 378 380 391.33335 358.66667 400.66667 337.33335 406 316 411.33335 294.66667 414.33335 271 415 245 415 240.33333 412.66667 235.66667 408 231H126V216C126 117.33333 159.33333 57.333337 226 36 239.33333 32 254 30 270 30 298 30 322 40.666666 342 62 353.33335 73.333339 362.33335 87.33333 369 104L379 128C381 130 386.33335 131 395 131H398C409.33335 131 415 127.666667 415 121 415 118.333339 414 114 412 108 399.33335 71.33333 378.33335 42.333337 349 21 319.66667-.33333398 286.66667-11 250-11 186.66666-11 134 12 92 58 50 104 28.666666 157.33333 28 218ZM333 275C325.66667 360.33335 294 405.66667 238 411H236C230.66667 411 225.33333 410.66667 220 410 214.66667 409.33335 206.33333 406.66667 195 402 183.66667 397.33335 174 390.33335 166 381 158 371.66667 150.33333 358 143 340 135.66667 322 130.33333 300 127 274V267H333V275Z"/>
<path transform="matrix(.00717401,0,0,-.0071664408,26.94479,40.962488)" d="M295 316C295 342.66667 286 365.66667 268 385 250 404.33335 224 414 190 414 166 414 145.33333 409.66667 128 401 108 388.33335 98 371 98 349 97.333339 345.66667 97.333339 341.33335 98 336 98.666667 330.66667 104 322.66667 114 312 124 301.33335 138.33333 293 157 287 169 283.66667 183.66667 280.66667 201 278 218.33333 275.33335 233 272.33335 245 269 257 265.66667 267.66667 261.33335 277 256 288.33335 250.66667 299.33335 244 310 236 320.66667 228 331.33335 214.33333 342 195 352.66667 175.66667 358.33335 155 359 133 359 91.666667 346.33335 57.666669 321 31 295.66667 4.333332 254.66667-9.333333 198-10H190C155.33333-10 123.333339 2 94 26L86 19 77 10C73 6 69 2.3333336 65-1L54-11H46 42C40-11 37-9 33-5V74 132C33 146 33.666669 154.33333 35 157 36.333333 159.66667 39.666669 161.33333 45 162H54C62 162 67.333339 160.66667 70 158 72.666667 155.33333 74.333339 151.33333 75 146 75.666667 140.66667 78 131.66667 82 119 86 106.333339 92.333339 92.333339 101 77 124.333339 43 156.66666 26 198 26 262.6667 26 295 52 295 104 295 123.333339 289 139 277 151 263.66667 167 236 179 194 187 152 195 124.333339 202.66667 111 210 87 221.33333 68 236.66667 54 256 40 275.33335 33 296 33 318 33 344 38.666666 366 50 384 61.333337 402 75.666667 415.33335 93 424 110.333339 432.66667 127 438.66667 143 442 159 445.33335 173.66667 447 187 447H198C224.66667 447 248 442 268 432L283 424 292 431C298.66667 437 306 442.66667 314 448H322 326C328 448 331 446 335 442V310L329 304H301C297 308 295 312 295 316Z"/>
<path transform="matrix(.00717401,0,0,-.0071664408,26.94479,40.962488)" stroke-linecap="butt" stroke-miterlimit="4" stroke-linejoin="miter" fill="none" stroke="#000000" stroke-opacity=".0078" d="M295 316C295 342.66667 286 365.66667 268 385 250 404.33335 224 414 190 414 166 414 145.33333 409.66667 128 401 108 388.33335 98 371 98 349 97.333339 345.66667 97.333339 341.33335 98 336 98.666667 330.66667 104 322.66667 114 312 124 301.33335 138.33333 293 157 287 169 283.66667 183.66667 280.66667 201 278 218.33333 275.33335 233 272.33335 245 269 257 265.66667 267.66667 261.33335 277 256 288.33335 250.66667 299.33335 244 310 236 320.66667 228 331.33335 214.33333 342 195 352.66667 175.66667 358.33335 155 359 133 359 91.666667 346.33335 57.666669 321 31 295.66667 4.333332 254.66667-9.333333 198-10H190C155.33333-10 123.333339 2 94 26L86 19 77 10C73 6 69 2.3333336 65-1L54-11H46 42C40-11 37-9 33-5V74 132C33 146 33.666669 154.33333 35 157 36.333333 159.66667 39.666669 161.33333 45 162H54C62 162 67.333339 160.66667 70 158 72.666667 155.33333 74.333339 151.33333 75 146 75.666667 140.66667 78 131.66667 82 119 86 106.333339 92.333339 92.333339 101 77 124.333339 43 156.66666 26 198 26 262.6667 26 295 52 295 104 295 123.333339 289 139 277 151 263.66667 167 236 179 194 187 152 195 124.333339 202.66667 111 210 87 221.33333 68 236.66667 54 256 40 275.33335 33 296 33 318 33 344 38.666666 366 50 384 61.333337 402 75.666667 415.33335 93 424 110.333339 432.66667 127 438.66667 143 442 159 445.33335 173.66667 447 187 447H198C224.66667 447 248 442 268 432L283 424 292 431C298.66667 437 306 442.66667 314 448H322 326C328 448 331 446 335 442V310L329 304H301C297 308 295 312 295 316Z"/>
<path transform="matrix(.00717401,0,0,-.0071664408,29.775835,40.962488)" d="M69 609C69 627.6667 75 642.3333 87 653 99 663.6667 113.666667 669 131 669 146.33333 667.6667 159.66667 662 171 652 182.33333 642 188 627.6667 188 609 188 589 182.33333 574 171 564 159.66667 554 145.66667 549 129 549 112.33333 549 98.333339 554 87 564 75.666667 574 69.666667 589 69 609ZM247 0C237 2 202.33335 3 143 3 135.66667 3 123.333339 3 106 3 88.666667 3 72 2.3333336 56 1L34 0H26V46H42C60.666669 46 77 47 91 49 97 51.666669 100.666667 55.333333 102 60 103.333339 64.666667 104 78.666667 104 102V205 293C104 327.66667 103.333339 349.66667 102 359 100.666667 368.33335 96 374.66667 88 378 78.666667 382.66667 63 385 41 385H30V408C30 423.33335 30.666666 431 32 431L42 432C48.666669 432.66667 58 433.33335 70 434 82 434.66667 94 435.33335 106 436 117.333339 436.66667 129.33333 437.33335 142 438 154.66667 438.66667 164.33333 439.66667 171 441 177.66667 442.33335 181.33333 442.66667 182 442H185V62C188.33333 55.333333 192.33333 51.333333 197 50 201.66667 48.666669 213.33333 47.333333 232 46H255V0H247Z"/>
<path transform="matrix(.00717401,0,0,-.0071664408,29.775835,40.962488)" stroke-linecap="butt" stroke-miterlimit="4" stroke-linejoin="miter" fill="none" stroke="#000000" stroke-opacity=".0078" d="M69 609C69 627.6667 75 642.3333 87 653 99 663.6667 113.666667 669 131 669 146.33333 667.6667 159.66667 662 171 652 182.33333 642 188 627.6667 188 609 188 589 182.33333 574 171 564 159.66667 554 145.66667 549 129 549 112.33333 549 98.333339 554 87 564 75.666667 574 69.666667 589 69 609ZM247 0C237 2 202.33335 3 143 3 135.66667 3 123.333339 3 106 3 88.666667 3 72 2.3333336 56 1L34 0H26V46H42C60.666669 46 77 47 91 49 97 51.666669 100.666667 55.333333 102 60 103.333339 64.666667 104 78.666667 104 102V205 293C104 327.66667 103.333339 349.66667 102 359 100.666667 368.33335 96 374.66667 88 378 78.666667 382.66667 63 385 41 385H30V408C30 423.33335 30.666666 431 32 431L42 432C48.666669 432.66667 58 433.33335 70 434 82 434.66667 94 435.33335 106 436 117.333339 436.66667 129.33333 437.33335 142 438 154.66667 438.66667 164.33333 439.66667 171 441 177.66667 442.33335 181.33333 442.66667 182 442H185V62C188.33333 55.333333 192.33333 51.333333 197 50 201.66667 48.666669 213.33333 47.333333 232 46H255V0H247Z"/>
<path transform="matrix(.00717401,0,0,-.0071664408,31.774815,40.962488)" d="M36 46H50C76 46 91.666667 50.666666 97 60V68C97 74 97 81.666667 97 91 97 100.333339 97.333339 110.666667 98 122 98.666667 133.33333 98.666667 146.33333 98 161 97.333339 175.66667 97.333339 189.66667 98 203 98 223.66667 98 245.66667 98 269 98 292.33335 98 312 98 328L97 351C95 363.66667 90.333339 372 83 376 75.666667 380 60.666669 383 38 385H20V408C20 423.33335 20.666666 431 22 431L32 432C38.666669 432.66667 48 433.33335 60 434 72 434.66667 84 435.33335 96 436 106.666667 436.66667 118.333339 437.33335 131 438 143.66667 438.66667 153.33333 439.66667 160 441 166.66667 442.33335 170.33333 442.66667 171 442H174V373C200 418.33335 232.33333 441 271 441H277C307 441 329 433.66667 343 419 357 404.33335 364 389 364 373 364 359 359.66667 347 351 337 342.33335 327 329.66667 322 313 322 296.33335 322 284 327.33335 276 338 268 348.66667 263.66667 360 263 372 263 378 263.66667 383.33335 265 388 266.33335 392.66667 268 396.66667 270 400 272 403.33335 273 405 273 405 271.66667 406.33335 264 405 250 401 239.33333 395.66667 231.33333 390.66667 226 386 194.66667 356 179 296.33335 179 207V154C179 145.33333 179 136.33333 179 127 179 117.666667 179 109 179 101 179 93 179.33333 86.333339 180 81 180.66667 75.666667 180.66667 70.666667 180 66V61C180.66667 59.666669 181.66667 58.333333 183 57 184.33333 55.666669 186 54.666669 188 54 190 53.333333 191.66667 52.333333 193 51 194.33333 49.666669 196.66667 49 200 49 203.33333 49 205.66667 48.666669 207 48 208.33333 47.333333 211.33333 47 216 47 220.66667 47 223.66667 47 225 47 226.33333 47 229.66667 46.666669 235 46 240.33333 45.333333 243.66667 45.333333 245 46H276V0H267C255 2 212.66667 3 140 3 71.33333 3 34 2 28 0H20V46H36Z"/>
<path transform="matrix(.00717401,0,0,-.0071664408,31.774815,40.962488)" stroke-linecap="butt" stroke-miterlimit="4" stroke-linejoin="miter" fill="none" stroke="#000000" stroke-opacity=".0078" d="M36 46H50C76 46 91.666667 50.666666 97 60V68C97 74 97 81.666667 97 91 97 100.333339 97.333339 110.666667 98 122 98.666667 133.33333 98.666667 146.33333 98 161 97.333339 175.66667 97.333339 189.66667 98 203 98 223.66667 98 245.66667 98 269 98 292.33335 98 312 98 328L97 351C95 363.66667 90.333339 372 83 376 75.666667 380 60.666669 383 38 385H20V408C20 423.33335 20.666666 431 22 431L32 432C38.666669 432.66667 48 433.33335 60 434 72 434.66667 84 435.33335 96 436 106.666667 436.66667 118.333339 437.33335 131 438 143.66667 438.66667 153.33333 439.66667 160 441 166.66667 442.33335 170.33333 442.66667 171 442H174V373C200 418.33335 232.33333 441 271 441H277C307 441 329 433.66667 343 419 357 404.33335 364 389 364 373 364 359 359.66667 347 351 337 342.33335 327 329.66667 322 313 322 296.33335 322 284 327.33335 276 338 268 348.66667 263.66667 360 263 372 263 378 263.66667 383.33335 265 388 266.33335 392.66667 268 396.66667 270 400 272 403.33335 273 405 273 405 271.66667 406.33335 264 405 250 401 239.33333 395.66667 231.33333 390.66667 226 386 194.66667 356 179 296.33335 179 207V154C179 145.33333 179 136.33333 179 127 179 117.666667 179 109 179 101 179 93 179.33333 86.333339 180 81 180.66667 75.666667 180.66667 70.666667 180 66V61C180.66667 59.666669 181.66667 58.333333 183 57 184.33333 55.666669 186 54.666669 188 54 190 53.333333 191.66667 52.333333 193 51 194.33333 49.666669 196.66667 49 200 49 203.33333 49 205.66667 48.666669 207 48 208.33333 47.333333 211.33333 47 216 47 220.66667 47 223.66667 47 225 47 226.33333 47 229.66667 46.666669 235 46 240.33333 45.333333 243.66667 45.333333 245 46H276V0H267C255 2 212.66667 3 140 3 71.33333 3 34 2 28 0H20V46H36Z"/>
<path transform="matrix(.00717401,0,0,-.0071664408,34.59571,40.962488)" d="M28 218C28 254.66667 34.666666 288 48 318 61.333337 348 78 372.33335 98 391 118 409.66667 139.66667 423.66667 163 433 186.33333 442.33335 208.33333 447.33335 229 448 264.33335 448 294.66667 442 320 430 345.33335 418 364.66667 401.33335 378 380 391.33335 358.66667 400.66667 337.33335 406 316 411.33335 294.66667 414.33335 271 415 245 415 240.33333 412.66667 235.66667 408 231H126V216C126 117.33333 159.33333 57.333337 226 36 239.33333 32 254 30 270 30 298 30 322 40.666666 342 62 353.33335 73.333339 362.33335 87.33333 369 104L379 128C381 130 386.33335 131 395 131H398C409.33335 131 415 127.666667 415 121 415 118.333339 414 114 412 108 399.33335 71.33333 378.33335 42.333337 349 21 319.66667-.33333398 286.66667-11 250-11 186.66666-11 134 12 92 58 50 104 28.666666 157.33333 28 218ZM333 275C325.66667 360.33335 294 405.66667 238 411H236C230.66667 411 225.33333 410.66667 220 410 214.66667 409.33335 206.33333 406.66667 195 402 183.66667 397.33335 174 390.33335 166 381 158 371.66667 150.33333 358 143 340 135.66667 322 130.33333 300 127 274V267H333V275Z"/>
<path transform="matrix(.00717401,0,0,-.0071664408,34.59571,40.962488)" stroke-linecap="butt" stroke-miterlimit="4" stroke-linejoin="miter" fill="none" stroke="#000000" stroke-opacity=".0078" d="M28 218C28 254.66667 34.666666 288 48 318 61.333337 348 78 372.33335 98 391 118 409.66667 139.66667 423.66667 163 433 186.33333 442.33335 208.33333 447.33335 229 448 264.33335 448 294.66667 442 320 430 345.33335 418 364.66667 401.33335 378 380 391.33335 358.66667 400.66667 337.33335 406 316 411.33335 294.66667 414.33335 271 415 245 415 240.33333 412.66667 235.66667 408 231H126V216C126 117.33333 159.33333 57.333337 226 36 239.33333 32 254 30 270 30 298 30 322 40.666666 342 62 353.33335 73.333339 362.33335 87.33333 369 104L379 128C381 130 386.33335 131 395 131H398C409.33335 131 415 127.666667 415 121 415 118.333339 414 114 412 108 399.33335 71.33333 378.33335 42.333337 349 21 319.66667-.33333398 286.66667-11 250-11 186.66666-11 134 12 92 58 50 104 28.666666 157.33333 28 218ZM333 275C325.66667 360.33335 294 405.66667 238 411H236C230.66667 411 225.33333 410.66667 220 410 214.66667 409.33335 206.33333 406.66667 195 402 183.66667 397.33335 174 390.33335 166 381 158 371.66667 150.33333 358 143 340 135.66667 322 130.33333 300 127 274V267H333V275Z"/>
<path transform="matrix(.00717401,0,0,-.0071664408,37.78191,40.962488)" d="M376 495C376 505.66667 376 519 376 535 376 551 376.33335 562 377 568 377 598 373.66667 616.6667 367 624 360.33335 631.3333 343.33335 635.6667 316 637H298V660C298 675.3333 298.66667 683 300 683L310 684C316.66667 684.6667 326.33335 685.3333 339 686 351.66667 686.6667 364 687.3333 376 688 387.33335 688.6667 399.66667 689.3333 413 690 426.33335 690.6667 436.33335 691.6667 443 693 449.66667 694.3333 453.33335 694.6667 454 694H457V390C457 186 457.33335 83 458 81 460 67.666667 464.66667 59 472 55 479.33335 51 494.33335 48 517 46H535V0C533.6667 0 508.33335-1.6666665 459-5 409.66667-8.333334 383.33335-10.333333 380-11H373V44L365 37C326.33335 5 283-11 235-11 183.66666-11 137.33335 9.333332 96 50 54.666666 90.66667 34 145.66666 34 215 34 281.6667 55 336 97 378 139 420 188 441.33335 244 442 294 442 338 425.66667 376 393V495ZM373 342C343 384 305.33335 405 260 405 227.33333 405 198.33333 393 173 369 155 350.33335 143.66667 329 139 305 134.33333 281 131.66667 249.66667 131 211 131 173.66666 133.33333 143.33333 138 120 142.66667 96.666667 154.33333 76.333339 173 59 193 37 219 26 251 26 298.33335 26 339 51.666666 373 103V342Z"/>
<path transform="matrix(.00717401,0,0,-.0071664408,37.78191,40.962488)" stroke-linecap="butt" stroke-miterlimit="4" stroke-linejoin="miter" fill="none" stroke="#000000" stroke-opacity=".0078" d="M376 495C376 505.66667 376 519 376 535 376 551 376.33335 562 377 568 377 598 373.66667 616.6667 367 624 360.33335 631.3333 343.33335 635.6667 316 637H298V660C298 675.3333 298.66667 683 300 683L310 684C316.66667 684.6667 326.33335 685.3333 339 686 351.66667 686.6667 364 687.3333 376 688 387.33335 688.6667 399.66667 689.3333 413 690 426.33335 690.6667 436.33335 691.6667 443 693 449.66667 694.3333 453.33335 694.6667 454 694H457V390C457 186 457.33335 83 458 81 460 67.666667 464.66667 59 472 55 479.33335 51 494.33335 48 517 46H535V0C533.6667 0 508.33335-1.6666665 459-5 409.66667-8.333334 383.33335-10.333333 380-11H373V44L365 37C326.33335 5 283-11 235-11 183.66666-11 137.33335 9.333332 96 50 54.666666 90.66667 34 145.66666 34 215 34 281.6667 55 336 97 378 139 420 188 441.33335 244 442 294 442 338 425.66667 376 393V495ZM373 342C343 384 305.33335 405 260 405 227.33333 405 198.33333 393 173 369 155 350.33335 143.66667 329 139 305 134.33333 281 131.66667 249.66667 131 211 131 173.66666 133.33333 143.33333 138 120 142.66667 96.666667 154.33333 76.333339 173 59 193 37 219 26 251 26 298.33335 26 339 51.666666 373 103V342Z"/>
<path transform="matrix(.00717401,0,0,-.0071664408,19.770779,47.61197)" d="M184 600C184 616 190.33333 630 203 642 215.66667 654 230.33333 660.3333 247 661 259 661 269 657 277 649 285 641 289.33335 631 290 619 290 603.6667 283.33335 589.6667 270 577 256.66667 564.3333 242 557.6667 226 557 216 557 206.66667 560.3333 198 567 189.33333 573.6667 184.66667 584.6667 184 600ZM21 287C21 292.33335 24 302.66667 30 318 36 333.33335 44 350.33335 54 369 64 387.66667 78.666667 404.66667 98 420 117.333339 435.33335 137.33333 442.66667 158 442 184 442 205.66667 434.33335 223 419 240.33333 403.66667 249.33333 383 250 357 250 345.66667 245.33333 327 236 301 226.66667 275 213.33333 240 196 196 178.66667 152 164.66667 114.333339 154 83 150.66667 68.333339 149 57.666669 149 51 149 34.333333 154.66667 26 166 26 172 26 178.33333 27 185 29 191.66667 31 199.33333 35.666669 208 43 216.66667 50.333333 225.66667 62 235 78 244.33333 94 252.66667 113.666667 260 137 262 145 263.66667 149.66667 265 151 266.33335 152.33333 272 153 282 153 295.33335 153 302 149.66667 302 143 302 137.66667 299 127.333339 293 112 287 96.666667 278.66667 79.66667 268 61 257.33335 42.333333 242.33333 25.666668 223 11 203.66667-3.666667 183-11 161-11 139.66667-11 120-4 102 10 84 24 74.666667 45.333333 74 74 74 85.333339 75.666667 96 79 106 82.333339 116 96.666667 154 122 220 147.33333 287.33335 162 327.66667 166 341 170 354.33335 172.33333 367.33335 173 380 173 396 167.33333 404 156 404H154C134 404 115.66667 393 99 371 82.33333 349 69.666667 321 61 287 60.333333 286.33335 59.666669 285.33335 59 284 58.333333 282.66667 58 281.66667 58 281 58 280.33335 57.333333 279.66667 56 279 54.666669 278.33335 53.666669 278 53 278 52.333333 278 51 278 49 278 47 278 44.333333 278 41 278H27C23 282 21 285 21 287Z"/>
<path transform="matrix(.00717401,0,0,-.0071664408,19.770779,47.61197)" stroke-linecap="butt" stroke-miterlimit="4" stroke-linejoin="miter" fill="none" stroke="#000000" stroke-opacity=".0078" d="M184 600C184 616 190.33333 630 203 642 215.66667 654 230.33333 660.3333 247 661 259 661 269 657 277 649 285 641 289.33335 631 290 619 290 603.6667 283.33335 589.6667 270 577 256.66667 564.3333 242 557.6667 226 557 216 557 206.66667 560.3333 198 567 189.33333 573.6667 184.66667 584.6667 184 600ZM21 287C21 292.33335 24 302.66667 30 318 36 333.33335 44 350.33335 54 369 64 387.66667 78.666667 404.66667 98 420 117.333339 435.33335 137.33333 442.66667 158 442 184 442 205.66667 434.33335 223 419 240.33333 403.66667 249.33333 383 250 357 250 345.66667 245.33333 327 236 301 226.66667 275 213.33333 240 196 196 178.66667 152 164.66667 114.333339 154 83 150.66667 68.333339 149 57.666669 149 51 149 34.333333 154.66667 26 166 26 172 26 178.33333 27 185 29 191.66667 31 199.33333 35.666669 208 43 216.66667 50.333333 225.66667 62 235 78 244.33333 94 252.66667 113.666667 260 137 262 145 263.66667 149.66667 265 151 266.33335 152.33333 272 153 282 153 295.33335 153 302 149.66667 302 143 302 137.66667 299 127.333339 293 112 287 96.666667 278.66667 79.66667 268 61 257.33335 42.333333 242.33333 25.666668 223 11 203.66667-3.666667 183-11 161-11 139.66667-11 120-4 102 10 84 24 74.666667 45.333333 74 74 74 85.333339 75.666667 96 79 106 82.333339 116 96.666667 154 122 220 147.33333 287.33335 162 327.66667 166 341 170 354.33335 172.33333 367.33335 173 380 173 396 167.33333 404 156 404H154C134 404 115.66667 393 99 371 82.33333 349 69.666667 321 61 287 60.333333 286.33335 59.666669 285.33335 59 284 58.333333 282.66667 58 281.66667 58 281 58 280.33335 57.333333 279.66667 56 279 54.666669 278.33335 53.666669 278 53 278 52.333333 278 51 278 49 278 47 278 44.333333 278 41 278H27C23 282 21 285 21 287Z"/>
<path transform="matrix(.010147115,0,0,-.010136409,45.615484,44.530504)" d="M56 347C56 355.66667 60.666666 362.33335 70 367H707C717 361.66667 722 355 722 347 722 339.66667 717.3333 333.33335 708 328L390 327H72C61.333333 330.33335 56 337 56 347ZM56 153C56 163 61.333333 169.66667 72 173H708C717.3333 166.33333 722 159.66667 722 153 722 144.33333 717 137.66667 707 133H70C60.666666 137.66667 56 144.33333 56 153Z"/>
<path transform="matrix(.010147115,0,0,-.010136409,45.615484,44.530504)" stroke-linecap="butt" stroke-miterlimit="4" stroke-linejoin="miter" fill="none" stroke="#000000" stroke-opacity=".0118" d="M56 347C56 355.66667 60.666666 362.33335 70 367H707C717 361.66667 722 355 722 347 722 339.66667 717.3333 333.33335 708 328L390 327H72C61.333333 330.33335 56 337 56 347ZM56 153C56 163 61.333333 169.66667 72 173H708C717.3333 166.33333 722 159.66667 722 153 722 144.33333 717 137.66667 707 133H70C60.666666 137.66667 56 144.33333 56 153Z"/>
<path transform="matrix(.010147115,0,0,-.010136409,56.330835,44.530504)" d="M41 46H55C81 46 96.666667 50.666666 102 60V68C102 74 102 81.666667 102 91 102 100.333339 102 110.666667 102 122 102 133.33333 102.333339 146.33333 103 161 103.666667 175.66667 103.666667 189.66667 103 203 103 223.66667 103 245.66667 103 269 103 292.33335 102.666667 312 102 328V351C100 363.66667 95.333339 372 88 376 80.666667 380 65.66667 383 43 385H25V408C25 423.33335 25.666666 431 27 431L37 432C43.666669 432.66667 53 433.33335 65 434 77 434.66667 89.333339 435.33335 102 436 113.333339 436.66667 125.333339 437.33335 138 438 150.66667 438.66667 160.33333 439.66667 167 441 173.66667 442.33335 177.33333 442.66667 178 442H181V402C181 376.66667 181.33333 364 182 364 182.66667 364 184.33333 365.66667 187 369 189.66667 372.33335 193.66667 377.33335 199 384 204.33333 390.66667 210.66667 396.66667 218 402 225.33333 407.33335 235 413.66667 247 421 259 428.33335 271.66667 433.66667 285 437 298.33335 440.33335 315.33335 442 336 442 346 442 355.33335 441.33335 364 440 372.66667 438.66667 380.33335 436.66667 387 434 393.66667 431.33335 400 428.66667 406 426 412 423.33335 417 420.33335 421 417 425 413.66667 428.66667 410 432 406 435.33335 402 438.33335 398.33335 441 395 443.66667 391.66667 446 388 448 384 450 380 451.33335 376.66667 452 374 452.66667 371.33335 453.66667 368.66667 455 366L457 361 460 365C462 367.66667 464 370.33335 466 373 468 375.66667 471 379.33335 475 384 479 388.66667 483.33335 393 488 397 492.66667 401 497.66667 405.33335 503 410 508.33335 414.66667 515 418.66667 523 422 531 425.33335 538.6667 428.66667 546 432 553.3333 435.33335 562 437.66667 572 439 582 440.33335 592.3333 441.33335 603 442 687 442 732.6667 404.33335 740 329 740.6667 324.33335 741 278 741 190V104C741 78.666667 741.6667 63.666669 743 59 744.3333 54.333333 748 51 754 49 768 47 784.3333 46 803 46H819V0H811L788 1C772 1.6666668 755 2 737 2 719 2 706.3333 2.3333333 699 3 630.3333 3 593 2 587 0H579V46H595C635.6667 46 656 51.333333 656 62 656.6667 63.333333 657 109.33333 657 200 656.3333 290 655.6667 337.66667 655 343 651 361.66667 644.3333 375.66667 635 385 625.6667 394.33335 617.6667 400 611 402 604.3333 404 595.6667 404.66667 585 404 555 404 528.6667 392.66667 506 370 488 352 476.66667 333.66667 472 315 467.33335 296.33335 464.66667 268.66667 464 232V168 108C464 88 464.33335 74.666667 465 68 465.66667 61.333333 466.66667 57 468 55 469.33335 53 472.33335 51 477 49 491 47 507.33335 46 526 46H542V0H534L510 1C494.66667 1.6666668 478 2 460 2 442 2 429.33335 2.3333333 422 3 353.3333 3 316 2 310 0H302V46H318C358.66667 46 379 51.333333 379 62 379.66667 63.333333 380 109.33333 380 200 379.33335 290 378.66667 337.66667 378 343 374 361.66667 367.33335 375.66667 358 385 348.66667 394.33335 340.66667 400 334 402 327.33335 404 318.66667 404.66667 308 404 278 404 251.66667 392.66667 229 370 211 352 199.66667 333.66667 195 315 190.33333 296.33335 187.66667 268.66667 187 232V168 108C187 88 187.33333 74.666667 188 68 188.66667 61.333333 189.66667 57 191 55 192.33333 53 195.33333 51 200 49 214 47 230.33333 46 249 46H265V0H257L234 1C218 1.6666668 201 2 183 2 165 2 152.33333 2.3333333 145 3 76.33333 3 39 2 33 0H25V46H41Z"/>
<path transform="matrix(.010147115,0,0,-.010136409,56.330835,44.530504)" stroke-linecap="butt" stroke-miterlimit="4" stroke-linejoin="miter" fill="none" stroke="#000000" stroke-opacity=".0118" d="M41 46H55C81 46 96.666667 50.666666 102 60V68C102 74 102 81.666667 102 91 102 100.333339 102 110.666667 102 122 102 133.33333 102.333339 146.33333 103 161 103.666667 175.66667 103.666667 189.66667 103 203 103 223.66667 103 245.66667 103 269 103 292.33335 102.666667 312 102 328V351C100 363.66667 95.333339 372 88 376 80.666667 380 65.66667 383 43 385H25V408C25 423.33335 25.666666 431 27 431L37 432C43.666669 432.66667 53 433.33335 65 434 77 434.66667 89.333339 435.33335 102 436 113.333339 436.66667 125.333339 437.33335 138 438 150.66667 438.66667 160.33333 439.66667 167 441 173.66667 442.33335 177.33333 442.66667 178 442H181V402C181 376.66667 181.33333 364 182 364 182.66667 364 184.33333 365.66667 187 369 189.66667 372.33335 193.66667 377.33335 199 384 204.33333 390.66667 210.66667 396.66667 218 402 225.33333 407.33335 235 413.66667 247 421 259 428.33335 271.66667 433.66667 285 437 298.33335 440.33335 315.33335 442 336 442 346 442 355.33335 441.33335 364 440 372.66667 438.66667 380.33335 436.66667 387 434 393.66667 431.33335 400 428.66667 406 426 412 423.33335 417 420.33335 421 417 425 413.66667 428.66667 410 432 406 435.33335 402 438.33335 398.33335 441 395 443.66667 391.66667 446 388 448 384 450 380 451.33335 376.66667 452 374 452.66667 371.33335 453.66667 368.66667 455 366L457 361 460 365C462 367.66667 464 370.33335 466 373 468 375.66667 471 379.33335 475 384 479 388.66667 483.33335 393 488 397 492.66667 401 497.66667 405.33335 503 410 508.33335 414.66667 515 418.66667 523 422 531 425.33335 538.6667 428.66667 546 432 553.3333 435.33335 562 437.66667 572 439 582 440.33335 592.3333 441.33335 603 442 687 442 732.6667 404.33335 740 329 740.6667 324.33335 741 278 741 190V104C741 78.666667 741.6667 63.666669 743 59 744.3333 54.333333 748 51 754 49 768 47 784.3333 46 803 46H819V0H811L788 1C772 1.6666668 755 2 737 2 719 2 706.3333 2.3333333 699 3 630.3333 3 593 2 587 0H579V46H595C635.6667 46 656 51.333333 656 62 656.6667 63.333333 657 109.33333 657 200 656.3333 290 655.6667 337.66667 655 343 651 361.66667 644.3333 375.66667 635 385 625.6667 394.33335 617.6667 400 611 402 604.3333 404 595.6667 404.66667 585 404 555 404 528.6667 392.66667 506 370 488 352 476.66667 333.66667 472 315 467.33335 296.33335 464.66667 268.66667 464 232V168 108C464 88 464.33335 74.666667 465 68 465.66667 61.333333 466.66667 57 468 55 469.33335 53 472.33335 51 477 49 491 47 507.33335 46 526 46H542V0H534L510 1C494.66667 1.6666668 478 2 460 2 442 2 429.33335 2.3333333 422 3 353.3333 3 316 2 310 0H302V46H318C358.66667 46 379 51.333333 379 62 379.66667 63.333333 380 109.33333 380 200 379.33335 290 378.66667 337.66667 378 343 374 361.66667 367.33335 375.66667 358 385 348.66667 394.33335 340.66667 400 334 402 327.33335 404 318.66667 404.66667 308 404 278 404 251.66667 392.66667 229 370 211 352 199.66667 333.66667 195 315 190.33333 296.33335 187.66667 268.66667 187 232V168 108C187 88 187.33333 74.666667 188 68 188.66667 61.333333 189.66667 57 191 55 192.33333 53 195.33333 51 200 49 214 47 230.33333 46 249 46H265V0H257L234 1C218 1.6666668 201 2 183 2 165 2 152.33333 2.3333333 145 3 76.33333 3 39 2 33 0H25V46H41Z"/>
<path transform="matrix(.010147115,0,0,-.010136409,64.78338,44.530504)" d="M137 305C137 305 129.66667 305 115 305 100.333339 305 88 310 78 320 68 330 63 343 63 359 63 382.33335 74.33333 403 97 421 119.66667 439 160 448 218 448 266.66667 448 306 437.33335 336 416 366 394.66667 386 369.33335 396 340 399.33335 330.66667 401 320.33335 401 309 401 297.66667 401.33335 259.33335 402 194V124C402 92 403.66667 70 407 58 410.33335 46 417.33335 40 428 40 438 40 444.66667 45.333333 448 56 451.33335 66.666667 453 84.33333 453 109V145H493V106C492.33335 79.33333 491.33335 63.666669 490 59 484 39 472.33335 23.333334 455 12 437.66667 .66666606 419.33335-5.3333337 400-6 380.66667-6.6666667 365-.666667 353 12 341 24.666668 333 38.666666 329 54V58L327 55C325.66667 53 324 51 322 49 320 47 317.33335 44 314 40 310.66667 36 306.66667 32.333333 302 29 297.33335 25.666666 292.33335 21.666668 287 17 281.66667 12.333333 275.66667 8.666667 269 6 262.33335 3.3333333 255 .66666677 247-2 239-4.666667 230.33333-6.6666667 221-8 211.66667-9.333333 201.33333-10.333333 190-11 150-11 114-.66666796 82 20 50 40.666669 34 69.666667 34 107 34 121 36.333333 134.33333 41 147 45.666669 159.66667 54.666666 173.33333 68 188 81.333339 202.66667 97.33333 215 116 225 134.66667 235 160.66666 244.33333 194 253 227.33335 261.66667 264 266.66667 304 268H318V290C318 312.66667 316 329.33335 312 340 297.33335 387.33335 265 411 215 411 203 411 191.66667 410.66667 181 410 170.33333 409.33335 162 408 156 406 150 404 147.33333 403 148 403 162.66667 393 170 378.33335 170 359 170 342.33335 164.66667 329.33335 154 320L137 305ZM126 106C126 85.33333 134 67 150 51 166 35 185.66667 26.666666 209 26 234.33333 26 256.66667 33.666666 276 49 295.33335 64.333339 308.33335 84.33333 315 109 316.33335 113.666667 317.33335 135.66666 318 175 318 213.66667 317.66667 233 317 233 311.66667 233 304.66667 232.66667 296 232 287.33335 231.33333 272.33335 228.33333 251 223 229.66667 217.66667 210.33333 211 193 203 175.66667 195 160.33333 182.66667 147 166 133.66667 149.33333 126.666667 129.33333 126 106Z"/>
<path transform="matrix(.010147115,0,0,-.010136409,64.78338,44.530504)" stroke-linecap="butt" stroke-miterlimit="4" stroke-linejoin="miter" fill="none" stroke="#000000" stroke-opacity=".0118" d="M137 305C137 305 129.66667 305 115 305 100.333339 305 88 310 78 320 68 330 63 343 63 359 63 382.33335 74.33333 403 97 421 119.66667 439 160 448 218 448 266.66667 448 306 437.33335 336 416 366 394.66667 386 369.33335 396 340 399.33335 330.66667 401 320.33335 401 309 401 297.66667 401.33335 259.33335 402 194V124C402 92 403.66667 70 407 58 410.33335 46 417.33335 40 428 40 438 40 444.66667 45.333333 448 56 451.33335 66.666667 453 84.33333 453 109V145H493V106C492.33335 79.33333 491.33335 63.666669 490 59 484 39 472.33335 23.333334 455 12 437.66667 .66666606 419.33335-5.3333337 400-6 380.66667-6.6666667 365-.666667 353 12 341 24.666668 333 38.666666 329 54V58L327 55C325.66667 53 324 51 322 49 320 47 317.33335 44 314 40 310.66667 36 306.66667 32.333333 302 29 297.33335 25.666666 292.33335 21.666668 287 17 281.66667 12.333333 275.66667 8.666667 269 6 262.33335 3.3333333 255 .66666677 247-2 239-4.666667 230.33333-6.6666667 221-8 211.66667-9.333333 201.33333-10.333333 190-11 150-11 114-.66666796 82 20 50 40.666669 34 69.666667 34 107 34 121 36.333333 134.33333 41 147 45.666669 159.66667 54.666666 173.33333 68 188 81.333339 202.66667 97.33333 215 116 225 134.66667 235 160.66666 244.33333 194 253 227.33335 261.66667 264 266.66667 304 268H318V290C318 312.66667 316 329.33335 312 340 297.33335 387.33335 265 411 215 411 203 411 191.66667 410.66667 181 410 170.33333 409.33335 162 408 156 406 150 404 147.33333 403 148 403 162.66667 393 170 378.33335 170 359 170 342.33335 164.66667 329.33335 154 320L137 305ZM126 106C126 85.33333 134 67 150 51 166 35 185.66667 26.666666 209 26 234.33333 26 256.66667 33.666666 276 49 295.33335 64.333339 308.33335 84.33333 315 109 316.33335 113.666667 317.33335 135.66666 318 175 318 213.66667 317.66667 233 317 233 311.66667 233 304.66667 232.66667 296 232 287.33335 231.33333 272.33335 228.33333 251 223 229.66667 217.66667 210.33333 211 193 203 175.66667 195 160.33333 182.66667 147 166 133.66667 149.33333 126.666667 129.33333 126 106Z"/>
<path transform="matrix(.010147115,0,0,-.010136409,69.86708,44.530504)" d="M201 0C193 2 160 3 102 3 51.333333 3 23 2 17 0H11V46H25C40.333337 46.666669 54.333333 48.666669 67 52 79.666667 55.333333 89.333339 58.333333 96 61 102.666667 63.666669 111 69.333339 121 78 131 86.666667 137 92.666667 139 96 141 99.333339 148 108 160 122 172 136 178.66667 145.33333 180 150L226 210 168 288C162 296.66667 155.66667 305.66667 149 315 142.33333 324.33335 137 331.33335 133 336 129 340.66667 125.333339 345.66667 122 351 118.666667 356.33335 115.666667 360.33335 113 363 110.333339 365.66667 108.333339 368 107 370 105.666667 372 103.333339 374 100 376 96.666667 378 94.666667 379 94 379 93.333339 379 91.333339 379.66667 88 381 84.666667 382.33335 82 383 80 383 76 383 64 383.66667 44 385H16V431H23C47 429.66667 81.33333 429 126 429 188 429 222.33333 429.66667 229 431H237V385C213 382.33335 201 377 201 369 201 367.66667 204.33333 362.33335 211 353 217.66667 343.66667 227 331 239 315 251 299 260.66667 285.33335 268 274L272 270 297 304C318.33335 331.33335 329 349.33335 329 358 329 362 328.33335 365.66667 327 369 325.66667 372.33335 324 374.66667 322 376 320 377.33335 318.33335 378.66667 317 380 315.66667 381.33335 313.33335 382.66667 310 384L307 385H302V431H309C319 429 352 428 408 428 460.66667 428 489 429 493 431H499V385H492C459.33335 385 432.33335 379.33335 411 368 399.66667 362.66667 388.33335 353.66667 377 341 365.66667 328.33335 344 300.33335 312 257L296 236 358 151C402 91 425.66667 59.666669 429 57 432.33335 54.333333 438 52 446 50 458 47.333333 475.66667 46 499 46H516V0H510 502C496.66667 .6666667 490 1 482 1 474 1 465.66667 1.3333333 457 2 448.33335 2.6666668 440 2.6666668 432 2 424 1.3333333 418 1.6666666 414 3 406.66667 3 394.33335 3 377 3 359.66667 3 343 2.3333336 327 1L304 0H295V46H298C305.33335 46 312.66667 47.666669 320 51 327.33335 54.333333 331 58.333333 331 63 331 64.333339 317.66667 83.33333 291 120L250 175C249.33333 174.33333 239 160.33333 219 133 199 105.666667 187.66667 90.666667 185 88 182.33333 84.666667 181 80 181 74 181 66.666667 183.33333 60.333333 188 55 192.66667 49.666669 198.66667 46.666669 206 46 207.33333 46 208 38.333337 208 23V0H201Z"/>
<path transform="matrix(.010147115,0,0,-.010136409,69.86708,44.530504)" stroke-linecap="butt" stroke-miterlimit="4" stroke-linejoin="miter" fill="none" stroke="#000000" stroke-opacity=".0118" d="M201 0C193 2 160 3 102 3 51.333333 3 23 2 17 0H11V46H25C40.333337 46.666669 54.333333 48.666669 67 52 79.666667 55.333333 89.333339 58.333333 96 61 102.666667 63.666669 111 69.333339 121 78 131 86.666667 137 92.666667 139 96 141 99.333339 148 108 160 122 172 136 178.66667 145.33333 180 150L226 210 168 288C162 296.66667 155.66667 305.66667 149 315 142.33333 324.33335 137 331.33335 133 336 129 340.66667 125.333339 345.66667 122 351 118.666667 356.33335 115.666667 360.33335 113 363 110.333339 365.66667 108.333339 368 107 370 105.666667 372 103.333339 374 100 376 96.666667 378 94.666667 379 94 379 93.333339 379 91.333339 379.66667 88 381 84.666667 382.33335 82 383 80 383 76 383 64 383.66667 44 385H16V431H23C47 429.66667 81.33333 429 126 429 188 429 222.33333 429.66667 229 431H237V385C213 382.33335 201 377 201 369 201 367.66667 204.33333 362.33335 211 353 217.66667 343.66667 227 331 239 315 251 299 260.66667 285.33335 268 274L272 270 297 304C318.33335 331.33335 329 349.33335 329 358 329 362 328.33335 365.66667 327 369 325.66667 372.33335 324 374.66667 322 376 320 377.33335 318.33335 378.66667 317 380 315.66667 381.33335 313.33335 382.66667 310 384L307 385H302V431H309C319 429 352 428 408 428 460.66667 428 489 429 493 431H499V385H492C459.33335 385 432.33335 379.33335 411 368 399.66667 362.66667 388.33335 353.66667 377 341 365.66667 328.33335 344 300.33335 312 257L296 236 358 151C402 91 425.66667 59.666669 429 57 432.33335 54.333333 438 52 446 50 458 47.333333 475.66667 46 499 46H516V0H510 502C496.66667 .6666667 490 1 482 1 474 1 465.66667 1.3333333 457 2 448.33335 2.6666668 440 2.6666668 432 2 424 1.3333333 418 1.6666666 414 3 406.66667 3 394.33335 3 377 3 359.66667 3 343 2.3333336 327 1L304 0H295V46H298C305.33335 46 312.66667 47.666669 320 51 327.33335 54.333333 331 58.333333 331 63 331 64.333339 317.66667 83.33333 291 120L250 175C249.33333 174.33333 239 160.33333 219 133 199 105.666667 187.66667 90.666667 185 88 182.33333 84.666667 181 80 181 74 181 66.666667 183.33333 60.333333 188 55 192.66667 49.666669 198.66667 46.666669 206 46 207.33333 46 208 38.333337 208 23V0H201Z"/>
<path transform="matrix(.010147115,0,0,-.010136409,75.23491,44.530504)" d="M661-1243 655-1249H622L604-1240C536.6667-1206.6666 480-1162.3334 434-1107 388-1051.6666 359.33335-985.6667 348-909 346.66667-901 346-764.3334 346-499L345-98 343-82C337.66667-25.333333 319 31 287 87 255 143 211.66667 188.33333 157 223 149.66667 229 145.66667 233.33333 145 236 144.33333 238.66667 144 243.33333 144 250 144 260 144.33333 266 145 268 145.66667 270 149.66667 273.33335 157 278 213.66667 314.66667 257.33335 361 288 417 318.66667 473 337 528.3333 343 583L345 600 346 1001C346 1265.6668 346.66667 1402 348 1410 368.66667 1551.3334 452.66667 1661 600 1739L622 1750H655L661 1744V1727 1721C661 1715 661 1711.3334 661 1710 661 1708.6666 659.6667 1707 657 1705 654.3333 1703 651.3333 1701.3334 648 1700 644.6667 1698.6666 638.6667 1695.3334 630 1690 621.3333 1684.6666 612 1677.3334 602 1668 593.3333 1662 584 1653.6666 574 1643 564 1632.3334 549.6667 1615.6666 531 1593 512.3333 1570.3334 496.66667 1542 484 1508 471.33335 1474 463 1437.3334 459 1398 458.33335 1392 458 1259.6668 458 1001 458 743 457.66667 611 457 605 446.33335 491.66667 394.33335 395.33335 301 316 269.66667 290 236.66667 268.33335 202 251L250 222C256.66667 218 273.66667 205.66667 301 185 395.6667 105.666667 447.66667 9.333336 457-104 457.66667-110 458-242.33332 458-501 458-759 458.33335-891 459-897 461.66667-928.3333 468-958.6667 478-988 488-1017.3333 498.33335-1041.3334 509-1060 519.6667-1078.6666 532.6667-1096.6666 548-1114 563.3333-1131.3334 574-1143 580-1149 586-1155 593.3333-1161 602-1167 614-1177.6666 624.6667-1186 634-1192 643.3333-1198 649.6667-1201.3334 653-1202 656.3333-1202.6666 658.3333-1204.3334 659-1207 659.6667-1209.6666 660.3333-1214 661-1220V-1226-1243Z"/>
<path transform="matrix(.010147115,0,0,-.010136409,75.23491,44.530504)" stroke-linecap="butt" stroke-miterlimit="4" stroke-linejoin="miter" fill="none" stroke="#000000" stroke-opacity=".0118" d="M661-1243 655-1249H622L604-1240C536.6667-1206.6666 480-1162.3334 434-1107 388-1051.6666 359.33335-985.6667 348-909 346.66667-901 346-764.3334 346-499L345-98 343-82C337.66667-25.333333 319 31 287 87 255 143 211.66667 188.33333 157 223 149.66667 229 145.66667 233.33333 145 236 144.33333 238.66667 144 243.33333 144 250 144 260 144.33333 266 145 268 145.66667 270 149.66667 273.33335 157 278 213.66667 314.66667 257.33335 361 288 417 318.66667 473 337 528.3333 343 583L345 600 346 1001C346 1265.6668 346.66667 1402 348 1410 368.66667 1551.3334 452.66667 1661 600 1739L622 1750H655L661 1744V1727 1721C661 1715 661 1711.3334 661 1710 661 1708.6666 659.6667 1707 657 1705 654.3333 1703 651.3333 1701.3334 648 1700 644.6667 1698.6666 638.6667 1695.3334 630 1690 621.3333 1684.6666 612 1677.3334 602 1668 593.3333 1662 584 1653.6666 574 1643 564 1632.3334 549.6667 1615.6666 531 1593 512.3333 1570.3334 496.66667 1542 484 1508 471.33335 1474 463 1437.3334 459 1398 458.33335 1392 458 1259.6668 458 1001 458 743 457.66667 611 457 605 446.33335 491.66667 394.33335 395.33335 301 316 269.66667 290 236.66667 268.33335 202 251L250 222C256.66667 218 273.66667 205.66667 301 185 395.6667 105.666667 447.66667 9.333336 457-104 457.66667-110 458-242.33332 458-501 458-759 458.33335-891 459-897 461.66667-928.3333 468-958.6667 478-988 488-1017.3333 498.33335-1041.3334 509-1060 519.6667-1078.6666 532.6667-1096.6666 548-1114 563.3333-1131.3334 574-1143 580-1149 586-1155 593.3333-1161 602-1167 614-1177.6666 624.6667-1186 634-1192 643.3333-1198 649.6667-1201.3334 653-1202 656.3333-1202.6666 658.3333-1204.3334 659-1207 659.6667-1209.6666 660.3333-1214 661-1220V-1226-1243Z"/>
<path transform="matrix(.010147115,0,0,-.010136409,83.413478,44.530504)" d="M96 585C133.33335 639 184.33333 666 249 666 281 666 313 657.3333 345 640 377 622.6667 403 592 423 548 447.66667 492.66667 460 416.6667 460 320 460 216.66666 445.66667 137.66667 417 83 403.66667 55 385.33335 32.666669 362 16 338.66667-.66666796 318.33335-11 301-15 283.66667-19 266.66667-21.333334 250-22 232.66667-22 215.33333-20 198-16 180.66667-12 160.33333-1.333334 137 16 113.666667 33.333337 95.333339 55.666666 82 83 53.333333 137.66667 39 216.66666 39 320 39 436 58 524.3333 96 585ZM321 597C301 618.3333 277.33335 629 250 629 222 629 198 618.3333 178 597 161.33333 579.6667 150.33333 555.6667 145 525 139.66667 494.33335 137 430.33335 137 333 137 227.66666 139.66667 158.33335 145 125 150.33333 91.666667 162.33333 65.333339 181 46 199.66667 26 222.66667 16 250 16 276.66667 16 299.33335 26 318 46 337.33335 66 349.33335 94 354 130 358.66667 166 361.33335 233.66666 362 333 362 429.6667 359.33335 493.33335 354 524 348.66667 554.6667 337.66667 579 321 597Z"/>
<path transform="matrix(.010147115,0,0,-.010136409,83.413478,44.530504)" stroke-linecap="butt" stroke-miterlimit="4" stroke-linejoin="miter" fill="none" stroke="#000000" stroke-opacity=".0118" d="M96 585C133.33335 639 184.33333 666 249 666 281 666 313 657.3333 345 640 377 622.6667 403 592 423 548 447.66667 492.66667 460 416.6667 460 320 460 216.66666 445.66667 137.66667 417 83 403.66667 55 385.33335 32.666669 362 16 338.66667-.66666796 318.33335-11 301-15 283.66667-19 266.66667-21.333334 250-22 232.66667-22 215.33333-20 198-16 180.66667-12 160.33333-1.333334 137 16 113.666667 33.333337 95.333339 55.666666 82 83 53.333333 137.66667 39 216.66666 39 320 39 436 58 524.3333 96 585ZM321 597C301 618.3333 277.33335 629 250 629 222 629 198 618.3333 178 597 161.33333 579.6667 150.33333 555.6667 145 525 139.66667 494.33335 137 430.33335 137 333 137 227.66666 139.66667 158.33335 145 125 150.33333 91.666667 162.33333 65.333339 181 46 199.66667 26 222.66667 16 250 16 276.66667 16 299.33335 26 318 46 337.33335 66 349.33335 94 354 130 358.66667 166 361.33335 233.66666 362 333 362 429.6667 359.33335 493.33335 354 524 348.66667 554.6667 337.66667 579 321 597Z"/>
<path transform="matrix(.010147115,0,0,-.010136409,88.497188,44.530504)" d="M78 35C78 35 78 43.333333 78 60 78 76.66667 83.333339 91 94 103 104.666667 115 119 121 137 121 155.66667 121 172.33333 112.66667 187 96 201.66667 79.33333 209.33333 50 210 8 210-15.333334 207-38 201-60 195-82 188-101 180-117 172-133 163.33333-146.66667 154-158 144.66667-169.33333 136.66667-178.33333 130-185 123.333339-191.66667 119-194.66667 117-194 114.333339-194 110-191 104-185 98-179 95-174.66667 95-172 95-169.33333 98.666667-164 106-156 113.333339-148 121.666667-138 131-126 140.33333-114 149-97.333339 157-76 165-54.666666 170.33333-30.333334 173-3V9L172 8C170.66667 7.3333337 169 6.6666667 167 6 165 5.3333337 163 4.3333337 161 3 159 1.6666666 156 1 152 1 148 1 144 .6666667 140 0 122 0 107.333339 5.666666 96 17L78 35Z"/>
<path transform="matrix(.010147115,0,0,-.010136409,88.497188,44.530504)" stroke-linecap="butt" stroke-miterlimit="4" stroke-linejoin="miter" fill="none" stroke="#000000" stroke-opacity=".0118" d="M78 35C78 35 78 43.333333 78 60 78 76.66667 83.333339 91 94 103 104.666667 115 119 121 137 121 155.66667 121 172.33333 112.66667 187 96 201.66667 79.33333 209.33333 50 210 8 210-15.333334 207-38 201-60 195-82 188-101 180-117 172-133 163.33333-146.66667 154-158 144.66667-169.33333 136.66667-178.33333 130-185 123.333339-191.66667 119-194.66667 117-194 114.333339-194 110-191 104-185 98-179 95-174.66667 95-172 95-169.33333 98.666667-164 106-156 113.333339-148 121.666667-138 131-126 140.33333-114 149-97.333339 157-76 165-54.666666 170.33333-30.333334 173-3V9L172 8C170.66667 7.3333337 169 6.6666667 167 6 165 5.3333337 163 4.3333337 161 3 159 1.6666666 156 1 152 1 148 1 144 .6666667 140 0 122 0 107.333339 5.666666 96 17L78 35Z"/>
<path transform="matrix(.010147115,0,0,-.010136409,94.22016,44.530504)" d="M0 220H1086V280H0Z"/>
<path transform="matrix(.010147115,0,0,-.010136409,94.81883,37.67829)" d="M495 384C495 398.66667 501.33335 412 514 424 526.6667 436 540.3333 442.33335 555 443 567.6667 443 579 437 589 425 599 413 604 392.66667 604 364 604 344 600 315.33335 592 278 584 240.66666 571.6667 199.66667 555 155 538.3333 110.33333 514.3333 71.333339 483 38 451.66667 4.666664 416.33335-11.666667 377-11 323.66667-11 287 14.666664 267 66 266.33335 67.333339 264 65.666667 260 61 220.66666 13 175.66667-11 125-11 51.666666-11 15 39 15 139 15 199.66667 28.666666 261.66667 56 325 83.333339 388.33335 105.666667 424.66667 123 434 131 438.66667 139 439.33335 147 436 155.66667 431.33335 160 425.33335 160 418 160 410 153.33333 397 140 379 126.666667 361 111.333339 336.66667 94 306 76.666667 275.33335 66 242.66667 62 208 61.333333 204 61 197 61 187 61 145 69 116 85 100 101 84 120.33333 76 143 76 181.66667 76 215.66667 93.666667 245 129L253 137V156C256.33335 250 277.66667 297 317 297 337.66667 297 348 285 348 261 348 249 344.66667 233 338 213 331.33335 193 324.66667 174.66667 318 158L308 135C308.66667 133.66667 309.33335 131.66667 310 129 310.66667 126.333339 313.33335 121.666667 318 115 322.66667 108.333339 328 102.333339 334 97 340 91.666667 348 87 358 83 368 79 379.66667 76.666667 393 76 435 76 471 100 501 148 531 196 546 238 546 274 546 294.66667 541.6667 311.66667 533 325 524.3333 338.33335 516 349 508 357 500 365 495.66667 374 495 384Z"/>
<path transform="matrix(.010147115,0,0,-.010136409,94.81883,37.67829)" stroke-linecap="butt" stroke-miterlimit="4" stroke-linejoin="miter" fill="none" stroke="#000000" stroke-opacity=".0118" d="M495 384C495 398.66667 501.33335 412 514 424 526.6667 436 540.3333 442.33335 555 443 567.6667 443 579 437 589 425 599 413 604 392.66667 604 364 604 344 600 315.33335 592 278 584 240.66666 571.6667 199.66667 555 155 538.3333 110.33333 514.3333 71.333339 483 38 451.66667 4.666664 416.33335-11.666667 377-11 323.66667-11 287 14.666664 267 66 266.33335 67.333339 264 65.666667 260 61 220.66666 13 175.66667-11 125-11 51.666666-11 15 39 15 139 15 199.66667 28.666666 261.66667 56 325 83.333339 388.33335 105.666667 424.66667 123 434 131 438.66667 139 439.33335 147 436 155.66667 431.33335 160 425.33335 160 418 160 410 153.33333 397 140 379 126.666667 361 111.333339 336.66667 94 306 76.666667 275.33335 66 242.66667 62 208 61.333333 204 61 197 61 187 61 145 69 116 85 100 101 84 120.33333 76 143 76 181.66667 76 215.66667 93.666667 245 129L253 137V156C256.33335 250 277.66667 297 317 297 337.66667 297 348 285 348 261 348 249 344.66667 233 338 213 331.33335 193 324.66667 174.66667 318 158L308 135C308.66667 133.66667 309.33335 131.66667 310 129 310.66667 126.333339 313.33335 121.666667 318 115 322.66667 108.333339 328 102.333339 334 97 340 91.666667 348 87 358 83 368 79 379.66667 76.666667 393 76 435 76 471 100 501 148 531 196 546 238 546 274 546 294.66667 541.6667 311.66667 533 325 524.3333 338.33335 516 349 508 357 500 365 495.66667 374 495 384Z"/>
<path transform="matrix(.00717401,0,0,-.0071664408,101.13034,39.198755)" d="M184 600C184 616 190.33333 630 203 642 215.66667 654 230.33333 660.3333 247 661 259 661 269 657 277 649 285 641 289.33335 631 290 619 290 603.6667 283.33335 589.6667 270 577 256.66667 564.3333 242 557.6667 226 557 216 557 206.66667 560.3333 198 567 189.33333 573.6667 184.66667 584.6667 184 600ZM21 287C21 292.33335 24 302.66667 30 318 36 333.33335 44 350.33335 54 369 64 387.66667 78.666667 404.66667 98 420 117.333339 435.33335 137.33333 442.66667 158 442 184 442 205.66667 434.33335 223 419 240.33333 403.66667 249.33333 383 250 357 250 345.66667 245.33333 327 236 301 226.66667 275 213.33333 240 196 196 178.66667 152 164.66667 114.333339 154 83 150.66667 68.333339 149 57.666669 149 51 149 34.333333 154.66667 26 166 26 172 26 178.33333 27 185 29 191.66667 31 199.33333 35.666669 208 43 216.66667 50.333333 225.66667 62 235 78 244.33333 94 252.66667 113.666667 260 137 262 145 263.66667 149.66667 265 151 266.33335 152.33333 272 153 282 153 295.33335 153 302 149.66667 302 143 302 137.66667 299 127.333339 293 112 287 96.666667 278.66667 79.66667 268 61 257.33335 42.333333 242.33333 25.666668 223 11 203.66667-3.666667 183-11 161-11 139.66667-11 120-4 102 10 84 24 74.666667 45.333333 74 74 74 85.333339 75.666667 96 79 106 82.333339 116 96.666667 154 122 220 147.33333 287.33335 162 327.66667 166 341 170 354.33335 172.33333 367.33335 173 380 173 396 167.33333 404 156 404H154C134 404 115.66667 393 99 371 82.33333 349 69.666667 321 61 287 60.333333 286.33335 59.666669 285.33335 59 284 58.333333 282.66667 58 281.66667 58 281 58 280.33335 57.333333 279.66667 56 279 54.666669 278.33335 53.666669 278 53 278 52.333333 278 51 278 49 278 47 278 44.333333 278 41 278H27C23 282 21 285 21 287Z"/>
<path transform="matrix(.00717401,0,0,-.0071664408,101.13034,39.198755)" stroke-linecap="butt" stroke-miterlimit="4" stroke-linejoin="miter" fill="none" stroke="#000000" stroke-opacity=".0078" d="M184 600C184 616 190.33333 630 203 642 215.66667 654 230.33333 660.3333 247 661 259 661 269 657 277 649 285 641 289.33335 631 290 619 290 603.6667 283.33335 589.6667 270 577 256.66667 564.3333 242 557.6667 226 557 216 557 206.66667 560.3333 198 567 189.33333 573.6667 184.66667 584.6667 184 600ZM21 287C21 292.33335 24 302.66667 30 318 36 333.33335 44 350.33335 54 369 64 387.66667 78.666667 404.66667 98 420 117.333339 435.33335 137.33333 442.66667 158 442 184 442 205.66667 434.33335 223 419 240.33333 403.66667 249.33333 383 250 357 250 345.66667 245.33333 327 236 301 226.66667 275 213.33333 240 196 196 178.66667 152 164.66667 114.333339 154 83 150.66667 68.333339 149 57.666669 149 51 149 34.333333 154.66667 26 166 26 172 26 178.33333 27 185 29 191.66667 31 199.33333 35.666669 208 43 216.66667 50.333333 225.66667 62 235 78 244.33333 94 252.66667 113.666667 260 137 262 145 263.66667 149.66667 265 151 266.33335 152.33333 272 153 282 153 295.33335 153 302 149.66667 302 143 302 137.66667 299 127.333339 293 112 287 96.666667 278.66667 79.66667 268 61 257.33335 42.333333 242.33333 25.666668 223 11 203.66667-3.666667 183-11 161-11 139.66667-11 120-4 102 10 84 24 74.666667 45.333333 74 74 74 85.333339 75.666667 96 79 106 82.333339 116 96.666667 154 122 220 147.33333 287.33335 162 327.66667 166 341 170 354.33335 172.33333 367.33335 173 380 173 396 167.33333 404 156 404H154C134 404 115.66667 393 99 371 82.33333 349 69.666667 321 61 287 60.333333 286.33335 59.666669 285.33335 59 284 58.333333 282.66667 58 281.66667 58 281 58 280.33335 57.333333 279.66667 56 279 54.666669 278.33335 53.666669 278 53 278 52.333333 278 51 278 49 278 47 278 44.333333 278 41 278H27C23 282 21 285 21 287Z"/>
<path transform="matrix(.010147115,0,0,-.010136409,95.4581,51.484079)" d="M21 287C21.666666 289 22.333334 291.66667 23 295 23.666666 298.33335 25.333334 305.66667 28 317 30.666666 328.33335 34 338.66667 38 348 42 357.33335 47 368.33335 53 381 59 393.66667 65.666667 403.66667 73 411 80.333339 418.33335 89 425.66667 99 433 109 440.33335 120 443.33335 132 442 148 442 162.33333 439.66667 175 435 187.66667 430.33335 197.66667 424.33335 205 417 212.33333 409.66667 217.66667 402.33335 221 395 224.33333 387.66667 227 381.33335 229 376L231 369C231 367.66667 231.33333 367 232 367L243 378C283.66667 420.66667 330 442 382 442 418 442 447 433 469 415 491 397 502.33335 370.66667 503 336V326C503 310 481.66667 219 439 53 400.33335-103.66667 379.66667-184.33333 377-189 368.33335-207 353.33335-216 332-216 323.33335-216 316-213.33333 310-208 304-202.66667 300.33335-195.33333 299-186 299-180 318.66667-99 358 57L420 307C422 317 423 329.66667 423 345 423 384.33335 408.33335 404 379 404H374C316.66667 404 268.33335 370.33335 229 303L222 291 189 157C167 69.666667 154.33333 22.666668 151 16 142.33333-2 128-11 108-11 99.333339-11 92.333339-9 87-5 81.666667-1 78 3 76 7 74 11 73.333339 14.333333 74 17 74 25.666668 87.33333 83 114 189 140.66667 295 154 354 154 366 154 392 145.33333 405 128 405 114 405 102 395.66667 92 377 82 358.33335 74 338 68 316 62 294 58.333333 282 57 280 55.666669 278.66667 50.333337 278 41 278H27C23 282 21 285 21 287Z"/>
<path transform="matrix(.010147115,0,0,-.010136409,95.4581,51.484079)" stroke-linecap="butt" stroke-miterlimit="4" stroke-linejoin="miter" fill="none" stroke="#000000" stroke-opacity=".0118" d="M21 287C21.666666 289 22.333334 291.66667 23 295 23.666666 298.33335 25.333334 305.66667 28 317 30.666666 328.33335 34 338.66667 38 348 42 357.33335 47 368.33335 53 381 59 393.66667 65.666667 403.66667 73 411 80.333339 418.33335 89 425.66667 99 433 109 440.33335 120 443.33335 132 442 148 442 162.33333 439.66667 175 435 187.66667 430.33335 197.66667 424.33335 205 417 212.33333 409.66667 217.66667 402.33335 221 395 224.33333 387.66667 227 381.33335 229 376L231 369C231 367.66667 231.33333 367 232 367L243 378C283.66667 420.66667 330 442 382 442 418 442 447 433 469 415 491 397 502.33335 370.66667 503 336V326C503 310 481.66667 219 439 53 400.33335-103.66667 379.66667-184.33333 377-189 368.33335-207 353.33335-216 332-216 323.33335-216 316-213.33333 310-208 304-202.66667 300.33335-195.33333 299-186 299-180 318.66667-99 358 57L420 307C422 317 423 329.66667 423 345 423 384.33335 408.33335 404 379 404H374C316.66667 404 268.33335 370.33335 229 303L222 291 189 157C167 69.666667 154.33333 22.666668 151 16 142.33333-2 128-11 108-11 99.333339-11 92.333339-9 87-5 81.666667-1 78 3 76 7 74 11 73.333339 14.333333 74 17 74 25.666668 87.33333 83 114 189 140.66667 295 154 354 154 366 154 392 145.33333 405 128 405 114 405 102 395.66667 92 377 82 358.33335 74 338 68 316 62 294 58.333333 282 57 280 55.666669 278.66667 50.333337 278 41 278H27C23 282 21 285 21 287Z"/>
<path transform="matrix(.00717401,0,0,-.0071664408,100.50122,53.004545)" d="M184 600C184 616 190.33333 630 203 642 215.66667 654 230.33333 660.3333 247 661 259 661 269 657 277 649 285 641 289.33335 631 290 619 290 603.6667 283.33335 589.6667 270 577 256.66667 564.3333 242 557.6667 226 557 216 557 206.66667 560.3333 198 567 189.33333 573.6667 184.66667 584.6667 184 600ZM21 287C21 292.33335 24 302.66667 30 318 36 333.33335 44 350.33335 54 369 64 387.66667 78.666667 404.66667 98 420 117.333339 435.33335 137.33333 442.66667 158 442 184 442 205.66667 434.33335 223 419 240.33333 403.66667 249.33333 383 250 357 250 345.66667 245.33333 327 236 301 226.66667 275 213.33333 240 196 196 178.66667 152 164.66667 114.333339 154 83 150.66667 68.333339 149 57.666669 149 51 149 34.333333 154.66667 26 166 26 172 26 178.33333 27 185 29 191.66667 31 199.33333 35.666669 208 43 216.66667 50.333333 225.66667 62 235 78 244.33333 94 252.66667 113.666667 260 137 262 145 263.66667 149.66667 265 151 266.33335 152.33333 272 153 282 153 295.33335 153 302 149.66667 302 143 302 137.66667 299 127.333339 293 112 287 96.666667 278.66667 79.66667 268 61 257.33335 42.333333 242.33333 25.666668 223 11 203.66667-3.666667 183-11 161-11 139.66667-11 120-4 102 10 84 24 74.666667 45.333333 74 74 74 85.333339 75.666667 96 79 106 82.333339 116 96.666667 154 122 220 147.33333 287.33335 162 327.66667 166 341 170 354.33335 172.33333 367.33335 173 380 173 396 167.33333 404 156 404H154C134 404 115.66667 393 99 371 82.33333 349 69.666667 321 61 287 60.333333 286.33335 59.666669 285.33335 59 284 58.333333 282.66667 58 281.66667 58 281 58 280.33335 57.333333 279.66667 56 279 54.666669 278.33335 53.666669 278 53 278 52.333333 278 51 278 49 278 47 278 44.333333 278 41 278H27C23 282 21 285 21 287Z"/>
<path transform="matrix(.00717401,0,0,-.0071664408,100.50122,53.004545)" stroke-linecap="butt" stroke-miterlimit="4" stroke-linejoin="miter" fill="none" stroke="#000000" stroke-opacity=".0078" d="M184 600C184 616 190.33333 630 203 642 215.66667 654 230.33333 660.3333 247 661 259 661 269 657 277 649 285 641 289.33335 631 290 619 290 603.6667 283.33335 589.6667 270 577 256.66667 564.3333 242 557.6667 226 557 216 557 206.66667 560.3333 198 567 189.33333 573.6667 184.66667 584.6667 184 600ZM21 287C21 292.33335 24 302.66667 30 318 36 333.33335 44 350.33335 54 369 64 387.66667 78.666667 404.66667 98 420 117.333339 435.33335 137.33333 442.66667 158 442 184 442 205.66667 434.33335 223 419 240.33333 403.66667 249.33333 383 250 357 250 345.66667 245.33333 327 236 301 226.66667 275 213.33333 240 196 196 178.66667 152 164.66667 114.333339 154 83 150.66667 68.333339 149 57.666669 149 51 149 34.333333 154.66667 26 166 26 172 26 178.33333 27 185 29 191.66667 31 199.33333 35.666669 208 43 216.66667 50.333333 225.66667 62 235 78 244.33333 94 252.66667 113.666667 260 137 262 145 263.66667 149.66667 265 151 266.33335 152.33333 272 153 282 153 295.33335 153 302 149.66667 302 143 302 137.66667 299 127.333339 293 112 287 96.666667 278.66667 79.66667 268 61 257.33335 42.333333 242.33333 25.666668 223 11 203.66667-3.666667 183-11 161-11 139.66667-11 120-4 102 10 84 24 74.666667 45.333333 74 74 74 85.333339 75.666667 96 79 106 82.333339 116 96.666667 154 122 220 147.33333 287.33335 162 327.66667 166 341 170 354.33335 172.33333 367.33335 173 380 173 396 167.33333 404 156 404H154C134 404 115.66667 393 99 371 82.33333 349 69.666667 321 61 287 60.333333 286.33335 59.666669 285.33335 59 284 58.333333 282.66667 58 281.66667 58 281 58 280.33335 57.333333 279.66667 56 279 54.666669 278.33335 53.666669 278 53 278 52.333333 278 51 278 49 278 47 278 44.333333 278 41 278H27C23 282 21 285 21 287Z"/>
<path transform="matrix(.010147115,0,0,-.010136409,106.477878,44.530504)" d="M144 1727C144 1737.6666 144.66667 1744 146 1746 147.33333 1748 152.66667 1749.3334 162 1750H167 183L203 1740C250.33335 1716.6666 291 1689.3334 325 1658 359 1626.6666 385 1594.6666 403 1562 421 1529.3334 433.33335 1501.3334 440 1478 446.66667 1454.6666 452 1432 456 1410 457.33335 1402 458 1265.6668 458 1001 458.66667 774.3333 459 648.6667 459 624 459 599.3333 461 577.3333 465 558 468.33335 536.6667 473.33335 516 480 496 486.66667 476 494 457.66667 502 441 510 424.33335 519 409 529 395 539 381 549 368 559 356 569 344 578.6667 333.66667 588 325 597.3333 316.33335 606.3333 308.33335 615 301 623.6667 293.66667 631 288 637 284 643 280 648.6667 276.33335 654 273L660 269V266C660 264 660 261.66667 660 259 660 256.33335 660.3333 253.33333 661 250V239C661 237 661 235.33333 661 234 661 232.66667 660.6667 232 660 232 659.3333 232 658 231 656 229 654 227 651.6667 225.33333 649 224 601 194 560.6667 154.33335 528 105 495.33335 55.666666 474.33335 1.6666679 465-57 461.66667-76.333339 460-98.33333 460-123 460-147.66667 459.33335-273 458-499V-661C458-791.6667 457.66667-869 457-893 456.33335-917 453-937.6667 447-955 432.33335-1017 403-1072 359-1120 315-1168 263-1207.6666 203-1239L183-1249H168C156-1249 149-1248 147-1246 145-1244 144-1237.3334 144-1226 144-1217.3334 144.33333-1212 145-1210 145.66667-1208 148.33333-1205.3334 153-1202 163.66667-1196 174.66667-1189 186-1181 197.33333-1173 212.66667-1159.3334 232-1140 251.33333-1120.6666 268-1101 282-1081 296-1061 309.33335-1034 322-1000 334.66667-966 342.33335-931.6667 345-897 345.66667-891 346-759 346-501 346-242.33332 346.33335-110 347-104 355 4 407 100 503 184 537 212 570.3333 234 603 250 537 282.66667 479.33335 330.33335 430 393 380.66667 455.66667 353 526.3333 347 605 346.33335 611 346 743.3333 346 1002 346 1260 345.66667 1392 345 1398 340.33335 1461.3334 321.33335 1519.6666 288 1573 254.66666 1626.3334 209.66667 1669.6666 153 1703 148.33333 1705.6666 145.66667 1708 145 1710 144.33333 1712 144 1717.6666 144 1727Z"/>
<path transform="matrix(.010147115,0,0,-.010136409,106.477878,44.530504)" stroke-linecap="butt" stroke-miterlimit="4" stroke-linejoin="miter" fill="none" stroke="#000000" stroke-opacity=".0118" d="M144 1727C144 1737.6666 144.66667 1744 146 1746 147.33333 1748 152.66667 1749.3334 162 1750H167 183L203 1740C250.33335 1716.6666 291 1689.3334 325 1658 359 1626.6666 385 1594.6666 403 1562 421 1529.3334 433.33335 1501.3334 440 1478 446.66667 1454.6666 452 1432 456 1410 457.33335 1402 458 1265.6668 458 1001 458.66667 774.3333 459 648.6667 459 624 459 599.3333 461 577.3333 465 558 468.33335 536.6667 473.33335 516 480 496 486.66667 476 494 457.66667 502 441 510 424.33335 519 409 529 395 539 381 549 368 559 356 569 344 578.6667 333.66667 588 325 597.3333 316.33335 606.3333 308.33335 615 301 623.6667 293.66667 631 288 637 284 643 280 648.6667 276.33335 654 273L660 269V266C660 264 660 261.66667 660 259 660 256.33335 660.3333 253.33333 661 250V239C661 237 661 235.33333 661 234 661 232.66667 660.6667 232 660 232 659.3333 232 658 231 656 229 654 227 651.6667 225.33333 649 224 601 194 560.6667 154.33335 528 105 495.33335 55.666666 474.33335 1.6666679 465-57 461.66667-76.333339 460-98.33333 460-123 460-147.66667 459.33335-273 458-499V-661C458-791.6667 457.66667-869 457-893 456.33335-917 453-937.6667 447-955 432.33335-1017 403-1072 359-1120 315-1168 263-1207.6666 203-1239L183-1249H168C156-1249 149-1248 147-1246 145-1244 144-1237.3334 144-1226 144-1217.3334 144.33333-1212 145-1210 145.66667-1208 148.33333-1205.3334 153-1202 163.66667-1196 174.66667-1189 186-1181 197.33333-1173 212.66667-1159.3334 232-1140 251.33333-1120.6666 268-1101 282-1081 296-1061 309.33335-1034 322-1000 334.66667-966 342.33335-931.6667 345-897 345.66667-891 346-759 346-501 346-242.33332 346.33335-110 347-104 355 4 407 100 503 184 537 212 570.3333 234 603 250 537 282.66667 479.33335 330.33335 430 393 380.66667 455.66667 353 526.3333 347 605 346.33335 611 346 743.3333 346 1002 346 1260 345.66667 1392 345 1398 340.33335 1461.3334 321.33335 1519.6666 288 1573 254.66666 1626.3334 209.66667 1669.6666 153 1703 148.33333 1705.6666 145.66667 1708 145 1710 144.33333 1712 144 1717.6666 144 1727Z"/>
</g>
</g>
</svg>
