<svg xmlns="http://www.w3.org/2000/svg" xmlns:xlink="http://www.w3.org/1999/xlink" xmlns:inkscape="http://www.inkscape.org/namespaces/inkscape" version="1.1" width="86.07868" height="52.96765" viewBox="0 0 86.07868 52.96765">
<defs>
<clipPath id="clip_1">
<path transform="matrix(1,0,0,-1,0,73.56324)" d="M0 20.59559H86.07868V73.56324H0Z" clip-rule="evenodd"/>
</clipPath>
<clipPath id="clip_2">
<path transform="matrix(.24,0,0,.24,0,-.35675813)" d="M0 0H512.5V308.3333H0Z" clip-rule="evenodd"/>
</clipPath>
<clipPath id="clip_3">
<path transform="matrix(.24,0,0,.24,0,-.35675813)" d="M0 0H360.41667V214.58333H0Z" clip-rule="evenodd"/>
</clipPath>
<clipPath id="clip_4">
<path transform="matrix(.24,0,0,.24,0,-.35675813)" d="M95.83333 87.5H262.5V164.58333H95.83333Z" clip-rule="evenodd"/>
</clipPath>
</defs>
<g clip-path="url(#clip_1)">
<g clip-path="url(#clip_2)">
<path transform="matrix(.49999998,0,0,.49999998,0,-.35675813)" d="M0 0H246V148H0Z" fill="#ffffff"/>
</g>
<g clip-path="url(#clip_3)">
<path transform="matrix(.49999998,0,0,.49999998,.24999999,-.10675813)" d="M.47000004 2.78 171.04-.95000007 171.67 99.84 2.72 99.27" fill="#ffffff"/>
<path transform="matrix(.49999998,0,0,.49999998,.24999999,-.10675813)" stroke-width="1" stroke-linecap="round" stroke-linejoin="round" fill="none" stroke="#000000" d="M1 1C60.34 1.34 115.93 .28 171 1M1 1C51.18 .97 99.58 .2 171 1M171 1C171.15 31.45 170.48 62.75 171 101M171 1C171.83 26.46 172.7 51.51 171 101M171 101C120.57 100.68 65.15 102.2 1 101M171 101C106.86 100.07 43.89 100.4 1 101M1 101C2.51 65.73 2.04 27.1 1 1M1 101C.78999999 61.37 1.61 21.63 1 1"/>
<text xml:space="preserve" transform="matrix(.49999998 0 0 .49999998 0 -.35675813)" font-size="15" font-family="Helvetica"><tspan y="26" x="40.96875 53.463754 61.803754 66.79875 74.29875 82.638759 86.808757 90.97875 100.98375 109.32375 117.66376 122.65876">Market Share</tspan></text>
</g>
<g clip-path="url(#clip_4)">
<path transform="matrix(.0073396598,0,0,-.007285185,23.00383,29.643359)" d="M166 673C166 681 171.66667 688 183 694H202C262 692 300 675.3333 316 644 320 634 339 581.3333 373 486 407 390.66667 440.66667 297.6667 474 207 507.33335 116.33333 524 69.666667 524 67 528.6667 53.666666 533 42.666669 537 34 541 25.333333 544 19 546 15 548 11 549.6667 8 551 6 552.3333 4 553.6667 2.6666668 555 2 556.3333 1.3333333 556.6667 0 556-2 555.3333-4 553.3333-7 550-11H482C465.33335-1.666666 454.66667 8 450 18 445.33335 28 428.33335 72.666667 399 152L354 277 340 262C331.33335 251.33333 315.66667 233 293 207 270.33335 181 251.33333 159 236 141 219.33333 121.666667 198.66667 97.66667 174 69 140 29 119 5.666667 111-1 103-7.666667 93.666667-11.333333 83-12 59-12 47-1.333334 47 20 47 31.333334 51.666666 42 61 52 70.333339 62 116.33333 107 199 187 219 206.33333 241.33333 228 266 252 290.66667 276 309 294 321 306L338 322C338 322.66667 321.33335 369.3333 288 462 254.66666 554.6667 236.66667 604.6667 234 612 220.66667 642 203.66667 657 183 657 171.66667 657 166 662.3333 166 673Z"/>
<path transform="matrix(.0073396598,0,0,-.007285185,23.00383,29.643359)" stroke-linecap="butt" stroke-miterlimit="4" stroke-linejoin="miter" fill="none" stroke="#000000" stroke-opacity=".0078" d="M166 673C166 681 171.66667 688 183 694H202C262 692 300 675.3333 316 644 320 634 339 581.3333 373 486 407 390.66667 440.66667 297.6667 474 207 507.33335 116.33333 524 69.666667 524 67 528.6667 53.666666 533 42.666669 537 34 541 25.333333 544 19 546 15 548 11 549.6667 8 551 6 552.3333 4 553.6667 2.6666668 555 2 556.3333 1.3333333 556.6667 0 556-2 555.3333-4 553.3333-7 550-11H482C465.33335-1.666666 454.66667 8 450 18 445.33335 28 428.33335 72.666667 399 152L354 277 340 262C331.33335 251.33333 315.66667 233 293 207 270.33335 181 251.33333 159 236 141 219.33333 121.666667 198.66667 97.66667 174 69 140 29 119 5.666667 111-1 103-7.666667 93.666667-11.333333 83-12 59-12 47-1.333334 47 20 47 31.333334 51.666666 42 61 52 70.333339 62 116.33333 107 199 187 219 206.33333 241.33333 228 266 252 290.66667 276 309 294 321 306L338 322C338 322.66667 321.33335 369.3333 288 462 254.66666 554.6667 236.66667 604.6667 234 612 220.66667 642 203.66667 657 183 657 171.66667 657 166 662.3333 166 673Z"/>
<path transform="matrix(.0051891396,0,0,-.0051506266,27.282853,30.73614)" d="M184 600C184 616 190.33333 630 203 642 215.66667 654 230.33333 660.3333 247 661 259 661 269 657 277 649 285 641 289.33335 631 290 619 290 603.6667 283.33335 589.6667 270 577 256.66667 564.3333 242 557.6667 226 557 216 557 206.66667 560.3333 198 567 189.33333 573.6667 184.66667 584.6667 184 600ZM21 287C21 292.33335 24 302.66667 30 318 36 333.33335 44 350.33335 54 369 64 387.66667 78.666667 404.66667 98 420 117.333339 435.33335 137.33333 442.66667 158 442 184 442 205.66667 434.33335 223 419 240.33333 403.66667 249.33333 383 250 357 250 345.66667 245.33333 327 236 301 226.66667 275 213.33333 240 196 196 178.66667 152 164.66667 114.333339 154 83 150.66667 68.333339 149 57.666669 149 51 149 34.333333 154.66667 26 166 26 172 26 178.33333 27 185 29 191.66667 31 199.33333 35.666669 208 43 216.66667 50.333333 225.66667 62 235 78 244.33333 94 252.66667 113.666667 260 137 262 145 263.66667 149.66667 265 151 266.33335 152.33333 272 153 282 153 295.33335 153 302 149.66667 302 143 302 137.66667 299 127.333339 293 112 287 96.666667 278.66667 79.66667 268 61 257.33335 42.333333 242.33333 25.666668 223 11 203.66667-3.666667 183-11 161-11 139.66667-11 120-4 102 10 84 24 74.666667 45.333333 74 74 74 85.333339 75.666667 96 79 106 82.333339 116 96.666667 154 122 220 147.33333 287.33335 162 327.66667 166 341 170 354.33335 172.33333 367.33335 173 380 173 396 167.33333 404 156 404H154C134 404 115.66667 393 99 371 82.33333 349 69.666667 321 61 287 60.333333 286.33335 59.666669 285.33335 59 284 58.333333 282.66667 58 281.66667 58 281 58 280.33335 57.333333 279.66667 56 279 54.666669 278.33335 53.666669 278 53 278 52.333333 278 51 278 49 278 47 278 44.333333 278 41 278H27C23 282 21 285 21 287Z"/>
<path transform="matrix(.0051891396,0,0,-.0051506266,27.282853,30.73614)" stroke-linecap="butt" stroke-miterlimit="4" stroke-linejoin="miter" fill="none" stroke="#000000" stroke-opacity=".0039" d="M184 600C184 616 190.33333 630 203 642 215.66667 654 230.33333 660.3333 247 661 259 661 269 657 277 649 285 641 289.33335 631 290 619 290 603.6667 283.33335 589.6667 270 577 256.66667 564.3333 242 557.6667 226 557 216 557 206.66667 560.3333 198 567 189.33333 573.6667 184.66667 584.6667 184 600ZM21 287C21 292.33335 24 302.66667 30 318 36 333.33335 44 350.33335 54 369 64 387.66667 78.666667 404.66667 98 420 117.333339 435.33335 137.33333 442.66667 158 442 184 442 205.66667 434.33335 223 419 240.33333 403.66667 249.33333 383 250 357 250 345.66667 245.33333 327 236 301 226.66667 275 213.33333 240 196 196 178.66667 152 164.66667 114.333339 154 83 150.66667 68.333339 149 57.666669 149 51 149 34.333333 154.66667 26 166 26 172 26 178.33333 27 185 29 191.66667 31 199.33333 35.666669 208 43 216.66667 50.333333 225.66667 62 235 78 244.33333 94 252.66667 113.666667 260 137 262 145 263.66667 149.66667 265 151 266.33335 152.33333 272 153 282 153 295.33335 153 302 149.66667 302 143 302 137.66667 299 127.333339 293 112 287 96.666667 278.66667 79.66667 268 61 257.33335 42.333333 242.33333 25.666668 223 11 203.66667-3.666667 183-11 161-11 139.66667-11 120-4 102 10 84 24 74.666667 45.333333 74 74 74 85.333339 75.666667 96 79 106 82.333339 116 96.666667 154 122 220 147.33333 287.33335 162 327.66667 166 341 170 354.33335 172.33333 367.33335 173 380 173 396 167.33333 404 156 404H154C134 404 115.66667 393 99 371 82.33333 349 69.666667 321 61 287 60.333333 286.33335 59.666669 285.33335 59 284 58.333333 282.66667 58 281.66667 58 281 58 280.33335 57.333333 279.66667 56 279 54.666669 278.33335 53.666669 278 53 278 52.333333 278 51 278 49 278 47 278 44.333333 278 41 278H27C23 282 21 285 21 287Z"/>
<path transform="matrix(.0051891396,0,0,-.0051506266,29.073727,30.73614)" d="M96 585C133.33335 639 184.33333 666 249 666 281 666 313 657.3333 345 640 377 622.6667 403 592 423 548 447.66667 492.66667 460 416.6667 460 320 460 216.66666 445.66667 137.66667 417 83 403.66667 55 385.33335 32.666669 362 16 338.66667-.66666796 318.33335-11 301-15 283.66667-19 266.66667-21.333334 250-22 232.66667-22 215.33333-20 198-16 180.66667-12 160.33333-1.333334 137 16 113.666667 33.333337 95.333339 55.666666 82 83 53.333333 137.66667 39 216.66666 39 320 39 436 58 524.3333 96 585ZM321 597C301 618.3333 277.33335 629 250 629 222 629 198 618.3333 178 597 161.33333 579.6667 150.33333 555.6667 145 525 139.66667 494.33335 137 430.33335 137 333 137 227.66666 139.66667 158.33335 145 125 150.33333 91.666667 162.33333 65.333339 181 46 199.66667 26 222.66667 16 250 16 276.66667 16 299.33335 26 318 46 337.33335 66 349.33335 94 354 130 358.66667 166 361.33335 233.66666 362 333 362 429.6667 359.33335 493.33335 354 524 348.66667 554.6667 337.66667 579 321 597Z"/>
<path transform="matrix(.0051891396,0,0,-.0051506266,29.073727,30.73614)" stroke-linecap="butt" stroke-miterlimit="4" stroke-linejoin="miter" fill="none" stroke="#000000" stroke-opacity=".0039" d="M96 585C133.33335 639 184.33333 666 249 666 281 666 313 657.3333 345 640 377 622.6667 403 592 423 548 447.66667 492.66667 460 416.6667 460 320 460 216.66666 445.66667 137.66667 417 83 403.66667 55 385.33335 32.666669 362 16 338.66667-.66666796 318.33335-11 301-15 283.66667-19 266.66667-21.333334 250-22 232.66667-22 215.33333-20 198-16 180.66667-12 160.33333-1.333334 137 16 113.666667 33.333337 95.333339 55.666666 82 83 53.333333 137.66667 39 216.66666 39 320 39 436 58 524.3333 96 585ZM321 597C301 618.3333 277.33335 629 250 629 222 629 198 618.3333 178 597 161.33333 579.6667 150.33333 555.6667 145 525 139.66667 494.33335 137 430.33335 137 333 137 227.66666 139.66667 158.33335 145 125 150.33333 91.666667 162.33333 65.333339 181 46 199.66667 26 222.66667 16 250 16 276.66667 16 299.33335 26 318 46 337.33335 66 349.33335 94 354 130 358.66667 166 361.33335 233.66666 362 333 362 429.6667 359.33335 493.33335 354 524 348.66667 554.6667 337.66667 579 321 597Z"/>
<path transform="matrix(.0073396598,0,0,-.007285185,34.44636,29.643359)" d="M56 347C56 355.66667 60.666666 362.33335 70 367H707C717 361.66667 722 355 722 347 722 339.66667 717.3333 333.33335 708 328L390 327H72C61.333333 330.33335 56 337 56 347ZM56 153C56 163 61.333333 169.66667 72 173H708C717.3333 166.33333 722 159.66667 722 153 722 144.33333 717 137.66667 707 133H70C60.666666 137.66667 56 144.33333 56 153Z"/>
<path transform="matrix(.0073396598,0,0,-.007285185,34.44636,29.643359)" stroke-linecap="butt" stroke-miterlimit="4" stroke-linejoin="miter" fill="none" stroke="#000000" stroke-opacity=".0078" d="M56 347C56 355.66667 60.666666 362.33335 70 367H707C717 361.66667 722 355 722 347 722 339.66667 717.3333 333.33335 708 328L390 327H72C61.333333 330.33335 56 337 56 347ZM56 153C56 163 61.333333 169.66667 72 173H708C717.3333 166.33333 722 159.66667 722 153 722 144.33333 717 137.66667 707 133H70C60.666666 137.66667 56 144.33333 56 153Z"/>
<path transform="matrix(.0073396598,0,0,-.007285185,43.070459,29.643359)" d="M0 220H2593V280H0Z"/>
<path transform="matrix(.0073396598,0,0,-.007285185,49.610097,24.718575)" d="M39 168C39 206 45.333333 240.66667 58 272 70.666667 303.33335 87 329.33335 107 350 127 370.66667 149.33333 388 174 402 198.66667 416 222 426.33335 244 433 266 439.66667 287 442.66667 307 442H310C340 442 366 434.66667 388 420 410 405.33335 421 383.66667 421 355 421 295 384 255.66667 310 237 277.33335 228.33333 232.66667 223.66667 176 223 151.33333 223 138.66667 222.33333 138 221 138 219.66667 136 208 132 186 128 164 125.666667 144.66667 125 128 125 96.666667 132 72 146 54 160 36 181 26.666666 209 26 237 25.333334 268 31.666666 302 45 336 58.333337 366.66667 80.33333 394 111 400 117.666667 404 121 406 121 408.66667 121 413 118 419 112 425 106 428.33335 101.333339 429 98 429.66667 94.666667 426.66667 89.333339 420 82 413.33335 74.666667 403.33335 65.666667 390 55 376.66667 44.333333 361.33335 34 344 24 326.66667 14 305.66667 5.666667 281-1 256.33335-7.666667 231-11 205-11 152.33333-11 111.66667 6.666664 83 42 54.333333 77.333339 39.666669 119.33333 39 168ZM373 353C369 387.66667 346.33335 405 305 405 283 405 262.66667 400.33335 244 391 225.33333 381.66667 210.33333 370.33335 199 357 187.66667 343.66667 178 330 170 316 162 302 156.66667 290 154 280 151.33333 270 149.66667 263.66667 149 261 149 260.33335 155.66667 260 169 260 244.33335 260 297 268 327 284 357 300 372.33335 323 373 353Z"/>
<path transform="matrix(.0073396598,0,0,-.007285185,49.610097,24.718575)" stroke-linecap="butt" stroke-miterlimit="4" stroke-linejoin="miter" fill="none" stroke="#000000" stroke-opacity=".0078" d="M39 168C39 206 45.333333 240.66667 58 272 70.666667 303.33335 87 329.33335 107 350 127 370.66667 149.33333 388 174 402 198.66667 416 222 426.33335 244 433 266 439.66667 287 442.66667 307 442H310C340 442 366 434.66667 388 420 410 405.33335 421 383.66667 421 355 421 295 384 255.66667 310 237 277.33335 228.33333 232.66667 223.66667 176 223 151.33333 223 138.66667 222.33333 138 221 138 219.66667 136 208 132 186 128 164 125.666667 144.66667 125 128 125 96.666667 132 72 146 54 160 36 181 26.666666 209 26 237 25.333334 268 31.666666 302 45 336 58.333337 366.66667 80.33333 394 111 400 117.666667 404 121 406 121 408.66667 121 413 118 419 112 425 106 428.33335 101.333339 429 98 429.66667 94.666667 426.66667 89.333339 420 82 413.33335 74.666667 403.33335 65.666667 390 55 376.66667 44.333333 361.33335 34 344 24 326.66667 14 305.66667 5.666667 281-1 256.33335-7.666667 231-11 205-11 152.33333-11 111.66667 6.666664 83 42 54.333333 77.333339 39.666669 119.33333 39 168ZM373 353C369 387.66667 346.33335 405 305 405 283 405 262.66667 400.33335 244 391 225.33333 381.66667 210.33333 370.33335 199 357 187.66667 343.66667 178 330 170 316 162 302 156.66667 290 154 280 151.33333 270 149.66667 263.66667 149 261 149 260.33335 155.66667 260 169 260 244.33335 260 297 268 327 284 357 300 372.33335 323 373 353Z"/>
<path transform="matrix(.0051891396,0,0,-.0051506266,53.030378,25.811354)" d="M184 600C184 616 190.33333 630 203 642 215.66667 654 230.33333 660.3333 247 661 259 661 269 657 277 649 285 641 289.33335 631 290 619 290 603.6667 283.33335 589.6667 270 577 256.66667 564.3333 242 557.6667 226 557 216 557 206.66667 560.3333 198 567 189.33333 573.6667 184.66667 584.6667 184 600ZM21 287C21 292.33335 24 302.66667 30 318 36 333.33335 44 350.33335 54 369 64 387.66667 78.666667 404.66667 98 420 117.333339 435.33335 137.33333 442.66667 158 442 184 442 205.66667 434.33335 223 419 240.33333 403.66667 249.33333 383 250 357 250 345.66667 245.33333 327 236 301 226.66667 275 213.33333 240 196 196 178.66667 152 164.66667 114.333339 154 83 150.66667 68.333339 149 57.666669 149 51 149 34.333333 154.66667 26 166 26 172 26 178.33333 27 185 29 191.66667 31 199.33333 35.666669 208 43 216.66667 50.333333 225.66667 62 235 78 244.33333 94 252.66667 113.666667 260 137 262 145 263.66667 149.66667 265 151 266.33335 152.33333 272 153 282 153 295.33335 153 302 149.66667 302 143 302 137.66667 299 127.333339 293 112 287 96.666667 278.66667 79.66667 268 61 257.33335 42.333333 242.33333 25.666668 223 11 203.66667-3.666667 183-11 161-11 139.66667-11 120-4 102 10 84 24 74.666667 45.333333 74 74 74 85.333339 75.666667 96 79 106 82.333339 116 96.666667 154 122 220 147.33333 287.33335 162 327.66667 166 341 170 354.33335 172.33333 367.33335 173 380 173 396 167.33333 404 156 404H154C134 404 115.66667 393 99 371 82.33333 349 69.666667 321 61 287 60.333333 286.33335 59.666669 285.33335 59 284 58.333333 282.66667 58 281.66667 58 281 58 280.33335 57.333333 279.66667 56 279 54.666669 278.33335 53.666669 278 53 278 52.333333 278 51 278 49 278 47 278 44.333333 278 41 278H27C23 282 21 285 21 287Z"/>
<path transform="matrix(.0051891396,0,0,-.0051506266,53.030378,25.811354)" stroke-linecap="butt" stroke-miterlimit="4" stroke-linejoin="miter" fill="none" stroke="#000000" stroke-opacity=".0039" d="M184 600C184 616 190.33333 630 203 642 215.66667 654 230.33333 660.3333 247 661 259 661 269 657 277 649 285 641 289.33335 631 290 619 290 603.6667 283.33335 589.6667 270 577 256.66667 564.3333 242 557.6667 226 557 216 557 206.66667 560.3333 198 567 189.33333 573.6667 184.66667 584.6667 184 600ZM21 287C21 292.33335 24 302.66667 30 318 36 333.33335 44 350.33335 54 369 64 387.66667 78.666667 404.66667 98 420 117.333339 435.33335 137.33333 442.66667 158 442 184 442 205.66667 434.33335 223 419 240.33333 403.66667 249.33333 383 250 357 250 345.66667 245.33333 327 236 301 226.66667 275 213.33333 240 196 196 178.66667 152 164.66667 114.333339 154 83 150.66667 68.333339 149 57.666669 149 51 149 34.333333 154.66667 26 166 26 172 26 178.33333 27 185 29 191.66667 31 199.33333 35.666669 208 43 216.66667 50.333333 225.66667 62 235 78 244.33333 94 252.66667 113.666667 260 137 262 145 263.66667 149.66667 265 151 266.33335 152.33333 272 153 282 153 295.33335 153 302 149.66667 302 143 302 137.66667 299 127.333339 293 112 287 96.666667 278.66667 79.66667 268 61 257.33335 42.333333 242.33333 25.666668 223 11 203.66667-3.666667 183-11 161-11 139.66667-11 120-4 102 10 84 24 74.666667 45.333333 74 74 74 85.333339 75.666667 96 79 106 82.333339 116 96.666667 154 122 220 147.33333 287.33335 162 327.66667 166 341 170 354.33335 172.33333 367.33335 173 380 173 396 167.33333 404 156 404H154C134 404 115.66667 393 99 371 82.33333 349 69.666667 321 61 287 60.333333 286.33335 59.666669 285.33335 59 284 58.333333 282.66667 58 281.66667 58 281 58 280.33335 57.333333 279.66667 56 279 54.666669 278.33335 53.666669 278 53 278 52.333333 278 51 278 49 278 47 278 44.333333 278 41 278H27C23 282 21 285 21 287Z"/>
<path transform="matrix(.0073396598,0,0,-.007285185,43.510839,35.201959)" d="M61 748C63 749.3333 205.66666 750 489 750H913L954 640C961.3333 619.3333 968.6667 599 976 579 983.3333 559 989 543.6667 993 533 997 522.3333 999 516.6667 999 516H979L959 517C943.6667 558.3333 919.3333 593 886 621 852.6667 649 816.3333 669.3333 777 682 741.6667 694 701 701.6667 655 705 609 708.3333 536 710 436 710H319C228.33333 710 183 709.6667 183 709 185 707 240 632 348 484 456 336 510.33335 261 511 259 515 253 515.6667 248 513 244L490 216C474 197.33333 450.66667 170 420 134 389.33335 98 359.33335 62.333337 330 27L149-187C149-187.66667 220-188 362-188 379.33335-188 404-188 436-188 468-188 491.33335-188.33333 506-189 621.3333-189 712-180 778-162 844-144 896.6667-104.333339 936-43 942.6667-32.333333 950.3333-16 959 6H999L913-249 489-250C206.33332-250 64-249.33333 62-248 58-246.66667 56-243.66667 56-239 56-235.66667 76.666667-209.66667 118-161 163.33335-107.666667 205.66666-57.666669 245-11L428 206C428 206.66667 366 292 242 462L57 717 56 728C56 738.6667 57.666669 745.3333 61 748Z"/>
<path transform="matrix(.0073396598,0,0,-.007285185,43.510839,35.201959)" stroke-linecap="butt" stroke-miterlimit="4" stroke-linejoin="miter" fill="none" stroke="#000000" stroke-opacity=".0078" d="M61 748C63 749.3333 205.66666 750 489 750H913L954 640C961.3333 619.3333 968.6667 599 976 579 983.3333 559 989 543.6667 993 533 997 522.3333 999 516.6667 999 516H979L959 517C943.6667 558.3333 919.3333 593 886 621 852.6667 649 816.3333 669.3333 777 682 741.6667 694 701 701.6667 655 705 609 708.3333 536 710 436 710H319C228.33333 710 183 709.6667 183 709 185 707 240 632 348 484 456 336 510.33335 261 511 259 515 253 515.6667 248 513 244L490 216C474 197.33333 450.66667 170 420 134 389.33335 98 359.33335 62.333337 330 27L149-187C149-187.66667 220-188 362-188 379.33335-188 404-188 436-188 468-188 491.33335-188.33333 506-189 621.3333-189 712-180 778-162 844-144 896.6667-104.333339 936-43 942.6667-32.333333 950.3333-16 959 6H999L913-249 489-250C206.33332-250 64-249.33333 62-248 58-246.66667 56-243.66667 56-239 56-235.66667 76.666667-209.66667 118-161 163.33335-107.666667 205.66666-57.666669 245-11L428 206C428 206.66667 366 292 242 462L57 717 56 728C56 738.6667 57.666669 745.3333 61 748Z"/>
<path transform="matrix(.0051891396,0,0,-.0051506266,51.261518,37.2928)" d="M297 596C297 616.6667 304 632.6667 318 644 332 655.3333 346.33335 661 361 661 372.33335 661 381.66667 657.6667 389 651 396.33335 644.3333 401 635 403 623 403 604.3333 396.66667 588.6667 384 576 371.33335 563.3333 356.66667 557 340 557 328 557 318 560.3333 310 567 302 573.6667 297.66667 583.3333 297 596ZM288 376C288 395.33335 279.33335 405 262 405 247.33333 405 233.33333 401 220 393 206.66667 385 195 374.66667 185 362 175 349.33335 167 337 161 325 155 313 149.33333 302.33335 144 293L137 279C135.66667 278.33335 130.33333 278 121 278H107C103 282 101 284.66667 101 286 101 287.33335 102.333339 291.66667 105 299 119 331.66667 138.66667 362.33335 164 391 189.33333 419.66667 218.66666 436.33335 252 441 252.66667 441 255.33333 441 260 441 264.66667 441 268.66667 441.33335 272 442 288 441.33335 302.66667 438 316 432 332.66667 422.66667 345.33335 412.33335 354 401 362.66667 389.66667 367 372 367 348V332L318 133C284-.3333435 266-69.666667 264-75 252-108.333339 228.66667-138 194-164 159.33333-190 119.66667-203.33333 75-204 41.666666-204 19-197 7-183-5-169-11.333333-153.66667-12-137-12-119-5.666667-103.666667 7-91 19.666668-78.333339 35-71.666667 53-71 64.333339-71 74-74.333339 82-81 90-87.666667 94.333339-98 95-112 95-136 84.333339-154.33333 63-167 67-167.66667 71.666667-168 77-168 99.66667-168 120.33333-158.66667 139-140 157.66667-121.33333 172-99.333339 182-74L193-32C200.33333-3.333332 209 31.333333 219 72 229 112.66667 239.66667 154.33333 251 197 262.33335 239.66667 271.33335 276.66667 278 308 284.66667 339.33335 288.33335 358.33335 289 365 289 369.66667 288.66667 373.33335 288 376Z"/>
<path transform="matrix(.0051891396,0,0,-.0051506266,51.261518,37.2928)" stroke-linecap="butt" stroke-miterlimit="4" stroke-linejoin="miter" fill="none" stroke="#000000" stroke-opacity=".0039" d="M297 596C297 616.6667 304 632.6667 318 644 332 655.3333 346.33335 661 361 661 372.33335 661 381.66667 657.6667 389 651 396.33335 644.3333 401 635 403 623 403 604.3333 396.66667 588.6667 384 576 371.33335 563.3333 356.66667 557 340 557 328 557 318 560.3333 310 567 302 573.6667 297.66667 583.3333 297 596ZM288 376C288 395.33335 279.33335 405 262 405 247.33333 405 233.33333 401 220 393 206.66667 385 195 374.66667 185 362 175 349.33335 167 337 161 325 155 313 149.33333 302.33335 144 293L137 279C135.66667 278.33335 130.33333 278 121 278H107C103 282 101 284.66667 101 286 101 287.33335 102.333339 291.66667 105 299 119 331.66667 138.66667 362.33335 164 391 189.33333 419.66667 218.66666 436.33335 252 441 252.66667 441 255.33333 441 260 441 264.66667 441 268.66667 441.33335 272 442 288 441.33335 302.66667 438 316 432 332.66667 422.66667 345.33335 412.33335 354 401 362.66667 389.66667 367 372 367 348V332L318 133C284-.3333435 266-69.666667 264-75 252-108.333339 228.66667-138 194-164 159.33333-190 119.66667-203.33333 75-204 41.666666-204 19-197 7-183-5-169-11.333333-153.66667-12-137-12-119-5.666667-103.666667 7-91 19.666668-78.333339 35-71.666667 53-71 64.333339-71 74-74.333339 82-81 90-87.666667 94.333339-98 95-112 95-136 84.333339-154.33333 63-167 67-167.66667 71.666667-168 77-168 99.66667-168 120.33333-158.66667 139-140 157.66667-121.33333 172-99.333339 182-74L193-32C200.33333-3.333332 209 31.333333 219 72 229 112.66667 239.66667 154.33333 251 197 262.33335 239.66667 271.33335 276.66667 278 308 284.66667 339.33335 288.33335 358.33335 289 365 289 369.66667 288.66667 373.33335 288 376Z"/>
<path transform="matrix(.0073396598,0,0,-.007285185,55.357049,35.201959)" d="M39 168C39 206 45.333333 240.66667 58 272 70.666667 303.33335 87 329.33335 107 350 127 370.66667 149.33333 388 174 402 198.66667 416 222 426.33335 244 433 266 439.66667 287 442.66667 307 442H310C340 442 366 434.66667 388 420 410 405.33335 421 383.66667 421 355 421 295 384 255.66667 310 237 277.33335 228.33333 232.66667 223.66667 176 223 151.33333 223 138.66667 222.33333 138 221 138 219.66667 136 208 132 186 128 164 125.666667 144.66667 125 128 125 96.666667 132 72 146 54 160 36 181 26.666666 209 26 237 25.333334 268 31.666666 302 45 336 58.333337 366.66667 80.33333 394 111 400 117.666667 404 121 406 121 408.66667 121 413 118 419 112 425 106 428.33335 101.333339 429 98 429.66667 94.666667 426.66667 89.333339 420 82 413.33335 74.666667 403.33335 65.666667 390 55 376.66667 44.333333 361.33335 34 344 24 326.66667 14 305.66667 5.666667 281-1 256.33335-7.666667 231-11 205-11 152.33333-11 111.66667 6.666664 83 42 54.333333 77.333339 39.666669 119.33333 39 168ZM373 353C369 387.66667 346.33335 405 305 405 283 405 262.66667 400.33335 244 391 225.33333 381.66667 210.33333 370.33335 199 357 187.66667 343.66667 178 330 170 316 162 302 156.66667 290 154 280 151.33333 270 149.66667 263.66667 149 261 149 260.33335 155.66667 260 169 260 244.33335 260 297 268 327 284 357 300 372.33335 323 373 353Z"/>
<path transform="matrix(.0073396598,0,0,-.007285185,55.357049,35.201959)" stroke-linecap="butt" stroke-miterlimit="4" stroke-linejoin="miter" fill="none" stroke="#000000" stroke-opacity=".0078" d="M39 168C39 206 45.333333 240.66667 58 272 70.666667 303.33335 87 329.33335 107 350 127 370.66667 149.33333 388 174 402 198.66667 416 222 426.33335 244 433 266 439.66667 287 442.66667 307 442H310C340 442 366 434.66667 388 420 410 405.33335 421 383.66667 421 355 421 295 384 255.66667 310 237 277.33335 228.33333 232.66667 223.66667 176 223 151.33333 223 138.66667 222.33333 138 221 138 219.66667 136 208 132 186 128 164 125.666667 144.66667 125 128 125 96.666667 132 72 146 54 160 36 181 26.666666 209 26 237 25.333334 268 31.666666 302 45 336 58.333337 366.66667 80.33333 394 111 400 117.666667 404 121 406 121 408.66667 121 413 118 419 112 425 106 428.33335 101.333339 429 98 429.66667 94.666667 426.66667 89.333339 420 82 413.33335 74.666667 403.33335 65.666667 390 55 376.66667 44.333333 361.33335 34 344 24 326.66667 14 305.66667 5.666667 281-1 256.33335-7.666667 231-11 205-11 152.33333-11 111.66667 6.666664 83 42 54.333333 77.333339 39.666669 119.33333 39 168ZM373 353C369 387.66667 346.33335 405 305 405 283 405 262.66667 400.33335 244 391 225.33333 381.66667 210.33333 370.33335 199 357 187.66667 343.66667 178 330 170 316 162 302 156.66667 290 154 280 151.33333 270 149.66667 263.66667 149 261 149 260.33335 155.66667 260 169 260 244.33335 260 297 268 327 284 357 300 372.33335 323 373 353Z"/>
<path transform="matrix(.0051891396,0,0,-.0051506266,58.777334,36.294736)" d="M297 596C297 616.6667 304 632.6667 318 644 332 655.3333 346.33335 661 361 661 372.33335 661 381.66667 657.6667 389 651 396.33335 644.3333 401 635 403 623 403 604.3333 396.66667 588.6667 384 576 371.33335 563.3333 356.66667 557 340 557 328 557 318 560.3333 310 567 302 573.6667 297.66667 583.3333 297 596ZM288 376C288 395.33335 279.33335 405 262 405 247.33333 405 233.33333 401 220 393 206.66667 385 195 374.66667 185 362 175 349.33335 167 337 161 325 155 313 149.33333 302.33335 144 293L137 279C135.66667 278.33335 130.33333 278 121 278H107C103 282 101 284.66667 101 286 101 287.33335 102.333339 291.66667 105 299 119 331.66667 138.66667 362.33335 164 391 189.33333 419.66667 218.66666 436.33335 252 441 252.66667 441 255.33333 441 260 441 264.66667 441 268.66667 441.33335 272 442 288 441.33335 302.66667 438 316 432 332.66667 422.66667 345.33335 412.33335 354 401 362.66667 389.66667 367 372 367 348V332L318 133C284-.3333435 266-69.666667 264-75 252-108.333339 228.66667-138 194-164 159.33333-190 119.66667-203.33333 75-204 41.666666-204 19-197 7-183-5-169-11.333333-153.66667-12-137-12-119-5.666667-103.666667 7-91 19.666668-78.333339 35-71.666667 53-71 64.333339-71 74-74.333339 82-81 90-87.666667 94.333339-98 95-112 95-136 84.333339-154.33333 63-167 67-167.66667 71.666667-168 77-168 99.66667-168 120.33333-158.66667 139-140 157.66667-121.33333 172-99.333339 182-74L193-32C200.33333-3.333332 209 31.333333 219 72 229 112.66667 239.66667 154.33333 251 197 262.33335 239.66667 271.33335 276.66667 278 308 284.66667 339.33335 288.33335 358.33335 289 365 289 369.66667 288.66667 373.33335 288 376Z"/>
<path transform="matrix(.0051891396,0,0,-.0051506266,58.777334,36.294736)" stroke-linecap="butt" stroke-miterlimit="4" stroke-linejoin="miter" fill="none" stroke="#000000" stroke-opacity=".0039" d="M297 596C297 616.6667 304 632.6667 318 644 332 655.3333 346.33335 661 361 661 372.33335 661 381.66667 657.6667 389 651 396.33335 644.3333 401 635 403 623 403 604.3333 396.66667 588.6667 384 576 371.33335 563.3333 356.66667 557 340 557 328 557 318 560.3333 310 567 302 573.6667 297.66667 583.3333 297 596ZM288 376C288 395.33335 279.33335 405 262 405 247.33333 405 233.33333 401 220 393 206.66667 385 195 374.66667 185 362 175 349.33335 167 337 161 325 155 313 149.33333 302.33335 144 293L137 279C135.66667 278.33335 130.33333 278 121 278H107C103 282 101 284.66667 101 286 101 287.33335 102.333339 291.66667 105 299 119 331.66667 138.66667 362.33335 164 391 189.33333 419.66667 218.66666 436.33335 252 441 252.66667 441 255.33333 441 260 441 264.66667 441 268.66667 441.33335 272 442 288 441.33335 302.66667 438 316 432 332.66667 422.66667 345.33335 412.33335 354 401 362.66667 389.66667 367 372 367 348V332L318 133C284-.3333435 266-69.666667 264-75 252-108.333339 228.66667-138 194-164 159.33333-190 119.66667-203.33333 75-204 41.666666-204 19-197 7-183-5-169-11.333333-153.66667-12-137-12-119-5.666667-103.666667 7-91 19.666668-78.333339 35-71.666667 53-71 64.333339-71 74-74.333339 82-81 90-87.666667 94.333339-98 95-112 95-136 84.333339-154.33333 63-167 67-167.66667 71.666667-168 77-168 99.66667-168 120.33333-158.66667 139-140 157.66667-121.33333 172-99.333339 182-74L193-32C200.33333-3.333332 209 31.333333 219 72 229 112.66667 239.66667 154.33333 251 197 262.33335 239.66667 271.33335 276.66667 278 308 284.66667 339.33335 288.33335 358.33335 289 365 289 369.66667 288.66667 373.33335 288 376Z"/>
</g>
</g>
</svg>
