<svg xmlns="http://www.w3.org/2000/svg" xmlns:xlink="http://www.w3.org/1999/xlink" width="829.44" height="186.56" viewBox="0 0 622.08 139.92"><clipPath id="a"><path transform="scale(.24)" d="M0 0h2591.667v580.581H0z" fill-rule="evenodd"/></clipPath><g clip-path="url(#a)"><path d="M0 0h622v139.34H0z" fill="#fff"/></g><clipPath id="b"><path transform="scale(.24)" d="M0 0h2591.667v577.588H0z" fill-rule="evenodd"/></clipPath><g clip-path="url(#b)"><path d="m223.044-.115 152.62.46-.582 59.025-152.907.474" fill="#fff"/><path stroke-linecap="round" stroke-linejoin="round" fill="none" stroke="#000" d="M222.297 1.077c48.567-.294 96.661-1.917 152.627 0m-152.627 0c34.303-1.465 69.44-1.386 152.627 0m0 0c-.934 15.917-.173 28.12 0 57.46m0-57.46c-.575 16.7.136 33.22 0 57.46m0 0c-49.997.1-97.236-.058-152.627 0m152.627 0c-45.508.905-90.27.812-152.627 0m0 0c.064-18.272.89-33.93 0-57.46m0 57.46c-.223-23.35.05-46.205 0-57.46" stroke-width=".71824"/><symbol id="c"><path d="M0 .717h.523V.63H.095V.412H.49V.329H.095V.085H.53V0H0v.717m.265 0z"/></symbol><symbol id="d"><path d="M.01.523h.113l.12-.184.122.184L.472.52.295.268.48 0H.367l-.13.196L.111 0H0l.184.268L.01.523z"/></symbol><symbol id="e"><path d="M.228.268c.04 0 .075.017.102.05.027.035.04.087.04.155a.288.288 0 0 1-.017.108C.33.638.288.667.228.667.167.667.125.637.103.576a.362.362 0 0 1 0-.227C.125.295.167.268.228.268M0 .729h.085v-.07a.213.213 0 0 0 .058.056c.03.02.065.03.105.03.059 0 .11-.024.15-.07C.44.632.46.566.46.482.46.368.43.286.371.237A.202.202 0 0 0 .24.191.179.179 0 0 0 .14.217a.228.228 0 0 0-.052.05V0H0v.729z"/></symbol><symbol id="f"><path d="M.247.553A.237.237 0 0 0 .435.46.233.233 0 0 0 .47.367.604.604 0 0 0 .478.252H.094A.225.225 0 0 1 .132.124C.155.092.192.076.24.076a.14.14 0 0 1 .143.107H.47A.182.182 0 0 0 .447.118a.205.205 0 0 0-.142-.11A.301.301 0 0 0 .233 0a.22.22 0 0 0-.165.07.277.277 0 0 0-.068.2.3.3 0 0 0 .068.205.226.226 0 0 0 .18.078m.14-.231a.228.228 0 0 1-.026.091C.338.455.298.477.242.477A.133.133 0 0 1 .14.433.164.164 0 0 1 .097.322h.29M.24.554z"/></symbol><symbol id="g"><path d="M.237.553A.227.227 0 0 0 .381.51C.418.482.44.432.448.362H.362a.156.156 0 0 1-.035.08C.308.464.278.475.237.475.181.475.141.447.117.393A.326.326 0 0 1 .094.26C.094.21.104.165.127.13.149.093.184.075.231.075c.037 0 .066.011.087.033A.184.184 0 0 1 .362.2h.086C.438.13.414.08.375.048A.23.23 0 0 0 .225 0 .2.2 0 0 0 .06.075.288.288 0 0 0 0 .262c0 .092.022.163.067.215a.216.216 0 0 0 .17.076M.224.551z"/></symbol><symbol id="h"><path d="M.07.677h.09V.531h.083V.46H.16V.12c0-.02.006-.031.018-.037A.079.079 0 0 1 .212.076h.014l.017.002v-.07A.293.293 0 0 0 .176 0C.136 0 .107.01.093.031A.141.141 0 0 0 .07.113V.46H0v.072h.07v.146z"/></symbol><symbol id="i"><path d="M.092.157C.092.13.102.11.12.097A.103.103 0 0 1 .186.075a.2.2 0 0 1 .09.021.12.12 0 0 1 .073.117v.07A.15.15 0 0 0 .307.268a.354.354 0 0 0-.05-.01L.204.25A.204.204 0 0 1 .132.23C.105.215.092.19.092.157m.213.177c.02.003.033.012.04.026a.077.077 0 0 1 .006.034c0 .03-.01.051-.032.064A.169.169 0 0 1 .228.48C.182.479.149.467.13.442A.122.122 0 0 1 .109.38H.027c.001.064.022.11.062.134.04.026.087.038.14.038A.285.285 0 0 0 .38.518C.417.495.437.458.437.408v-.3A.04.04 0 0 1 .442.084C.446.08.454.077.466.077A.2.2 0 0 1 .495.08V.015A.245.245 0 0 0 .463.008.228.228 0 0 0 .434.006C.404.006.382.017.368.04a.124.124 0 0 0-.015.048A.239.239 0 0 0 .165 0a.166.166 0 0 0-.12.044.148.148 0 0 0-.045.11c0 .05.015.087.045.114.03.026.07.043.12.049l.14.017m-.073.22z"/></symbol><symbol id="j"><path d="M0 .52h.09V0H0v.52m0 .197h.09v-.1H0v.1z"/></symbol><symbol id="k"><path d="M.243.076c.058 0 .098.022.12.066a.33.33 0 0 1 .033.147.262.262 0 0 1-.024.12C.347.455.305.48.244.48.19.48.151.46.127.42A.285.285 0 0 1 .09.27C.09.215.103.168.127.13.151.094.19.076.243.076m.004.481A.237.237 0 0 0 .417.49C.464.445.487.379.487.292a.34.34 0 0 0-.061-.21C.385.029.32 0 .235 0a.216.216 0 0 0-.172.073A.29.29 0 0 0 0 .269c0 .088.022.158.067.21a.225.225 0 0 0 .18.078M.244.555z"/></symbol><symbol id="l"><path d="M0 .523h.083V.449a.21.21 0 0 0 .17.086C.33.535.38.509.406.457A.276.276 0 0 0 .426.335V0h-.09v.33a.178.178 0 0 1-.013.077C.307.439.279.456.238.456A.173.173 0 0 1 .187.449.132.132 0 0 1 .123.406.132.132 0 0 1 .094.353a.37.37 0 0 1-.006-.08V0H0v.523m.207.013z"/></symbol><use xlink:href="#c" transform="matrix(17.23787 0 0 -17.23787 254.867 25.139)"/><use xlink:href="#d" transform="matrix(17.23787 0 0 -17.23787 264.985 25.139)"/><use xlink:href="#e" transform="matrix(17.23787 0 0 -17.23787 274.504 28.733)"/><use xlink:href="#f" transform="matrix(17.23787 0 0 -17.23787 283.701 25.458)"/><use xlink:href="#g" transform="matrix(17.23787 0 0 -17.23787 293.176 25.4)"/><use xlink:href="#h" transform="matrix(17.23787 0 0 -17.23787 301.492 25.282)"/><use xlink:href="#i" transform="matrix(17.23787 0 0 -17.23787 306.78 25.442)"/><use xlink:href="#h" transform="matrix(17.23787 0 0 -17.23787 315.869 25.282)"/><use xlink:href="#j" transform="matrix(17.23787 0 0 -17.23787 321.578 25.139)"/><use xlink:href="#k" transform="matrix(17.23787 0 0 -17.23787 324.79 25.467)"/><use xlink:href="#l" transform="matrix(17.23787 0 0 -17.23787 334.99 25.139)"/><symbol id="m"><path d="M.084.184A.128.128 0 0 1 .106.117C.13.088.167.074.222.074c.032 0 .06.007.086.021a.071.071 0 0 1 .037.066c0 .023-.01.04-.03.051A.354.354 0 0 1 .24.237L.17.255A.34.34 0 0 0 .07.292a.11.11 0 0 0-.056.099c0 .05.017.09.053.12s.084.046.144.046c.079 0 .135-.023.17-.07A.15.15 0 0 0 .414.393H.331a.102.102 0 0 1-.02.054C.29.47.254.48.204.48A.127.127 0 0 1 .13.462a.06.06 0 0 1-.025-.05c0-.023.011-.04.034-.055A.202.202 0 0 1 .195.336L.253.322A.45.45 0 0 0 .38.277C.415.255.432.22.432.171a.161.161 0 0 0-.054-.12C.343.017.29 0 .218 0 .138 0 .083.018.051.053A.202.202 0 0 0 0 .184h.084m.13.372z"/></symbol><symbol id="n"><path d="M0 .72h.088V.452c.02.027.04.045.056.056A.19.19 0 0 0 .25.536c.076 0 .127-.027.154-.08a.271.271 0 0 0 .022-.12V0h-.09v.33A.184.184 0 0 1 .32.414C.305.443.275.457.231.457A.15.15 0 0 1 .132.419C.102.394.088.347.088.277V0H0v.72z"/></symbol><symbol id="o"><path d="M0 .523h.087V.449c.02.025.04.044.057.056a.17.17 0 0 0 .098.03c.042 0 .075-.01.1-.031a.16.16 0 0 0 .04-.052C.402.48.424.501.45.514a.19.19 0 0 0 .089.02C.61.535.658.51.683.459a.249.249 0 0 0 .02-.11V0h-.09v.363c0 .035-.01.059-.027.072a.102.102 0 0 1-.064.02A.127.127 0 0 1 .433.42C.408.397.396.358.396.304V0h-.09v.341A.177.177 0 0 1 .295.42C.28.443.256.456.219.456A.13.13 0 0 1 .13.417C.1.391.087.345.087.277V0H0v.523z"/></symbol><use xlink:href="#m" transform="matrix(17.23787 0 0 -17.23787 264.5 46.313)"/><use xlink:href="#g" transform="matrix(17.23787 0 0 -17.23787 273.06 46.229)"/><use xlink:href="#n" transform="matrix(17.23787 0 0 -17.23787 282.293 45.968)"/><use xlink:href="#f" transform="matrix(17.23787 0 0 -17.23787 291.372 46.288)"/><use xlink:href="#o" transform="matrix(17.23787 0 0 -17.23787 301.461 45.968)"/><use xlink:href="#f" transform="matrix(17.23787 0 0 -17.23787 315.315 46.288)"/><use xlink:href="#m" transform="matrix(17.23787 0 0 -17.23787 324.849 46.313)"/><path d="m1.753 87.497 136.423.122 2.399 49.968-138.24-.007" fill="#fff" fill-opacity=".702"/><path stroke-linecap="round" stroke-linejoin="round" fill="none" stroke="#000" stroke-opacity=".702" d="M1.077 87.267c36.2.66 74.54.251 138.262 0m-138.262 0c55.593-.661 111.163-1.451 138.262 0m0 0c.008 15.73.374 32.493 0 50.277m0-50.277c-.114 12.828.345 25.72 0 50.277m0 0c-46.154 1.099-90.915.84-138.262 0m138.262 0c-43.446.122-86.045.165-138.262 0m0 0c.288-11.298-1.616-20.987 0-50.277m0 50.277c.661-10.71.08-22.1 0-50.277" stroke-width=".71824"/><symbol id="p"><path d="M0 .717h.115l.362-.58v.58H.57V0H.46L.093.58V0H0v.717m.278 0z"/></symbol><symbol id="q"><path d="m.102.523.14-.426.146.426h.096L.287 0H.193L0 .523h.102z"/></symbol><use xlink:href="#p" transform="matrix(17.23787 0 0 -17.23787 49.3 117.792)"/><use xlink:href="#i" transform="matrix(17.23787 0 0 -17.23787 61.124 118.095)"/><use xlink:href="#j" transform="matrix(17.23787 0 0 -17.23787 71.129 117.792)"/><use xlink:href="#q" transform="matrix(17.23787 0 0 -17.23787 73.937 117.792)"/><use xlink:href="#f" transform="matrix(17.23787 0 0 -17.23787 83.07 118.112)"/><path d="m316.006 86.225 138.277-.251.761 50.55-136.976-.395" fill="#fff" fill-opacity=".702"/><path stroke-linecap="round" stroke-linejoin="round" fill="none" stroke="#000" stroke-opacity=".702" d="M317.105 87.267c38.254-1.746 72.873.862 138.262 0m-138.262 0c37.313-.007 74.884.072 138.262 0m0 0c.374 19.055-.079 36.63 0 50.277m0-50.277c-.582 11.42.524 22.912 0 50.277m0 0c-41.27-.711-79.294.1-138.262 0m138.262 0c-48.208.503-97.164-.252-138.262 0m0 0c-.445-18.387.898-33.851 0-50.277m0 50.277c-.776-18.387.201-37.514 0-50.277" stroke-width=".71824"/><symbol id="r"><path d="M.582.717V.632H.34V0H.242v.632H0v.085h.582z"/></symbol><symbol id="s"><path d="M0 .523h.083v-.09a.198.198 0 0 0 .05.064.13.13 0 0 0 .101.037c.004 0 .011 0 .02-.002V.44a.13.13 0 0 1-.028.003.125.125 0 0 1-.102-.043A.148.148 0 0 1 .088.3V0H0v.523z"/></symbol><symbol id="t"><path d="M.093.274a.26.26 0 0 1 .035-.14C.152.095.19.076.243.076a.12.12 0 0 1 .1.052c.026.035.04.085.04.15 0 .067-.014.116-.041.147a.126.126 0 0 1-.1.048.133.133 0 0 1-.108-.05C.106.388.093.34.093.273M.225.55C.265.55.3.542.325.525A.236.236 0 0 0 .38.475v.263h.084v-.72H.384v.073a.19.19 0 0 0-.072-.07A.208.208 0 0 0 .215 0a.195.195 0 0 0-.151.073A.288.288 0 0 0 0 .27c0 .076.02.142.058.198.04.056.095.084.167.084z"/></symbol><symbol id="u"><path d="M0 .09h.245V0H0v.09z"/></symbol><symbol id="v"><path d="M.073.603a.157.157 0 0 0 .019.08c.02.03.06.045.118.045A.308.308 0 0 0 .248.726v-.08a.314.314 0 0 1-.032.001C.19.647.174.64.168.626A.407.407 0 0 1 .161.521h.087V.45H.16V0H.073v.451H0v.07h.073v.082z"/></symbol><symbol id="w"><path d="M0 .717h.088V0H0v.717z"/></symbol><symbol id="x"><path d="m.096.523.1-.412L.3.523h.098L.5.113l.107.41h.088L.543 0H.452L.345.405.242 0H.151L0 .523h.096z"/></symbol><symbol id="y"><path d="M.22.753a.19.19 0 0 0 .107-.03.241.241 0 0 0 .05-.05V.74h.081V.264A.35.35 0 0 0 .43.106C.393.036.324 0 .223 0A.252.252 0 0 0 .08.038C.042.063.02.103.016.156h.09A.1.1 0 0 1 .13.102c.02-.02.051-.03.094-.03.067 0 .111.025.132.072a.401.401 0 0 1 .017.15.172.172 0 0 0-.063-.06.211.211 0 0 0-.099-.02.21.21 0 0 0-.149.06C.021.316 0 .383 0 .475 0 .563.021.632.064.68a.2.2 0 0 0 .155.073M.377.485c0 .065-.013.113-.04.144a.128.128 0 0 1-.102.047.126.126 0 0 1-.127-.087A.34.34 0 0 1 .09.467C.09.408.102.363.126.333A.117.117 0 0 1 .223.287c.063 0 .107.028.133.085.014.032.021.07.021.113M.23.757z"/></symbol><use xlink:href="#r" transform="matrix(17.23787 0 0 -17.23787 327.719 117.792)"/><use xlink:href="#s" transform="matrix(17.23787 0 0 -17.23787 338.492 117.792)"/><use xlink:href="#f" transform="matrix(17.23787 0 0 -17.23787 343.686 118.112)"/><use xlink:href="#l" transform="matrix(17.23787 0 0 -17.23787 353.775 117.792)"/><use xlink:href="#t" transform="matrix(17.23787 0 0 -17.23787 362.72 118.112)"/><use xlink:href="#u" transform="matrix(17.23787 0 0 -17.23787 372.548 113.769)"/><use xlink:href="#v" transform="matrix(17.23787 0 0 -17.23787 377.808 117.792)"/><use xlink:href="#k" transform="matrix(17.23787 0 0 -17.23787 382.861 118.12)"/><use xlink:href="#w" transform="matrix(17.23787 0 0 -17.23787 393.102 117.792)"/><use xlink:href="#w" transform="matrix(17.23787 0 0 -17.23787 396.929 117.792)"/><use xlink:href="#k" transform="matrix(17.23787 0 0 -17.23787 400.1 118.12)"/><use xlink:href="#x" transform="matrix(17.23787 0 0 -17.23787 409.338 117.792)"/><use xlink:href="#j" transform="matrix(17.23787 0 0 -17.23787 422.744 117.792)"/><use xlink:href="#l" transform="matrix(17.23787 0 0 -17.23787 426.57 117.792)"/><use xlink:href="#y" transform="matrix(17.23787 0 0 -17.23787 435.557 121.605)"/><path d="m160.528 87.827 137.263-.618 1.983 51.132-138.578-.783" fill="#fff" fill-opacity=".702"/><path stroke-linecap="round" stroke-linejoin="round" fill="none" stroke="#000" stroke-opacity=".702" d="M160.528 87.267c37.435 1.487 74.087 1.364 138.262 0m-138.262 0c48.13-.69 95.347.265 138.262 0m0 0c-.259 19.514 1.343 37.887 0 50.277m0-50.277c.388 10.012-.74 20.103 0 50.277m0 0c-33.513.352-70.539-.632-138.262 0m138.262 0c-54.407.876-109.726.761-138.262 0m0 0c1.688-15.42.546-29.477 0-50.277m0 50.277c.23-16.003-.115-32.81 0-50.277" stroke-width=".71824"/><symbol id="z"><path d="M.43.294.32.61.206.294H.43M.27.717h.11L.64 0H.534L.46.215H.177L.1 0H0l.27.717z"/></symbol><use xlink:href="#z" transform="matrix(17.23787 0 0 -17.23787 196.187 117.792)"/><use xlink:href="#t" transform="matrix(17.23787 0 0 -17.23787 207.904 118.112)"/><use xlink:href="#i" transform="matrix(17.23787 0 0 -17.23787 217.707 118.095)"/><use xlink:href="#e" transform="matrix(17.23787 0 0 -17.23787 227.594 121.386)"/><use xlink:href="#h" transform="matrix(17.23787 0 0 -17.23787 236.379 117.935)"/><use xlink:href="#j" transform="matrix(17.23787 0 0 -17.23787 242.089 117.792)"/><use xlink:href="#q" transform="matrix(17.23787 0 0 -17.23787 244.897 117.792)"/><use xlink:href="#f" transform="matrix(17.23787 0 0 -17.23787 254.03 118.112)"/><path d="m483.393 86.556 136.251 1.881.338 48.848-137.307-1.178" fill="#fff" fill-opacity=".702"/><path stroke-linecap="round" stroke-linejoin="round" fill="none" stroke="#000" stroke-opacity=".702" d="M482.301 87.267c36.616-.92 72.421-.898 138.262 0m-138.262 0c29.85-1.372 59.069-.977 138.262 0m0 0c-.897 9.912-.114 21.913 0 50.277m0-50.277c-.071 18.66-.56 37.399 0 50.277m0 0c-28.629 1.408-58.917 1.501-138.262 0m138.262 0c-32.96 1.257-65.54.337-138.262 0m0 0c-.05-12.454-.811-22.23 0-50.277m0 50.277c.23-13.625.008-28.105 0-50.277" stroke-width=".71824"/><symbol id="A"><path d="M0 0z"/></symbol><use xlink:href="#z" transform="matrix(17.23787 0 0 -17.23787 495.92 107.737)"/><use xlink:href="#l" transform="matrix(17.23787 0 0 -17.23787 508.276 107.737)"/><use xlink:href="#g" transform="matrix(17.23787 0 0 -17.23787 517.246 107.998)"/><use xlink:href="#n" transform="matrix(17.23787 0 0 -17.23787 526.48 107.737)"/><use xlink:href="#k" transform="matrix(17.23787 0 0 -17.23787 535.45 108.065)"/><use xlink:href="#s" transform="matrix(17.23787 0 0 -17.23787 545.69 107.737)"/><use xlink:href="#j" transform="matrix(17.23787 0 0 -17.23787 551.388 107.737)"/><use xlink:href="#l" transform="matrix(17.23787 0 0 -17.23787 555.215 107.737)"/><use xlink:href="#y" transform="matrix(17.23787 0 0 -17.23787 564.202 111.55)"/><use xlink:href="#A" transform="matrix(17.23787 0 0 -17.23787 573.272 107.737)"/><use xlink:href="#i" transform="matrix(17.23787 0 0 -17.23787 578.755 108.04)"/><use xlink:href="#l" transform="matrix(17.23787 0 0 -17.23787 588.76 107.737)"/><use xlink:href="#t" transform="matrix(17.23787 0 0 -17.23787 597.704 108.057)"/><symbol id="B"><path d="M.17.827H.084v.101h.088V.827M0 .079c.04 0 .063.004.07.01.009.006.013.024.013.054V.73h.088V.133A.158.158 0 0 0 .152.048C.132.016.092 0 .036 0A.206.206 0 0 0 0 .002V.08z"/></symbol><symbol id="C"><path d="M.09.537V.19C.09.163.094.14.103.125.118.093.147.078.19.078.25.078.293.105.315.16c.012.029.018.07.018.12v.257h.088V.014H.338v.077a.177.177 0 0 0-.042-.05A.187.187 0 0 0 .174 0C.1 0 .05.025.022.075A.222.222 0 0 0 0 .182v.355h.09M.21.55z"/></symbol><use xlink:href="#i" transform="matrix(17.23787 0 0 -17.23787 509.78 128.869)"/><use xlink:href="#t" transform="matrix(17.23787 0 0 -17.23787 519.145 128.886)"/><use xlink:href="#B" transform="matrix(17.23787 0 0 -17.23787 527.938 132.202)"/><use xlink:href="#C" transform="matrix(17.23787 0 0 -17.23787 533.162 128.81)"/><use xlink:href="#m" transform="matrix(17.23787 0 0 -17.23787 542.225 128.91)"/><use xlink:href="#h" transform="matrix(17.23787 0 0 -17.23787 550.482 128.709)"/><use xlink:href="#o" transform="matrix(17.23787 0 0 -17.23787 556.191 128.566)"/><use xlink:href="#f" transform="matrix(17.23787 0 0 -17.23787 570.045 128.886)"/><use xlink:href="#l" transform="matrix(17.23787 0 0 -17.23787 580.135 128.566)"/><use xlink:href="#h" transform="matrix(17.23787 0 0 -17.23787 588.802 128.709)"/></g></svg>